<?xml version="1.0" encoding="utf-8"?>
<!-- Generator: Adobe Illustrator 26.2.1, SVG Export Plug-In . SVG Version: 6.00 Build 0)  -->
<svg version="1.1" id="Layer_1" xmlns="http://www.w3.org/2000/svg" xmlns:xlink="http://www.w3.org/1999/xlink" x="0px" y="0px"
	 viewBox="0 0 96 103" style="enable-background:new 0 0 96 103;" xml:space="preserve">
<g>
	<path d="M33,50c0.3,0.7,1.2,0.2,1.2-0.5c-0.9-6-4.4-12-7.9-16.9c-3.6-5-7.9-9.5-13.2-12.7c-0.5-0.3-1.1,0.4-0.6,0.8
		c4.6,4,9,8.2,12.6,13.2c1.7,2.4,3.2,5,4.5,7.6c0.1,0.3,0.3,0.5,0.4,0.8c-1.9-0.8-4.1-1.2-5.8-1.4c-0.6-0.1-0.8,1-0.1,1.1
		c1.7,0.2,3.3,0.6,4.8,1.3c0.7,0.3,1.4,0.7,2,1.1c0.1,0.1,0.1,0.3,0.2,0.4c-1.3-0.4-2.9-0.4-4.1-0.2c-0.5,0.1-0.4,1,0.1,1
		c1-0.1,2,0,3.1,0.2c0.6,0.2,1.1,0.4,1.6,0.6c0.2,0.4,0.4,0.9,0.5,1.3c-0.6-0.3-1.3-0.4-1.9-0.4c-0.6,0-0.6,0.9,0,0.9
		c1,0,1.8,0.4,2.5,0.9C32.8,49.6,32.9,49.8,33,50z"/>
	<path d="M45.2,49.8c1.7-0.6,3.4-0.9,5.1-1c0.5,0,0.5-0.8,0-0.8c-1.9-0.1-3.6,0.3-5.4,0.9C44.4,49.1,44.6,50,45.2,49.8z"/>
	<path d="M48,49.7c-0.6,0.1-0.4,1.1,0.3,0.9c3.2-0.6,6.1-0.1,9.2,0.6c0.4,0.1,0.7-0.5,0.3-0.7C54.8,49.1,51.2,49.1,48,49.7z"/>
	<path d="M53.7,51.9c1,0.2,2,0.6,2.9,1.1c0.9,0.6,1.6,1.4,2.4,2c0.3,0.2,0.7-0.1,0.5-0.4c-1-2-3.6-3.1-5.7-3.5
		C53.3,51,53.1,51.8,53.7,51.9z"/>
	<path d="M56.8,53.8c-0.5-0.4-1.1,0.2-0.7,0.7c0.8,0.8,1.4,1.6,2,2.5c0.5,0.8,0.8,1.7,1.4,2.4c0.3,0.4,0.9,0,0.8-0.5
		c-0.2-1-0.9-2-1.5-2.8C58.3,55.3,57.6,54.5,56.8,53.8z"/>
	<path d="M32.6,61.3c1.1-0.5,2.2-0.6,3.4-0.6c0.5,0,0.5-0.7,0-0.8c-1.2-0.1-2.5,0.2-3.7,0.7C31.9,60.8,32.2,61.4,32.6,61.3z"/>
	<path d="M35.9,62.3c0.3-0.1,0.4-0.6,0-0.7c-1.6-0.3-3.6,0.7-4.8,1.6c-0.4,0.3,0,0.9,0.4,0.6c0.7-0.4,1.5-0.8,2.3-1
		C34.4,62.6,35.2,62.5,35.9,62.3z"/>
	<path d="M35.6,63.2c-0.2,0-0.4,0-0.5,0c-0.2,0-0.3,0.2-0.3,0.3c0,0.2,0.1,0.3,0.3,0.3c0.2,0,0.4,0,0.5,0c0.2,0,0.3-0.1,0.3-0.3
		C35.9,63.4,35.8,63.2,35.6,63.2z"/>
	<path d="M48,68.1c0.5,0.4,1.2-0.1,0.9-0.7c-0.1-0.2-0.3-0.5-0.4-0.7c4.9-1.6,10.1-2.8,15.1-3.4c0.6-0.1,0.6-1,0-1
		c-3.5,0.3-7,1-10.5,1.8c-0.8,0.2-1.5,0.4-2.3,0.6c0.3-0.3,0.6-0.6,0.9-1c0.5,0.2,1.3,0,1.3-0.8c-0.1-3.3-1.9-6.3-4.8-7.8
		c-3.7-1.8-8,0.3-11.5-1.6c-0.1,0-0.1-0.1-0.2-0.1c-0.4-0.2-1.1,0.2-0.9,0.7c0.7,1.9,1.7,3.5,3.1,4.9c-0.1,0-0.1,0-0.2-0.1
		c-0.5-0.2-0.9,0.7-0.4,0.9c3,1.6,5.4,3.7,7.7,5.9c0,0.1,0.1,0.3,0.2,0.4c-1,0.4-1.9,0.8-2.9,1.4c-0.4,0.2-0.1,1,0.3,0.8
		c1.2-0.5,2.4-0.9,3.6-1.3C47.4,67.5,47.7,67.8,48,68.1z M51.1,62.1c0,0-0.1,0.1-0.1,0.1c-0.8,1.3-2.6,2.3-4.1,2.5
		c-0.3-0.3-0.6-0.6-0.9-0.8c1-0.9,1.9-1.9,2.1-3.3c0.2-1.3-0.1-2.6-0.7-3.7C49.4,57.9,50.8,59.8,51.1,62.1z M44.4,58.3
		c0,0.8-0.5,1.6-1.5,1.6c-0.7-0.1-1.3-0.7-1.3-1.5s0.6-1.4,1.3-1.5C43.8,56.7,44.4,57.5,44.4,58.3z M41,57.1c0,0.4-0.2,0.7-0.7,0.7
		c-0.3,0-0.6-0.3-0.6-0.7c0-0.4,0.3-0.6,0.6-0.7C40.7,56.4,41,56.7,41,57.1z M37.6,55.6C37.6,55.6,37.6,55.6,37.6,55.6
		C37.6,55.6,37.6,55.6,37.6,55.6C37.6,55.6,37.6,55.6,37.6,55.6z"/>
	<path d="M72.2,52.5c-0.4-1.2-0.6-2.3-0.9-3.5c-0.1-0.4-0.7-0.3-0.7,0.1c0,1.2,0.4,2.5,0.8,3.7C71.6,53.2,72.4,52.9,72.2,52.5z"/>
	<path d="M69.3,50.8c0.2,0.7,1.1,0.4,1-0.3c-0.1-0.5-0.2-0.9-0.3-1.4c-0.1-0.4-0.2-0.8-0.5-1.2c-0.2-0.2-0.5-0.1-0.6,0.2
		c-0.2,0.4,0,0.8,0.1,1.3C69.1,49.9,69.2,50.3,69.3,50.8z"/>
	<path d="M76.4,69.9c-0.9,0.7-1.7,1.1-2.9,0.6c-0.7-0.3-1.3-0.7-2-1.1c0.6-2.4,0.5-5,0.2-7.5c0.9-0.1,1.6-1.5,1.9-2.2
		c0,0,0-0.1,0-0.1c0.4-0.3,0.8-0.7,0.9-1.2c0.2-0.7-0.5-1.1-1.1-0.9c-0.8,0.4-1.2,0.9-2.2,1c-1.1,0.1-2.1-0.1-3.2-0.3
		c-0.9-0.2-1.3,1.1-0.4,1.4c0.2,0.1,0.4,0.1,0.6,0.2c0,0.1,0.1,0.2,0.2,0.3c0.6,0.4,1.2,0.8,1.8,1.2c0.1,0.1,0.3,0.2,0.4,0.3
		c0,0.1,0,0.1,0,0.2C71,66.6,71,72.1,65.5,74c-2,0.7-4.2,0.9-6.2,0.9c-1.1,0-2.2-0.2-3.2-0.5c-0.9-0.3-1.7-0.7-2.7-0.9
		c-0.5-0.1-0.6,0.5-0.3,0.8c1.4,1.7,4.5,2,6.5,2c2.5,0,5.3-0.4,7.5-1.5c0.7-0.4,1.4-0.8,1.9-1.3c0.6,0.1,1.9,0.4,2.6,0
		c0.6-0.3,1.3-1.2,1.8-1.7c0.2,0.1,0.4,0.1,0.6,0.2c1.3,0.3,2.2-0.4,3-1.3C77.3,70.3,76.9,69.5,76.4,69.9z"/>
	<path d="M49.1,38.9c0.8-0.1,1.5-0.1,2.3,0c0.7,0.1,1.4,0.3,2.1,0.1c0.5-0.1,0.5-0.8,0.1-1.1c-0.6-0.4-1.5-0.4-2.3-0.4
		c-0.8,0-1.6,0.1-2.4,0.2C48.3,37.9,48.5,38.9,49.1,38.9z"/>
	<path d="M82.2,63.9c-0.1,0-0.2,0-0.2,0c0-1.6-0.3-3.2-0.9-4.6c1.5-0.5,3-0.8,4.6-1.3c0.4-0.1,0.2-0.7-0.2-0.7
		c-1.6,0.3-3.2,0.7-4.7,1.2c0,0,0-0.1,0-0.1c-1-1.7-2.4-2.9-4-4.1c0.4-0.2,0.6-0.7,0.3-1.2c-1.5-3.1-3.6-5.6-6.1-7.8
		c0.5-0.3,0.7-1.2,0.3-1.7c-2.1-2.4-5.1-4.5-8.3-5.7c2.6-5.3,3.9-11.2,3.6-17.1c-0.2-3.5-0.6-7.1,0.9-10.3c1.1-2.3,2.7-4.5,2.7-7.2
		c0-2.3-1.6-3.8-3.9-3c-2.3,0.8-4.4,3.2-6.1,4.9c-3.9,3.9-7.1,8.3-9.5,13.2c-2.7,5.3-4.4,10.9-4.8,16.7c-0.5,0.2-1.1,0.5-1.6,0.7
		c0.3-0.5-0.2-1.3-0.9-1.1c-2.1,0.7-4.1,2.2-5.4,4C34.1,26,25.2,14.5,12,10.2C10.4,9.6,8.7,9.2,7,9C5.4,8.7,3.2,8.2,1.7,8.8
		c-1.3,0.5-1.8,1.7-1.7,3c0.2,1.7,1.8,2.7,2.8,4.1c2.2,3.2,2.7,7.3,3.7,11.1c1,3.7,2.4,7.2,4.5,10.5c2.3,3.7,5.3,6.8,8.6,9.6
		c2.2,1.9,4.3,3.8,6.3,5.8c0,3,0.2,5.9,0,8.9c-0.2,3.2-1.1,6.3-2.5,9.2c-0.4,0.7,0.2,1.8,1.1,1.5c0.2-0.1,0.4-0.1,0.6-0.2
		c-1.2,2.4-1.3,5.3-0.3,7.9c0.3,0.8,1.5,1,1.8,0c0-0.1,0.1-0.2,0.1-0.3c0.6,1.3,1.5,2.4,2.8,3.2c0.6,0.4,1.3-0.1,1.3-0.8
		c0-0.2,0-0.5,0-0.7c5.9,4.1,12.9,6.3,20,7.1c5,0.5,12.7,0.1,15.8-4.6c1.9-0.8,3.5-2.4,4.9-3.8c1.8-1.7,3.5-3.4,5.1-5.2
		c2.2-2.5,4.1-5.3,4-8.5c0.4,0.2,0.9,0,1-0.5c0.1-0.4,0.1-0.9,0.2-1.3c0.1,0,0.2,0,0.3,0C82.6,64.6,82.6,63.9,82.2,63.9z M74.1,75
		c-1.3,1.3-2.6,2.5-3.9,3.8c-0.7,0.7-1.6,1.3-2.4,2c-0.3-0.6-1.2-0.7-1.6-0.1c-1.8,2.8-3.9,4.6-7.1,5.4c-3.3,0.8-6.8,0.5-10.1,0
		c-6.6-1-12.7-3.5-18.6-6.5c-0.6-0.3-1,0.2-0.9,0.7c0,0-0.1,0.1-0.1,0.1c-0.1,0.1-0.1,0.2-0.1,0.3c-0.7-0.6-1.3-1.4-1.8-2.3
		c0-0.2-0.1-0.3-0.2-0.5c0-0.1-0.1-0.1-0.1-0.2c-0.1-0.4-0.7-0.4-0.9-0.2c-0.1,0-0.1,0-0.2,0.1c-0.3-2,0.1-4.1,1.2-6
		c0.1-0.1,0.1-0.3,0.1-0.4c0.4-0.6,0-1.7-1-1.5c-0.1,0-0.3,0.1-0.4,0.1c1.8-5,2.1-10.2,1.4-15.4c0.6,0.7,1.3,1.3,1.9,2
		c0.8,0.9,2.3-0.3,1.6-1.3c-3.5-5.7-9.8-9.2-14.3-14.1c-2.4-2.6-4.4-5.6-5.9-8.8c-1.5-3.2-2.2-6.5-3-9.9c-0.7-3-1.7-6.1-3.6-8.6
		c-0.2-0.3-0.5-0.6-0.7-0.9c-0.5-0.6-0.9-0.6-0.4-1.4c0.5-0.8,1.4-0.5,2.3-0.4c1.7,0.2,3.4,0.5,5,1c6.6,1.9,12.5,6,16.9,11.2
		c5.1,6,8.3,13.8,10,21.5c0.3,1.2,2,0.7,1.8-0.5c-0.2-1.2-0.5-2.4-0.8-3.6c0.7-0.8,1.3-1.6,2.1-2.3c0.6-0.5,1.2-0.9,1.8-1.3
		c-0.1,0.1-0.3,0.2-0.4,0.3c-0.7,0.6,0.2,1.6,0.9,1.2c2.9-1.5,5.5-2.1,8.7-2.5c1.2-0.1,1.2-1.7,0-1.9c-1.4-0.1-2.8,0-4.1,0.4
		C49.8,23.3,54.9,12.8,63.7,5c0.7-0.6,3.1-3.3,4-2c0.7,1-1.1,3.9-1.6,4.7c-1.5,2.9-2.2,5.7-2.2,9c0.1,3.7,0.5,7.2-0.1,10.9
		c-0.5,3.4-1.6,6.6-3.2,9.6c-1.5-0.3-3-0.4-4.5-0.2c-0.6,0.1-0.4,0.9,0,1c2.5,0.8,5,1.4,7.3,2.6c1.6,0.8,3.1,1.8,4.5,3
		c-0.4,0.2-0.6,0.8-0.2,1.1c2.9,2.3,5.2,5.1,7,8.3c0,0.2,0,0.4,0.1,0.5c0,0.1,0.1,0.1,0.1,0.2c-0.3,0.2-0.5,0.7-0.2,1
		c1.5,1.2,3.1,2.5,4.1,4.2c0.1,0.1,0.1,0.2,0.2,0.3c-0.8,0.3-1.5,0.6-2.2,0.9c-0.4,0.2-0.1,0.8,0.4,0.6c0.7-0.3,1.5-0.6,2.2-0.8
		c0.5,1.2,0.6,2.5,0.7,3.8c-0.2-0.1-0.5,0-0.7,0.2c-0.8,0-1.5,0-2.3-0.1c-0.4,0-0.4,0.6,0,0.6c0.7,0,1.5,0.1,2.2,0.1
		C79.9,68.7,76.9,72.2,74.1,75z"/>
	<path d="M61.3,67.7c-2.6,0.9-5.2,1.9-7.6,3.3c-0.4,0.2-0.1,0.9,0.3,0.7c2.5-1.1,5-2.2,7.5-3.2C62,68.3,61.8,67.5,61.3,67.7z"/>
	<path d="M36.7,69.5c-1.8-0.2-3.6,0.8-4.8,2c-0.3,0.3,0.1,0.7,0.4,0.4c1.3-1.2,2.8-1.6,4.4-2C37,69.8,36.9,69.5,36.7,69.5z"/>
	<path d="M35.9,70.8c-0.8,0.3-1.4,0.9-1.8,1.6c-0.3,0.4,0.4,0.8,0.7,0.4c0.4-0.6,0.9-1.1,1.5-1.5C36.4,71.1,36.2,70.7,35.9,70.8z"/>
	<path d="M37.7,71.4c-0.7,0.2-1.1,0.8-1.4,1.5c-0.1,0.2,0.1,0.5,0.3,0.6c0.3,0.1,0.5-0.1,0.6-0.3c0.2-0.5,0.5-0.8,0.9-1.1
		C38.4,71.8,38.1,71.3,37.7,71.4z"/>
	<path d="M54.3,83.5c-2.1-1.2-3.6-2.9-5.1-4.8c-0.2-0.3-0.7,0.1-0.5,0.4c1.1,2.2,3.2,3.8,5.4,4.8C54.3,84,54.5,83.7,54.3,83.5z"/>
	<path d="M49.7,82c-1.2-1-2.1-2.3-2.8-3.7c-0.2-0.4-0.8-0.1-0.7,0.3c0.5,1.8,1.6,3.1,3,4.2C49.7,83.2,50.2,82.4,49.7,82z"/>
	<path d="M46.6,80.2c-0.9-0.6-1.7-1.4-2.4-2.2c-0.3-0.3-0.7,0.1-0.5,0.4c0.5,1.1,1.5,1.9,2.5,2.6C46.7,81.4,47.1,80.6,46.6,80.2z"/>
	<path d="M42.9,79c-0.6-0.4-1.2-1-1.7-1.5c-0.3-0.3-0.8,0.1-0.5,0.4c0.5,0.7,1.1,1.3,1.8,1.8C42.9,80,43.3,79.3,42.9,79z"/>
	<path d="M58.7,83.7c-1.1-0.3-2-0.6-2.9-1.3c-0.4-0.3-0.9,0.2-0.5,0.5c1,0.8,2.1,1.3,3.3,1.4C59,84.3,59.1,83.8,58.7,83.7z"/>
	<path d="M5.5,54.8l-0.2,1.7l7.1-2.6L6,50l-0.2,1.7L7,52.4l-0.2,2L5.5,54.8z M7.9,54.2l0.1-1.4l1.5,0.9L7.9,54.2z"/>
	<polygon points="13.4,69.5 13.1,68.1 9.6,68.9 12.4,63.8 5.9,65.3 6.2,66.7 9.7,65.9 6.9,71 	"/>
	<rect x="10.8" y="77.8" transform="matrix(0.87 -0.4931 0.4931 0.87 -36.9263 17.1219)" width="6.4" height="1.5"/>
	<polygon points="22.1,84 16.8,88.1 18,89.2 20.5,87.1 19.9,90.2 23,89.5 21,92.1 22.2,93.2 26,87.7 21.4,88.6 	"/>
	<path d="M29.2,97.8l1.6,0.7l1-0.9l1.8,0.8l0,1.4l1.6,0.7L35,93L29.2,97.8z M33.9,97.3l-1.3-0.6l1.3-1.2L33.9,97.3z"/>
	<polygon points="45.9,96.4 44.4,96.2 43.7,102.5 47.7,103 47.9,101.7 45.4,101.4 	"/>
	<polygon points="57.6,101.2 57.3,99.7 59.8,99.3 59.6,98.1 57.1,98.5 56.9,97.4 59.6,96.9 59.4,95.7 56.2,96.2 56.2,96.2 
		55.3,96.4 56.4,102.7 57.4,102.5 57.4,102.5 60.5,102 60.3,100.7 	"/>
	<path d="M72.1,94.7c-0.2-0.1-0.4-0.3-0.6-0.3c-0.2-0.1-0.4-0.1-0.6-0.1c-0.2,0-0.5,0-0.7,0c-0.3,0-0.6,0.1-0.8,0.1
		c-0.2,0-0.4,0-0.6,0c-0.1,0-0.3-0.1-0.3-0.3c-0.1-0.1-0.1-0.3,0-0.4c0.1-0.1,0.2-0.3,0.4-0.4c0.1-0.1,0.3-0.1,0.4-0.1
		c0.2,0,0.3,0,0.5,0.1c0.2,0,0.3,0.1,0.5,0.2l0.7-1.1c-0.2-0.1-0.4-0.3-0.7-0.4c-0.3-0.1-0.6-0.1-0.9-0.1c-0.3,0-0.7,0.1-1.1,0.3
		c-0.4,0.2-0.7,0.4-0.9,0.7s-0.4,0.6-0.4,0.9c0,0.3,0,0.7,0.2,1c0.1,0.3,0.3,0.5,0.5,0.6c0.2,0.1,0.4,0.2,0.6,0.3
		c0.2,0.1,0.4,0.1,0.7,0.1c0.2,0,0.4,0,0.6,0c0.3,0,0.6-0.1,0.8-0.1c0.2,0,0.4,0,0.5,0.1c0.1,0.1,0.2,0.1,0.3,0.3
		c0.1,0.2,0.1,0.3,0,0.5c-0.1,0.2-0.2,0.3-0.4,0.4c-0.2,0.1-0.4,0.1-0.6,0.2c-0.2,0-0.4,0-0.6-0.1c-0.2-0.1-0.4-0.2-0.7-0.3
		l-0.6,1.2c0.3,0.2,0.6,0.4,0.9,0.5c0.3,0.1,0.7,0.1,1.1,0.1c0.4,0,0.8-0.1,1.1-0.3c0.3-0.1,0.5-0.3,0.7-0.5
		c0.2-0.2,0.4-0.4,0.5-0.7c0.1-0.3,0.2-0.5,0.2-0.8c0-0.3-0.1-0.6-0.2-0.9C72.4,95,72.2,94.9,72.1,94.7z"/>
	<path d="M78.4,87.3c-0.2,0-0.4,0.1-0.6,0.2c-0.2,0.2-0.3,0.4-0.3,0.6c0,0.2,0.1,0.4,0.2,0.6c0.2,0.2,0.3,0.3,0.6,0.3
		c0.2,0,0.4-0.1,0.6-0.2c0.2-0.2,0.3-0.4,0.3-0.6c0-0.2-0.1-0.4-0.2-0.6C78.8,87.4,78.6,87.3,78.4,87.3z"/>
	<polygon points="87.3,81.6 83,78.9 82.2,80.2 87.6,83.6 89.8,80.2 88.7,79.5 	"/>
	<rect x="89.6" y="67.5" transform="matrix(0.3032 -0.9529 0.9529 0.3032 -4.3241 135.3801)" width="1.5" height="6.4"/>
	<path d="M95.4,58.1c-0.1-0.4-0.3-0.7-0.5-0.9c-0.3-0.2-0.6-0.3-1-0.3c-0.3,0-0.6,0.1-0.8,0.2c-0.2,0.1-0.4,0.3-0.6,0.5
		c-0.1,0.2-0.2,0.3-0.3,0.5c-0.1-0.3-0.3-0.5-0.5-0.7c-0.2-0.2-0.5-0.3-0.8-0.3c-0.4,0-0.7,0.1-0.9,0.3c-0.2,0.2-0.4,0.4-0.6,0.8
		c-0.1,0.3-0.2,0.7-0.2,1.2l-0.1,2.3l6.4,0.2l0.1-2.5C95.6,58.9,95.5,58.4,95.4,58.1z M90.4,59.5c0-0.3,0.1-0.5,0.2-0.6
		c0.1-0.1,0.3-0.2,0.5-0.2c0.1,0,0.3,0,0.4,0.1c0.1,0.1,0.2,0.2,0.2,0.3c0.1,0.1,0.1,0.3,0.1,0.4l0,0.6l-1.3,0L90.4,59.5z
		 M94.3,60.3l-1.6-0.1l0-0.8c0-0.1,0-0.3,0.1-0.4c0-0.1,0.1-0.2,0.1-0.3c0.1-0.1,0.1-0.2,0.2-0.2c0.1-0.1,0.2-0.1,0.3-0.1
		c0.2,0,0.4,0.1,0.5,0.2c0.1,0.1,0.2,0.2,0.2,0.4c0,0.2,0.1,0.3,0.1,0.5L94.3,60.3z"/>
	<path d="M88.1,45.1c-0.3,0.3-0.4,0.6-0.5,1c-0.1,0.4,0,0.9,0.1,1.4l0.2,0.7l0,0l0.4,1.5l6.1-1.7l-0.4-1.5L92,47l-0.1-0.4l1.8-1.9
		L93.1,43l-1.9,2.2c0,0-0.1-0.1-0.1-0.1c-0.3-0.3-0.6-0.5-0.9-0.6c-0.4-0.1-0.7-0.1-1.1,0C88.7,44.6,88.4,44.8,88.1,45.1z M89.6,46
		c0.2,0,0.3-0.1,0.5,0c0.1,0,0.3,0.1,0.4,0.2c0.1,0.1,0.2,0.3,0.2,0.5l0.2,0.6l-1.6,0.4L89,47.2C89,47,89,46.8,89,46.6
		c0-0.2,0.1-0.3,0.2-0.4S89.4,46,89.6,46z"/>
	<polygon points="83.5,37.7 84.1,38.6 89.4,35.1 88.9,34.3 88.9,34.3 87.1,31.6 86.1,32.3 87.6,34.6 86.3,35.4 84.9,33.2 83.9,33.9 
		85.3,36.1 84.3,36.7 82.9,34.4 81.8,35.1 83.5,37.7 	"/>
	<path d="M74.4,27.4c0.1,0.3,0.4,0.6,0.7,0.9c0.3,0.3,0.6,0.4,1,0.5c0.3,0.1,0.7,0.1,1,0c0.3-0.1,0.6-0.3,0.8-0.6
		c0.2-0.2,0.3-0.5,0.4-0.7c0.1-0.2,0.1-0.5,0-0.7c0-0.2-0.1-0.4-0.2-0.6c-0.1-0.2-0.2-0.4-0.3-0.5c-0.2-0.3-0.3-0.5-0.4-0.7
		c-0.1-0.2-0.1-0.3-0.1-0.5c0-0.1,0.1-0.3,0.2-0.4c0.1-0.1,0.3-0.2,0.5-0.2c0.2,0,0.4,0.1,0.5,0.2c0.2,0.1,0.3,0.3,0.4,0.5
		c0.1,0.2,0.1,0.4,0.1,0.6c0,0.2,0,0.5-0.1,0.7l1.3,0.1c0.1-0.3,0.1-0.7,0.1-1c0-0.4-0.1-0.7-0.3-1c-0.2-0.3-0.4-0.6-0.7-0.9
		c-0.2-0.2-0.5-0.3-0.7-0.4c-0.3-0.1-0.5-0.2-0.8-0.2c-0.3,0-0.5,0-0.8,0.2s-0.5,0.3-0.7,0.5c-0.2,0.2-0.3,0.4-0.4,0.6
		c-0.1,0.2-0.1,0.4-0.1,0.6c0,0.2,0.1,0.4,0.1,0.6c0.1,0.2,0.2,0.4,0.3,0.6c0.2,0.3,0.3,0.5,0.4,0.7c0.1,0.2,0.2,0.4,0.2,0.5
		s0,0.3-0.1,0.4c-0.1,0.1-0.2,0.2-0.4,0.2c-0.1,0-0.3-0.1-0.5-0.2c-0.1-0.1-0.2-0.2-0.3-0.4c-0.1-0.1-0.1-0.3-0.1-0.5
		c0-0.2,0-0.3,0-0.5l-1.3-0.2c-0.1,0.2-0.1,0.5-0.1,0.8C74.2,26.8,74.3,27.1,74.4,27.4z"/>
</g>
</svg>
