<?xml version="1.0" encoding="UTF-8"?>
<svg width="126px" height="97px" viewBox="0 0 126 97" version="1.1" xmlns="http://www.w3.org/2000/svg" xmlns:xlink="http://www.w3.org/1999/xlink">
    <title>Group 16</title>
    <defs>
        <polygon id="path-1" points="0 0 125.180177 0 125.180177 96 0 96"></polygon>
    </defs>
    <g id="lg-1400px" stroke="none" stroke-width="1" fill="none" fill-rule="evenodd">
        <g id="proyectos" transform="translate(-216.000000, -1259.000000)">
            <g id="Group-7-Copy-2" transform="translate(168.000000, 1226.283753)">
                <g id="Group-16" transform="translate(48.000000, 32.900000)">
                    <path d="M76.5704717,49.7307985 C75.1251622,49.9430832 74.1795303,51.6575301 74.577499,54.3682025 C74.974946,57.0783533 76.3733129,58.4490763 77.8186224,58.2373131 C79.2639319,58.0245068 80.2095638,56.31006 79.8115951,53.5999092 C79.4136265,50.8897583 78.0157812,49.5190354 76.5704717,49.7307985" id="Fill-1" fill="#000000"></path>
                    <path d="M52.7823783,60.3234408 C54.2276877,60.1111561 55.1733197,58.3967092 54.775351,55.6860368 C54.377904,52.975886 52.9795371,51.605163 51.5342276,51.8169262 C50.0889181,52.0297325 49.1432862,53.7441793 49.5412549,56.4543302 C49.9392235,59.164481 51.3370688,60.5352039 52.7823783,60.3234408" id="Fill-3" fill="#000000"></path>
                    <path d="M73.0131119,45.5866566 C74.9288902,45.2544075 80.3601451,44.7719423 82.4626505,46.5020366 C82.8303673,46.8045554 83.3441276,46.8134223 83.7170602,46.5552382 C83.7958194,46.5020366 83.8683196,46.436317 83.9314313,46.3591226 C84.2970617,45.914733 83.836503,44.6118159 83.3910702,44.2456639 C80.1828065,41.6043622 73.4585447,43.3918308 72.6568699,43.5310937 C72.0893865,43.6281084 71.7081085,44.1684695 71.8066879,44.7369961 C71.9057889,45.303958 72.4451068,45.6847144 73.0131119,45.5866566" id="Fill-5" fill="#000000"></path>
                    <path d="M55.7198355,47.6729929 C56.2873189,47.7710507 56.8271584,47.3902943 56.9262594,46.8233324 C57.0248388,46.2548058 56.6430393,45.7144447 56.0760774,45.61743 C55.2744027,45.4781671 48.5501408,43.6906985 45.3413556,46.3320002 C44.8959228,46.6981522 44.4358856,48.0010692 44.8015161,48.4454589 C44.8646277,48.5226533 44.9371279,48.5883729 45.0153655,48.6415745 C45.3888197,48.8997586 45.90258,48.8908917 46.2702968,48.5883729 C48.3722806,46.8582785 53.8040572,47.3407438 55.7198355,47.6729929" id="Fill-7" fill="#000000"></path>
                    <path d="M64.4141204,65.68037 C64.5017465,65.7033197 64.5893726,65.7137514 64.6759556,65.7137514 C65.1365143,65.7137514 65.5589974,65.404452 65.6857423,64.9391991 C65.7222532,64.8056735 66.0764088,63.6331525 67.2843975,63.6331525 C68.7589157,63.6331525 69.5204284,64.697184 69.5459861,64.7336949 C69.8651955,65.2125091 70.5119598,65.3429051 70.9923387,65.0226525 C71.4716745,64.7034431 71.6010273,64.0556356 71.2818179,63.5762999 C71.2270515,63.493368 69.8990985,61.0252322 67.2843975,61.0252322 C64.9899492,61.0252322 63.9128781,63.4286916 63.6646041,64.4233524 C63.5258627,64.9783179 63.8607197,65.5358912 64.4141204,65.68037" id="Fill-9" fill="#000000"></path>
                    <path d="M79.2273167,75.2614522 C78.9706973,75.5561472 78.6728728,75.6735036 78.2942028,75.63282 C77.2333008,75.5170284 76.8676703,74.2568812 76.7409254,73.3722747 C77.0032822,73.4291273 77.2687685,73.4833721 77.5441649,73.5292715 C78.4282499,73.6758366 79.2054101,73.6080307 79.8892068,73.4499907 C79.8214009,74.0320785 79.6331091,74.7946344 79.2273167,75.2614522 M72.9505739,81.5840943 C72.8994587,80.4689475 73.0225525,78.961048 73.7084356,78.7320726 C74.4318727,78.4911007 75.6768939,79.0617137 76.6340007,79.6735318 C75.5929188,80.4021848 74.3645884,81.0807657 72.9505739,81.5840943 M69.3709424,71.9905984 C71.3185374,72.0380626 72.7680195,72.3431893 74.0944078,72.6900427 C74.1622137,73.0134248 74.4376101,74.5614863 73.7308637,75.4638268 C73.3683628,75.9259503 72.7951419,76.1512746 71.9788628,76.1512746 C69.445529,76.1512746 69.3725072,72.1434226 69.3709424,71.9905984 M68.7972,82.4118482 C68.0987989,82.4467943 67.4332576,82.4353195 66.7833639,82.4024597 C66.8329143,81.672242 66.9810442,80.7219158 67.2783471,80.049594 C67.3967467,79.8430467 67.5167111,79.6531901 67.6356322,79.4810673 C67.7373411,79.3751857 67.847917,79.2948618 67.9710108,79.2536567 C68.5958685,79.0523252 70.0239657,80.474685 71.145893,82.0962899 C70.4031573,82.2564162 69.6233891,82.3706431 68.7972,82.4118482 M63.5010353,73.3727962 C64.7528371,72.7354205 66.0009877,72.2654733 67.4275202,72.0750951 C67.6617114,73.0911408 67.9021617,74.8713073 67.2856493,75.6985396 C67.0556307,76.007839 66.7233817,76.1512746 66.241438,76.1512746 C64.4075484,76.1512746 63.7393992,74.4357846 63.5010353,73.3727962 M61.0417664,81.1835177 C61.0876658,80.8710889 61.278044,80.3239472 62.0687654,80.3239472 C63.1369696,80.3239472 63.8614499,81.2857482 64.2875841,82.1129805 C63.1030666,81.8918289 62.0207797,81.5710547 61.0417664,81.1835177 M57.9153915,76.5101244 C58.2387736,76.3771205 58.5751953,76.2190805 58.9350883,76.0135764 C59.5682914,75.6521186 60.170721,75.2901393 60.7548951,74.9391132 C61.0193383,74.7800301 61.2770008,74.6256412 61.5315338,74.4743818 C61.7052213,75.4064525 61.8126676,76.6452147 61.4303465,77.3164934 C61.30308,77.5412961 61.1340868,77.6727353 60.8988524,77.7316743 C59.7852704,78.0065491 58.6184868,77.1621045 57.9153915,76.5101244 M81.0919797,70.753401 C80.218848,71.1946612 78.7041678,71.1732762 77.3663047,70.9495166 C76.5500256,70.8139048 75.7728653,70.6016201 74.9498057,70.3773389 C73.2197113,69.9053053 71.2590768,69.3706817 68.3277743,69.3706817 C64.5817575,69.3706817 62.4688204,71.4747518 59.680432,73.1506014 C59.1087758,73.4943253 58.5193858,73.8484809 57.8997439,74.2026365 C56.0538579,75.2572795 55.1650786,74.8723504 54.5162281,74.5917382 C53.4438512,74.1290931 52.6885975,74.3210361 52.2682007,75.1633944 C51.9714194,75.756957 52.1372831,76.5215993 52.7767452,77.4995694 C54.4093033,79.9995219 59.5740288,84.5237421 67.7686362,84.5237421 C68.140004,84.5237421 68.5176309,84.5143536 68.9009952,84.495055 C77.1832287,84.0809172 82.7010666,77.6148395 84.2340022,73.6361962 C84.7717554,72.2399156 84.7581942,71.2859384 84.1912323,70.7194981 C83.1731002,69.7018875 81.9698057,70.3100546 81.0919797,70.753401" id="Fill-11" fill="#000000"></path>
                    <g id="Group-15">
                        <mask id="mask-2" fill="white">
                            <use xlink:href="#path-1"></use>
                        </mask>
                        <g id="Clip-14"></g>
                        <path d="M99.1009738,65.7195931 C97.7766718,69.3607716 95.5083027,70.1650542 94.0264823,70.2672847 C93.9795398,65.532866 93.3666785,62.9943164 93.3322539,62.8587045 C93.192991,62.300088 92.6270723,61.9626231 92.0694989,62.1003213 C91.5103608,62.238541 91.170288,62.8044598 91.3079862,63.3630763 C91.3178963,63.4037599 92.3031686,67.5086265 91.8014047,75.0387358 C91.1989751,84.0783093 81.5350654,86.5125422 81.1251003,86.6116432 C80.9039487,86.6638016 80.7047035,86.7889818 80.5602248,86.964234 C80.5158901,87.0184787 76.0573895,92.3683666 70.3272668,92.845616 C64.5966226,93.3192143 57.0889415,86.9021655 57.014355,86.8374891 C56.8239768,86.6737117 56.5814402,86.582956 56.3310798,86.582956 C56.2674466,86.582956 49.8916029,86.526625 44.5151143,81.6388606 C39.2106042,76.8162943 39.6341305,65.3581354 39.6393463,65.2428653 C39.6638608,64.6670365 39.2173848,64.1809201 38.6420776,64.1558841 C38.0740725,64.1444092 37.5801324,64.577324 37.5550964,65.1526313 C37.5436215,65.4082075 37.425222,68.5596184 38.0683351,72.3296281 C36.9688359,71.8028282 35.4322492,70.9844628 33.9029647,69.8922657 C30.2518762,67.2843454 28.1655399,61.5469206 31.2950444,57.8958321 C32.4440941,56.5558826 33.5921006,56.6236885 34.5862399,57.2428088 C34.488182,57.5312448 34.4245488,57.8353283 34.4245488,58.1566241 C34.4245488,59.7406749 35.7092104,61.0253365 37.2932612,61.0253365 C37.3793226,61.0253365 37.4638192,61.0195991 37.5477942,61.0128185 C37.5509237,61.0180343 37.5540532,61.0253365 37.5540532,61.0253365 C37.5540532,61.0253365 37.5550964,61.0154264 37.555618,61.0122969 C39.0170965,60.8798145 40.1619736,59.6525272 40.1619736,58.1566241 C40.1619736,57.4843022 39.9288255,56.8672683 39.5418101,56.3780224 C40.9907707,55.6488479 41.9875178,54.1519016 41.9875178,52.4191993 C41.9875178,51.2680632 41.5452145,50.2233303 40.8259501,49.4352168 C42.3182021,48.3440629 43.291478,46.5852814 43.291478,44.5954382 C43.291478,43.0113874 42.6728793,41.5749448 41.6698731,40.502568 C43.3243378,40.018538 44.5745748,38.5956566 44.8108524,36.8493931 C45.5014297,37.2932612 46.3213599,37.5540532 47.2033586,37.5540532 C49.1055757,37.5540532 50.7235295,36.3533667 51.3525599,34.6712581 C52.1563209,35.4844076 53.2719893,35.989301 54.5055356,35.989301 C55.6425889,35.989301 56.6763685,35.5574294 57.4613525,34.8532909 C57.7706519,36.1040495 58.8967519,37.0324692 60.2429604,37.0324692 C61.7487736,37.0324692 62.9807552,35.871423 63.1001979,34.3969048 C63.9133475,35.3696591 65.1348974,35.989301 66.5019693,35.989301 C68.1371353,35.989301 69.562103,35.1015649 70.3303963,33.7840435 C71.1425027,34.8084347 72.3953477,35.4677169 73.8041463,35.4677169 C74.9667572,35.4677169 76.0219217,35.0165467 76.8126432,34.2842427 C77.8062609,36.2240138 79.8206185,37.5540532 82.1494914,37.5540532 C82.9881986,37.5540532 83.7867438,37.3803657 84.5117457,37.0695016 C84.6233647,38.7495239 85.667576,40.1718837 87.1342704,40.8233422 C86.7895033,41.2969405 86.582956,41.8779852 86.582956,42.5091019 C86.582956,43.8297528 87.4769511,44.9391621 88.6917205,45.2729759 C88.3459102,45.9275639 88.1477083,46.6718644 88.1477083,47.4641506 C88.1477083,48.4103041 88.4304068,49.2902164 88.9123505,50.0272147 C88.1372766,50.540975 87.6261242,51.4198442 87.6261242,52.4191993 C87.6261242,54.0032501 88.9107858,55.2879117 90.4948366,55.2879117 C90.7034702,55.2879117 90.9074096,55.2644404 91.1035252,55.2216705 C90.881852,55.6290277 90.7556286,56.0958454 90.7556286,56.5918719 C90.7556286,57.4050214 91.0951799,58.1378471 91.6386705,58.6599527 C91.6308467,58.8378129 91.6251093,58.9390002 91.6251093,58.9390002 C91.6397136,58.8560683 91.6642281,58.7793955 91.6819619,58.6990715 C92.1936359,59.1700619 92.8743031,59.4605843 93.624341,59.4605843 C95.2083919,59.4605843 96.4930534,58.1759227 96.4930534,56.5918719 C96.4930534,55.9810969 96.3005889,55.4162214 95.975642,54.9509684 C96.769493,54.9207165 97.5789915,55.1048357 98.3185977,55.5487037 C100.926518,57.1134559 101.18731,59.9821683 99.1009738,65.7195931 M95.1301542,15.5713709 C94.9303875,15.875976 94.7744339,16.210833 94.6544696,16.5613375 C94.5157282,16.4700603 94.3733358,16.3756535 94.2231195,16.2765526 C94.5475448,16.0700053 94.8521499,15.8342493 95.1301542,15.5713709 M124.658593,63.1116728 C124.658593,61.1958945 123.509544,59.5513399 121.864989,58.8211222 C123.828753,57.8363715 125.180177,55.8094958 125.180177,53.4623674 C125.180177,51.2315524 123.959671,49.2891733 122.152382,48.2559152 C123.052114,47.4005173 123.615425,46.1951366 123.615425,44.8562302 C123.615425,42.2634358 121.513963,40.1619736 118.921169,40.1619736 C118.883614,40.1619736 118.846582,40.1666678 118.809028,40.167711 C118.880485,39.9168291 118.921169,39.6529075 118.921169,39.3795975 C118.921169,38.1429216 118.136706,37.0919297 117.040336,36.6892668 C117.568701,35.7952717 117.878,34.7562763 117.878,33.6421727 C117.878,30.3290707 115.192886,27.6439558 111.879784,27.6439558 C111.613776,27.6439558 111.354548,27.6674271 111.097929,27.7002869 C111.428613,27.0576953 111.618992,26.3300856 111.618992,25.5576196 C111.618992,22.9648251 109.517529,20.8633629 106.924735,20.8633629 C106.16896,20.8633629 105.456997,21.0464389 104.824316,21.3640836 C104.722085,20.3214371 104.062281,19.4441326 103.146901,19.0315596 C103.226704,18.698789 103.273646,18.3524572 103.273646,17.9946505 C103.273646,15.5463349 101.288497,13.5611859 98.8401818,13.5611859 C97.7172112,13.5611859 96.6943849,13.9826258 95.9135735,14.6705952 C96.6046724,13.6931467 97.0146375,12.5028918 97.0146375,11.2140576 C97.0146375,7.90095553 94.3295227,5.21584073 91.0164207,5.21584073 C89.2232146,5.21584073 87.6177788,6.00708376 86.5188012,7.25419128 C86.114052,4.33540681 83.6151427,2.08633629 80.5847392,2.08633629 C79.0507605,2.08633629 77.6550015,2.66738095 76.5946211,3.61509921 C76.209692,1.55797162 74.4081406,0 72.239394,0 C69.84428,0 67.8982498,1.90065236 67.8142748,4.27490306 C67.8085374,4.27438147 67.8033215,4.27333831 67.7975841,4.27281672 C67.7125659,1.89960919 65.7670573,0 63.3724648,0 C60.9580521,0 58.9989824,1.93038265 58.944216,4.33175572 C58.2614625,3.90249203 57.4571798,3.65108851 56.5918719,3.65108851 C55.2769584,3.65108851 54.1002648,4.22691732 53.2881584,5.13551678 C52.5746313,3.64222158 51.0552569,2.60792036 49.2896949,2.60792036 C46.8413792,2.60792036 44.8562302,4.59306934 44.8562302,7.04138498 C44.8562302,7.13422694 44.8645756,7.22498257 44.8697914,7.3157382 C44.7790358,7.31052236 44.6882802,7.30217702 44.5954382,7.30217702 C42.1471226,7.30217702 40.1619736,9.287326 40.1619736,11.7356416 C40.1619736,11.7544187 40.1645815,11.7726741 40.1651031,11.7914511 C39.7728719,11.5906413 39.3290038,11.4748496 38.8580134,11.4748496 C37.2739626,11.4748496 35.989301,12.7595112 35.989301,14.343562 C35.989301,14.4384903 35.9945168,14.5313323 36.0033838,14.6236526 C35.0358453,13.9549819 33.8643675,13.5611859 32.5990045,13.5611859 C29.2859025,13.5611859 26.6007877,16.2463007 26.6007877,19.5594027 C26.6007877,21.4125909 27.4421028,23.0691419 28.7627537,24.1691628 C27.390466,24.5645235 26.2946179,25.6040405 25.8184116,26.9398173 C25.2065935,25.2232842 23.571949,23.9928673 21.645739,23.9928673 C19.1974234,23.9928673 17.2122744,25.9780163 17.2122744,28.426332 C17.2122744,29.5200938 17.610243,30.5194488 18.2663958,31.2919148 C17.6024193,32.257367 17.2122744,33.4251937 17.2122744,34.6853408 C17.2122744,36.0784919 17.6916102,37.357416 18.488069,38.3750266 C16.8278669,39.0160534 15.6475222,40.6230539 15.6475222,42.5091019 C15.6475222,43.3911006 15.9083142,44.2115523 16.3527038,44.9021296 C14.0566908,45.2140369 12.3651936,47.2544738 12.528971,49.5989942 C12.5686114,50.1669993 12.7177844,50.7005798 12.9472814,51.1861745 C10.0509251,51.6102224 7.82376109,54.0987 7.82376109,57.1134559 C7.82376109,58.5217329 8.31300695,59.8142183 9.12511335,60.8380878 C8.18156776,61.527622 7.52228549,62.5801786 7.35120592,63.79234 C6.91568322,63.6916743 6.464513,63.6332569 5.99821683,63.6332569 C2.68511481,63.6332569 0,66.3183717 0,69.6314737 C0,72.9445757 2.68511481,75.6296905 5.99821683,75.6296905 C7.96041612,75.6296905 9.69729108,74.683537 10.7910529,73.2267527 C11.2891657,74.6068642 12.2723516,75.7538275 13.5418873,76.4527502 C13.2231994,77.0650899 13.0396018,77.7598399 13.0396018,78.4984029 C13.0396018,80.8648299 14.8953979,82.7926046 17.2300083,82.9198711 C16.5623806,83.886888 16.1691062,85.0578442 16.1691062,86.322164 C16.1691062,89.635266 18.8542211,92.3203808 22.1673231,92.3203808 C24.4289116,92.3203808 26.3958052,91.0680575 27.4175884,89.2200851 C28.1994429,91.6240661 30.4558156,93.363549 33.1205886,93.363549 C35.1318168,93.363549 36.9083321,92.3699313 37.9963565,90.8505569 C38.7124914,92.3355068 40.2282148,93.363549 41.9875178,93.363549 C43.6471984,93.363549 45.0914647,92.4497337 45.8514127,91.0993525 C46.3547413,91.5343536 48.2898182,91.8859013 49.4633824,90.7123371 C50.5289786,89.6467409 50.2765319,87.6057824 50.1596971,87.4185337 C50.3725034,87.4957282 52.0713027,88.5388963 55.9351975,88.6567743 C57.3904171,89.858504 63.9050022,96.0001565 69.7185782,96.0001565 C69.9804134,96.0001565 70.2417271,95.9892032 70.5004328,95.9678183 C76.414153,95.4749213 80.9117724,89.7255001 81.9528542,88.5456769 C82.760788,88.3067914 84.8768545,87.5932644 87.1087128,86.1443038 C87.1139286,86.3842325 87.522329,88.9718111 89.3212724,89.886148 C91.1202159,90.8004849 93.3244302,89.8386838 93.3197359,89.7416692 C93.3093042,89.7176763 93.3014805,89.6983777 93.3014805,89.6983777 C93.4005815,89.6425682 93.5033335,89.5924961 93.5966971,89.5293845 C94.3117888,92.0428981 96.6192768,93.8851331 99.3617658,93.8851331 C101.344828,93.8851331 103.097351,92.9186378 104.189548,91.4362958 C104.959928,91.9902181 105.902952,92.3203808 106.924735,92.3203808 C109.517529,92.3203808 111.618992,90.2189186 111.618992,87.6261242 C111.618992,86.812453 111.411923,86.0478108 111.047335,85.3807048 C111.48338,85.4813705 111.93455,85.5397879 112.401368,85.5397879 C115.71447,85.5397879 118.399584,82.8546731 118.399584,79.5415711 C118.399584,78.9041953 118.298397,78.291334 118.114278,77.7149836 C118.122623,77.7149836 118.130447,77.7160268 118.138792,77.7160268 C121.451894,77.7160268 124.137009,75.030912 124.137009,71.71781 C124.137009,69.9480752 123.366108,68.3629812 122.148209,67.2655683 C123.63994,66.4790196 124.658593,64.9153105 124.658593,63.1116728" id="Fill-13" fill="#000000" mask="url(#mask-2)"></path>
                    </g>
                </g>
            </g>
        </g>
    </g>
</svg>