<?xml version="1.0" encoding="UTF-8"?>
<svg width="77px" height="96px" viewBox="0 0 77 96" version="1.1" xmlns="http://www.w3.org/2000/svg" xmlns:xlink="http://www.w3.org/1999/xlink">
    <title>Group 21 Copy</title>
    <defs>
        <polygon id="path-1" points="0 0 75.0736875 0 75.0736875 78.9134796 0 78.9134796"></polygon>
        <polygon id="path-3" points="0 0 3.75285144 0 3.75285144 3.80197039 0 3.80197039"></polygon>
    </defs>
    <g id="lg-1400px" stroke="none" stroke-width="1" fill="none" fill-rule="evenodd">
        <g id="Group-21-Copy" transform="translate(0.000000, 0.000000)">
            <g id="Group-3" transform="translate(0.955197, 17.086520)">
                <mask id="mask-2" fill="white">
                    <use xlink:href="#path-1"></use>
                </mask>
                <g id="Clip-2"></g>
                <path d="M55.2703244,50.837581 C52.5429585,50.837581 50.3324674,48.6264709 50.3324674,45.899724 C50.3324674,43.172358 52.5429585,40.9618669 55.2703244,40.9618669 C57.9970713,40.9618669 60.2081814,43.172358 60.2081814,45.899724 C60.2081814,48.6264709 57.9970713,50.837581 55.2703244,50.837581 L55.2703244,50.837581 Z M47.5753889,65.0853753 L43.750515,65.0853753 L43.750515,58.9577776 L47.5753889,58.9577776 C49.2671481,58.9577776 50.6394972,60.3295077 50.6394972,62.0212669 C50.6394972,63.7136451 49.2671481,65.0853753 47.5753889,65.0853753 L47.5753889,65.0853753 Z M24.4348713,62.0212669 C24.4348713,60.3295077 25.8066014,58.9577776 27.4983606,58.9577776 L31.299093,58.9577776 L31.299093,65.0853753 L27.4983606,65.0853753 C25.8066014,65.0853753 24.4348713,63.7136451 24.4348713,62.0212669 L24.4348713,62.0212669 Z M19.8034251,50.837581 C17.0766782,50.837581 14.865568,48.6264709 14.865568,45.899724 C14.865568,43.172358 17.0766782,40.9618669 19.8034251,40.9618669 C22.530791,40.9618669 24.7412821,43.172358 24.7412821,45.899724 C24.7412821,48.6264709 22.530791,50.837581 19.8034251,50.837581 L19.8034251,50.837581 Z M35.0131637,65.0853753 L40.0364443,65.0853753 L40.0364443,58.9577776 L35.0131637,58.9577776 L35.0131637,65.0853753 Z M39.388958,19.5434401 C39.389577,19.5273458 39.3939101,19.5131085 39.3939101,19.4970142 L39.3939101,9.1700406 C41.1073347,8.44579681 42.3094556,6.74908551 42.3094556,4.77258087 C42.3094556,2.13682869 40.1726269,0 37.5368747,0 C34.9011225,0 32.7649129,2.13682869 32.7649129,4.77258087 C32.7649129,6.74908551 33.9664147,8.44579681 35.6798394,9.1700406 L35.6798394,19.4970142 C35.6798394,19.5131085 35.6841724,19.5273458 35.6847915,19.5434401 C15.8138941,20.5090985 0,36.9240531 0,57.033889 L0,78.9134796 L75.0737495,78.9134796 L75.0737495,57.033889 C75.0737495,36.9240531 59.2598553,20.5090985 39.388958,19.5434401 L39.388958,19.5434401 Z" id="Fill-1" fill="#FFFFFF" mask="url(#mask-2)"></path>
            </g>
            <path d="M72.7746778,12.3795548 C72.3296083,12.3628415 71.9823427,11.9877204 71.999056,11.5426509 C72.0163883,11.0969624 72.3908905,10.7496968 72.836579,10.7670291 C73.2816484,10.7837424 73.628914,11.1588636 73.6122007,11.6045521 C73.5948684,12.0496215 73.2203663,12.3968871 72.7746778,12.3795548" id="Fill-4" fill="#FFFFFF"></path>
            <path d="M35.2283322,5.43987558 L35.431987,4.81776873 C35.5954062,4.31636919 36.1426126,3.77968597 36.6477262,3.62617104 L37.1782193,3.46522798 C37.4883442,3.37113819 37.6468112,3.17181639 37.6381451,2.94587709 C37.6468112,2.71993779 37.4883442,2.52123501 37.1782193,2.4265262 L36.6477262,2.26558314 C36.1426126,2.11206822 35.5954062,1.57600401 35.431987,1.07460446 L35.2283322,0.451878604 C35.1330044,0.160943064 34.9442058,0.00804715322 34.7300277,0 C34.5164686,0.00804715322 34.32767,0.160943064 34.2323422,0.451878604 L34.0293063,1.07460446 C33.8646492,1.57600401 33.3180618,2.11206822 32.8129482,2.26558314 L32.2824551,2.4265262 C31.9723302,2.52123501 31.8138632,2.71993779 31.8225293,2.94587709 C31.8138632,3.17181639 31.9723302,3.37113819 32.2824551,3.46522798 L32.8129482,3.62617104 C33.3180618,3.77968597 33.8646492,4.31636919 34.0293063,4.81776873 L34.2323422,5.43987558 C34.32767,5.73143013 34.5164686,5.88370703 34.7300277,5.89175418 C34.9442058,5.88370703 35.1330044,5.73143013 35.2283322,5.43987558" id="Fill-6" fill="#FFFFFF"></path>
            <path d="M57.4327183,12.0277704 C56.9870298,12.0110571 56.6403832,11.635936 56.6570965,11.1902475 C56.6738098,10.745178 57.0489309,10.3979124 57.4946194,10.4152447 C57.9396889,10.431958 58.2869545,10.8070792 58.2702412,11.2521486 C58.2529089,11.6972181 57.8777877,12.0444837 57.4327183,12.0277704" id="Fill-8" fill="#FFFFFF"></path>
            <path d="M48.4684991,3.94979041 C48.0234296,3.93307709 47.676164,3.55795595 47.6934963,3.11226746 C47.7102096,2.66719799 48.0847118,2.31993237 48.5304002,2.3372647 C48.9754697,2.35397802 49.3227353,2.72909916 49.306022,3.17416864 C49.2886897,3.61923811 48.9141876,3.96650372 48.4684991,3.94979041" id="Fill-10" fill="#FFFFFF"></path>
            <path d="M63.6681478,18.9692448 C62.9414279,18.9413893 62.3744131,18.3298056 62.4022687,17.6024668 C62.4301242,16.8757469 63.0417079,16.3093511 63.7690467,16.3372067 C64.4957665,16.3644432 65.0621623,16.9766458 65.0349258,17.7033657 C65.0070703,18.4300855 64.3948676,18.9971003 63.6681478,18.9692448" id="Fill-12" fill="#FFFFFF"></path>
            <path d="M10.8185309,8.20425841 C10.0918111,8.1770219 9.52479626,7.56481924 9.55265179,6.8380994 C9.58050732,6.11137956 10.192091,5.54436477 10.9194298,5.5722203 C11.6461496,5.59945682 12.2125454,6.21165947 12.1853089,6.93837931 C12.1574534,7.66509915 11.5452507,8.23211394 10.8185309,8.20425841" id="Fill-14" fill="#FFFFFF"></path>
            <path d="M22.9820506,18.0328657 L23.1132811,17.631127 C23.2191321,17.3073838 23.5725878,16.9619753 23.898188,16.8623144 L24.2405016,16.7583204 C24.4404424,16.6976572 24.5425793,16.5695218 24.5370082,16.423435 C24.5425793,16.2779672 24.4404424,16.1492128 24.2405016,16.0885496 L23.898188,15.9845557 C23.5725878,15.8855138 23.2191321,15.5394862 23.1132811,15.215743 L22.9820506,14.8140044 C22.9207684,14.6264438 22.7988231,14.5274019 22.6607835,14.5224498 C22.5227438,14.5274019 22.4014175,14.6264438 22.3395164,14.8140044 L22.2082859,15.215743 C22.1024348,15.5394862 21.7495981,15.8855138 21.4233789,15.9845557 L21.0810654,16.0885496 C20.8811246,16.1492128 20.7789876,16.2779672 20.7845588,16.423435 C20.7789876,16.5695218 20.8811246,16.6976572 21.0810654,16.7583204 L21.4233789,16.8623144 C21.7495981,16.9619753 22.1024348,17.3073838 22.2082859,17.631127 L22.3395164,18.0328657 C22.4014175,18.2210452 22.5227438,18.3194681 22.6607835,18.3244202 C22.7988231,18.3194681 22.9207684,18.2210452 22.9820506,18.0328657" id="Fill-16" fill="#FFFFFF"></path>
            <g id="Group-20" transform="translate(0.000000, 13.425313)">
                <mask id="mask-4" fill="white">
                    <use xlink:href="#path-3"></use>
                </mask>
                <g id="Clip-19"></g>
                <path d="M2.19767755,3.51041584 L2.32890804,3.10867719 C2.43475906,2.78493403 2.78821479,2.43890644 3.11381499,2.33986455 L3.45612851,2.23587057 C3.65606931,2.17520742 3.75820626,2.04645297 3.75263515,1.9009852 C3.75820626,1.75551743 3.65606931,1.62676297 3.45612851,1.56609982 L3.11381499,1.46148683 C2.78821479,1.36306395 2.43475906,1.01703637 2.32890804,0.693293201 L2.19767755,0.291554551 C2.13639538,0.10399398 2.01445006,0.00495209429 1.87641043,0 C1.7383708,0.00495209429 1.61704449,0.10399398 1.55514331,0.291554551 L1.42391281,0.693293201 C1.3180618,1.01703637 0.965225078,1.36306395 0.639005867,1.46148683 L0.296692349,1.56609982 C0.0967515422,1.62676297 -0.00538540254,1.75551743 0.000185703536,1.9009852 C-0.00538540254,2.04645297 0.0967515422,2.17520742 0.296692349,2.23587057 L0.639005867,2.33986455 C0.965225078,2.43890644 1.3180618,2.78493403 1.42391281,3.10867719 L1.55514331,3.51041584 C1.61704449,3.69797641 1.7383708,3.79639929 1.87641043,3.80197039 C2.01445006,3.79639929 2.13639538,3.69797641 2.19767755,3.51041584" id="Fill-18" fill="#FFFFFF" mask="url(#mask-4)"></path>
            </g>
        </g>
    </g>
</svg>