<?xml version="1.0" encoding="UTF-8"?>
<svg width="112px" height="97px" viewBox="0 0 112 97" version="1.1" xmlns="http://www.w3.org/2000/svg" xmlns:xlink="http://www.w3.org/1999/xlink">
    <title>Group 33</title>
    <defs>
        <polygon id="path-1" points="0 5.69570244e-15 13.002149 5.69570244e-15 13.002149 12.9891079 0 12.9891079"></polygon>
        <polygon id="path-3" points="4.44976753e-16 -5.69570244e-15 18.4618235 -5.69570244e-15 18.4618235 13.3062805 4.44976753e-16 13.3062805"></polygon>
    </defs>
    <g id="lg-1400px" stroke="none" stroke-width="1" fill="none" fill-rule="evenodd">
        <g id="proyectos" transform="translate(-216.000000, -730.000000)">
            <g id="Group-7-Copy" transform="translate(168.000000, 698.125727)">
                <g id="Group-33" transform="translate(48.000000, 32.000000)">
                    <path d="M67.4368885,21.8864544 C65.2715696,22.0834473 57.2573846,22.5820418 57.2573846,22.5820418 C56.7982689,22.6611997 56.6826382,23.2656052 57.0800309,23.5078884 C57.0800309,23.5078884 66.0148521,29.6216829 67.3531214,30.2264893 C69.6218466,31.2519346 72.2544976,30.8533396 73.5532882,28.7331106 C74.8518783,26.6126812 74.1813409,23.8437584 72.0561019,22.5481742 C71.8589086,22.4281348 71.6312545,22.3243277 71.3851637,22.2345487 L71.4719367,22.1145092 C71.5510946,22.136954 71.6308537,22.1595992 71.7108132,22.1820439 C74.6015791,22.9886528 75.8661013,25.6281174 74.776528,28.5780012 C73.9154104,30.9094515 71.0412777,32.2459172 68.2982065,31.5763817 C66.1695607,31.0567453 64.0667665,29.4804011 61.7094647,27.8094683 C60.3487506,28.475597 56.4297338,29.7050492 53.6800493,30.5339024 C52.0858696,28.8210861 51.2101229,26.4339247 51.5367744,23.8481672 C52.0017017,20.1690288 54.9798419,17.198103 58.6679982,16.7343781 C62.6156722,16.237988 66.1026272,18.5203404 67.4368885,21.8864544 L67.4368885,21.8864544 Z M75.5592893,19.3205364 C75.9829343,19.3205364 76.3260186,19.6630195 76.3260186,20.0852617 C76.3260186,20.5079047 75.9829343,20.8501874 75.5592893,20.8501874 C75.1358447,20.8501874 74.79256,20.5079047 74.79256,20.0852617 C74.79256,19.6630195 75.1358447,19.3205364 75.5592893,19.3205364 L75.5592893,19.3205364 Z M60.1054654,33.1643491 C61.4497466,32.1429117 62.6952309,31.2174658 62.7958315,31.2174658 C62.851743,31.2174658 63.182603,31.6172633 63.7298946,32.1549357 C62.8433263,32.6451134 61.8601653,32.9769753 60.8194895,33.1078363 C60.5792103,33.1380967 60.3417366,33.1543291 60.1054654,33.1643491 L60.1054654,33.1643491 Z M68.0148413,38.7282467 L66.7609403,34.3428998 C67.188994,34.5414959 67.6428994,34.7054229 68.1192495,34.8150415 L69.2380811,38.7282467 L68.0148413,38.7282467 Z M72.3813506,38.7282467 L71.2238419,38.7282467 L70.1380762,34.9304717 C70.5148277,34.8948006 70.8831624,34.8312739 71.2418779,34.7426972 L72.3813506,38.7282467 Z M80.0843148,38.7282467 L73.7156119,38.7282467 L73.7156119,33.629076 C75.6987675,32.2635523 76.9991612,29.9818012 76.9991612,27.3962441 C76.9991612,25.9198994 76.0801282,24.7327315 76.1346369,24.4698071 C76.1895464,24.2066822 77.4799202,22.3002798 77.5181965,22.2387571 C77.7356302,21.888258 77.8680944,21.5099033 77.9238055,21.1265386 L81.6969313,20.2598099 L77.6123844,19.3215384 C77.6089776,19.3215384 77.6057712,19.3227408 77.6023644,19.3227408 C77.3676963,18.8882742 77.0214056,18.5063124 76.5705063,18.2281576 C75.6729159,17.6742528 74.5933627,17.6670384 73.7156119,18.1093205 L73.7156119,12.0450248 C73.7156119,11.6297966 73.5314446,11.2360112 73.212809,10.9690787 L60.2996527,0.156512177 C60.2353244,0.102805053 60.1637817,0.0635267093 60.0884314,0.0374747465 C60.0665878,0.0250499642 60.0417383,0.0162323768 60.0124799,0.0162323768 L60.0080711,0.0162323768 C59.9166888,-0.00320639542 59.8229018,-0.00320639542 59.7315195,0.0158315774 L46.059249,0 C45.790513,0 45.5301938,0.0941878655 45.3239825,0.26613082 C45.3239825,0.26613082 32.0144355,11.072485 31.8731537,11.177294 C31.7316715,11.2821031 31.746501,11.5065508 31.746501,11.5065508 L31.612634,49.0885111 L45.7718758,49.0885111 L45.7718758,49.0875091 L45.7718758,49.0885111 L73.7156119,49.0885111 L73.7156119,41.4364484 L80.0843148,41.4364484 C80.8342106,41.4364484 81.4418225,40.8302393 81.4418225,40.0823476 C81.4418225,39.3344559 80.8342106,38.7282467 80.0843148,38.7282467 L80.0843148,38.7282467 Z" id="Fill-1" fill="#000000"></path>
                    <g id="Group-5" transform="translate(0.000000, 66.717554)">
                        <mask id="mask-2" fill="white">
                            <use xlink:href="#path-1"></use>
                        </mask>
                        <g id="Clip-4"></g>
                        <path d="M0.0786168078,0.760316515 C-0.11196332,0.348294703 0.0467532533,5.69570244e-15 0.523103373,5.69570244e-15 L3.28621463,5.69570244e-15 C3.60404858,5.69570244e-15 3.76276515,0.158115374 3.85795501,0.348294703 L6.43068654,6.24104829 L6.49421325,6.24104829 L9.22566135,0.348294703 C9.38437792,0.0312623554 9.63848476,5.69570244e-15 9.98778146,5.69570244e-15 L12.4651227,5.69570244e-15 C12.9416732,5.69570244e-15 13.132053,0.348294703 12.9096093,0.760316515 L7.09761679,12.6726767 C7.00242692,12.8311929 6.84350995,12.9891079 6.55773996,12.9891079 L6.39882299,12.9891079 C6.11305299,12.9891079 5.95413602,12.8311929 5.85894616,12.6726767 L0.0786168078,0.760316515 Z" id="Fill-3" fill="#000000" mask="url(#mask-2)"></path>
                    </g>
                    <path d="M20.5639164,76.2854777 C22.2470736,76.2854777 23.6129981,74.8283714 23.6129981,73.0221688 C23.6129981,71.2478297 22.2470736,69.8223866 20.5639164,69.8223866 C18.8488957,69.8223866 17.5150352,71.2478297 17.5150352,73.0221688 C17.5150352,74.8283714 18.8488957,76.2854777 20.5639164,76.2854777 M20.5639164,66.4005615 C24.1528749,66.4005615 27.0749032,69.4420279 27.0749032,73.0221688 C27.0749032,76.6654356 24.1528749,79.7067017 20.5639164,79.7067017 C16.974958,79.7067017 14.0531301,76.6654356 14.0531301,73.0221688 C14.0531301,69.4420279 16.974958,66.4005615 20.5639164,66.4005615" id="Fill-6" fill="#000000"></path>
                    <path d="M29.9011804,58.7553925 C29.9011804,58.438761 30.1871508,58.1535922 30.5045839,58.1535922 L33.1725053,58.1535922 C33.4901389,58.1535922 33.7759089,58.438761 33.7759089,58.7553925 L33.7759089,78.7881495 C33.7759089,79.1051819 33.4901389,79.3903507 33.1725053,79.3903507 L30.5045839,79.3903507 C30.1871508,79.3903507 29.9011804,79.1051819 29.9011804,78.7881495 L29.9011804,58.7553925 Z" id="Fill-8" fill="#000000"></path>
                    <path d="M37.7939832,58.7553925 C37.7939832,58.4070978 38.0799536,58.1535922 38.3973868,58.1535922 L41.0017815,58.1535922 C41.319415,58.1535922 41.6053854,58.4070978 41.6053854,58.7553925 L41.6053854,64.9968416 C41.6053854,66.67559 42.4626954,67.7214761 43.9238097,67.7214761 C45.2576702,67.7214761 46.2740975,66.4858115 46.4646777,65.3451363 L46.4646777,58.7553925 C46.4646777,58.2802448 46.6550574,58.1535922 47.1632711,58.1535922 L49.5770856,58.1535922 C49.8947192,58.1535922 50.1804892,58.4070978 50.1804892,58.7553925 L50.1804892,70.2240678 C50.1804892,70.5413005 49.8947192,70.8262689 49.5770856,70.8262689 L48.4021421,70.8262689 C48.0843082,70.8262689 47.893728,70.604226 47.7985382,70.3509208 L47.4173779,69.3056359 C46.8458379,69.8122463 45.670694,71.1427 43.1614892,71.1427 C39.223234,71.1427 37.7939832,68.1334979 37.7939832,64.9018522 L37.7939832,58.7553925 Z" id="Fill-10" fill="#000000"></path>
                    <path d="M53.5634167,67.3193541 C53.5634167,66.9710594 53.8491867,66.7175537 54.1668202,66.7175537 L55.3419642,66.7175537 C55.6277342,66.7175537 55.8183143,66.8756691 55.8820414,67.0658484 L56.326528,68.2698499 C56.8664048,67.6676488 58.3275191,66.4005214 60.5824167,66.4005214 C62.3928277,66.4005214 63.6631615,67.097712 64.7110516,68.3648394 C65.2511288,67.7947022 66.9026229,66.4005214 69.189384,66.4005214 C73.2546926,66.4005214 74.7474701,69.4105251 74.7474701,72.7369599 L74.7474701,78.7880293 C74.7474701,79.105262 74.4935636,79.3902304 74.1440665,79.3902304 L71.5715354,79.3902304 C71.2220383,79.3902304 70.9679315,79.105262 70.9679315,78.7880293 L70.9679315,72.5153178 C70.9679315,70.8678318 70.1741482,69.8223465 68.5859805,69.8223465 C66.7439063,69.8223465 65.9182595,71.1530006 65.9182595,71.1530006 C65.9182595,71.1530006 65.9499226,71.7864641 65.9499226,72.3570021 L65.9499226,78.7880293 C65.9499226,79.105262 65.6639522,79.3902304 65.3463187,79.3902304 L62.9645681,79.3902304 C62.6148706,79.3902304 62.3609641,79.105262 62.3609641,78.7880293 L62.3609641,72.5153178 C62.3609641,70.8678318 61.6305072,69.8223465 60.0106763,69.8223465 C58.422709,69.8223465 57.6603884,70.9628213 57.3427549,71.8183276 L57.3427549,78.7880293 C57.3427549,79.105262 57.0569849,79.3902304 56.7393514,79.3902304 L54.1668202,79.3902304 C53.8491867,79.3902304 53.5634167,79.105262 53.5634167,78.7880293 L53.5634167,67.3193541 Z" id="Fill-12" fill="#000000"></path>
                    <path d="M86.0529398,71.4696321 C85.9577499,70.2972938 84.9413225,69.3151348 83.7347159,69.3151348 C82.4639813,69.3151348 81.4158908,70.2656307 81.2569738,71.4696321 L86.0529398,71.4696321 Z M83.8297053,66.4005214 C87.1010303,66.4005214 89.7689517,68.8718506 89.7689517,72.293275 C89.7689517,72.5153178 89.7372885,72.9271393 89.7056253,73.1489817 C89.6735614,73.4658137 89.3877914,73.6874558 89.1022218,73.6874558 L80.9716046,73.6874558 C81.0665941,74.9862463 82.1782113,76.4439538 84.0200851,76.4439538 C85.0050497,76.4439538 85.9258863,76.0633948 86.4976267,75.6515734 C86.8152603,75.4617948 87.1010303,75.3982681 87.3234739,75.6515734 L88.6256713,77.1407436 C88.8477142,77.3625861 88.9114413,77.7110812 88.5938077,77.9643865 C87.5455168,78.9467459 85.9258863,79.706862 83.8615689,79.706862 C80.0503671,79.706862 77.3505822,76.6974595 77.3505822,73.0539923 C77.3505822,69.473651 80.0503671,66.4005214 83.8297053,66.4005214 L83.8297053,66.4005214 Z" id="Fill-14" fill="#000000"></path>
                    <path d="M92.4367528,67.3193541 C92.4367528,66.9710594 92.7227232,66.7175537 93.0401563,66.7175537 L94.2469634,66.7175537 C94.5329338,66.7175537 94.6918508,66.8756691 94.7870407,67.097712 L95.2317276,68.2698499 C95.7080777,67.763039 97.2643819,66.4005214 99.71006,66.4005214 C103.743305,66.4005214 105.362935,69.4105251 105.362935,72.7052968 L105.362935,78.7880293 C105.362935,79.105262 105.076965,79.3902304 104.759732,79.3902304 L102.155337,79.3902304 C101.806241,79.3902304 101.551733,79.105262 101.551733,78.7880293 L101.551733,72.5153178 C101.551733,70.8678318 100.694423,69.8223465 99.1699828,69.8223465 C97.5182884,69.8223465 96.5020614,70.9628213 96.1844279,71.8183276 L96.1844279,78.7880293 C96.1844279,79.2317143 95.9938477,79.3902304 95.3902438,79.3902304 L93.0401563,79.3902304 C92.7227232,79.3902304 92.4367528,79.105262 92.4367528,78.7880293 L92.4367528,67.3193541 Z" id="Fill-16" fill="#000000"></path>
                    <g id="Group-20" transform="translate(0.796928, 82.693720)">
                        <mask id="mask-4" fill="white">
                            <use xlink:href="#path-3"></use>
                        </mask>
                        <g id="Clip-19"></g>
                        <path d="M0.0601011722,1.04548531 C-0.130679355,0.633463496 0.155291036,0.317032347 0.599978002,0.317032347 L2.88673914,0.317032347 C3.07731927,0.317032347 3.39475241,0.474947322 3.45827912,0.697190605 L5.36388,6.36830211 L5.39574356,6.36830211 L8.63540533,0.285168793 C8.69873164,0.158516174 8.85764861,-5.69570244e-15 9.14341861,-5.69570244e-15 L9.39772584,-5.69570244e-15 C9.68349583,-5.69570244e-15 9.81054925,0.126652619 9.90573912,0.285168793 L13.1135373,6.36830211 L13.1452005,6.36830211 L15.0508014,0.697190605 C15.1778548,0.348294703 15.432162,0.317032347 15.7814587,0.317032347 L17.8457762,0.317032347 C18.2906635,0.317032347 18.5762331,0.633463496 18.4175166,1.04548531 L14.4473978,12.9578455 C14.3840715,13.1482252 14.193291,13.3063406 13.8758579,13.3063406 L13.7488044,13.3063406 C13.4946976,13.3063406 13.335981,13.179688 13.2405908,13.0215726 L9.23880887,5.63944835 L9.20714571,5.63944835 L5.23702698,13.0215726 C5.14183712,13.179688 4.98292014,13.3063406 4.72881331,13.3063406 L4.56989633,13.3063406 C4.28412634,13.3063406 4.09354621,13.1482252 4.0302199,12.9578455 L0.0601011722,1.04548531 Z" id="Fill-18" fill="#000000" mask="url(#mask-4)"></path>
                    </g>
                    <path d="M27.7107915,92.5785156 C29.3939487,92.5785156 30.7596727,91.1214092 30.7596727,89.315407 C30.7596727,87.541068 29.3939487,86.1156248 27.7107915,86.1156248 C25.9957707,86.1156248 24.6617098,87.541068 24.6617098,89.315407 C24.6617098,91.1214092 25.9957707,92.5785156 27.7107915,92.5785156 M27.7107915,82.6937997 C31.29975,82.6937997 34.2215778,85.7350657 34.2215778,89.315407 C34.2215778,92.9586738 31.29975,95.9999399 27.7107915,95.9999399 C24.121833,95.9999399 21.1998048,92.9586738 21.1998048,89.315407 C21.1998048,85.7350657 24.121833,82.6937997 27.7107915,82.6937997" id="Fill-21" fill="#000000"></path>
                    <path d="M37.0482558,74.107694 C37.0482558,73.7912628 37.3342262,73.5058936 37.6516594,73.5058936 L40.3512439,73.5058936 C40.6688775,73.5058936 40.9546475,73.7912628 40.9546475,74.107694 L40.9546475,83.739305 C41.590115,83.2639569 42.8287856,82.6938197 44.3213627,82.6938197 C48.3548077,82.6938197 50.0065021,85.7986125 50.0065021,88.9983947 L50.0065021,95.0813276 C50.0065021,95.3981596 49.7205317,95.6835288 49.4030986,95.6835288 L46.8305675,95.6835288 C46.4810704,95.6835288 46.2269635,95.3981596 46.2269635,95.0813276 L46.2269635,88.9665312 C46.2269635,87.2240556 45.2423997,86.1156448 43.7177587,86.1156448 C42.2568448,86.1156448 41.2724814,87.0659403 40.9546475,88.3649312 L40.9546475,95.0813276 C40.9546475,95.4300231 40.7640673,95.6835288 40.2877172,95.6835288 L37.6516594,95.6835288 C37.3342262,95.6835288 37.0482558,95.3981596 37.0482558,95.0813276 L37.0482558,74.107694 Z" id="Fill-23" fill="#000000"></path>
                    <path d="M53.5634167,83.6123919 C53.5634167,83.2640972 53.8491867,83.0107919 54.1668202,83.0107919 L55.3736273,83.0107919 C55.6595977,83.0107919 55.8183143,83.1687069 55.9135041,83.3909502 L56.3583915,84.5628877 C56.8347416,84.0560768 58.3908454,82.6937596 60.8365235,82.6937596 C64.8699686,82.6937596 66.4897994,85.7037633 66.4897994,88.9983346 L66.4897994,95.0812675 C66.4897994,95.3982999 66.2040295,95.6834687 65.8863959,95.6834687 L63.2820012,95.6834687 C62.9327045,95.6834687 62.6785977,95.3982999 62.6785977,95.0812675 L62.6785977,88.8085561 C62.6785977,87.1608696 61.8210873,86.1155847 60.2966467,86.1155847 C58.6451526,86.1155847 57.6287253,87.2558591 57.3112921,88.1113655 L57.3112921,95.0812675 C57.3112921,95.5249525 57.1205116,95.6834687 56.5171081,95.6834687 L54.1668202,95.6834687 C53.8491867,95.6834687 53.5634167,95.3982999 53.5634167,95.0812675 L53.5634167,83.6123919 Z" id="Fill-25" fill="#000000"></path>
                    <path d="M77.367055,87.76267 C77.2718652,86.590532 76.2554378,85.608373 75.0488311,85.608373 C73.7780966,85.608373 72.7300061,86.5588689 72.5710891,87.76267 L77.367055,87.76267 Z M75.1438206,82.6937596 C78.4151455,82.6937596 81.0830669,85.1650889 81.0830669,88.5863128 C81.0830669,88.8085561 81.0514038,89.2203775 81.0197406,89.4420196 C80.9876767,89.7590519 80.7019067,89.9804936 80.4163371,89.9804936 L72.2857199,89.9804936 C72.3807094,91.2794845 73.4923266,92.7369917 75.3342003,92.7369917 C76.3191649,92.7369917 77.2400016,92.356633 77.811742,91.9446112 C78.1293756,91.7548327 78.4151455,91.691306 78.6375892,91.9446112 L79.9397866,93.4337815 C80.1618294,93.6558243 80.2255566,94.0043194 79.907923,94.2574243 C78.8596321,95.2397837 77.2400016,95.9998998 75.1756842,95.9998998 C71.3644824,95.9998998 68.6646975,92.9904973 68.6646975,89.3470301 C68.6646975,85.7668892 71.3644824,82.6937596 75.1438206,82.6937596 L75.1438206,82.6937596 Z" id="Fill-27" fill="#000000"></path>
                    <path d="M83.7508881,83.6123919 C83.7508881,83.2640972 84.0368585,83.0107919 84.3542917,83.0107919 L85.5610987,83.0107919 C85.8470691,83.0107919 86.0059861,83.1687069 86.101176,83.3909502 L86.5458629,84.5628877 C87.0222131,84.0560768 88.5785172,82.6937596 91.0241953,82.6937596 C95.0576404,82.6937596 96.6772709,85.7037633 96.6772709,88.9983346 L96.6772709,95.0812675 C96.6772709,95.3982999 96.3915009,95.6834687 96.0738673,95.6834687 L93.4694727,95.6834687 C93.1203764,95.6834687 92.8658687,95.3982999 92.8658687,95.0812675 L92.8658687,88.8085561 C92.8658687,87.1608696 92.0085587,86.1155847 90.4841181,86.1155847 C88.8324237,86.1155847 87.8161967,87.2558591 87.4985632,88.1113655 L87.4985632,95.0812675 C87.4985632,95.5249525 87.307983,95.6834687 86.7043791,95.6834687 L84.3542917,95.6834687 C84.0368585,95.6834687 83.7508881,95.3982999 83.7508881,95.0812675 L83.7508881,83.6123919 Z" id="Fill-29" fill="#000000"></path>
                    <path d="M108.655623,64.0843816 C108.879068,64.0843816 109.028166,63.9206551 109.028166,63.7196542 C109.028166,63.5040241 108.879068,63.3551271 108.655623,63.3551271 L107.991698,63.3551271 L107.991698,64.0843816 L108.655623,64.0843816 Z M107.447212,62.9757704 C107.447212,62.9016225 107.506932,62.8344886 107.589095,62.8344886 L108.692897,62.8344886 C109.155219,62.8344886 109.610327,63.1469118 109.610327,63.7124398 C109.610327,64.2406934 109.266842,64.4489087 109.043597,64.5306718 C109.177464,64.8062214 109.311932,65.0883842 109.438584,65.3563186 C109.490889,65.4531117 109.41614,65.5573195 109.311932,65.5573195 L108.976262,65.5573195 C108.916543,65.5573195 108.864439,65.5050152 108.841994,65.4531117 L108.469051,64.5751605 L108.006728,64.5751605 L108.006728,65.4158373 C108.006728,65.4905864 107.947009,65.5573195 107.864845,65.5573195 L107.589095,65.5573195 C107.506932,65.5573195 107.447212,65.4905864 107.447212,65.4158373 L107.447212,62.9757704 Z M108.409331,66.3605216 C109.610327,66.3605216 110.572045,65.393593 110.572045,64.2034191 C110.572045,63.0054296 109.610327,62.0459157 108.409331,62.0459157 C107.216152,62.0459157 106.246618,63.0054296 106.246618,64.2034191 C106.246618,65.393593 107.216152,66.3605216 108.409331,66.3605216 L108.409331,66.3605216 Z M108.409331,61.5250769 C109.886077,61.5250769 111.094086,62.7302808 111.094086,64.2034191 C111.094086,65.6761566 109.886077,66.8737453 108.409331,66.8737453 C106.932786,66.8737453 105.732392,65.6761566 105.732392,64.2034191 C105.732392,62.7302808 106.932786,61.5250769 108.409331,61.5250769 L108.409331,61.5250769 Z" id="Fill-31" fill="#000000"></path>
                </g>
            </g>
        </g>
    </g>
</svg>