<?xml version="1.0" encoding="UTF-8"?>
<svg width="96px" height="103px" viewBox="0 0 96 103" version="1.1" xmlns="http://www.w3.org/2000/svg" xmlns:xlink="http://www.w3.org/1999/xlink">
    <title>Taller-veganista-logo</title>
    <g id="lg-1400px" stroke="none" stroke-width="1" fill="none" fill-rule="evenodd">
        <g id="proyectos" transform="translate(-216.000000, -202.000000)" fill="#000000" fill-rule="nonzero">
            <g id="Group-7" transform="translate(168.000000, 169.891354)">
                <g id="Taller-veganista-logo" transform="translate(48.000000, 32.234373)">
                    <path d="M61.153187,95.3198929 L59.178958,102.595374 L54.6229885,96.5752212 L56.3832328,96.2373891 L58.615416,99.67287 L59.4010038,95.6569922 L61.153187,95.3198929 Z M36.2444114,94.0120212 L37.1516481,94.3102807 L37.690274,94.4883571 L38.4355565,94.7338532 C39.1998923,94.9859448 39.718732,95.3596853 39.9920756,95.8558074 C40.2646862,96.3511968 40.3042588,96.8934868 40.1107931,97.4804792 C39.9722893,97.9018532 39.7502435,98.2338227 39.4446557,98.4785861 C39.1398007,98.7226166 38.7653275,98.854525 38.3227015,98.8750441 L38.3227015,98.8750441 L39.1273427,101.670036 L37.4242588,101.109426 L36.830671,98.5936395 L36.3858465,98.4470746 L35.6955259,100.538556 L34.2489305,100.06222 L36.2444114,94.0120212 Z M47.6527344,98.0618512 L47.7726191,98.0626349 C48.0181152,98.0794899 48.215245,98.1740242 48.3632756,98.3491693 C48.5113061,98.5228487 48.5772603,98.7243754 48.561871,98.9552151 C48.5472145,99.1787265 48.4548786,99.368528 48.2841305,99.5246197 C48.1148481,99.6807113 47.9067259,99.7503296 47.6612298,99.7334746 C47.4150007,99.7173525 47.217871,99.6206197 47.0705733,99.444009 C46.9225427,99.2666655 46.8565885,99.0658716 46.8719778,98.8416273 C46.8866343,98.6122532 46.979703,98.4202532 47.1489855,98.2670929 C47.3190007,98.1146655 47.5263901,98.0472456 47.7726191,98.0626349 Z M70.3627382,91.2630502 L70.9533946,92.3915998 L68.5321427,93.6571876 L69.0553794,94.6567601 L71.3161427,93.4754471 L71.8892114,94.5717525 L69.6291809,95.7530655 L70.3041122,97.0435693 L72.7238985,95.7779815 L73.3138221,96.9072639 L70.8947687,98.1721189 L70.4865855,98.384638 L69.5918069,98.85218 L66.6407229,93.208699 L67.5347687,92.7411571 L67.9422191,92.5279051 L70.3627382,91.2630502 Z M37.2806252,95.7334258 L36.7617855,97.306067 L37.3949458,97.5149219 C37.6866099,97.6109219 37.936503,97.6175174 38.1475565,97.5332426 C38.3593427,97.4489677 38.5059076,97.2840822 38.5872511,97.0356548 C38.6700603,96.7820975 38.6524725,96.5607845 38.5315565,96.370983 C38.4106404,96.1811815 38.2047168,96.0382807 37.9137855,95.9422807 L37.9137855,95.9422807 L37.2806252,95.7334258 Z M26.9806313,88.7630197 L27.8138527,89.3316914 L28.1934557,89.5911113 L30.4476236,91.1307754 L29.7279901,92.1831113 L27.4745549,90.6427143 L26.8384633,91.574867 L28.9431351,93.0126685 L28.2454862,94.0342258 L26.1400817,92.5964242 L25.3193183,93.7989891 L27.5727534,95.3379204 L26.8538527,96.3902563 L24.5996847,94.8505922 L24.2208145,94.5919051 L23.3875931,94.0217677 L26.9806313,88.7630197 Z M79.2622313,84.3632884 C79.7942618,84.2343113 80.3204298,84.2240517 80.8407351,84.3325097 L80.8407351,84.3325097 L80.3717275,85.7930288 C80.0947198,85.7168151 79.8125824,85.7036242 79.5267809,85.7519906 C79.2402465,85.8003571 78.9647046,85.9542502 78.7001549,86.2166013 C78.4524603,86.4613647 78.2795137,86.7420364 78.1813152,87.0556853 C78.082384,87.3707998 78.0772542,87.6947082 78.1644603,88.0259448 C78.2516664,88.3579143 78.4422007,88.672296 78.7367962,88.9705555 C79.0306588,89.2680822 79.3450404,89.4674105 79.6777427,89.5692731 C80.010445,89.6711357 80.3372847,89.6791968 80.6604603,89.5956548 C80.9821702,89.51138 81.2738343,89.3413647 81.5347198,89.0834105 C81.8674221,88.7543723 82.0491626,88.42167 82.0792084,88.0845708 C82.109987,87.7474716 82.0454985,87.4184334 81.8879412,87.0959906 L81.8879412,87.0959906 L80.6963687,88.2743723 L79.8653458,87.4330899 L82.1393,85.1847845 C82.5152389,85.5218838 82.8120328,85.8948914 83.0318801,86.3052731 C83.2517275,86.7156548 83.382903,87.1384945 83.424674,87.5737922 C83.4671778,88.0090899 83.4092847,88.4399906 83.2509946,88.8650288 C83.0927046,89.290067 82.8215595,89.6931204 82.4368267,90.0734563 C81.9626893,90.5409983 81.4401855,90.8575784 80.8700481,91.0202655 C80.2999107,91.1814868 79.7312389,91.1873494 79.1640328,91.0363876 C78.5960939,90.8854258 78.0757885,90.5695784 77.602384,90.0910441 C77.1282465,89.6125097 76.8248572,89.0870746 76.6914832,88.5162044 C76.5573763,87.9446013 76.5822923,87.3759296 76.7662313,86.8101891 C76.9501702,86.2444487 77.2792084,85.7278074 77.7540786,85.258067 C78.2274832,84.790525 78.7309336,84.4907998 79.2622313,84.3632884 Z M19.8694496,81.6978593 L20.8572969,82.8571876 L17.0172969,86.1248517 L18.6610221,88.0529128 L17.6489916,88.9139815 L15.0188847,85.8265922 L19.8694496,81.6978593 Z M66.2696206,0.222805911 C68.513529,-0.590629203 70.1374679,0.920454766 70.1374679,3.17682118 C70.1367351,5.83917232 68.5105977,8.04717232 67.4567962,10.3753555 C66.2611649,13.0169903 66.3395912,15.8713664 66.496605,18.7006254 L66.5425718,19.5080962 C66.5655917,19.9112843 66.5878919,20.3134976 66.605987,20.7140426 C66.8742007,26.6821647 65.6481855,32.5191113 63.0078191,37.8518746 C66.2117275,39.0610349 69.1694069,41.222867 71.2828725,43.5906227 C71.7401549,44.1021342 71.5444908,45.0350197 70.9978038,45.3362105 C73.5084603,47.5317525 75.5713611,50.1259509 77.0795137,53.181096 C77.3491931,53.7263174 77.1278801,54.1916609 76.7504756,54.40418 C78.293071,55.5407906 79.7609183,56.7895235 80.7216511,58.4801494 C80.7363076,58.5050655 80.7480328,58.5314471 80.7626893,58.5563632 C82.3192084,58.0499815 83.9072389,57.638867 85.5157885,57.3325464 C85.9422923,57.25047 86.1240328,57.868241 85.6967962,57.9891571 C84.1637275,58.4259204 82.6321244,58.8194471 81.1181091,59.2723326 C81.7395443,60.6822868 82.020216,62.2857067 82.0048267,63.8510197 C82.0847046,63.8539509 82.1638496,63.8561494 82.2429946,63.8583479 C82.7039412,63.8708059 82.7032084,64.592638 82.2429946,64.5735845 C82.1550557,64.5699204 82.0671168,64.5662563 81.978445,64.5625922 C81.949132,65.0088822 81.8963687,65.4500426 81.8186893,65.878012 C81.7212236,66.4210349 81.2382923,66.5434166 80.8337733,66.3917219 C80.8528267,69.6051571 78.9958496,72.4785616 76.7841855,74.9386532 C75.162445,76.7435998 73.4447046,78.4972487 71.669071,80.1519662 C70.2107504,81.5098899 68.6080633,83.1367601 66.756216,83.9172181 C63.6138649,88.5904395 55.8876969,89.0242716 50.8934985,88.4768517 C43.8481244,87.7037219 36.7653763,85.4700731 30.9057122,81.4043632 C30.9225672,81.6381342 30.9218343,81.8763021 30.9167046,82.106409 C30.9027809,82.7556914 30.1750862,83.2254319 29.5939565,82.8656151 C28.3173763,82.0763632 27.3412542,80.9873861 26.7762465,79.6814929 C26.7396053,79.7804242 26.7058954,79.8822868 26.6773152,79.9907448 C26.4281549,80.9426838 25.2145977,80.782928 24.9031473,79.9907448 C23.8771931,77.3899509 23.9512084,74.5590502 25.1728267,72.1238746 C24.9793611,72.1905616 24.7858954,72.2594471 24.5909641,72.3239357 C23.6903229,72.6236609 23.0960023,71.5735235 23.4499565,70.8392334 C24.8591778,67.9137983 25.7136511,64.8813708 25.9503534,61.6371571 C26.1672694,58.6714166 25.9342313,55.7005464 25.9342313,52.7318746 C23.9255595,50.7334624 21.8311473,48.8457067 19.6539259,46.9513555 C16.3628114,44.0867448 13.3450404,41.0052181 11.0073305,37.2985922 C8.96788014,34.0624395 7.47731525,30.5097067 6.51731525,26.810409 C5.55218548,23.0876609 5.04067403,18.9684548 2.80262823,15.7330349 C1.87120838,14.3853708 0.278780898,13.3748059 0.0332847152,11.6490044 C-0.149921392,10.3563021 0.426078608,9.15373721 1.68946792,8.68766087 C3.24745265,8.1123937 5.42027708,8.61437843 7.01563586,8.86060744 C8.72751372,9.12442423 10.4144756,9.53334026 12.0603992,10.0712334 C25.2153305,14.3758441 34.1447962,25.8694624 37.8594832,38.7854929 C39.1851626,36.9475693 41.1872389,35.4496761 43.261132,34.7754777 C43.9470557,34.552699 44.4145977,35.3492792 44.1617733,35.8820426 C44.6630252,35.6094319 45.1833305,35.36247 45.7182923,35.1462868 C46.1235443,29.2631723 47.8911168,23.6687906 50.5527351,18.3968517 C53.0113611,13.5257677 56.254842,9.02842423 60.1131626,5.1693708 C61.8265061,3.45602729 63.9370404,1.06775248 66.2696206,0.222805911 Z M67.8129488,2.89395095 C66.8727351,1.56314179 64.5071778,4.23501965 63.7985366,4.86451584 C54.9665366,12.6991418 49.8484908,23.1975845 47.4257733,34.5761494 C48.7961549,34.2126685 50.2090404,34.0639051 51.5794221,34.2126685 C52.781987,34.3416456 52.7673305,35.9296761 51.5794221,36.0725769 C48.3762465,36.4565769 45.7212236,37.0428364 42.8536817,38.5905616 C42.1076664,38.9936151 41.2018954,37.9405464 41.9120023,37.370409 C42.042445,37.2663479 42.1780175,37.1644853 42.3135901,37.0633555 C41.6738343,37.4444242 41.057529,37.8577372 40.4844603,38.3663174 C39.7025366,39.0603021 39.0180786,39.8671418 38.3622007,40.6849739 C38.657529,41.8890044 38.9132847,43.1018288 39.1192084,44.3205158 C39.3141397,45.4798441 37.5993305,45.9986838 37.3245214,44.8144395 C35.5481549,37.1688822 32.3691626,29.3650349 27.2650404,23.3243632 C22.8270557,18.0722105 16.9432084,13.9947754 10.3096817,12.0769739 C8.65936105,11.5999051 6.9687351,11.2481494 5.26052136,11.0678746 C4.39285723,10.9762716 3.40940685,10.6472334 2.95065876,11.4438135 C2.64442436,11.97662 2.72195668,12.1307718 2.97525231,12.3877439 L3.11558408,12.5270274 C3.19211046,12.6031824 3.27745535,12.690779 3.36836868,12.7973403 C3.61533052,13.0882716 3.8666893,13.3733403 4.10119311,13.6752639 C6.04537632,16.1859204 7.00317784,19.2044242 7.75359006,22.2493097 C8.58754426,25.629096 9.32842975,28.9781036 10.792613,32.1592945 C12.2751168,35.3778593 14.256674,38.3685158 16.6537427,40.9759051 C18.1516359,42.6057067 19.8531728,44.0847092 21.5870625,45.5443055 L22.6299083,46.4187856 C25.761871,49.0415467 28.8876603,51.6865739 31.0083076,55.1201494 C31.6260786,56.1204548 30.1538343,57.2768517 29.3711778,56.3835387 C28.7585366,55.6851571 28.1341702,55.0094929 27.5032084,54.3440884 C28.1671473,59.6138288 27.9128572,64.8088212 26.0639412,69.7788364 L26.0639412,69.7788364 L26.4853152,69.6564548 C27.4394527,69.3787143 27.9194527,70.4662258 27.4848878,71.1155082 C27.4782923,71.2305616 27.4445824,71.3529433 27.3698343,71.4811876 C26.2771931,73.3447601 25.8389641,75.4025311 26.1306282,77.4478441 C26.1958496,77.4097372 26.2625366,77.3818899 26.3314221,77.3650349 C26.5314832,77.0968212 27.0693763,77.1576456 27.2012847,77.5306532 C27.2240023,77.594409 27.2525824,77.6552334 27.2774985,77.7175235 C27.383758,77.8501647 27.454842,78.0062563 27.4658343,78.1740731 C27.8842771,79.0739815 28.481529,79.8676303 29.2275443,80.5029891 C29.2627198,80.4179815 29.303758,80.3344395 29.3609183,80.253096 C29.3880328,80.2142563 29.4188114,80.1798135 29.4503229,80.1483021 C29.3352694,79.6719662 29.7808267,79.150928 30.3538954,79.4455235 C36.2773152,82.4955387 42.3949336,84.952699 49.0116053,85.9786532 C52.2873305,86.4872334 55.8202771,86.8111418 59.0784145,86.0182258 C62.3211626,85.2289739 64.456613,83.3690655 66.209529,80.6129128 C66.6389641,79.9365158 67.5330099,80.1123937 67.824674,80.6876609 C68.6337122,80.0251876 69.4779259,79.3912945 70.2254069,78.7083021 C71.5672084,77.4822868 72.8760328,76.221096 74.1636053,74.9371876 C76.9637275,72.142928 79.949987,68.6964548 79.432613,64.4570655 C78.6873305,64.4262868 77.9420481,64.3955082 77.1967656,64.3647296 C76.7805214,64.3478746 76.7783229,63.7059204 77.1967656,63.7169128 L77.1967656,63.7169128 L79.4956359,63.7814013 C79.6443992,63.5688822 79.9287351,63.4802105 80.1559107,63.5776761 C80.100216,62.2791113 79.9910252,61.0171876 79.486842,59.7919051 C78.7452236,60.0454624 78.0087351,60.3210044 77.2810404,60.6361189 C76.8743229,60.8134624 76.5174374,60.218409 76.9285519,60.0330044 C77.6635748,59.7032334 78.4095901,59.3983784 79.1629336,59.1155082 C79.1138343,59.024638 79.0647351,58.9345006 79.0097733,58.8443632 C77.9955443,57.1808517 76.3884603,55.8786227 74.9191473,54.6328212 C74.5542007,54.3235693 74.7564603,53.806928 75.1030862,53.6134624 C75.0598496,53.5555693 75.0158801,53.498409 74.9726435,53.4412487 C74.8356053,53.2624395 74.7989641,53.0733708 74.8268114,52.8945616 C73.0277275,49.708241 70.7054069,46.8751418 67.8334679,44.5726074 C67.4348114,44.2523632 67.6480633,43.6990807 68.0188725,43.4814319 C66.6455595,42.333096 65.1762465,41.3335235 63.5347198,40.5274166 C61.1904145,39.3761494 58.6804908,38.8008822 56.2247962,37.9552029 C55.7931626,37.8064395 55.6707809,37.02818 56.2247962,36.9497677 C57.7138954,36.7416456 59.2367046,36.8405769 60.7367962,37.1725464 C62.2889183,34.1533097 63.3822923,30.9406074 63.9326435,27.5828059 C64.5313611,23.9311418 64.1458954,20.361554 64.0784756,16.6959662 C64.0169183,13.3718746 64.7116359,10.5776151 66.2307809,7.63898912 C66.6741397,6.78158454 68.5083992,3.87886698 67.8129488,2.89395095 Z M55.3781641,82.8901647 C55.0066221,82.5999662 55.5283931,82.0855235 55.896271,82.3727906 C56.7719962,83.0565158 57.7481183,83.3906838 58.813645,83.6523021 C59.1654007,83.7380426 59.0928511,84.3103784 58.7271717,84.2876609 C57.4857672,84.2099815 56.346958,83.6464395 55.3781641,82.8901647 Z M48.722213,79.0879784 C48.567587,78.7779937 48.9874954,78.3961922 49.2300603,78.6959174 C50.7418771,80.563154 52.2339076,82.261841 54.3422435,83.4834593 C54.5943351,83.6292914 54.3730221,83.98178 54.1179992,83.8659937 C51.9305183,82.8715509 49.8163198,81.2835204 48.722213,79.0879784 Z M46.2353733,78.5867265 C46.1181214,78.1653525 46.754213,77.8802838 46.9520756,78.2848029 C47.6358007,79.6844975 48.5342435,80.9955204 49.7771137,81.9555204 C50.2622435,82.3299937 49.792503,83.1690777 49.2868542,82.7938716 C47.8358618,81.7173525 46.7270985,80.3433067 46.2353733,78.5867265 Z M84.4483565,75.7835998 L91.9847229,76.0151723 L91.1756847,77.5445769 L89.8118985,77.4962105 L88.8768145,79.2652487 L89.6851198,80.3652181 L88.8768145,81.8946227 L84.4483565,75.7835998 Z M43.7513183,78.3946532 C43.5886313,78.0619509 44.011471,77.6838135 44.287013,77.9813403 C45.0278985,78.783783 45.7673183,79.5840273 46.6848145,80.1886074 C47.187532,80.5198441 46.7126618,81.334012 46.2114099,80.9976456 C45.2037763,80.3219815 44.2899443,79.4960884 43.7513183,78.3946532 Z M40.6717702,77.8541952 C40.4321366,77.5339509 40.9414496,77.1821952 41.2074649,77.4408822 C41.7497549,77.9692487 42.3184267,78.4844242 42.9383962,78.9204548 C43.377358,79.2297067 42.9471901,79.9581342 42.5170221,79.6408212 C41.812045,79.1219815 41.1972053,78.5555082 40.6717702,77.8541952 Z M14.7807901,73.0456945 L15.4374007,74.4197403 L10.8887595,76.5940303 L11.9806679,78.8782441 L10.7817672,79.45058 L9.03251525,75.7923204 L14.7807901,73.0456945 Z M86.8784023,77.0675082 L87.9820359,78.4459509 L88.6349824,77.210409 L86.8784023,77.0675082 Z M73.5231901,57.3798135 C74.1138465,57.1101342 74.8525336,57.5549586 74.6619992,58.2562716 C74.5198313,58.7736456 74.1790679,59.1664395 73.7489,59.4610349 C73.7481672,59.4881494 73.7452359,59.5167296 73.7335107,59.5431113 C73.4477091,60.2165769 72.6848389,61.6536456 71.8157091,61.7584395 C72.1513427,64.2515082 72.2561366,66.93218 71.6163809,69.2874777 C72.2407473,69.7191113 72.8914954,70.120699 73.5847473,70.4284853 C74.738213,70.9421952 75.5091443,70.563325 76.4508236,69.8524853 C76.9579382,69.4706838 77.4269458,70.2540731 77.0803198,70.6688517 C76.311587,71.5907448 75.3728389,72.291325 74.1006557,72.0018593 C73.8896023,71.9534929 73.6814801,71.8831418 73.4755565,71.8054624 C73.0285336,72.3631418 72.2803198,73.2242105 71.6845336,73.5407906 C70.9956786,73.9086685 69.6795259,73.6492487 69.0837397,73.5012181 C68.5370527,73.9804853 67.9031595,74.4047906 67.162274,74.7587448 C64.9059076,75.838928 62.1219076,76.2471113 59.6310374,76.2595693 C57.5659382,76.2705616 54.5203198,75.9605769 53.1081672,74.278012 C52.8729305,73.9966074 52.9894496,73.3898288 53.4518618,73.4491876 C54.4294496,73.5745006 55.2033122,74.0303174 56.1486557,74.3153861 C57.1892664,74.6290349 58.2569916,74.7719357 59.3423046,74.7924548 C61.4103351,74.8320273 63.622732,74.5843326 65.5859687,73.9159968 C70.2513604,72.3269248 70.9365533,68.1696139 70.899205,63.9612653 L70.8910089,63.435138 C70.8776061,62.8214375 70.8517236,62.2088822 70.8234649,61.6052792 C70.8205336,61.539325 70.8315259,61.480699 70.852045,61.4272029 C70.7084114,61.3312029 70.5706404,61.2308059 70.4416633,61.1479968 L70.4416633,61.1479968 L68.6132664,59.9732792 C68.4960145,59.8977983 68.4315259,59.7974013 68.4029458,59.6911418 C68.1896939,59.6229891 67.9771748,59.5519051 67.7646557,59.4808212 C66.8925946,59.1832945 67.2436175,57.9045158 68.1457244,58.10018 C69.1878007,58.3258899 70.2650527,58.5625922 71.336442,58.4277525 C72.2722588,58.3112334 72.7332053,57.7425616 73.5231901,57.3798135 Z M37.7628236,71.3761006 C38.1394954,71.2463906 38.4450832,71.7828181 38.1526862,72.0451693 C37.8009305,72.3617494 37.4330527,72.6710013 37.2542435,73.123154 C37.1626404,73.3547265 36.9501214,73.5166807 36.6877702,73.4441311 C36.4664572,73.3833067 36.2759229,73.1099632 36.3667931,72.8791235 C36.6284114,72.2166502 37.0717702,71.6142685 37.7628236,71.3761006 Z M35.9271717,70.7548853 C36.1997824,70.6537555 36.4467443,71.0685342 36.2173702,71.2532059 C35.6648206,71.699496 35.1327901,72.1413891 34.7561183,72.7532975 C34.4915687,73.1834655 33.8041794,72.7796792 34.0797214,72.3583051 C34.536271,71.6606563 35.137187,71.0480151 35.9271717,70.7548853 Z M31.8871107,71.4371448 C33.1402404,70.2199235 34.9210038,69.2049616 36.7208206,69.4108853 C36.9641183,69.4387326 37.0513244,69.7934197 36.7823778,69.8623051 C35.120332,70.288809 33.6319656,70.6867326 32.3334007,71.8827021 C32.0351412,72.1567784 31.5954465,71.7207479 31.8871107,71.4371448 Z M61.3226893,67.6268242 C61.8429946,67.4421525 62.0569794,68.2592517 61.549132,68.4483204 C58.9842465,69.3995265 56.5314832,70.5793739 54.0120328,71.6361067 C53.5921244,71.8119845 53.3393,71.1341219 53.7101091,70.9194044 C56.098384,69.5372975 58.727758,68.5479845 61.3226893,67.6268242 Z M89.1916359,61.7777861 L95.7797275,62.93858 L91.2516053,66.5594655 L94.7112694,67.1691754 L94.4569794,68.6157708 L87.8688878,67.4549769 L92.3970099,63.8340914 L88.9373458,63.2243815 L89.1916359,61.7777861 Z M5.43867097,61.9564487 L12.6613885,64.1541891 L6.51519006,68.5210899 L6.23525113,66.8128761 L7.35134273,66.0280212 L7.02816716,64.0537922 L5.71860991,63.6639296 L5.43867097,61.9564487 Z M35.5516725,54.2151113 C35.3508786,53.6647601 36.0507259,53.2609739 36.4750313,53.4852181 C36.5468481,53.498409 36.6193977,53.5196609 36.693413,53.5592334 C38.3405144,54.4265049 40.1541146,54.4337958 41.990389,54.3767257 L42.8389865,54.3487128 C44.6788334,54.2906707 46.5192276,54.2906707 48.2163443,55.1443326 C51.1579015,56.6231723 52.9819015,59.6761189 53.0698404,62.9320578 C53.0896267,63.6780731 52.3509397,63.9360273 51.8159778,63.7183784 C51.5602221,64.078928 51.2626954,64.4101647 50.9329244,64.7113555 C51.6957946,64.5054319 52.4586649,64.3097677 53.2171382,64.120699 C56.6628786,63.2632945 60.1826343,62.614012 63.719245,62.2732487 C64.3487412,62.2124242 64.3260236,63.1687601 63.719245,63.244241 C58.6239168,63.8759357 53.4897488,65.0711723 48.5541763,66.6848517 C48.7124664,66.9164242 48.8619626,67.1487296 49.0004664,67.3839662 C49.3375656,67.9541036 48.5666343,68.5154471 48.1042221,68.0757525 C47.7817794,67.768699 47.4644664,67.4631113 47.1478862,67.1582563 C45.9372603,67.576699 44.7390923,68.0200578 43.5585122,68.4861342 C43.0719168,68.678867 42.778787,67.9057372 43.2111534,67.6609739 C44.1308481,67.1406685 45.0923137,66.6980426 46.0757641,66.3008517 C45.9746343,66.190928 45.9035504,66.0619509 45.8639778,65.9212487 C43.5035504,63.6604853 41.146787,61.545554 38.1143595,59.9655845 C37.6131076,59.7054319 37.9707259,58.8377677 38.5012908,59.0473555 L38.5012908,59.0473555 L38.655184,59.1118441 C37.2855351,57.7312029 36.2266038,56.0713555 35.5516725,54.2151113 Z M8.23586181,64.1659143 L8.46230456,65.5450899 L9.9484725,64.5982807 L8.23586181,64.1659143 Z M47.470329,56.8151723 C48.1137488,57.9180731 48.3870923,59.2071113 48.1701763,60.5298593 C47.933474,61.9757219 47.1149091,62.9577067 46.0772298,63.8524853 C46.3703595,64.1265616 46.6561611,64.4057677 46.9280389,64.6923021 C48.4948175,64.4534013 50.2506649,63.4882716 51.0772908,62.1552639 C51.1124664,62.0988364 51.1513061,62.0519357 51.1916114,62.0094319 C50.8413214,59.7354777 49.4350313,57.8440578 47.470329,56.8151723 Z M31.0665672,63.1226655 C32.3548725,62.2586655 34.3159107,61.2195204 35.917132,61.542696 C36.2828114,61.6159784 36.1956053,62.0879174 35.917132,62.1993067 C35.2187504,62.4799784 34.4221702,62.5048945 33.6981397,62.7276731 C32.8978954,62.9724364 32.1555443,63.3315204 31.4447046,63.7704822 C31.0299259,64.0255051 30.6693763,63.3886807 31.0665672,63.1226655 Z M35.0978343,63.1535906 L35.6430557,63.1704456 C36.0497733,63.1836364 36.0490404,63.7882166 35.6430557,63.8006746 C35.4613152,63.8065372 35.2795748,63.811667 35.0978343,63.8175296 C34.6698649,63.8307204 34.6705977,63.139667 35.0978343,63.1535906 L35.0978343,63.1535906 Z M32.3460786,60.5723632 C33.4760939,60.0571876 34.7548725,59.7083632 36.0043382,59.8461342 C36.5063229,59.901096 36.5312389,60.6361189 36.0043382,60.6471113 C34.8149641,60.6705616 33.7347809,60.7753555 32.6223534,61.2267754 C32.2449488,61.3792029 31.9818649,60.7387143 32.3460786,60.5723632 Z M43.1112289,56.7792281 L42.9685885,56.7909891 C42.244558,56.8855235 41.6451076,57.4732487 41.6451076,58.3145311 C41.6451076,59.1565464 42.2401611,59.7794471 42.9685885,59.8380731 C43.9710923,59.9186838 44.4518252,59.116241 44.4518252,58.2749586 C44.4518252,57.4329433 43.8912145,56.6708059 42.9685885,56.7909891 Z M56.1929916,54.3843204 C55.7430374,53.9321677 56.4304267,53.2477097 56.8913733,53.6859387 C57.6557091,54.4114349 58.3526252,55.1955571 58.9733275,56.0485647 C59.5515259,56.8436792 60.3129305,57.8219998 60.4748847,58.8076487 C60.544503,59.2334197 60.0110069,59.6885036 59.6629152,59.2803204 C59.0663962,58.5775418 58.7432206,57.6446563 58.2339076,56.8678624 C57.6432511,55.9664884 56.9521977,55.1471906 56.1929916,54.3843204 Z M40.4341538,56.3824883 L40.3333519,56.3879357 C40.0057794,56.4311723 39.7353672,56.6964548 39.7353672,57.0775235 C39.7353672,57.4578593 40.0043137,57.7399968 40.3333519,57.7663784 C40.7862374,57.8030197 41.0046191,57.4402716 41.0046191,57.0592029 C41.0046191,56.678867 40.750329,56.3337067 40.3333519,56.3879357 Z M10.8065366,51.3935906 L12.1827809,51.5306288 L11.6895901,56.4984456 L10.312613,56.3614074 L10.4833611,54.6400029 L5.52067403,54.1482777 L5.67236868,52.6240029 L10.6357885,53.115728 L10.8065366,51.3935906 Z M95.3892053,53.046696 L95.528442,54.5914899 L89.1821824,55.1601616 L89.0436786,53.6168334 L95.3892053,53.046696 Z M53.8446642,51.0356512 L53.9338404,51.0435204 C55.9820847,51.4194593 58.6253824,52.5868487 59.591245,54.5691387 C59.7722527,54.9384822 59.349413,55.2404059 59.0430923,54.9919784 C58.2157336,54.3214441 57.5708481,53.5248639 56.6460236,52.9598563 C55.7358557,52.4036426 54.7546038,52.0526197 53.7117946,51.8488945 C53.1826954,51.7455662 53.4106038,50.9482532 53.9338404,51.0435204 Z M70.6632669,48.9428059 C70.6618038,48.5309586 71.2854374,48.4422868 71.3836359,48.8453403 C71.6738343,50.0420426 71.8585061,51.2211571 72.2850099,52.3848822 C72.4667504,52.8817372 71.6782313,53.0905922 71.4964908,52.6025311 C71.0670557,51.4497983 70.6698649,50.1834777 70.6632669,48.9428059 Z M48.0266893,49.6318074 C51.2240023,48.9942502 54.8294985,49.0081739 57.8033,50.4950746 C58.2151473,50.7009983 57.9154221,51.3107082 57.5013763,51.2110441 C54.3546282,50.4562349 51.5178649,49.938128 48.2853763,50.5683571 C47.6742007,50.6870746 47.4140481,49.7541891 48.0266893,49.6318074 Z M68.9661946,48.0358624 C69.0599962,47.7757097 69.3787748,47.6613891 69.5920267,47.8702441 C69.9261946,48.1992822 69.9848206,48.5869464 70.0786221,49.0303051 C70.1797519,49.5029769 70.279416,49.9763815 70.3805458,50.4490532 C70.5197824,51.1005342 69.5341336,51.3790074 69.3787748,50.725328 L69.3787748,50.725328 L69.0424084,49.3153739 C68.9376145,48.8771448 68.8057061,48.4762899 68.9661946,48.0358624 Z M12.4227809,20.7202716 C11.958903,20.3208822 12.5605519,19.5902563 13.0632694,19.8907143 C18.3352084,23.0425922 22.6977122,27.5883021 26.2599717,32.5575845 C29.7680023,37.4506532 33.229132,43.4488212 34.1407656,49.4865616 C34.2374985,50.127783 33.3053458,50.6803326 32.9887656,49.9724242 C32.8927656,49.7584395 32.8011626,49.5429891 32.7088267,49.3275387 C31.9532847,48.8138288 31.188216,48.4349586 30.1915748,48.4100426 C29.5877275,48.3961189 29.5884603,47.4551723 30.1915748,47.4734929 C30.8247351,47.4925464 31.4908725,47.6259204 32.1005824,47.8787448 C31.9217733,47.4383174 31.7458954,46.9971571 31.5692847,46.5567296 C31.0467809,46.3251571 30.5279412,46.0847906 29.9717275,45.9301647 C28.9655595,45.6516914 27.9520633,45.5945311 26.9165824,45.6861342 C26.3618343,45.7359662 26.2387198,44.7950197 26.784674,44.7158746 C28.049529,44.5334013 29.573071,44.5260731 30.9141397,44.9203326 L30.9141397,44.9203326 L30.7360633,44.4865006 C30.0728572,44.1010349 29.4206435,43.6950502 28.717132,43.3814013 C27.1723382,42.6903479 25.5469336,42.2777677 23.8746282,42.0454624 C23.266384,41.9604548 23.4158801,40.9059204 24.0204603,40.9748059 C25.7770404,41.1741342 27.9711168,41.5867143 29.8464145,42.422867 C29.7203687,42.1465922 29.5935901,41.8710502 29.4616817,41.5969739 C28.1733763,38.9382868 26.6828114,36.3821952 24.9914527,33.9594777 C21.4687656,28.9154471 17.0696206,24.7112334 12.4227809,20.7202716 Z M49.9339077,47.9801686 L50.3622007,47.9910135 C50.8803076,48.0122655 50.8751778,48.7590135 50.3622007,48.7919906 C48.6056206,48.9026471 46.8827504,49.1803876 45.2155748,49.7541891 C44.6622923,49.9454563 44.434384,49.0777922 44.9759412,48.8843265 C46.7281244,48.2540975 48.4993611,47.9118685 50.3622007,47.9910135 Z M90.5993183,41.1843937 C91.2060969,40.9711418 91.7410588,41.0114471 92.2056694,41.3075082 C92.6695473,41.6028364 93.0235015,42.0996914 93.2682649,42.7966074 C93.3957763,43.1593555 93.4485397,43.5243021 93.4265549,43.8914471 C93.4038374,44.259325 93.3137,44.6081494 93.1561427,44.9371876 C92.9978527,45.2662258 92.7758069,45.5520273 92.487074,45.7931265 L92.487074,45.7931265 L91.418616,45.0317219 C91.7080817,44.7004853 91.903013,44.3919662 92.0056084,44.104699 C92.1067382,43.8174319 92.1038069,43.5177067 91.9938832,43.2062563 C91.8253336,42.7240578 91.5453946,42.5518441 91.1562649,42.6888822 C90.9840511,42.7489739 90.8660664,42.8523021 90.8023107,42.998867 C90.7378221,43.1461647 90.6997152,43.3249739 90.6865244,43.5360273 C90.6733336,43.7478135 90.6616084,43.9823174 90.6491504,44.2417372 C90.6440206,44.4088212 90.6264328,44.601554 90.596387,44.8192029 C90.567074,45.0361189 90.5099137,45.2552334 90.4271046,45.4750807 C90.3428298,45.6956609 90.2145855,45.8979204 90.0416389,46.0825922 C89.8686923,46.2679968 89.6356542,46.4116303 89.3439901,46.5142258 C89.006158,46.6329433 88.6800511,46.6475998 88.3649366,46.5574624 C88.0505549,46.467325 87.7676847,46.2885158 87.5155931,46.0195693 C87.2642343,45.7513555 87.0671046,45.4135235 86.923471,45.0053403 C86.7739748,44.5810349 86.7153488,44.1970349 86.7461275,43.8548059 C86.7776389,43.5133097 86.8626465,43.2165158 87.0040817,42.9666227 C87.144784,42.7174624 87.3038069,42.5159357 87.482616,42.364241 L87.482616,42.364241 L88.4880511,43.2245769 C88.3085091,43.4268364 88.1853946,43.6349586 88.1179748,43.846012 C88.0505549,44.0577983 88.0578832,44.2791113 88.1392267,44.5121494 C88.213242,44.7210044 88.3158374,44.8712334 88.447013,44.9621036 C88.5781885,45.0529739 88.7210893,45.0712945 88.8757152,45.0170655 C89.0142191,44.968699 89.1087534,44.8631723 89.1615168,44.7019509 C89.2135473,44.5407296 89.2435931,44.3406685 89.2501885,44.1025006 C89.256784,43.8650655 89.2626465,43.6144395 89.2663107,43.3520884 C89.2663107,43.0399051 89.3058832,42.7409128 89.3864939,42.4551113 C89.4656389,42.1700426 89.6026771,41.9164853 89.7946771,41.6959051 C89.9874099,41.4745922 90.2556236,41.3045769 90.5993183,41.1843937 Z M51.4170282,37.4355571 C52.1711046,37.4311601 53.0321733,37.4018471 53.6704633,37.8496029 C54.051532,38.1163509 54.055929,38.7890838 53.5319595,38.9078013 C52.8189214,39.0704884 52.1351962,38.8396487 51.4170282,38.7744273 C50.6578221,38.7055418 49.9008145,38.7187326 49.1416084,38.7868853 C48.5091809,38.84258 48.3758069,37.7961067 48.992845,37.6825189 C49.7938221,37.5344884 50.6013946,37.4392212 51.4170282,37.4355571 Z M87.0289977,31.347325 L87.908387,32.6011876 L83.8287534,35.4679968 L84.8217305,36.8830807 L83.6902496,37.678928 L80.8219748,33.5919662 L81.9541885,32.7968517 L82.9478985,34.2134013 L87.0289977,31.347325 Z M76.882384,21.1148242 L78.2109946,22.2235876 L77.879758,23.5478013 L79.4164908,24.8295113 L80.6600939,24.2674349 L81.9887046,25.3761983 L75.0898954,28.4386716 L76.882384,21.1148242 Z M77.3557885,24.6397097 L76.8508725,26.3281372 L78.4286435,25.5352212 L77.3557885,24.6397097 Z" id="Combined-Shape"></path>
                </g>
            </g>
        </g>
    </g>
</svg>