<?xml version="1.0" encoding="UTF-8"?><svg id="Layer_1" xmlns="http://www.w3.org/2000/svg" viewBox="0 0 546.89 68.58"><path d="M234.47,39.77c2.44-.16,4.79-.8,7.08-1.6,.9-.31,1.79-.67,2.68-1.03,.3,.31,.72,.54,1.26,.57,17.68,1.19,35.44,1.76,53.16,1.67,16.29-.08,32.53-1.02,48.76-2.37,10.42-.86,20.81-2.03,31.19-3.27,2.39-.28,2.54-3.83,0-3.84-.57,0-1.13-.02-1.7-.02-11.64-2.2-59.01-3.7-61.02-3.92-2.32-.26-49.23-1.3-61.74,.27-11.16,1.39-20.66,9.03-22.59,10.68-.93-.07-1.86-.25-2.77-.59-1.04-.38-1.7,1.25-.75,1.77,1.9,1.05,4.26,1.82,6.45,1.68Zm91.18-4.64c-16.26,.88-32.55,.99-48.82,.42-8.35-.29-16.69-.77-25.03-1.26,1.51-.45,3.04-.83,4.59-1.13,5.29-1.02,10.7-1.2,16.07-1.36,5.54-.17,11.08-.27,16.62-.3,18.27-.1,36.51,.8,54.76,1.48,2.13,.08,4.26,.15,6.39,.23-8.18,.81-16.36,1.48-24.57,1.92Zm-93.05,1.81c1.34-.25,3.01-.52,4.67-.77-1.55,.46-3.11,.76-4.67,.77Z"/><path d="M493.27,34.9s.06-.02,.09-.03c0,0,.02,0,.03-.01-.12,.04-.14,.05-.12,.04Z"/><path d="M543.19,13.07c-2.16-1.32-4.74-1.12-7.09-1.85-1.44-.45-2.79-1.27-4.36-1.15-.78,.06-1.49,.3-2.08,.71-.75-.66-1.82-.86-2.8-1.09-3.28-.76-6.57-1.44-9.88-2.05-3.63-.66-7.27-1.25-10.93-1.71-3.46-.44-7.3-1.18-10.77-.53-.35-.34-.78-.62-1.3-.82-1.68-.65-3.76-.49-5.54-.6-2.48-.15-4.96-.28-7.45-.43-4.58-.26-9.16-.53-13.75-.77-5.15-.27-10.31-.51-15.47-.76-1.82-.09-5.07-.58-7.19,.27-.93-.68-2.08-1.05-3.36-1.01-3.06,.11-6.26,.97-9.26,1.52-2.68,.49-5.37,.94-8.02,1.53-3.99,.9-8.3,2.15-11.79,4.49-1.27,.63-2.54,1.33-3.76,2.11-1.83-2.29-4.31-3.34-7.36-2.84-2.98,.49-5.74,2.03-8.58,3-7.03,2.4-14.27,4.11-21.6,5.33-14.79,2.45-29.84,2.86-44.8,2.94-13.7,.08-27.38-.11-41.05-.93-11.58-.69-23.15-1.62-34.75-1.99-3.93-.12-7.87-.15-11.81-.15-3.84,0-8.09-.36-11.78,.93-2.69,.95-4.72,2.75-6.13,5.09-6.12-3.84-14.3-2.13-21.13-1.41-5.53,.58-11.06,1.02-16.62,1.18-16.61,.49-33.18,1.26-49.8,.54-15.14-.66-30.17-2.44-45.18-4.45-8.61-1.16-17.22-2.36-25.84-3.48-9.52-1.24-19.14-2.16-28.48-4.44-4.5-1.1-8.85-2.57-13.08-4.46-4.01-1.79-8.38-3.73-12.87-2.7C.08,4.82,.42,13.75,3,19.32c.65,1.4,1.47,2.69,2.41,3.9-3.87,6.28-3.11,14.46,.53,20.73,.22,.38,.5,.63,.81,.79,1.73,2.71,4.32,4.8,7.98,4.55,6.52-.46,12.25-9.82,17.54-9.83,5.29,0,17.8-1.57,24.26-1.45,6.45,.12,77.68-.87,82.9-.29,5.23,.57,46.9,1.04,53.04,4.07,6.05,2.98,22.68,8.27,25.68,5.88,.41,1.04,1.04,2,1.89,2.73,5.69,4.85,12.92,1.19,18.97-.61,7.52-2.24,15.55-1.22,23.22-.56,7.42,.63,14.84,1.32,22.27,1.93,12.42,1.03,24.87,1.82,37.34,1.43,13.69-.44,27.26-2.35,40.68-5.03,8.79-1.76,17.59-4.14,26.61-4.16,4.03,0,8.54,1.23,12.41-.32,1.2-.48,2.33-1.31,3.2-2.33,.29,.35,.74,.56,1.34,.5,1.63-.17,3.14-.82,4.78-.93,1.37-.09,2.73,.02,4.08,.3,2.76,.58,5.39,1.66,8.13,2.33,3.01,.74,6.05,.95,9.11,.36,1.55-.3,3.21-.75,4.18-2.11,.55-.77,.73-1.63,.49-2.38,1.52,.63,3.04,1.26,4.56,1.88,3.06,1.26,6.11,2.54,9.18,3.79,3.06,1.25,6.14,2.46,9.2,3.69,1.1,.44,2.24,.91,3.41,1.28-.03,.21-.03,.43,.02,.67,.36,1.79,.87,3.56,1.36,5.32-2.68-1.23-5.62-1.83-8.54-2.19-1.14-.14-1.87,1.19-1.63,2.15,1.97,7.88,10.62,13.05,18.49,11.26,2.35,.77,5.08-.8,5.86-3.16,.7-2.11,.29-4.95-.17-7.04-.19-.89-.46-1.76-.76-2.61,3.62,1.89,7.7,2.85,11.79,2.8,.61,.32,1.26,.56,1.96,.68,3.53,.61,7.03-1.94,6.39-5.73-.31-1.81-1.42-3.39-2.39-4.9-.87-1.37-1.76-2.73-2.66-4.09,.12,.02,.25,.04,.37,.06,1.48,.2,2.97,.39,4.46,.56,1.73,.2,3.47,.33,5.21,.44,.45,.28,.91,.54,1.4,.76,3.35,1.46,7.99,.49,9.23-3.35,1.41-4.34-2.96-7.54-5.81-9.94-3.94-3.31-7.9-6.52-12.11-9.49,.08-1.51-1-2.64-2.53-3.03-2.3-.59-4.73-.87-7.08-1.25-4.69-.76-9.4-1.4-14.12-1.91-5.4-.59-10.82-.98-16.24-1.23-4.48-.2-9.01-.3-13.49,.03,.65-.47,1.28-.95,1.85-1.5,.43,.26,.92,.45,1.44,.57,1.83,.41,3.68,.18,5.5-.13,2.35-.4,4.66-.8,7.05-.94,8.84-.52,17.8,.77,26.6,1.54,2.87,.25,6.6,.93,9.23-.64,.07,.11,.12,.23,.2,.34,1.42,1.89,3.84,2.15,6.03,2.22,3.2,.1,6.41,.2,9.61,.29,3.08,.09,6.56-.22,9.53,.76,2.48,.82,4.48,3.07,7.3,2.56,.79-.14,1.47-.49,2.05-.96,.21,.2,.44,.39,.72,.54,.58,.3,1.22,.52,1.85,.67,1.25,.29,2.68,.57,3.96,.46,.73-.06,1.45-.26,2.06-.69,.47-.33,.86-.82,1.43-.97,1.18-.31,2.52,.17,3.73,.11,1.38-.07,2.91-.68,2.95-2.29,.04-1.38-1.02-2.47-2.12-3.14Zm-119.07-5.14c2.39-.5,4.82-.85,7.23-1.22,3.1-.48,6.19-1.1,9.29-1.52,.9-.12,1.68-.17,2.13,.71,.39,.77,.28,1.67-.07,2.42-1.05,2.23-3.7,3.45-5.57,4.89-.51,.4-.98,.81-1.4,1.25-.17,.05-.34,.13-.51,.25-1.12,.83-1.7,1.94-1.82,3.1-.27,.55-.51,1.13-.72,1.75-.41,1.19-.73,2.43-1.32,3.55-.15,.29-.31,.57-.48,.85-.32,.06-.64,.22-.93,.53-.33,.34-.57,.73-.74,1.14-2.34,.19-4.97,.67-8.25,1.3-7.77,1.49-11.65-.68-17.41-1.32,.03-1.56,.31-3.13,1.02-4.72,.93-2.07,2.02-4.07,3.66-5.66,1.52-1.48,3.32-2.6,5.04-3.82,3.29-1.86,7.25-2.75,10.85-3.49Zm50.38,19.07c.34,.06,.67,.1,1.01,.16,2.26,.41,4.5,.91,6.72,1.53,1.92,.54,3.83,1.37,5.83,1.54,.22,.02,.45,.02,.66,.02,1.35,.86,2.75,1.48,3.96,2.58,.55,.5,1.07,1.03,1.57,1.57-.03,.02-.06,.03-.09,.04-.23,.12-.46,.26-.69,.38-.02,.01-.05,.03-.09,.04,.02,0,.05-.02,.08-.03-.04,.01-.07,.03-.11,.04-.04,.01-.07,.03-.09,.03-.13,.05-.26,.09-.4,.14-1.36,.52-2.64,1.72-3.12,3.12-.16-.22-.33-.45-.49-.67-1.1-1.55-2.35-2.98-3.35-4.59-.07-.11-.15-.19-.23-.26-.37-.84-1.09-1.46-2.08-1.74-2.09-.59-4.39-.79-6.53-1.17-4.21-.74-8.42-1.48-12.63-2.22-5.11-.9-10.22-1.75-15.34-2.58,1.86,.09,3.72,.18,5.59,.27,6.54,.76,13.77,1.36,19.81,1.8Zm6.93,10c-.4,.51-.9,1.03-1.47,1.35-.8,.45-1.17,.19-1.92-.23-1.35-.76-2.7-1.43-4.18-1.9-2.44-.78-4.99-1.18-7.52-1.59-10.07-2.71-25.24-6.15-28.33-7.57-1.28-.59-2.5-.98-3.74-1.21,.22-.35,.42-.72,.61-1.08,.01,0,.02,0,.03,.01,14.12,2.91,28.26,5.67,42.44,8.3,.75,.14,1.49,.28,2.24,.41,.66,.12,2.25,.15,2.8,.52,.09,.06,.32,.1,.31,.07,.07,.15-.1,.58-.14,.74-.21,.79-.6,1.55-1.11,2.19Zm-11.36,7.06c0,.8-.49,1.49-1.25,1.97-.33,.21-.68,.34-1.04,.41-1.08-1.02-2.28-1.85-3.45-2.38-1.56-.72-7.63-3.07-13.68-5.39,.08,.02,.16,.04,.24,.05,6.48,1.37,13.08,2.67,19.17,5.33Zm-34.37-21.29s.03,.02,.04,.03c-.02,0-.04,0-.05,0,0,0,0-.02,0-.02Zm-214.35,24.24c-1.29-1.73-.89-5.05,1.28-5.93,1.04-.42,1.06-2.34-.29-2.18-.81,.1-1.51,.35-2.11,.7-1.62-1.77-7.91-3.55-15.39-3.5-10,.08-47.42-1.69-56.84-1.55s-74.65-5.27-74.65-5.27c0,0-37.75-4.15-40.65-4.47s-17.03-.11-19.74,3.12c-1.36,1.62-3.94,2.22-5.99,3.41,.07-.71,.18-1.42,.36-2.13,.33-1.29,.77-2.44,1.4-3.6,.2-.36,.42-.71,.64-1.06,.13-.21,.63-.84-.01-.02,.72-.92,.8-1.97,0-2.89-2.24-2.59-4.01-5.91-4.09-9.4-.06-2.61,.84-4.84,3.6-5.35,4.07-.77,8.29,1.8,11.89,3.32,4.2,1.77,8.55,3.09,12.99,4.1,8.94,2.03,18.09,2.9,27.17,4.05,8.31,1.05,16.61,2.17,24.91,3.26,14.38,1.89,28.79,3.63,43.29,4.36,16.53,.84,33,.19,49.52-.44,4.94-.19,9.87-.38,14.79-.86,3.69-.36,7.37-.81,11.05-1.24,3.74-.45,7.71-.9,11.44-.13,1.25,.26,2.44,.62,3.59,1.11-1.23,3.08-1.32,6.28-1.27,9.56,.03,1.64,2.59,2.11,2.95,.4,.56-2.69,1.21-5.47,2.26-8.02,1.01-2.46,2.74-4.32,5.37-4.97,3.16-.79,6.71-.38,9.93-.32,3.38,.06,6.75,.15,10.12,.28,11.14,.41,22.25,1.18,33.37,1.9,12.74,.82,25.48,1.15,38.24,1.15,14.42,0,28.88-.16,43.21-1.88,7.96-.96,15.83-2.38,23.58-4.44,3.71-.99,7.36-2.14,10.94-3.54,2.16-.84,4.71-2.25,6.06-.16,0,.01,.02,.02,.02,.03-1.22,1.46-2.2,3.15-2.97,4.85-1.39,3.07-1.77,6.24-1.35,9.56,.01,.08,.03,.16,.04,.24-.08,1.58-.3,3.61-1.69,5.95-1.18,1.99-3.4,3.45-5.74,4.5-2.05-.12-4.11-.25-6.19-.12-2.57,.15-5.12,.47-7.66,.87-4.48,.06-19.76,3.49-22.53,3.64-3.55,.2-36.77,3.01-46.25,3.73-9.48,.72-58.14-5.8-65.81-5.47-5.23,.23-10.29,4.01-13,6.4-.62,.17-1.24,.33-1.88,.46-2.63,.51-6.15,.32-7.91-2.04Zm253.91,15.87s-.27,.24-.22,.21c.01,0-.26,.14-.33,.17-.16,.06-.47,.16-.68,.17-.03-.04-.2-.13-.18-.12-.32-.32-.72-.54-1.13-.76,1.43-2.21-1.11-5.68-1.21-8.89-.05-1.49-.57-2.96-1.36-4.3,.89-.46,1.7-1.11,2.31-1.91,1.16,4.66,3.34,9.07,3.19,13.96-.02,.55-.02,.97-.38,1.46Zm-.71-17.59c-.15-.54-.51-.81-.91-.88,.06-.85-.06-1.79-.52-2.48-.73-1.11-2.83-1.58-4.03-2.03-3.38-1.26-6.86-2.14-10.38-2.89,3.92,.73,7.9,1.23,11.78,2.11,1.68,.38,3.36,.86,4.9,1.63,.97,.48,1.89,.99,2.87,1.22,.76,1.93,1.76,3.73,2.91,5.43-1.89,.13-3.69,.85-5.05,2.26-.6-1.43-1.17-2.87-1.58-4.37Zm8.91,5.18c.04,.06,.09,.11,.13,.17,.6,.75,1.23,1.57,1.9,2.37-2.04-.36-4.03-1.01-5.9-1.94,.28-.16,.55-.29,.76-.37,1.02-.35,2.05-.4,3.11-.24Zm9.02,3.22c-1.18-.12-2.15-1.01-2.93-1.83-1.05-1.1-2.01-2.32-2.97-3.5-1.84-2.24-3.3-4.61-4.64-7.15,1.56-1.03,2.88-2.77,3.56-4.59,.88,1.62,1.73,3.25,2.66,4.85,1.47,2.52,3.05,4.97,4.57,7.46,.62,1.03,1.74,2.39,1.66,3.65-.05,.91-1.13,1.2-1.9,1.12Zm.68-14.33s0,0,0,0c-.01,.03,0,.01,0,0Zm3.06,.19c-.57-.09-1.14-.17-1.7-.25-.35-.05-.81-.18-1.19-.23,.07-.1,.12-.18,.05-.1,.27-.33,.38-.4,.7-.57-.21,.11,.17-.07,.21-.09,.22-.09,.45-.18,.67-.28,.57-.26,1.11-.58,1.65-.89,.76,.93,1.51,1.9,2.31,2.85-.9-.15-1.79-.31-2.69-.44Zm-2.15-13.91c.23-.47,.49-.95,.73-1.43,2.57,2.63,5.22,5.15,7.99,7.57,1.54,1.34,3.09,2.66,4.61,4.03,.96,.87,2.37,2.06,2.53,3.44,.13,1.11-.87,1.76-1.85,1.94-1.34,.23-2.62-.48-3.65-1.26-2.51-1.89-4.36-4.66-6.43-6.99-1.46-1.64-3.24-3.52-5.27-4.73,.03-.05,.07-.09,.1-.14,.5-.75,.84-1.62,1.23-2.43Zm-54.65-8.89c8.02,.79,16.11,.8,24.14,1.47,8.05,.68,16.08,1.69,24.04,3.08,1.01,.18,2.03,.36,3.04,.55,.22,.04,.72,.22,1.07,.27-.97,1.14-.95,3.41-2.2,4.31-.22,.16-.48,.23-.76,.25,.13-.41,.04-.84-.63-1.15-1.68-.77-6.13-3.03-12.52-3.73-2.8-.31-10.37-.24-18.13-.18-.09,0-.18-.01-.27-.01-4.28-.22-8.56-.38-12.84-.66-1.84-.12-3.98-.05-5.72-.75-.5-.2-1.13-.69-1.44-1.25,.41-.76,.9-1.48,1.6-2.1,.08-.07,.16-.13,.24-.2,.11,.05,.23,.09,.38,.1Zm53.38-7.68c-.79,2.42-5.53,1.33-7.32,1.17-7.09-.62-14.19-1.45-21.31-1.67-4.06-.12-8.11,.06-12.12,.77-.84,.15-1.68,.34-2.53,.46-.43,.06-.86,.11-1.29,.13-.55,.03-1.25-.17-1.77-.08-.05-.01-.1-.03-.16-.04,0-.02,.01-.04,.02-.06,.37-.72,.73-1.46,1.07-2.19,.49-1.07-.07-2.07-.87-2.53-.04-.12-.08-.23-.13-.35,.31-.01,.61,0,.87,0,1.89,.07,3.79,.28,5.68,.42,3.63,.27,7.26,.53,10.88,.8,7.44,.55,14.89,1.05,22.34,1.58,1.72,.12,3.44,.24,5.15,.35,.98,.06,1.87-.01,1.47,1.22Zm34.77,5.13c-.1,.73-.43,1.64-1.13,2-1.64,.86-4.1-1.44-5.53-2.05-2.14-.91-4.46-1.01-6.75-1.05-2.58-.05-5.17-.09-7.75-.13-2.59-.04-5.48,.27-8.03-.3-2.83-.63-1.95-2.81-1.26-4.83,1.83,.4,3.75,.5,5.6,.75,2.64,.35,5.28,.72,7.91,1.13,5.17,.81,10.3,1.8,15.4,2.98,1.22,.28,1.71,.15,1.54,1.5Zm13.83,1.53c-.52-.04-1.04-.12-1.56-.16-1.07-.08-2.2,.05-3.12,.62-.41,.25-.73,.65-1.15,.88-.4,.22-.86,.21-1.3,.2-1.09-.04-2.24-.17-3.28-.52-.27-.09-.56-.25-.86-.41,.22-.5,.37-1.03,.45-1.57,.05-.34,.08-.7,.09-1.07,.13-.15,.23-.32,.31-.51,.2-.52,1.21-.43,1.61-.34,1.04,.25,1.97,.79,3,1.08,1.86,.54,3.92,.45,5.73,1.17,.35,.14,.72,.33,1.01,.58-.31,.01-.64,.05-.92,.03Z"/></svg>