<?xml version="1.0" encoding="UTF-8"?><svg id="Layer_1" xmlns="http://www.w3.org/2000/svg" viewBox="0 0 115.67 144.44"><defs><style>.cls-1{fill:#010101;}</style></defs><path class="cls-1" d="M70.07,62.03c-1.5-3.29-4.67-5.52-8.02-6.63-3.88-1.29-8.17-1.12-12.18-.71-3.71,.38-7.39,1.26-10.12,3.98-2.8,2.78-3.85,6.75-3.31,10.6,.5,3.56,1.99,7.42,4.46,10.09,.46,.5,1,.62,1.5,.52,.58,.67,1.2,1.31,1.91,1.83,1.28,.94,2.8,1.62,4.3,2.14,3.23,1.13,6.71,1.31,10.1,1.06,3.23-.24,6.23-.96,8.5-3.44,2.16-2.35,3.28-5.48,3.76-8.59,.54-3.58,.65-7.5-.88-10.85Zm-3.89,0c1.92,2.45,1.95,5.82,1.71,8.78-.07,.85-.18,1.7-.35,2.55-1.41,.22-4.42,2.65-5.3,.6-1.2-2.81,2.81-3.61,2.01-6.02-.8-2.41-4.82,2.41-6.42-1.61-1.1-2.74,2.87-5.3,5.11-6.9,1.25,.64,2.38,1.49,3.25,2.6Z"/><path class="cls-1" d="M83.43,73.79c-.34-1.05-.65-2.17-1.45-2.98-.86-.87-2.16-1.15-3.23-.46-.96,.63-1.18,1.72-1.47,2.75-.37,1.3-.86,2.55-1.45,3.77-.43,.89-.91,1.75-1.4,2.6-1.03,1.32-2.04,2.84-2.71,4.35-1.21,1.81-2.72,4.07-1.54,6.2,1.35,2.44,4.7,2.07,6.33,.18,1.25-1.45,1.53-3.35,2.2-5.06,.15,.55,.22,1.13,.18,1.72-.09,1.26-.7,2.49,.3,3.6,1.73,1.91,4.71,.32,5.94-1.32,1.57-2.09,1.53-4.73,.91-7.16-.7-2.76-1.74-5.47-2.62-8.18Zm-.17,11.85c-.06,.4-.19,.79-.39,1.16-.24-.31-.55-.64-.89-1.01-.12-1.26-.53-2.48-1.2-3.59,.32-.71,.87-1.46,1.28-2.39,.01,.04,.03,.09,.04,.13,.58,1.77,1.45,3.79,1.15,5.7Z"/><path class="cls-1" d="M112.06,68.78c0-.06,.03-.12,.02-.19-.35-4.22,2.54-7.94,2.96-12.07,.22-2.17-.4-4.21-1.37-6.13-.94-1.85-2.23-3.56-2.88-5.55-.8-2.43-.59-5.02-.74-7.54-.15-2.4-.56-4.8-1.25-7.11-1.32-4.39-3.62-8.39-6.62-11.84-5.88-6.77-14.14-10.95-22.64-13.42-4.85-1.42-9.84-2.31-14.84-3.06-5.02-.75-10.09-1.59-15.17-1.55-9.38,.06-18.42,3.31-25.92,8.91-7.28,5.45-12.87,12.86-17.02,20.91C2.41,38.24,.03,47.24,.67,56.39c.46,6.58,1.04,13.23,2.1,19.75,.56,3.44,2,6.66,3.69,9.68,1.94,3.48,4.25,6.75,6.72,9.88,4.39,5.58,9.49,10.76,15.51,14.58,1.73,1.1,3.51,2.1,5.31,3.07,.03,.01,.05,.02,.08,.03-.22,2.56-.22,5.08,1.09,7.47,1.86,3.41,5.51,5.41,7.9,8.41,2.2,2.75,2.8,6.27,4.4,9.34,1.72,3.28,4.67,5.22,8.37,5.49,3.97,.29,7.68-1.29,11.4-2.42,1.96-.59,3.94-1.02,6-.86,2.16,.17,4.25,.87,6.39,1.17,3.26,.46,7.06-.05,9.17-2.86,1.34-1.78,1.41-4.14,1.96-6.23,.63-2.41,1.49-4.75,2.12-7.16,1.07-4.05,1.85-9.11-.38-12.92,.29-.39,.48-.8,.62-1.24,2.9,.55,5.79-1.54,6.29-4.48,.14-.83,.15-1.66,.38-2.47,.01-.05,.02-.08,.03-.11,.01-.02,.03-.05,.06-.1,.08-.14,.15-.28,.23-.42,.17-.28,.35-.55,.53-.82,.88-1.29,1.72-2.62,1.45-4.24,5.49-1.61,10.02-6.08,12-11.41,2.31-6.24,.52-12.83-1.98-18.76Zm-22.01,55.41c-.55,2.04-1.23,4.05-1.84,6.08-.56,1.89-.85,3.83-1.36,5.73-.81,2.97-4.39,3.31-6.96,2.9-2-.32-3.94-.88-5.96-1.13-2.02-.25-4.05-.01-6.02,.48-3.52,.87-6.9,2.62-10.58,2.72-1.57,.05-3.15-.19-4.51-1.03-1.23-.76-2.05-1.97-2.68-3.24-.94-1.87-1.54-3.88-2.37-5.78,.02-.1,.04-.21,.02-.37-.4-3.61-7.63-10.44-8.83-13.65-1.2-3.21,1.2-11.24,.4-14.05-.05-.19-.11-.35-.16-.51,.18,.06,.36,.13,.54,.19,0,.14,.02,.28,.09,.43,.54,1.12,.53,2.49,.67,3.7,.14,1.31,.27,2.61,.81,3.83,.59,1.34,1.6,2.23,2.92,2.83,.47,.21,1.13,.39,1.4,.86,.39,.68,.28,1.91,.4,2.66,.51,3.33,1.94,6.78,5.03,8.49,1.48,.82,2.89,.79,4.51,.99,1.47,.18,1.23,1.55,1.14,2.74-.17,2.08,3.1,2.08,3.25,0,.02-.32,.03-.63,.03-.95,.1,0,.2,.01,.3,.02,.17,.03,.33,.08,.5,.14,.12,.06,.23,.12,.33,.2,.13,.11,.25,.23,.36,.35,.11,.16,.21,.32,.29,.5,.07,.2,.12,.41,.16,.62,.02,.3,.03,.61,0,.92-.04,.39,.21,.9,.48,1.17,.29,.29,.75,.5,1.17,.48,.91-.04,1.63-.72,1.65-1.65,0-.29-.02-.59-.06-.89,.29,0,.57,0,.86,0,.41,0,.81,0,1.22,0,.21,0,.43,0,.64,.01,.08,0,.18,.02,.27,.03,.04,.75,.06,1.55,.45,2.21,.43,.73,1.34,1.02,2.11,.69,.32-.14,.64-.37,.81-.69,.23-.43,.24-.83,.17-1.3-.02-.16-.06-.31-.1-.46,0-.01,0-.02,0-.03,0-.03,0-.06,0-.09,0-.01,0-.03,0-.04,.61,0,1.23,.02,1.84,.02,.42,0,.83,0,1.25-.02,.05,0,.32-.03,.5-.02,0,0,.03,.02,.09,.03,0,0,0,0,0,0,0,0,.02,0,.02,.01,.01,.02,.03,.03,.04,.05,.02,.03,.04,.06,.05,.1,.03,.1,.07,.21,.1,.31,.02,.06,.03,.12,.04,.18,.01,.03,.02,.09,.03,.14,0,0,0,0,0,0,0,.03,0,.05,.02,.08,0-.02,0-.03-.01-.05,0,.06,0,.12,.01,.18,.02,.29,.02,.58,0,.87-.03,.84,.76,1.65,1.61,1.61,.86-.04,1.63-.71,1.61-1.61-.01-.81-.11-1.7-.39-2.5,.04-.02,.08-.04,.12-.06,.08-.04,.16-.07,.23-.11,.01,0,.02,0,.04-.01,.36-.12,.72-.25,1.1-.33,.03,0,.08-.02,.12-.04,.05,0,.1-.01,.16-.01,.09,0,.19,0,.28,0,.03,0,.06,0,.09,0,.05,.02,.1,.04,.16,.05-.09-.03-.04-.06,.06,0,0,0,.02,.01,.03,.02,.02,0,.05,.01,.06,.01h0s-.04,0-.06-.01c.04,.02,.07,.05,.11,.07,.04,.05,.09,.09,.14,.13,.01,.01,0,0,.02,.02,.02,.02,.03,.05,.04,.07,.03,.05,.06,.11,.09,.16,.01,.04,.02,.09,.04,.14,0-.03,.03,.01,.03,.12,0,.02,0,.04,.01,.06,0,0,0,0,0,0,0-.01,0-.02-.01-.04,0,.05,0,.11,0,.16-.04,.28-.06,.55,.03,.83,.38,1.11,1.73,1.54,2.62,.69,.71-.68,.68-1.83,.37-2.78,.24-.77,.63-2.57,1.58-2.68,.22-.02,.65,.14,.94,.14,.52,.01,1.08-.21,1.45-.58,.59-.58,.87-1.52,1.12-2.29,.48-1.53,1.29-3.25,1.18-4.89-.05-.77-.3-1.44-.55-2.16-.06-.16-.11-.32-.16-.48-.02-.07-.11-.24-.11-.24,0,0,0,0,0,0,0,0,.01,.02,.04,.07-.02-.03-.02-.09-.03-.13,.03-.15,.09-.32,.13-.46,.09-.25,.09-.5,.05-.74,.15-.04,.3-.1,.45-.15,.78,3.35,.62,6.59-.3,9.97Zm-22.38-9.78s.01-.03,.02-.04c0,0,0,.02-.02,.04Zm-.08,.13s-.05,.07,0,0h0Zm16-1.82s-.03,.05,0,0h0Zm.05-.07s0,0,0,0c.01-.01,.01-.01,.02-.03-.01,.01-.01,.02-.02,.03Zm-.07,.08s-.06,.07,0,0h0Zm6.21-1.54s-.04,.03,0,0h0Zm-.07,4.44h0s0,0,0,0Zm-8.43,14.36s0,0,0,0c0,0,0,0,0,0,0,0,0,0,0,0Zm-.3-.69s.04,.06,.06,.09c-.02-.03-.05-.06-.06-.09,0,0,0,0,0,0Zm.1,.13s.03,.03,0,0h0Zm-.92-.32c-.05,0-.1,.01-.16,.02,.06-.02,.11-.03,.16-.02Zm-12.06,.63s.01,.04,.02,.06c0,0,0,.03,.01,.05,0,0,0,0,0,0-.02-.03-.05-.1-.07-.24,0,.04,.02,.08,.04,.12,0,0,0,0,0,0Zm-8.58-4.03s-.02-.07-.04-.1c.05,.02,.1,.05,.15,.07-.04,.01-.07,.02-.11,.03Zm4.39,1.33c.18,.04,.35,.07,.53,.1-.12,.03-.24,.08-.36,.11-.05-.07-.11-.14-.17-.21Zm6.96,.88c-.04-.06-.09-.11-.14-.17,.25,0,.49,.03,.73,.07-.2,.03-.39,.06-.59,.1Zm4.32,2.36s0,0,0,0c0,0-.01,0-.02,0,0,0,0,0,.01,0Zm.21,.26c.05,.1,.03,.07,0,0h0Zm6.84-4.14s0,.03,0,.04c-.03-.01-.06-.03-.09-.04,.03,0,.06,0,.1,0Zm28.98-40.13c-1.88,5.56-6.68,9.1-12.29,10.23-.81,.16-1.28,1.12-1.07,1.88,.17,.61,.62,.93,1.16,1.04-.01,.09-.03,.16-.02,.17-.02,.09-.04,.18-.07,.26-.01,.05-.05,.14-.07,.18-.06,.12-.12,.24-.19,.36-.27,.47-.59,.9-.9,1.34-.38,.56-.71,1.14-.95,1.78-.28,.72-.34,1.5-.4,2.25-.05,.58-.12,1.12-.34,1.66-.02,.03-.07,.16-.09,.19-.06,.12-.13,.23-.2,.35-.17,.27-.19,.28-.43,.52-.51,.51-1.19,.98-1.95,1.24,.01-.08,.02-.16,.03-.24,.18-1.27,.34-2.54,.45-3.83,.07-.77-.65-1.44-1.36-1.54-.71-.1-1.58,.35-1.72,1.12-.2,1.12-.36,2.24-.5,3.37-.06,.49-.12,.98-.18,1.48-.01,.11-.03,.21-.04,.32,0,.02,0,.03,0,.05-.02,.13-.04,.25-.07,.37,0,.03-.05,.13-.07,.19,0,0,0,0,0,.01-.03,.03-.06,.06-.09,.09-.03,.03-.05,.05-.07,.06-.07,.04-.13,.09-.2,.13-.2,.12-.41,.22-.61,.32-.03,.01-.03,.02-.05,.02,0,0,0,0-.03,0-.16,.05-.31,.12-.46,.19,0,0-.1,.04-.16,.06-.1,.04-.21,.07-.31,.1-.21,.06-.42,.12-.63,.16,0,0-.36,.06-.2,.04-.12,.02-.25,.03-.37,.04,0-.04,.01-.09,.01-.13,.15-1.82-.01-3.66-.45-5.43-.19-.76-1.08-1.29-1.84-1.04-.82,.27-1.2,1.01-1.04,1.84,.03,.16,.06,.32,.09,.49,.01,.07,.02,.14,.03,.21,0,0,0,.03,0,.06,0,.05,.02,.14,.02,.16,0,.07,.01,.14,.02,.21,.02,.19,.05,.37,.06,.56,.06,.63,.09,1.26,.09,1.9,0,.3-.01,.61-.03,.91,0,.1-.02,.2-.02,.31-.02,.05-.02,.13-.03,.17-.02,.07-.04,.13-.05,.2,0,0,0,0,0,0-.05,.01-.11,.02-.13,.03-.24,.06-.48,.1-.73,.14-.03,0-.1,.02-.16,.03,0,0,0,0,.01,0-.14,.03-.29,.03-.43,.05-.26,.02-.53,.04-.79,.03-.08,0-.16,0-.24-.01,0,0-.03,0-.05,0-.02,0-.03,0-.04,0-.1-.02-.19-.04-.29-.07-.06-.02-.11-.03-.17-.05,0,0-.02,0-.04-.02-.05-.03-.2-.11-.23-.13-.04-.03-.08-.06-.12-.08-.02-.01-.02,0-.02-.01-.06-.05-.12-.12-.17-.16-.08-.07-.14-.16-.22-.23,0-.01-.02-.03-.03-.04-.06-.09-.12-.19-.17-.28-.02-.04-.09-.18-.11-.23-.17-.44-.3-.9-.41-1.35-.06-.26-.12-.53-.16-.8-.02-.12-.04-.23-.06-.35-.01-.07-.02-.13-.03-.2,0-.02,0-.04,0-.04,0-.02,0-.03,0-.05-.02-.13-.05-.26-.11-.37,.01-.18,.02-.35,.03-.53,.03-.56-.1-1-.33-1.5-.43-.95-1.76-.74-2.25,0-.46,.7-.47,1.53-.54,2.35-.06,.68-.12,1.35-.18,2.03-.03,.34-.06,.68-.09,1.02-.01,.15-.02,.31-.04,.46,0,.05-.02,.21-.02,.26-.02,.12-.04,.23-.07,.34-.01,.05-.08,.22-.08,.25-.02,.04-.05,.08-.07,.12,.02-.04-.11,.15-.17,.21-.02,.02-.03,.03-.05,.05-.09,.04-.19,.12-.28,.17-.04,.02-.08,.04-.11,.06-.09,.03-.18,.07-.27,.09-.23,.07-.46,.13-.7,.17-.02,0-.1,.02-.17,.03-.05,0-.24,.03-.27,.04-.76,.08-1.46,.18-2.16,.29,.11-.33,.2-.67,.28-1.01,.14-.61,.23-1.23,.31-1.85,.07-.57,.15-1.15,.09-1.72-.08-.77-.52-1.39-1.33-1.5-.69-.09-1.55,.34-1.68,1.1-.1,.58-.13,1.15-.19,1.73-.01,.12-.02,.26-.04,.38,0,.02,0,.04-.01,.06-.04,.24-.08,.48-.13,.72-.09,.48-.2,.96-.32,1.43-.06,.23-.12,.46-.19,.68-.01,.03-.02,.07-.03,.1,0,0,0,0,0,0-.03,.02-.06,.04-.1,.06-.02,0-.03,.01-.06,.02-.03,.01-.07,.02-.1,.04-.12,.04-.25,.08-.37,.12-.46,.14-.92,.27-1.39,.38-.21,.05-.42,.08-.64,.12-.13,.02-.25,.04-.38,.07-.04,0-.08,.01-.13,.02,.09,0,.08,0,0,0-.21,.03-.42,.04-.62,.05,.34-1.61,.3-3.27-.32-4.8-.72-1.81-3.32-1.15-2.95,.81,.21,1.11,.28,2.26,.05,3.36,0,0-.01,0-.02,0-.25,0-.51,0-.76-.02-.4-.04-.83-.1-1.16-.35-.63-.49-.82-1.45-1.04-2.16-.38-1.18-.95-2.19-2.17-2.64-.93-.34-1.92-.18-2.87-.41-2.11-.52-2.68-2.76-4.06-4.19-.47-.49-.98-.9-1.5-1.28,1.47,.06,3.01,.14,4.46-.03,1.95-.23,2.01-2.92,0-3.08-2.72-.22-5.44,.09-8.16-.36-2.61-.43-5.18-1.33-7.2-3.09-4.15-3.63-6.46-9.55-6.99-14.93-.12-1.18-1.82-1.23-1.87,0-.01,.32-.02,.64-.02,.97-2-1.85-5.56,.25-6.39-5.56-.43-3-.28-4.62,.37-6.22,.35-.15,.69-.31,1.02-.49,2.1-1.15,3.93-2.97,4.59-5.32,.83-2.96-.37-5.91-.78-8.83-.42-2.96-.33-6.15,.17-9.09,.21-1.25-1.44-1.71-1.9-.52-.15,.38-.29,.77-.41,1.15-1.24-8.42-3.41-16.97-5.48-19.25-2.16-2.38-4.31-2.8-6.34-1.92,.17-.27,.33-.56,.51-.83,2.31-3.62,4.88-7.06,7.94-10.08,6.24-6.16,14.24-10.63,22.95-12.04,4.54-.74,9.19-.52,13.73,.07,4.87,.64,9.74,1.31,14.55,2.32,8.6,1.8,17.13,4.77,24.01,10.41,3.14,2.58,5.86,5.64,7.79,9.23,2.21,4.1,3.17,8.56,3.32,13.19,.08,2.39,.17,4.83,1.08,7.08,.79,1.96,2,3.68,2.96,5.55,.87,1.7,1.25,3.43,.86,5.32-.41,1.97-1.25,3.83-1.82,5.76-.38,1.27-.6,2.51-.53,3.77-.1,.19-.16,.4-.12,.63,.13,.92,.28,1.84,.45,2.75-.93-.32-2.09,.18-2.26,1.14-1.28-.53-3.19-.07-3.96-.58-1.2-.8,2.41-4.01,2.01-6.83-.4-2.81-4.01,2.41-6.83,.4-2.26-1.62-.37-5.57,.46-7.05,1.54-.22,3.13-.31,4.64-.14,2.02,.24,4.86,1.76,4.35,4.21-.23,1.07,1.24,1.45,1.62,.45,.9-2.33-.3-4.78-2.27-6.11-2.2-1.48-5.21-1.43-7.75-1.24-4.43,.33-9.32,1.66-12.13,5.36-3.64,4.79-2.35,11.42,.24,16.36,2.45,4.66,8.49,6.61,13.47,6.16,2.86-.26,5.37-1.44,7.24-3.64,.99-1.16,1.85-2.59,2.23-4.09,.27,.92,.53,1.84,.74,2.78,.67,2.98,.57,5.99-.41,8.89Z"/><path class="cls-1" d="M75.54,131.13s0-.02,0-.03c-.01-.05-.02-.1-.03-.15-.02-.06-.03-.05,.03,.17Z"/><path class="cls-1" d="M81.25,129.9s0-.01,0-.02c-.01-.04-.02-.08-.03-.12,0,.02,0,.07,.03,.14,0,0,0,0,0,0Z"/><path class="cls-1" d="M80.78,129.19s-.06-.01-.09-.02c.02,0,.06,.01,.09,.02,0,0,0,0,0,0Z"/></svg>