<svg width="1116" height="219" viewBox="0 0 1116 219" fill="none" xmlns="http://www.w3.org/2000/svg">
<path d="M1099.42 120.476L1116 108.361L1103.88 89.8627L1114.09 84.1216L1101.34 69.4478L1110.9 58.6073L1090.27 45.4809L1097.03 25.8132L1080.44 26.4287L1071.21 6.76103L1054.01 15.9838L1038.33 3.07719L1014.21 22.3316L996.983 1.91665L974.66 16.5904L963.178 5.10814L944.038 14.6738L926.814 0L898.75 19.1401L871.961 1.28363L845.805 19.1401L828.582 3.8333L799.243 18.5071L785.211 5.74995L761.613 19.1489L750.773 7.03358L735.466 19.1489L725.258 7.6666L709.31 21.0656L692.086 8.30841L674.23 22.3404L651.907 10.8581L636.6 24.8901L615.552 12.1329L596.412 29.9894L569.623 10.4273L549.753 25.1978L527.527 11.0427L509.671 24.8637L487.348 7.0072L467.575 22.314L456.092 12.1065L440.144 22.947L427.386 8.91506L404.422 24.2219L389.115 12.1065L371.259 22.947L352.171 7.9919L335.537 21.0392L325.329 9.55687L318.313 22.9558L300.457 7.0072L281.317 22.314L273.659 8.28204L256.435 20.3974L248.778 12.1065L236.02 22.314L211.139 9.55687L197.74 24.8637L179.242 12.7484L155.644 26.1473L130.763 14.032L123.105 26.1473L109.073 13.3902L97.5909 26.1473L84.8337 14.665L77.1759 24.8725L63.1439 12.1153L52.9365 29.9718L42.729 23.5889L37.6296 36.346L21.048 32.5215L24.2395 49.745L9.56566 51.0198L17.2235 68.8763L0 75.8923L18.4983 95.0324L6.38297 106.515L17.8653 127.563L5.74995 139.678L22.9734 156.26L16.5904 167.742L35.0888 181.246L29.9894 197.195L46.5711 192.729L47.8459 209.31L78.4595 196.553L77.8177 214.41L103.974 197.828L109.073 209.31L134.587 194.637L142.245 207.394L154.361 196.553L162.651 208.036L173.492 199.103L184.974 211.218L207.297 199.736L226.771 214.48L254.501 202.927L275.549 218.234L300.43 195.27L324.028 207.385L342.526 189.529L366.766 208.027L384.104 196.035L405.002 207.095L420.977 196.035L440.645 209.557L459.082 197.265L479.98 212.018L503.332 203.411L522.999 216.933L553.068 197.942L575.391 215.166L589.422 197.942L605.371 211.341L621.32 194.118L631.527 204.325L648.751 187.19L667.249 210.26L685.747 190.373L708.712 216.634L734.226 190.373L759.002 210.779L781.131 192.342L803.762 207.508L825.381 184.974L854.149 203.684L876.999 181.282L897.898 203.411L921.249 187.436L940.899 201.134L960.584 182.513L985.167 200.949L999.92 186.196L1017.74 205.864L1040.48 191.111L1054 202.787L1063.22 184.965L1081.66 192.957L1081.03 173L1097.33 166.221L1091.12 145.331L1107.07 135.124L1099.41 120.45L1099.42 120.476ZM131.132 159.187C129.638 161.579 50.378 180.367 45.094 107.403C40.3903 42.4828 120.978 51.4418 122.771 53.5255C124.565 55.618 123.668 91.4277 122.173 92.3245C120.679 93.2213 102.602 93.2301 94.118 94.417C87.7966 95.2962 82.1786 101.582 82.1786 107.552C82.1786 113.821 87.2515 120.388 95.0148 120.687C107.244 121.153 124.864 118.595 127.246 120.09C129.638 121.584 132.618 156.805 131.123 159.187H131.132ZM212.616 160.084C209.926 161.878 148.145 160.682 146.949 160.084C145.753 159.486 139.784 55.618 141.278 53.8244C142.773 52.0309 175.602 50.844 177.097 52.9277C178.591 55.0201 180.974 123.967 182.17 125.752C183.365 127.536 210.823 125.154 212.616 126.947C214.41 128.741 215.307 158.291 212.616 160.075V160.084ZM302.708 124.266C301.213 135.906 296.738 158.59 267.786 159.486C238.834 160.383 224.512 142.773 221.224 123.967C217.944 105.161 215.254 55.618 216.151 54.1234C217.047 52.6287 247.793 50.545 249.578 52.9277C251.371 55.3191 249.877 95.0148 250.773 101.881C251.67 108.748 251.072 115.017 260.023 114.419C268.973 113.821 268.384 107.552 268.085 98.9009C267.786 90.2408 266.889 52.6375 266.889 52.6375C266.889 52.6375 298.531 50.844 300.316 52.0397C302.101 53.2354 304.193 112.625 302.708 124.266ZM368.067 158.299C358.37 160.172 319.755 158.801 317.874 156.928C315.992 155.055 311.816 59.9261 314.322 54.6069C316.476 50.0351 348.013 46.87 356.769 49.3757C365.526 51.8814 373.773 55.6796 375.338 69.1313C376.903 82.583 365.64 91.6475 365.64 91.6475C365.64 91.6475 391.841 98.5668 392.772 122.956C393.713 147.353 377.765 156.418 368.067 158.299ZM418.225 115.061C416.045 114.515 410.066 62.2823 413.328 60.647C418.832 57.8951 450.87 54.1146 453.05 84.5875C455.231 115.061 420.406 115.597 418.225 115.061ZM506.84 152.119C502.083 151.793 425.927 155.108 424.907 152.567C424.01 150.325 420.432 134.209 423.114 132.864C426.164 131.343 507.279 128.389 507.728 130.174C508.176 131.959 506.831 152.11 506.831 152.11L506.84 152.119ZM509.547 109.9C508.607 111.306 468.19 113.663 466.783 112.247C465.377 110.84 460.207 60.5503 462.08 59.6096C466.546 57.3764 508.607 54.4399 510.013 56.7873C511.42 59.1348 510.479 69.4742 508.607 70.4149C506.725 71.3556 484.64 72.2964 484.64 72.2964C484.64 72.2964 483.699 78.8728 485.106 79.3475C486.512 79.8135 501.081 77.4661 502.496 78.8816C503.903 80.2883 505.319 88.7549 503.903 90.1617C502.496 91.5684 483.69 92.9839 483.69 92.9839C483.69 92.9839 483.224 98.6195 484.631 98.6195C486.038 98.6195 508.598 96.2721 510.005 97.6788C511.411 99.0855 510.471 108.484 509.539 109.9H509.547ZM551.846 158.194C544.416 155.627 539.581 57.6577 540.601 55.1784C544.364 46.0875 618.225 47.125 621.109 99.3405C623.993 151.556 559.275 160.761 551.846 158.185V158.194ZM662.871 160.612C661.587 160.594 635.062 160.823 632.943 159.205C630.824 157.587 630.27 56.2686 632.011 53.6398C634.314 50.1494 662.44 48.8394 663.249 53.0947C664.058 57.35 664.154 160.629 662.871 160.612ZM735.791 158.783C726.138 160.541 687.769 158.73 685.923 156.849C684.077 154.958 681.008 60.3745 683.558 55.1169C685.747 50.5978 717.126 47.8107 725.804 50.4044C734.481 52.9892 742.631 56.8665 744.029 70.2478C745.427 83.6292 734.138 92.5179 734.138 92.5179C734.138 92.5179 760.101 99.6922 760.752 123.949C761.402 148.206 745.454 157.033 735.791 158.792V158.783ZM851.406 126.323C849.77 138.016 845.005 160.779 815.868 161.35C786.732 161.913 772.524 144.039 769.438 125.083C766.352 106.128 764.224 56.2598 765.139 54.7652C766.053 53.2705 797.01 51.5297 798.777 53.9475C800.544 56.3653 798.592 96.2897 799.41 103.2C800.228 110.119 799.559 116.414 808.571 115.913C817.583 115.412 817.055 109.108 816.853 100.396C816.651 91.6827 816.185 53.842 816.185 53.842C816.185 53.842 848.03 52.4089 849.823 53.631C851.608 54.8531 853.023 114.63 851.388 126.314L851.406 126.323ZM904.237 159.979C873.904 160.981 863.635 146.087 861.701 105.785C861.701 105.785 892.913 102.303 894.31 105.679C895.708 109.056 896.034 122.481 896.491 124.881C896.948 127.281 897.854 134.359 904.061 133.603C911.261 132.724 910.356 128.398 909.521 117.839C908.685 107.28 903.472 59.7502 904.949 56.8841C906.417 54.0267 940.978 51.5473 942.869 53.4816C945.014 55.6795 947.572 102.928 947.924 114.436C948.276 125.945 947.414 158.546 904.245 159.97L904.237 159.979ZM1011.64 158.22C981.826 157.877 957.938 133.269 958.281 103.244C958.624 73.2283 983.074 49.1647 1012.88 49.5076C1042.69 49.8505 1066.58 74.4592 1066.24 104.484C1065.89 134.508 1041.44 158.563 1011.64 158.22Z" fill="black"/>
</svg>
