<svg width="32" height="32" viewBox="0 0 32 32" fill="none" xmlns="http://www.w3.org/2000/svg">
<path fill-rule="evenodd" clip-rule="evenodd" d="M19.6585 27.7525C19.2428 28.1162 18.6111 28.0741 18.2474 27.6585C17.8837 27.2428 17.9258 26.6111 18.3414 26.2474L28.3385 17.5L1 17.5C0.447716 17.5 0 17.0523 0 16.5C0 15.9477 0.447716 15.5 1 15.5L28.3385 15.5L18.3414 6.75259C17.9258 6.38891 17.8837 5.75714 18.2474 5.34151C18.6111 4.92587 19.2428 4.88375 19.6585 5.24744L31.4864 15.5969C31.5168 15.6235 31.5456 15.6513 31.5726 15.6801C31.831 15.8609 31.9999 16.1607 31.9999 16.5C31.9999 16.8392 31.831 17.1391 31.5726 17.3199C31.5456 17.3487 31.5168 17.3764 31.4864 17.4031L19.6585 27.7525Z" fill="black"/>
</svg>
