<svg width="32" height="32" viewBox="0 0 32 32" fill="none" xmlns="http://www.w3.org/2000/svg">
<path fill-rule="evenodd" clip-rule="evenodd" d="M12.3414 5.24744C12.7571 4.88375 13.3888 4.92587 13.7525 5.34151C14.1162 5.75715 14.0741 6.38891 13.6584 6.75259L3.66142 15.5L30.9999 15.5C31.5522 15.5 31.9999 15.9477 31.9999 16.5C31.9999 17.0523 31.5522 17.5 30.9999 17.5L3.66142 17.5L13.6584 26.2474C14.0741 26.6111 14.1162 27.2428 13.7525 27.6585C13.3888 28.0741 12.7571 28.1162 12.3414 27.7525L0.513478 17.4031C0.483043 17.3764 0.454303 17.3487 0.427257 17.3198C0.16891 17.139 -3.52639e-05 16.8392 -3.52343e-05 16.5C-3.52046e-05 16.1607 0.168912 15.8609 0.427264 15.6801C0.454309 15.6513 0.483047 15.6235 0.51348 15.5969L12.3414 5.24744Z" fill="black"/>
</svg>
