<?xml version="1.0" encoding="UTF-8"?>
<svg width="20px" height="32px" viewBox="0 0 20 32" version="1.1" xmlns="http://www.w3.org/2000/svg" xmlns:xlink="http://www.w3.org/1999/xlink">
    <title>icons/deviant-art</title>
    <g id="lg-1400px" stroke="none" stroke-width="1" fill="none" fill-rule="evenodd">
        <g id="index" transform="translate(-697.000000, -173.000000)" fill-rule="nonzero">
            <g id="Group" transform="translate(691.000000, 173.000000)">
                <rect id="Rectangle" x="0" y="0" width="32" height="32"></rect>
                <path d="M16.6101485,5.8165347 C17.8612228,3.96172236 18.5109511,1.72818476 19.9530085,0 C21.9308988,0.0493855264 23.9119529,0 25.8895346,0.0277021937 C25.8528813,1.95304324 25.9636129,3.8849433 25.8435443,5.80750641 C23.9486834,9.57207248 21.9616876,13.2968215 19.9775469,17.0181752 C20.1532514,17.2184953 20.3411479,17.4070091 20.5352176,17.5886552 C22.3190382,17.6533194 24.1060226,17.5817875 25.8895346,17.6160488 C25.8895346,20.2966025 25.8926984,22.9734524 25.886448,25.6540833 C22.6055514,25.6844863 19.3212596,25.6111025 16.040363,25.68765 C14.9926954,26.0205394 14.7125097,27.2068723 14.2103978,28.0540656 C13.4462339,29.366023 12.9255253,30.836014 11.9304841,32.0000463 C9.95568035,31.9913267 7.98110811,32.0000463 6.00599571,31.9944133 C6.00599571,30.3677003 6.01224607,28.7377465 5.99999729,27.1109564 C6.00290912,26.6276727 5.96895657,26.1193876 6.24019114,25.6939004 C8.12270567,22.1448559 9.9404017,18.5622446 11.8627333,15.0343432 C11.7457513,14.8772355 11.5083922,14.5630972 11.3914102,14.4060667 C9.59516601,14.4026714 7.79923047,14.415095 6.00290912,14.3967298 C6.01533266,11.716176 6.00290912,9.03901746 6.00915947,6.35861802 C9.13642076,6.35283065 12.26646,6.36178178 15.3933355,6.35861802 C15.8645814,6.40190752 16.2960103,6.14618309 16.6101485,5.8165347" id="Fill-1" fill="#000000"></path>
            </g>
        </g>
    </g>
</svg>