<?xml version="1.0" encoding="UTF-8"?>
<svg width="32px" height="32px" viewBox="0 0 32 32" version="1.1" xmlns="http://www.w3.org/2000/svg" xmlns:xlink="http://www.w3.org/1999/xlink">
    <title>icons/dribbble</title>
    <g id="lg-1400px" stroke="none" stroke-width="1" fill="none" fill-rule="evenodd">
        <g id="index" transform="translate(-636.000000, -173.000000)" fill-rule="nonzero">
            <g id="Group" transform="translate(636.000000, 173.000000)">
                <rect id="Rectangle" x="0" y="0" width="32" height="32"></rect>
                <path d="M26.5787609,7.36869891 C26.2906525,7.75786347 24.0005184,10.6898026 18.9474905,12.7499957 C19.265501,13.4000948 19.5704157,14.0613253 19.8541588,14.7269211 C19.9547784,14.9627553 20.0527789,15.1974981 20.1485968,15.4312588 C24.6960163,14.8601713 29.2142977,15.7753519 29.6647944,15.8706241 C29.6347831,12.6491578 28.4821313,9.6911361 26.5787609,7.36869891 M12.7974681,2.73059071 C13.1751738,3.23576254 15.6572711,6.61143225 17.8966589,10.7204687 C22.7564141,8.90145725 24.8136606,6.1399822 25.0594258,5.79043254 C22.6460817,3.65210096 19.4725243,2.35124803 15.9999454,2.35124803 C14.8973853,2.35124803 13.8251638,2.48329769 12.7974681,2.73059071 M2.62222268,13.2042029 C3.23347077,13.2121696 8.86402499,13.2366151 15.2566477,11.5412502 C12.9922687,7.52126539 10.5500046,4.14144866 10.18976,3.64806308 C6.36632188,5.44906777 3.50837417,8.96900993 2.62222268,13.2042029 M5.84674463,25.1251232 C6.15635199,24.5959423 9.90710824,18.3939732 16.9555049,16.118681 C17.1336082,16.0611685 17.3132394,16.0071481 17.4940711,15.9562927 C17.1508511,15.1809101 16.7772924,14.4047636 16.3860543,13.640076 C9.5610508,15.6799705 2.93848709,15.5947385 2.34044396,15.5825157 C2.33629695,15.7210042 2.33345952,15.8599291 2.33345952,15.9995089 C2.33345952,19.5049365 3.66410548,22.7055586 5.84674463,25.1251232 M21.3383534,28.5629981 C21.1350406,27.3657114 20.3417604,23.1923962 18.4230023,18.2131415 C18.3928819,18.2232908 18.3628706,18.2330036 18.3327502,18.2435894 C10.6244326,20.9260529 7.85739181,26.2644608 7.61129925,26.7666861 C9.92860724,28.571183 12.8406844,29.6477698 15.9999454,29.6477698 C17.8931666,29.6477698 19.6975544,29.2610061 21.3383534,28.5629981 M29.4935663,18.1659965 C29.026045,18.0184501 25.2635025,16.8978832 20.9809462,17.582468 C22.7684186,22.4879494 23.4958922,26.4832704 23.6359085,27.3135463 C26.7019709,25.243204 28.8845009,21.9634613 29.4935663,18.1659965 M15.9999454,31.9573294 C7.17760885,31.9573294 0,24.7893242 0,15.9787738 C0,7.16800524 7.17760885,0 15.9999454,0 C24.8223911,0 32,7.16800524 32,15.9787738 C32,24.7893242 24.8223911,31.9573294 15.9999454,31.9573294" id="dribbble" fill="#000000"></path>
            </g>
        </g>
    </g>
</svg>