<svg width="32" height="32" viewBox="0 0 32 32" fill="none" xmlns="http://www.w3.org/2000/svg">
<path fill-rule="evenodd" clip-rule="evenodd" d="M16 0C24.8366 0 32 7.20722 32 16.0978C32 24.1325 26.1491 30.7924 18.5 32V20.751H22.2281L22.9375 16.0978H18.5V13.0794C18.5 13.0745 18.5 13.0695 18.5 13.0645C18.5003 12.9977 18.5023 12.931 18.506 12.8646C18.5697 11.7484 19.1474 10.7109 20.7507 10.5784C20.8644 10.569 20.9833 10.5642 21.1075 10.5642H23.125V6.60261C23.125 6.60261 21.7227 6.36189 20.1998 6.30171C19.9822 6.29311 19.7622 6.2882 19.5434 6.2882C15.8888 6.2882 13.5 8.51673 13.5 12.5512V16.0978H9.4375V20.751H13.5V32C5.85094 30.7924 0 24.1325 0 16.0978C0 7.20722 7.16344 0 16 0Z" fill="black"/>
</svg>
