<?xml version="1.0" encoding="UTF-8"?>
<svg width="104px" height="59px" viewBox="0 0 104 59" version="1.1" xmlns="http://www.w3.org/2000/svg" xmlns:xlink="http://www.w3.org/1999/xlink">
    <title>Combined Shape</title>
    <g id="xs-320px" stroke="none" stroke-width="1" fill="none" fill-rule="evenodd">
        <g id="index" transform="translate(-108.000000, -380.000000)" fill="#000000">
            <path d="M119.636041,413.534448 C121.663828,411.875164 123.098001,413.031545 123.495598,412.88673 C123.89298,412.74213 126.14717,412.422003 127.472207,413.390061 C128.797031,414.358119 128.961376,415.420445 129.358973,416.363549 C129.75657,417.306441 130.400043,418.211796 130.526512,419.029068 C130.652767,419.846553 130.966693,421.299174 130.290051,421.403039 C129.871911,421.467235 129.627533,420.986938 129.627533,420.986938 C129.627533,420.986938 129.611269,422.103436 128.953245,422.157395 C128.660076,422.181281 128.072882,421.623139 128.072882,421.623139 C128.072882,421.623139 127.935713,422.121564 127.758956,422.136707 C127.525919,422.156968 127.342528,421.886961 127.24345,421.415835 C127.030528,420.403203 126.501754,419.061273 126.179911,418.608702 C125.858067,418.156131 125.299762,418.074446 125.097968,417.854559 C124.89596,417.634459 124.744454,416.653604 123.772931,416.886501 C122.801622,417.119185 123.129672,417.612705 122.839499,417.908305 C122.549326,418.203905 122.105079,420.489366 123.057984,421.765607 C124.01089,423.041635 124.351565,423.61684 125.004454,423.767625 C125.657343,423.918411 125.597853,423.767625 125.872619,423.885354 C126.142248,424.000949 126.192108,424.526673 126.998001,424.716702 C127.434759,424.819501 130.323006,426.810429 130.799994,430.031743 C131.131895,432.273697 130.618743,438.092068 125.400125,438.956048 C124.172026,439.159513 122.01242,438.629096 121.243548,437.931259 C120.474461,437.233421 119.892404,435.691438 119.816222,434.604799 C119.759417,433.792025 120.041717,433.773637 120.306441,433.807736 L120.404193,433.821534 C120.467882,433.830441 120.527687,433.836832 120.578033,433.829116 C120.854725,433.78646 120.703004,432.805819 121.18577,432.668896 C121.668322,432.531973 121.643926,433.121467 121.867762,433.076679 C122.091811,433.031678 121.920832,431.696573 122.583564,431.732616 C123.186807,431.765461 123.099499,432.626028 123.643894,433.703496 C124.188075,434.780751 125.77782,434.713783 126.479499,434.125782 C129.015944,432.000064 126.062215,429.253287 125.096898,428.982854 C124.131581,428.712847 122.699762,427.950173 122.079186,427.02541 C121.315663,425.887585 120.146626,425.972255 119.339021,425.09228 C118.531416,424.212092 117.495053,422.919855 117.022987,420.220212 C116.780321,418.832854 117.459745,417.38322 117.737078,416.759815 C118.158428,415.812658 118.488831,414.473288 119.636041,413.534448 Z M129.254117,437.813168 C129.582808,437.728284 129.801294,437.770939 129.979121,438.031349 C130.2648,438.450222 129.875763,438.774401 129.523961,438.824734 C129.371599,438.846702 129.072652,438.703807 128.967796,438.447236 C128.863154,438.190452 129.067088,437.861581 129.254117,437.813168 Z M200.942613,436.594532 C201.289708,436.504957 201.520177,436.549958 201.707848,436.82487 C202.009576,437.267204 201.598926,437.609511 201.227436,437.662617 C201.066514,437.68565 200.750876,437.534865 200.640456,437.264005 C200.529609,436.992931 200.744884,436.645505 200.942613,436.594532 Z M199.341869,435.914823 C199.595877,435.849134 199.76493,435.882192 199.902099,436.083524 C200.122939,436.407276 199.822494,436.657875 199.550511,436.696905 C199.432601,436.713753 199.201704,436.603277 199.120601,436.40493 C199.039712,436.206584 199.19721,435.952146 199.341869,435.914823 Z M170.585243,435.256356 C170.788963,435.20389 170.924206,435.230123 171.034198,435.391573 C171.211169,435.651129 170.970428,435.851821 170.752371,435.88296 C170.658,435.896396 170.473112,435.807887 170.408058,435.648996 C170.343005,435.490106 170.46926,435.286428 170.585243,435.256356 Z M134.970245,434.528105 C135.396302,434.418055 135.6792,434.473293 135.909669,434.810908 C136.279875,435.353695 135.776138,435.773635 135.320121,435.838897 C135.122607,435.867263 134.735068,435.682353 134.599397,435.349643 C134.463726,435.016933 134.727792,434.590595 134.970245,434.528105 Z M196.500378,410.506553 C196.92879,410.442997 198.358683,410.544303 199.667671,410.683785 C200.976873,410.823481 203.295474,410.965949 205.311063,411.437288 C206.304413,411.669545 206.856726,412.227474 206.754652,412.666395 C206.652792,413.105103 205.611507,413.172285 205.611507,413.172285 C205.611507,413.172285 206.301417,413.737679 206.233154,414.037971 C206.164462,414.338263 205.573631,414.366842 205.573631,414.366842 C205.573631,414.366842 206.059178,414.823891 206.044199,415.034181 C206.029219,415.244258 205.825071,415.464571 205.356429,415.431514 C204.887573,415.398243 204.882651,415.797068 204.183112,416.029325 C203.483359,416.261582 202.659491,415.59275 201.670206,415.921834 C200.681136,416.250919 200.013054,416.039349 199.646272,415.896028 C199.108511,415.685525 198.369169,415.641164 198.069366,415.878326 C197.788609,416.100559 197.907375,416.829322 197.685037,417.306633 C197.506568,417.689462 197.169531,417.430119 196.71116,417.914255 C196.300082,418.348271 196.19116,419.26237 196.378831,419.933122 C196.509534,420.399583 197.451816,420.514509 198.413382,420.601208 L198.773326,420.633029 C199.071454,420.659496 199.361793,420.687153 199.620165,420.725867 C200.808889,420.903952 202.268528,420.913337 202.21503,421.33221 C202.137137,421.943245 201.209482,422.223489 201.209482,422.223489 C201.209482,422.223489 202.028215,422.633618 201.912873,423.259368 C201.797746,423.885119 200.667655,423.875522 200.667655,423.875522 C200.667655,423.875522 201.252066,424.269015 200.992708,424.602791 C200.755605,424.908202 199.050947,424.747179 198.093333,424.632437 C197.13572,424.517694 196.764016,424.11567 196.176181,424.097541 C195.588773,424.079413 195.21386,424.381625 195.128691,424.586796 C195.043308,424.79218 195.013563,425.541204 194.791012,426.018515 C194.568674,426.495826 194.422304,428.880034 194.447555,429.515808 C194.473234,430.15137 195.591555,429.990347 195.825662,430.012314 C196.831638,430.107008 196.948263,430.349076 197.720132,430.427135 C198.492,430.505194 199.977959,430.615457 200.408725,430.711431 C200.872445,430.814657 202.070585,430.92492 202.070585,430.92492 C202.506058,431.096394 202.781894,431.719372 202.611342,432.129714 C202.440791,432.54027 201.315194,432.864875 201.315194,432.864875 C201.315194,432.864875 202.112313,433.250051 201.883128,433.820776 C201.67363,434.342449 200.286321,434.083319 200.286321,434.083319 C200.286321,434.083319 201.046206,434.32496 200.875655,434.735516 C200.705317,435.146071 199.518305,434.944526 198.548708,434.664708 C197.579539,434.384677 196.590897,434.968613 195.129333,434.654044 C193.667769,434.339249 192.982139,434.368895 191.741415,433.928907 C190.500904,433.48892 189.02971,432.458585 189.325447,431.28237 C189.621398,430.105942 189.435439,427.974039 189.610912,427.493529 C189.786386,427.012806 190.189332,425.248163 190.23427,424.617507 C190.279209,423.986851 189.88204,423.606581 189.846731,423.110928 C189.811423,422.615489 190.479077,422.169743 190.49427,421.959453 C190.50925,421.749377 190.177563,421.44418 190.192756,421.23389 C190.207521,421.0236 190.837299,420.423656 190.93274,420.078363 C191.027752,419.732856 191.631851,417.547847 191.611522,416.842118 C191.591192,416.136603 191.760674,415.305894 191.649826,414.875504 C191.539406,414.445114 192.529546,414.288996 192.358567,413.713365 C192.187374,413.137734 192.830205,413.0424 192.890123,412.201455 C192.95004,411.360722 193.604641,411.146807 194.056378,411.084957 C194.508543,411.022893 196.071753,410.570109 196.500378,410.506553 Z M138.181149,410.535132 C140.995569,410.181521 142.440442,410.692103 143.333002,411.580183 C144.225775,412.468262 145.275833,414.405658 145.116837,416.873043 C145.050072,417.910629 144.670022,418.542778 144.285051,418.644937 C144.132903,418.68546 143.817265,418.361494 143.816623,417.65022 C143.816623,417.65022 143.811487,419.013904 143.27822,419.033952 C142.845314,419.050161 142.801232,418.138834 142.686104,418.171679 C142.570763,418.204097 142.427602,419.568207 141.723355,419.483963 C141.381824,419.443228 141.146433,418.936058 141.002203,418.003831 C140.857758,417.071603 140.904409,415.367531 139.277001,415.351535 C137.650021,415.33554 135.576655,417.700553 135.749346,421.35567 C135.749346,421.35567 135.897856,421.971184 136.033313,422.825352 C136.168984,423.679308 135.930169,424.377786 136.009132,425.080102 C136.088095,425.782419 136.560375,428.574623 137.335025,429.120182 C138.10989,429.665954 138.414186,429.197388 138.622828,429.292509 C138.831898,429.387843 139.062795,429.678111 139.562894,429.543321 C140.063207,429.408531 140.719734,428.900508 141.327898,427.963588 L141.327898,427.963588 L141.350924,427.917242 C141.427773,427.772215 141.697462,427.335563 142.167174,427.316723 C142.719701,427.294756 142.69873,428.521731 142.894532,428.499763 C143.090335,428.478009 143.046253,427.732398 143.485792,427.762256 C143.925117,427.792328 143.765479,429.192909 143.961068,429.171155 C144.15687,429.149188 144.317578,428.815198 144.548047,428.749936 C144.889364,428.653535 145.144656,429.47358 144.845282,430.336706 L144.845282,430.336706 L144.838957,430.357792 C144.728366,430.718248 143.142343,435.568009 138.118449,434.682836 C137.092787,434.501979 136.460441,434.038104 135.75491,433.405529 C135.432852,433.11654 135.062432,433.052131 134.80607,432.721127 C134.433296,432.239978 134.386004,431.644725 133.982416,431.035184 C132.788769,429.232365 132.750251,426.315821 132.759881,425.798201 C132.776358,424.887514 132.131173,423.023699 132.204572,422.620395 C132.278399,422.216877 132.116407,421.128745 132.176539,420.252822 C132.236885,419.376899 132.283749,418.383888 132.635337,417.277841 C132.986926,416.172007 133.111683,414.458977 133.60258,413.890597 C134.093691,413.322218 134.216095,413.703768 134.354975,413.530162 C134.354975,413.530162 135.366729,410.888743 138.181149,410.535132 Z M171.001329,433.323119 C171.319321,433.241008 171.530531,433.28217 171.702366,433.534262 C171.978843,433.939486 171.60286,434.253001 171.262399,434.301628 C171.114745,434.322742 170.825856,434.184753 170.724423,433.936287 C170.622991,433.688034 170.820078,433.369827 171.001329,433.323119 Z M186.540879,410.130442 C188.021488,410.058994 188.753554,410.355447 189.341176,410.358007 C189.928797,410.360566 191.043694,410.634199 191.060117,410.972454 C191.076435,411.310496 189.80618,411.935606 189.80618,411.935606 C189.80618,411.935606 190.612715,411.989139 190.628978,412.327394 C190.645456,412.665436 190.056764,413.279243 190.056764,413.279243 C190.056764,413.279243 190.610575,413.221872 190.59474,413.530695 C190.578904,413.839518 189.524567,414.414082 189.533554,414.598566 C189.542542,414.783049 190.585324,414.609656 190.603085,414.97841 C190.621061,415.347163 188.275924,416.076566 187.750146,416.071234 C187.224369,416.065689 186.491447,416.255077 186.178591,416.177872 C185.865735,416.100453 185.170689,415.795042 184.809685,415.997227 C184.448253,416.199626 184.326064,419.40985 184.321998,419.96458 C184.320313,420.207368 184.351723,420.767018 184.384797,421.368955 L184.41282,421.888853 C184.444279,422.492539 184.468422,423.060062 184.453817,423.316846 C184.420434,423.903994 183.918195,425.653707 183.865981,426.488041 C183.855496,426.654908 183.85101,426.970624 183.849935,427.371715 L183.849901,427.798914 C183.85324,429.452417 183.890819,431.969281 183.834952,432.220463 C183.758985,432.563197 183.654343,434.232078 183.130063,434.257458 C182.605784,434.282625 181.992269,433.110462 181.992269,433.110462 C181.992269,433.110462 181.894261,433.639172 181.368483,433.633627 C180.842705,433.628082 181.198787,432.686683 181.198787,432.686683 C181.198787,432.686683 180.732071,433.263807 180.328269,433.221579 C179.924466,433.17935 179.476153,432.862209 179.408104,432.095057 C179.339841,431.328118 179.119857,429.982989 179.217865,429.454492 C179.315873,428.925781 179.025273,427.399368 179.070639,427.058127 C179.115791,426.717099 179.484071,426.021394 179.556186,424.323294 C179.556186,424.323294 179.524529,422.936009 179.518985,421.654293 L179.518657,421.029144 C179.520775,420.493563 179.529954,420.027982 179.551264,419.763461 C179.628516,418.804361 179.760762,417.072563 179.748779,416.826869 C179.737009,416.580749 179.841865,415.558946 179.841865,415.558946 C179.841865,415.558946 179.797569,415.28382 179.426079,415.271024 C179.054376,415.258014 178.070441,415.366998 177.701733,415.415625 C177.333025,415.464251 177.021667,415.417757 176.833569,415.365078 C176.64547,415.312399 176.047577,415.094858 175.615741,415.115759 C175.183906,415.136447 174.673963,414.822079 174.691511,414.543967 C174.709058,414.265856 175.744136,413.938691 175.769173,413.814138 C175.793996,413.689798 175.141749,413.628802 175.123774,413.259835 C175.105799,412.890868 175.508317,412.902385 175.53314,412.778045 C175.557963,412.653492 175.274424,412.543868 175.294967,412.32718 C175.315511,412.110492 176.505091,412.20732 176.505091,412.20732 C176.505091,412.20732 175.329848,411.770958 175.313799,411.44294 C175.297963,411.115135 176.441322,410.895675 177.350145,410.934064 C178.258754,410.972454 180.840779,410.66491 182.074442,410.60562 C183.308105,410.545903 185.060483,410.201889 186.540879,410.130442 Z M157.557872,410.595745 C158.433954,410.58828 159.117016,410.567166 159.15318,411.074122 C159.189345,411.581078 157.637048,412.346311 157.637048,412.346311 C157.637048,412.346311 158.384308,412.584327 158.410201,412.946469 C158.436094,413.308611 157.43932,413.670326 157.43932,413.670326 C157.43932,413.670326 157.895979,413.929243 157.724357,414.596369 C157.553164,415.263708 156.880587,415.125506 156.167139,415.289088 C154.846809,415.591726 151.713327,415.304231 151.454397,415.640993 C151.195467,415.977755 150.944027,416.550613 151.099385,417.194706 C151.254957,417.838798 151.145607,418.610856 151.110512,418.886195 C151.075418,419.161747 150.985541,420.205304 151.222858,420.461448 C151.222858,420.461448 152.799336,420.677496 153.531188,420.570859 C154.26304,420.464434 154.667912,420.381257 155.061015,420.517113 C155.454118,420.653183 155.695501,420.963499 155.71476,421.235212 C155.734233,421.506712 155.041114,421.77416 155.041114,421.77416 C155.041114,421.77416 155.447912,422.100258 155.387139,422.404816 C155.326793,422.70916 154.673048,422.755654 154.673048,422.755654 C154.673048,422.755654 155.021213,423.031206 154.902447,423.285217 C154.783468,423.539229 153.343303,423.695986 152.823517,423.70537 C152.303731,423.714968 151.696422,423.648852 151.521377,423.879616 C151.346117,424.110381 151.039467,426.72514 151.204883,427.122899 C151.370084,427.520444 151.856488,427.813698 151.994727,427.831187 C152.132965,427.848676 152.592406,427.761446 152.923237,427.792797 C153.254068,427.823936 154.092916,428.064724 154.664916,428.024201 C155.237344,427.983679 155.478727,427.912018 155.811484,427.970243 C156.144456,428.02868 156.621229,428.186078 156.922744,428.191836 C157.224472,428.197808 158.178234,428.130199 158.255913,428.834435 C158.333378,429.538671 157.414711,429.712918 157.414711,429.712918 C157.414711,429.712918 158.283304,429.650854 158.261263,430.062263 C158.225954,430.720005 156.902415,430.977429 156.902415,430.977429 C156.902415,430.977429 157.766728,430.807021 157.772291,431.270683 C157.777855,431.73669 157.077032,432.275211 156.29639,432.466946 C155.318233,432.707307 154.188357,432.861932 153.464422,432.694937 C152.740488,432.527729 152.261574,432.725436 150.397064,432.693871 C148.532339,432.662093 147.703763,431.028402 147.505606,429.786711 C147.307664,428.545234 147.164718,425.771158 147.242611,425.329037 C147.320718,424.886704 146.7408,424.436479 146.67489,424.277375 C146.608553,424.118272 147.126627,423.699399 147.111006,423.482284 C147.095384,423.264956 146.741442,422.907933 146.714265,422.527662 C146.687088,422.147392 146.885886,421.860323 147.033755,421.631692 C147.181837,421.402633 147.119993,420.533749 146.972125,419.998214 C146.824471,419.462679 146.980471,418.578225 146.875615,417.875908 C146.770759,417.173805 147.140964,415.709881 147.140964,415.709881 C147.140964,415.709881 146.549919,414.587198 146.721326,413.919859 C146.892948,413.252733 147.256734,413.236097 147.453392,412.921729 C147.650265,412.607787 147.729656,411.928718 148.075039,411.64954 C148.420207,411.370362 149.050199,411.116351 150.009953,411.130427 C150.886891,411.14301 151.975039,410.781935 152.69662,410.658022 C153.417986,410.534108 154.45606,410.75165 155.333213,410.762527 C156.210365,410.77319 156.682003,410.60321 157.557872,410.595745 Z M173.262238,409.795748 C173.752065,409.760984 173.662831,410.81158 173.611687,411.627146 C173.58876,411.99284 173.515134,413.189722 173.449487,414.450745 L173.419969,415.034517 C173.353412,416.394244 173.306578,417.691498 173.352756,417.968256 C173.448197,418.541754 173.636082,418.876384 173.635226,419.630526 C173.634156,420.384669 173.121217,422.393299 173.153958,422.85504 C173.186913,423.316782 172.798304,428.334304 172.445217,429.519477 C172.36497,429.788834 172.283607,430.08224 172.200668,430.375211 L172.100354,430.725 C171.847533,431.591116 171.578871,432.365174 171.281958,432.386114 C170.846698,432.417039 170.637414,432.170919 170.637414,432.170919 C170.637414,432.170919 170.429628,432.698989 170.046797,432.705822 C169.500262,432.715412 169.504756,432.396138 169.146962,432.363294 C168.900443,432.3409 168.947735,432.638419 168.621398,432.661666 C168.294632,432.6847 167.978994,432.47505 167.855949,431.903685 C167.800097,431.643275 167.444229,431.497821 167.227883,430.381963 C167.006829,429.241152 165.323784,425.817012 165.323784,425.817012 C165.323784,425.817012 164.202253,421.980824 163.829693,422.123292 C163.456919,422.26576 163.712426,425.467027 163.770203,426.275128 C163.827553,427.083016 164.094401,429.674528 164.030845,430.317127 C163.967076,430.959514 163.825627,432.04274 163.419471,432.100538 C163.013314,432.158336 162.865446,431.617682 162.865446,431.617682 C162.865446,431.617682 162.60459,432.564413 162.112623,432.570171 C161.62087,432.576143 161.299454,431.902618 161.299454,431.902618 C161.299454,431.902618 160.664326,432.58574 160.304178,432.524103 C159.944458,432.46268 160.066005,432.251111 159.825692,431.949112 C159.58538,431.647114 159.387437,430.790813 159.591157,430.196413 C159.795092,429.602014 160.078203,427.435561 160.049528,427.031617 C160.020639,426.627459 159.708425,426.356386 159.854153,425.827249 C160.049742,425.117255 160.170647,423.745466 160.201462,422.641125 C160.232063,421.536997 160.186697,417.450636 160.186697,417.450636 C160.373511,415.465254 160.60933,412.635086 161.028754,411.996326 C161.228409,411.692622 161.493545,411.992487 162.102993,411.717148 C162.691899,411.451194 163.191142,410.669325 163.475537,410.633921 C164.017578,410.566526 163.842961,411.188011 164.171866,411.19377 C164.500343,411.199528 164.461183,410.651197 164.900936,410.678069 C165.340261,410.704942 165.466944,413.248041 165.829661,414.498689 C166.192377,415.749124 167.094352,417.657514 167.252492,418.342342 C167.410632,419.027383 167.488097,420.877975 167.775488,421.843687 C168.063307,422.809613 168.065661,424.375482 168.492789,424.229388 C168.919916,424.083081 168.562336,422.136088 168.625891,421.493489 C168.689661,420.850889 168.665908,419.750387 168.628887,419.231061 C168.591653,418.711522 168.684953,417.718937 168.694155,417.080177 C168.703356,416.441416 168.398418,415.998869 168.378731,414.956165 C168.359044,413.91346 168.694583,413.251666 168.754287,412.551269 C168.813776,411.851085 168.789381,410.746318 169.43906,410.646505 C169.790649,410.592759 169.76925,411.058127 170.016196,411.069857 C170.263143,411.08116 170.289678,409.919235 170.863176,409.907505 C171.517991,409.894282 171.463209,410.648211 171.733052,410.600011 C172.003324,410.552024 172.06902,409.938216 172.395357,409.915183 C172.722123,409.891936 172.580888,410.598091 172.771341,410.584655 C172.962007,410.571005 172.772411,409.830512 173.262238,409.795748 Z M143.362105,425.74934 C143.565825,425.696661 143.701068,425.723107 143.811273,425.884556 C143.988245,426.1439 143.74729,426.344805 143.529232,426.375943 C143.435076,426.38938 143.249973,426.30087 143.184919,426.14198 C143.12008,425.98309 143.246335,425.779412 143.362105,425.74934 Z M117.064716,423.6297 C117.268222,423.577234 117.403465,423.603467 117.513671,423.764917 C117.690642,424.024473 117.449687,424.225166 117.231843,424.256304 C117.137473,424.26974 116.95237,424.181231 116.887317,424.02234 C116.822477,423.86345 116.948732,423.659772 117.064716,423.6297 Z M203.819797,422.213529 C204.166892,422.123953 204.397575,422.168954 204.585246,422.443866 C204.88676,422.8862 204.476324,423.228294 204.104834,423.281613 C203.943912,423.304647 203.628274,423.153861 203.51764,422.883001 C203.407007,422.611928 203.622282,422.264502 203.819797,422.213529 Z M114.739652,421.947211 C114.933957,421.644787 115.435981,421.614288 115.627076,421.775525 C115.962829,422.058968 116.080953,422.321297 115.936936,422.703487 C115.705397,423.317934 115.070483,423.149873 114.753989,422.816096 C114.617035,422.671709 114.545347,422.249636 114.739652,421.947211 Z M188.330899,421.20787 C188.648891,421.125759 188.860315,421.166921 189.03215,421.419013 C189.308413,421.824237 188.932644,422.137752 188.592183,422.186379 C188.444529,422.207493 188.15564,422.069504 188.054207,421.821038 C187.952561,421.572785 188.149862,421.254578 188.330899,421.20787 Z M207.479121,414.46642 C207.602166,414.168261 208.120026,413.811664 208.631895,413.943895 C209.454693,414.156531 209.296125,415.199235 209.146973,415.408459 C208.997821,415.617469 208.236652,415.785317 207.82108,415.577799 C207.405294,415.370282 207.356504,414.764366 207.479121,414.46642 Z M132.608588,412.163854 C132.922086,412.082809 133.1303,412.123545 133.299782,412.372011 C133.572407,412.771476 133.20156,413.080726 132.865806,413.128713 C132.720506,413.149614 132.435469,413.013331 132.335535,412.76849 C132.235601,412.52365 132.430119,412.209922 132.608588,412.163854 Z M116.365669,410.719082 C116.683661,410.636971 116.895084,410.678133 117.06692,410.930225 C117.343397,411.335449 116.9672,411.648964 116.626739,411.697591 C116.479298,411.718705 116.190195,411.580716 116.088763,411.332463 C115.987545,411.08421 116.184632,410.76579 116.365669,410.719082 Z M120.584153,385.324803 C125.348681,385.060342 127.891118,385.283428 127.927068,385.714245 C127.963019,386.144848 127.05548,386.220134 127.066393,386.349379 C127.077093,386.478411 128.020369,386.61768 128.027644,386.920105 C128.04562,387.655906 126.514936,387.565904 126.525636,387.695149 C126.536549,387.824394 128.041982,387.612824 128.131858,388.16926 C128.20483,388.621191 127.218113,388.760247 126.845126,388.796504 C127.151776,388.778589 127.859661,388.780721 127.825636,389.19213 C127.781982,389.716148 125.304171,390.268319 124.187989,390.44747 C123.07138,390.626835 122.444812,390.938857 121.565948,390.838191 C120.687297,390.737525 119.992252,390.751815 119.617552,390.956346 C119.069091,391.255572 119.493865,392.029762 119.645799,393.382569 C119.814853,394.886589 120.531511,394.351907 122.227824,394.079554 C123.902524,393.810613 124.741372,394.478379 124.773899,394.866114 C124.806212,395.253849 124.204681,395.347051 124.204681,395.347051 C124.204681,395.347051 125.425504,395.376056 125.461455,395.80666 C125.497405,396.237477 124.348483,396.549499 124.348483,396.549499 C124.348483,396.549499 125.000302,396.538835 125.093817,397.138139 C125.187331,397.737657 124.12315,397.760691 124.12315,397.760691 C122.318771,398.040295 121.056647,398.298999 120.881602,398.809794 C120.706557,399.320802 121.113355,400.807333 121.280697,402.029616 C121.447824,403.251685 121.318145,403.262562 121.884796,405.36226 C122.45166,407.462172 122.559298,409.534998 122.2351,409.56187 C121.910903,409.588743 121.803051,409.077095 121.803051,409.077095 L121.811962,409.120925 C121.846199,409.30253 121.948993,409.993199 121.565092,410.137928 C121.357092,410.2162 121.227199,410.014868 121.147166,409.779838 C121.230195,410.318146 121.266359,411.057146 120.867907,411.171461 C120.230425,411.354238 119.803939,410.153497 119.803939,410.153497 C120.144186,411.101294 119.436301,411.22478 118.96124,410.223238 C118.486178,409.221909 118.178672,407.881258 117.989717,407.181288 C117.800762,406.481317 116.510177,404.311238 116.29961,403.352777 C116.089256,402.394317 115.398062,401.150494 114.968794,400.665718 C114.539527,400.180943 114.782836,398.469193 114.688679,397.306201 C114.648235,396.807593 114.536845,396.482208 114.336066,395.973074 L114.250943,395.758774 C113.98101,395.081398 113.578814,394.070883 113.012481,392.11038 C111.91128,388.298292 112.00886,387.119304 112.591132,387.057668 C113.095952,387.004434 113.270148,387.692577 113.307626,387.877028 L113.315922,387.921861 C113.003066,385.735786 115.498852,385.919416 115.498852,385.919416 C115.498852,385.919416 115.514001,385.903823 115.586665,385.876699 L115.637504,385.859072 C115.96854,385.751716 117.062388,385.520433 120.584153,385.324803 Z M178.742547,382.695734 C179.064604,382.604025 179.938547,382.19155 180.53644,382.329113 C181.134333,382.466462 181.732226,382.833083 182.376127,382.833083 C183.020029,382.833083 185.924968,382.694028 186.870383,382.929697 C188.383947,383.306768 188.887256,384.586422 189.393133,384.81548 C189.899009,385.044751 190.516804,388.104616 190.102944,391.267494 C189.689083,394.430371 188.033215,394.659642 187.757165,395.117972 C187.48133,395.576301 187.021462,396.35561 186.515585,396.584881 C186.009494,396.814152 185.411601,397.684957 183.342087,397.50154 C183.342087,397.50154 183.854597,399.01729 185.18156,399.610196 C186.515585,400.206088 186.331552,400.756126 186.975453,401.077105 C187.619355,401.397872 188.906943,401.993764 189.643075,402.406452 C190.378779,402.818927 191.114911,403.345931 190.746845,403.873149 C190.586565,404.102846 189.321018,403.689945 189.321018,403.689945 C189.321018,403.689945 189.609692,404.445154 189.229001,404.79002 C188.723124,405.24835 188.033215,404.606603 187.803174,404.744166 C187.7196,404.794189 187.702891,404.898754 187.699993,405.027014 L187.699373,405.233318 C187.696436,405.413621 187.673631,405.606847 187.527338,405.752747 C187.205281,406.073513 186.423568,406.165222 184.583667,404.881729 C182.744193,403.598236 182.008062,403.277257 181.456177,402.589869 C181.384192,402.500154 181.302817,402.394068 181.214912,402.278017 L181.031238,402.034529 C180.459171,401.2756 179.720554,400.311752 179.43267,400.527068 C179.064604,400.80198 179.708506,402.131327 179.708506,402.589869 C179.708506,403.047985 179.570695,403.323111 180.030563,404.744166 C180.490432,406.165222 179.984555,407.861189 179.386662,407.861189 C178.788555,407.861189 178.788555,407.494568 178.512719,407.540209 C178.23667,407.586064 178.190662,408.686353 177.546974,408.640498 C176.903073,408.594644 176.994876,407.998752 176.71904,407.952898 C176.220011,407.869934 176.535007,408.869556 175.661279,409.007119 C174.787336,409.144682 174.649525,407.173589 174.649525,407.173589 C174.649525,407.173589 174.771396,405.638829 174.892405,404.117895 L174.930446,403.639865 C175.0059,402.691951 175.075855,401.814574 175.109394,401.397872 C175.20141,400.251942 174.971155,398.693537 175.017163,398.18914 C175.017163,398.18914 175.569048,396.35561 175.523254,395.622155 C175.477246,394.888914 174.925361,392.367569 175.247204,391.267494 C175.569048,390.167418 176.167155,388.379742 176.121147,388.104616 C176.075139,387.829704 176.397196,384.850031 176.857065,384.345847 C177.316933,383.841664 177.592769,384.299993 177.592769,384.299993 C177.592769,384.299993 177.454958,383.245772 177.823024,383.154063 C178.190662,383.062354 178.558728,383.291626 178.558728,383.291626 C178.558728,383.291626 178.420917,382.787229 178.742547,382.695734 Z M197.446522,381.889637 C197.896547,381.814991 199.270374,382.317468 200.651263,382.441168 C202.031938,382.564655 205.544828,382.553564 207.675544,383.013813 C208.725388,383.240525 209.316861,383.818075 209.217355,384.281736 C209.118063,384.745611 208.023067,384.834973 208.023067,384.834973 C208.023067,384.834973 208.759627,385.417856 208.692861,385.73521 C208.62631,386.052564 208.004663,386.093299 208.004663,386.093299 C208.004663,386.093299 208.524022,386.565705 208.512252,386.787298 C208.500054,387.008892 208.289273,387.244561 207.795165,387.217902 C207.300844,387.191456 208.18998,388.034961 207.457486,388.291958 C206.724992,388.548955 204.069996,387.700331 203.03449,388.064393 C201.998769,388.428454 201.291741,388.217738 200.903131,388.07335 C200.332843,387.861568 199.553699,387.828083 199.242555,388.082948 C198.950884,388.32203 199.089123,389.087262 198.863789,389.593579 C198.682752,389.999869 198.502571,390.314877 198.028579,390.83271 C197.603378,391.297224 197.50537,392.261443 197.715295,392.964186 C197.925007,393.66693 199.887098,393.574795 201.141732,393.740936 C202.396366,393.907078 203.933255,393.890869 203.884679,394.332776 C203.813848,394.977508 202.842111,395.289104 202.842111,395.289104 C202.842111,395.289104 203.711346,395.706271 203.60114,396.366999 C203.491362,397.02794 202.301354,397.037964 202.301354,397.037964 C202.301354,397.037964 202.923642,397.441908 202.65658,397.797865 C202.412416,398.123537 200.614884,397.984481 199.604843,397.880829 C198.594588,397.777177 198.195921,397.360863 197.577057,397.352119 C196.957978,397.343588 196.568727,397.668407 196.482703,397.886161 C196.396464,398.103702 196.378703,398.892822 196.153155,399.399351 C195.927608,399.905668 195.816332,402.418481 195.854637,403.087313 C195.892727,403.755932 197.067542,403.56633 197.314061,403.585525 C198.375032,403.666996 199.342061,404.114235 200.156086,404.182484 C200.969683,404.250945 202.536317,404.340307 202.991691,404.433509 C203.122369,404.460296 203.292688,404.503266 203.472212,404.551883 L203.7446,404.627726 C204.152126,404.743893 204.529223,404.86198 204.529223,404.86198 C204.990803,405.034946 205.295313,405.816815 205.123264,406.251897 C204.951,406.687192 203.984827,406.684633 203.984827,406.684633 C203.984827,406.684633 204.830737,407.07578 204.59984,407.68063 C204.388844,408.233867 202.923428,407.985614 202.923428,407.985614 C202.923428,407.985614 203.728037,408.226402 203.555774,408.661698 C203.383724,409.096993 202.130374,408.906112 201.104712,408.628853 C200.079049,408.351595 199.384218,408.832745 197.839839,408.527548 C196.29546,408.22235 194.454488,407.901157 193.140579,407.460316 C191.826455,407.019262 191.762043,405.460218 192.05243,404.216394 C192.342603,402.972784 192.031887,401.84477 192.208216,401.335681 C192.384332,400.826592 192.133533,398.590824 192.169484,397.926044 C192.205434,397.261263 191.780661,396.867983 191.734653,396.346951 C191.68843,395.825919 192.383262,395.344556 192.395459,395.123175 C192.407443,394.901582 192.052858,394.586148 192.064842,394.364554 C192.076825,394.142961 192.47271,393.070184 192.566867,392.705057 C192.661023,392.339502 193.292727,388.60526 193.258488,387.862634 C193.224249,387.120008 193.186159,386.451389 193.06183,386.000098 C192.9375,385.54902 193.386241,385.4989 193.195789,384.896183 C193.00555,384.293253 193.68048,384.181497 193.728628,383.29491 C193.763093,382.654906 194.102836,382.584924 194.467805,382.56787 L194.637023,382.561874 C194.721509,382.558872 194.805043,382.554453 194.884184,382.542261 C195.087598,382.510818 195.504633,382.400167 195.950249,382.2781 L196.398537,382.154738 C196.842646,382.032593 197.253654,381.921629 197.446522,381.889637 Z M189.932071,407.291317 C190.357915,407.181267 190.641026,407.236505 190.871281,407.57412 C191.241487,408.11712 190.73775,408.53706 190.281734,408.602322 C190.084219,408.630474 189.696894,408.445564 189.561223,408.112854 C189.425339,407.780358 189.689404,407.353807 189.932071,407.291317 Z M131.017645,386.638048 C131.522238,386.638048 131.963703,388.397998 131.963703,388.397998 C131.963703,388.397998 132.215999,387.329488 132.720592,387.329488 C133.225184,387.329488 133.162057,388.272379 133.414353,388.209463 C133.666649,388.146546 133.729777,386.826584 134.234156,386.826584 C134.498032,386.826584 134.692853,388.784607 134.827727,390.851179 L134.861557,391.391531 C134.964419,393.102742 135.026913,394.778279 135.054172,395.375523 C135.117086,396.758402 134.612707,398.581269 134.612707,399.209792 C134.612707,399.838529 134.423324,402.164299 137.135457,402.604287 C139.847589,403.044274 140.604264,402.66699 141.298025,402.604287 C141.991787,402.54137 142.370338,402.478454 142.370338,402.981358 C142.370338,403.484262 141.42428,403.987166 141.42428,404.175701 C141.42428,404.364237 142.370338,404.427153 142.433466,404.804225 C142.496593,405.181509 141.487408,405.244425 141.487408,405.244425 C141.487408,405.244425 142.181169,405.621497 142.118042,406.124401 C142.054914,406.627305 140.856774,406.878543 140.856774,406.878543 C140.856774,406.878543 141.550322,407.004376 141.487408,407.695815 C141.42428,408.387255 137.198584,408.261636 136.252526,408.450171 C135.306469,408.638707 132.972888,408.072887 132.089958,406.878543 C131.206814,405.684413 129.756377,404.49007 129.630122,402.729906 C129.59032,402.174132 129.519041,401.712365 129.438147,401.263458 L129.354857,400.815831 C129.199252,399.992021 129.035822,399.120519 128.999274,397.701294 C128.996414,397.589857 128.994597,397.471278 128.993733,397.346435 L128.993911,396.953996 C128.999154,396.203301 129.030547,395.289747 129.073311,394.359678 L129.097676,393.851609 C129.211592,391.565846 129.377826,389.34089 129.377826,389.34089 C129.377826,389.34089 129.062402,387.329488 129.567208,387.329488 C130.071587,387.329488 130.323883,388.460915 130.323883,388.460915 C130.323883,388.460915 130.513266,386.638048 131.017645,386.638048 Z M165.305274,383.544891 C167.033043,383.272964 167.805768,383.862031 168.351447,384.088743 C168.897126,384.315242 169.215332,384.2246 169.533752,384.451099 C169.851958,384.677811 169.533752,385.221663 169.851958,385.312092 C170.170163,385.402734 170.988468,385.221663 171.534147,385.538804 C172.079826,385.855945 171.76162,386.263728 172.079826,386.399798 C172.398032,386.535654 172.671086,386.535654 172.716452,386.762366 C172.762032,386.988865 172.898345,388.393712 172.898345,388.62021 C172.898345,388.62021 173.48939,388.756067 173.671283,389.29992 C173.852962,389.843772 174.126016,391.203191 173.944123,392.970606 C173.762016,394.737808 173.125604,395.417517 172.989291,396.052012 C172.852765,396.686294 172.443612,399.08799 172.261933,400.085054 C172.079826,401.081904 171.124995,401.852256 171.079628,402.305466 C171.034048,402.758677 171.170575,403.257102 170.852369,403.846169 C170.533949,404.435236 168.942706,406.42915 166.85115,406.973003 C164.759595,407.516856 164.668648,407.924639 163.986656,407.969853 C163.304664,408.015281 162.804351,407.607285 162.16794,407.516856 C161.531314,407.426214 160.16733,407.154287 159.621651,406.519792 C159.075972,405.885297 158.7124,406.021367 158.439561,405.477514 C158.166721,404.933662 158.348614,403.936811 158.303034,403.755527 C158.257668,403.574243 157.666622,400.946048 157.757569,400.039839 C157.848515,399.133418 157.893881,397.955284 157.848515,397.547287 C157.802935,397.139504 157.484729,395.8253 157.666622,394.692593 C157.848515,393.559673 158.212087,392.245469 158.576087,390.976479 C158.939873,389.707703 161.940466,384.768453 163.259084,384.133958 C163.259084,384.133958 163.850129,383.862031 164.122969,384.043316 C164.395808,384.2246 164.630129,383.651102 165.305274,383.544891 Z M153.31711,406.941929 C153.634888,406.859818 153.846312,406.90098 154.018147,407.153072 C154.294411,407.558295 153.918641,407.87181 153.57818,407.920437 C153.430526,407.941551 153.141637,407.803562 153.040205,407.555096 C152.938773,407.306843 153.135859,406.988636 153.31711,406.941929 Z M142.441619,384.545324 C142.862113,384.545324 142.862113,385.970005 143.156351,386.01202 C143.450804,386.054035 143.282393,385.17406 143.786985,385.215862 C144.291578,385.257664 144.081438,386.095837 144.249636,386.095837 C144.417619,386.095837 144.585817,385.551132 144.964368,385.634949 C145.342706,385.718766 144.964368,387.017828 145.258607,387.143447 C145.55306,387.26928 145.636944,388.149255 145.679315,388.484524 C145.699651,388.647079 145.710126,390.050861 145.734694,391.55434 L145.744614,392.120589 C145.771299,393.536745 145.813001,394.915114 145.889455,395.315102 C146.057438,396.195291 146.267792,396.572362 146.351891,396.949433 C146.43599,397.326718 146.183693,398.039058 146.267792,398.374328 C146.351891,398.709597 146.604187,398.961049 146.856484,399.254303 C147.108566,399.54777 147.150936,400.050461 147.697258,400.343928 C148.244007,400.637182 147.99171,400.972451 148.538245,401.056268 C149.084994,401.140086 151.18725,401.30772 151.145307,398.332312 C151.103151,395.357118 150.724814,395.2733 150.724814,394.686579 C150.724814,394.099858 151.18725,393.345502 151.103151,392.884613 C151.019052,392.423725 150.430575,391.627354 150.472517,389.573936 C150.504188,388.023209 150.388204,385.928203 150.893011,385.886401 C151.39739,385.844386 151.229192,386.808178 151.565587,386.766376 C151.902196,386.724574 151.565587,385.551132 152.154279,385.551132 C152.501802,385.551132 152.570493,385.842679 152.568567,386.081975 L152.568,386.08 L152.585307,385.981767 C152.647718,385.635416 152.778301,385.181821 153.0391,385.102212 L153.121308,385.09003 C153.6259,385.09003 153.6259,386.472909 153.6259,386.472909 C153.6259,386.472909 153.920139,385.509116 154.256748,385.509116 C154.593143,385.509116 154.340633,385.844386 154.593143,385.886401 C154.84544,385.928203 154.677028,385.467314 154.971267,385.467314 C155.26572,385.467314 155.26572,388.275088 155.307876,388.861596 C155.349818,389.448317 155.571942,391.347963 155.72837,391.711171 C156.106707,392.591359 156.6113,394.058056 156.443103,395.147681 C156.385325,395.522619 156.106707,396.069458 156.14865,396.53056 C156.190806,396.991449 156.022823,400.804816 155.686214,401.517157 C155.349818,402.229711 154.593143,403.486757 154.593143,403.905844 C154.593143,404.32493 154.677028,404.618398 154.088337,404.995469 C153.499859,405.372753 151.733999,405.330738 151.355447,405.58219 C150.976896,405.833642 149.253192,406.043079 148.454147,405.623992 C147.655315,405.204905 146.772385,405.037484 146.393833,404.827834 C146.063216,404.64463 142.063067,402.020061 141.558689,399.54777 C141.332927,398.441936 141.368022,396.981851 141.264236,396.153275 C141.138195,395.147681 140.633602,394.309508 140.170952,392.591359 C139.796466,391.200376 140.086853,390.118855 140.044911,389.657753 C140.002754,389.196865 139.960812,387.730168 139.876499,386.808178 C139.792614,385.886401 139.624417,385.425299 140.129009,385.425299 C140.554639,385.425299 140.620977,386.139132 140.631462,386.363072 C140.624828,386.054462 140.636812,384.791657 141.264236,384.75476 C141.979183,384.712958 142.021125,385.802583 142.021125,385.802583 C142.021125,385.802583 142.021125,384.545324 142.441619,384.545324 Z M125.347718,404.107283 C125.66571,404.025171 125.87692,404.066334 126.048755,404.318425 C126.325233,404.723649 125.949249,405.037164 125.608788,405.085791 C125.461348,405.106905 125.172245,404.968916 125.070813,404.72045 C124.96938,404.472197 125.166681,404.15399 125.347718,404.107283 Z M126.916278,402.3134 C127.342122,402.20335 127.625233,402.258588 127.855488,402.596204 C128.225694,403.13899 127.721957,403.559143 127.265941,403.624192 C127.068426,403.652558 126.681101,403.467648 126.545216,403.134938 C126.409545,402.802441 126.673611,402.37589 126.916278,402.3134 Z M165.577899,388.574996 C165.123167,388.597603 164.782492,389.345134 164.577701,389.413169 C164.372911,389.481204 163.645553,389.096028 163.100088,389.86638 C162.554409,390.636731 161.508631,393.876814 161.485948,396.119834 C161.463265,398.363067 162.122574,401.03669 162.349833,401.421865 C162.577092,401.807041 162.690722,401.897683 163.054508,401.807041 C163.418294,401.716399 163.671018,401.16956 164.077603,401.35383 C164.327759,401.46708 164.350442,401.489687 164.555018,401.874863 C164.759595,402.260252 165.146064,402.260252 165.532533,402.192217 C165.919002,402.124182 166.419101,401.557722 166.578311,401.104725 C166.737307,400.651514 167.01036,398.702815 167.12399,398.249604 C167.23762,397.796607 167.465093,396.95822 167.646772,396.414367 C167.828665,395.870728 167.851348,394.533916 167.805768,394.239383 C167.760616,393.944849 167.419513,393.582281 167.555825,393.151677 C167.692138,392.721287 167.942295,392.381326 167.987875,392.064185 C168.033241,391.747044 168.2605,390.523482 168.215134,390.274163 C168.169768,390.024843 167.987875,389.526632 167.828665,389.435776 C167.669669,389.345134 167.101093,389.820952 166.760204,389.707703 C166.419101,389.594453 166.032632,388.552175 165.577899,388.574996 Z M182.192309,387.646287 C181.686218,387.508724 181.594415,388.104616 181.36416,388.104616 C181.134333,388.104616 181.272358,387.646287 180.904292,387.646287 C180.53644,387.646287 180.076572,389.204692 180.030563,389.433963 C179.984555,389.663235 180.168588,390.900873 180.168588,391.405056 C180.168588,391.90924 179.570695,393.513712 179.754514,393.926187 C179.938547,394.338876 180.220802,394.07868 180.766267,394.338876 C181.824243,394.842846 182.008062,394.246954 182.513938,394.201313 C183.020029,394.155459 183.525905,393.926187 183.893971,393.559567 C184.261823,393.192733 184.169807,392.917607 184.399848,392.734403 C184.629675,392.550986 184.859716,392.23022 184.997741,392.046803 C185.135552,391.863386 184.997741,391.267494 184.997741,390.946727 C184.997741,390.625747 185.319799,390.07571 185.319799,389.663235 C185.319799,389.25076 185.089758,388.654654 184.767914,388.333888 C184.445856,388.012908 184.123799,388.333888 183.525905,388.288033 C182.928012,388.242179 182.698185,387.78385 182.192309,387.646287 Z M110.096565,393.264948 C110.195001,393.025653 110.611001,392.739437 111.021651,392.845648 C111.681816,393.016055 111.554919,393.853162 111.435084,394.02101 C111.315462,394.188858 110.704516,394.323435 110.370688,394.15708 C110.037075,393.990511 109.997915,393.50403 110.096565,393.264948 Z M108.267555,392.408689 C108.547029,392.336602 108.732774,392.372859 108.883852,392.594239 C109.126733,392.950409 108.796115,393.225961 108.496955,393.268829 C108.36749,393.287384 108.113267,393.166031 108.024247,392.947636 C107.935226,392.729455 108.108346,392.449851 108.267555,392.408689 Z M209.42559,388.334464 C209.851648,388.224413 210.134545,388.279652 210.365014,388.617267 C210.73522,389.160267 210.23127,389.580206 209.775253,389.645469 C209.577739,389.673621 209.190413,389.488711 209.054743,389.156214 C208.918858,388.823505 209.182924,388.397167 209.42559,388.334464 Z M211.363265,387.249147 C211.617273,387.183458 211.785899,387.216515 211.923495,387.417848 C212.144335,387.7416 211.843676,387.992199 211.571693,388.031015 C211.453997,388.048077 211.2231,387.9376 211.141997,387.739254 C211.060894,387.540908 211.218392,387.28647 211.363265,387.249147 Z M159.443268,384.564113 C159.75698,384.483069 159.96498,384.523804 160.134461,384.77227 C160.407301,385.171736 160.036239,385.480772 159.7007,385.528972 C159.555185,385.549873 159.270148,385.41359 159.170214,385.16875 C159.070494,384.924123 159.264799,384.610181 159.443268,384.564113 Z M138.42373,382.695456 C138.741722,382.613345 138.952932,382.654508 139.124981,382.906386 C139.401459,383.31161 139.025261,383.625125 138.6848,383.673965 C138.53736,383.695079 138.248257,383.556877 138.146825,383.308624 C138.045607,383.060371 138.242693,382.742164 138.42373,382.695456 Z M126.449177,382.55269 C126.767168,382.470365 126.978378,382.511741 127.150428,382.763619 C127.426691,383.168843 127.050708,383.482358 126.710247,383.531198 C126.562806,383.552313 126.273703,383.41411 126.172271,383.165857 C126.070839,382.917604 126.26814,382.599397 126.449177,382.55269 Z M152.808067,382.43686 C152.91656,382.173038 153.375359,381.85739 153.828166,381.974478 C154.556594,382.162587 154.416429,383.085644 154.284182,383.270767 C154.152149,383.455891 153.478503,383.60433 153.110437,383.4207 C152.742371,383.23707 152.699359,382.700682 152.808067,382.43686 Z M154.833092,380.769343 C155.111496,380.697682 155.296599,380.733726 155.447249,380.954466 C155.689488,381.309357 155.35994,381.584056 155.061636,381.626711 C154.932385,381.645266 154.679232,381.524339 154.590426,381.306798 C154.501619,381.089257 154.674311,380.810505 154.833092,380.769343 Z M183.140485,380.038256 C183.458691,379.956145 183.669901,379.997307 183.841736,380.249185 C184.118213,380.654409 183.742016,380.967924 183.401555,381.016764 C183.254328,381.037878 182.965012,380.899676 182.863579,380.651423 C182.762361,380.40317 182.959662,380.084963 183.140485,380.038256 Z" id="Combined-Shape"></path>
        </g>
    </g>
</svg>