<svg width="32" height="32" viewBox="0 0 32 32" fill="none" xmlns="http://www.w3.org/2000/svg">
<path fill-rule="evenodd" clip-rule="evenodd" d="M15.9072 2.88311C20.1572 2.88311 20.6561 2.90216 22.3358 2.97837C23.8893 3.04822 24.7292 3.30859 25.2912 3.53086C26.0364 3.82298 26.5668 4.16591 27.1225 4.72475C27.6782 5.28359 28.0255 5.81703 28.3097 6.56638C28.5244 7.13157 28.7896 7.97619 28.8591 9.5384C28.9349 11.2276 28.9538 11.7293 28.9538 16.0032C28.9538 20.277 28.9349 20.7787 28.8591 22.4679C28.7896 24.0302 28.5307 24.8748 28.3097 25.44C28.0192 26.1893 27.6782 26.7228 27.1225 27.2816C26.5668 27.8404 26.0364 28.1897 25.2912 28.4755C24.7292 28.6914 23.8893 28.9581 22.3358 29.028C20.6561 29.1042 20.1572 29.1232 15.9072 29.1232C11.6573 29.1232 11.1584 29.1042 9.47867 29.028C7.92521 28.9581 7.08532 28.6978 6.5233 28.4755C5.77814 28.1834 5.24769 27.8404 4.69197 27.2816C4.13626 26.7228 3.78894 26.1893 3.50477 25.44C3.29007 24.8748 3.02484 24.0302 2.95538 22.4679C2.8796 20.7787 2.86065 20.277 2.86065 16.0032C2.86065 11.7293 2.8796 11.2276 2.95538 9.5384C3.02484 7.97619 3.28375 7.13157 3.50477 6.56638C3.79526 5.81703 4.13626 5.28359 4.69197 4.72475C5.24769 4.16591 5.77814 3.81663 6.5233 3.53086C7.08532 3.31494 7.92521 3.04822 9.47867 2.97837C11.1584 2.89581 11.6573 2.88311 15.9072 2.88311ZM15.9072 0C11.5878 0 11.0448 0.0190514 9.34606 0.095257C7.65366 0.171463 6.49804 0.444533 5.48765 0.838262C4.43938 1.24469 3.55529 1.79718 2.6712 2.68625C1.78712 3.57531 1.24404 4.47073 0.833567 5.51856C0.442043 6.53463 0.170502 7.69677 0.0947236 9.40504C0.0189447 11.107 0 11.6531 0 15.9968C0 20.3405 0.0189447 20.8867 0.0947236 22.595C0.170502 24.2969 0.442043 25.459 0.833567 26.4814C1.23772 27.5356 1.78712 28.4247 2.6712 29.3138C3.55529 30.2028 4.44569 30.749 5.48765 31.1617C6.49804 31.5555 7.65366 31.8285 9.35237 31.9047C11.0511 31.9809 11.5879 32 15.9136 32C20.2393 32 20.776 31.9809 22.4747 31.9047C24.1671 31.8285 25.3228 31.5555 26.3395 31.1617C27.3877 30.7553 28.2718 30.2028 29.1559 29.3138C30.04 28.4247 30.5831 27.5293 30.9935 26.4814C31.3851 25.4654 31.6566 24.3032 31.7324 22.595C31.8082 20.8867 31.8271 20.3469 31.8271 15.9968C31.8271 11.6468 31.8082 11.107 31.7324 9.39869C31.6566 7.69677 31.3851 6.53463 30.9935 5.5122C30.5894 4.45803 30.04 3.56896 29.1559 2.6799C28.2718 1.79083 27.3814 1.24469 26.3395 0.831911C25.3291 0.438182 24.1735 0.165112 22.4747 0.0889065C20.7697 0.0190514 20.2266 0 15.9072 0ZM15.9072 7.77932C11.3984 7.77932 7.73576 11.4562 7.73576 15.9968C7.73576 20.5374 11.3984 24.2143 15.9072 24.2143C20.4161 24.2143 24.0787 20.5311 24.0787 15.9968C24.0787 11.4626 20.4161 7.77932 15.9072 7.77932ZM15.9072 21.3312C12.9771 21.3312 10.6027 18.9434 10.6027 15.9968C10.6027 13.0502 12.9771 10.6624 15.9072 10.6624C18.8374 10.6624 21.2118 13.0502 21.2118 15.9968C21.2118 18.9434 18.8374 21.3312 15.9072 21.3312ZM26.3079 7.45546C26.3079 8.51465 25.454 9.3733 24.4008 9.3733C23.3475 9.3733 22.4937 8.51465 22.4937 7.45546C22.4937 6.39626 23.3475 5.53762 24.4008 5.53762C25.454 5.53762 26.3079 6.39626 26.3079 7.45546Z" fill="black"/>
</svg>
