<?xml version="1.0" encoding="UTF-8"?>
<svg width="96px" height="75px" viewBox="0 0 96 75" version="1.1" xmlns="http://www.w3.org/2000/svg" xmlns:xlink="http://www.w3.org/1999/xlink">
    <title>kirby-crackle</title>
    <g id="Symbols" stroke="none" stroke-width="1" fill="none" fill-rule="evenodd">
        <g id="components/desk/nav" transform="translate(-152.000000, -32.000000)" fill="#000000" fill-rule="nonzero">
            <g id="kirby-crackle" transform="translate(151.999928, 31.999089)">
                <path d="M24.4957285,63.9228656 C27.5597455,62.6122212 30.5161046,63.6289232 31.7813876,66.1238048 C33.8347508,70.1724685 30.7804109,74.033638 27.2077404,74.1249658 C25.0648639,74.1793995 22.6721968,72.9050443 21.6186008,70.3170204 C20.5656095,67.7283917 22.7090909,64.686753 24.4957285,63.9228656 Z M46.1583168,16.0410977 C47.7659278,14.2919589 51.3748874,13.0169988 54.3814466,14.4232048 C55.4241559,14.9106895 56.2297759,15.768324 56.7904438,16.7547851 C56.8581836,16.7184959 56.9277379,16.6749489 56.9954777,16.6422886 C60.9007991,14.7558557 66.9145222,16.3380642 69.4438785,19.8212214 C70.7502893,21.6217699 71.2166053,23.7906536 71.0291112,25.8924024 C71.7615479,26.3544847 72.4250352,27.0240202 73.0449755,27.9348788 C73.2572673,28.2481754 73.4338746,28.5560287 73.5820555,28.8590434 C74.6459335,28.5808263 75.9069827,28.5572384 77.040415,29.035046 C79.2310723,29.9586058 79.9943548,33.186529 79.1560746,34.6114844 C78.3262619,36.0213193 77.4625792,36.9739105 76.3920482,37.4462747 C79.0472071,41.7429145 75.0457194,45.0397871 71.4125669,45.5617466 C70.9268966,45.6313009 70.3003033,45.5393683 69.6313727,45.3065127 C69.4051701,46.0915687 69.1354204,46.7139283 68.8680901,47.090731 C67.9034025,48.4479466 64.6240697,49.6460946 61.1475655,49.9485045 C61.1911126,50.0114058 61.2358692,50.0706781 61.2788114,50.1378131 C62.9420658,52.7838997 60.8251966,55.8836011 58.0859678,55.9706951 C57.0353958,56.0039602 55.6255609,55.4076079 54.7576445,54.212484 C53.5129254,55.0622558 52.0595434,55.3211187 50.5928555,55.1602366 L50.5928555,55.1602366 L50.6206772,55.1989451 C54.7165168,61.2235549 49.9384405,66.4679473 44.0995103,66.6088703 C41.6784167,66.6675378 37.6303578,64.8694086 36.1285903,61.1781935 C35.8727515,60.5485761 35.753602,59.8887177 35.7318285,59.2240207 C33.4323037,58.9077 30.1372455,56.957761 28.856842,53.8133029 C28.4903212,52.910307 28.390526,51.9462243 28.4836682,50.9930283 C28.3808489,51.0123825 28.2774247,51.0299223 28.1746053,51.044438 C26.544616,51.279108 23.3469338,49.7464947 22.2249931,46.9909358 C22.1880991,46.8990032 22.1639063,46.8040464 22.1330605,46.7102994 C22.0647159,46.7223958 21.9957664,46.735097 21.9268169,46.7447741 C20.2968276,46.9788394 16.9001597,45.6016647 15.9772047,42.6906671 C15.0790473,39.8552719 17.1372491,36.6956934 19.0400121,35.8852349 C21.39639,34.8806292 23.2616542,35.0372775 24.8136218,36.1253483 C25.1940534,35.025786 25.7940346,34.0133176 26.5028834,33.2185844 L26.5028834,33.2185844 L26.4466352,33.1943916 C22.7560249,31.347272 22.3235787,25.9486506 23.4128592,23.2940966 C24.5027444,20.6389377 29.1036085,17.4642387 33.6452003,18.641218 C36.7455065,19.4444187 38.2732813,21.581247 38.9071324,23.9164561 C41.0318643,23.4834052 42.7017717,23.6430776 44.1079777,24.645264 C44.6692505,24.4601891 45.2462486,24.3089842 45.835343,24.1970925 C43.841857,21.8020062 44.3220839,18.0400271 46.1583168,16.0410977 Z M70.0143445,50.7313832 C74.4337627,49.0040179 79.121116,50.4404649 80.8599729,54.1449861 C83.8048405,60.4193866 78.8943086,65.3341521 73.8821671,65.2803232 C71.6751797,65.2561304 67.4136195,63.5402566 65.9118519,59.8490415 C64.4088748,56.1584312 67.4329737,51.7402226 70.0143445,50.7313832 Z M21.6938404,53.9060823 C23.5657576,53.4210168 24.910272,53.6006483 25.8211306,55.1532207 C27.1819751,57.4714949 25.1407083,59.7395691 23.2300826,59.686345 C22.3543036,59.6621522 20.6602033,58.9956408 20.0632462,57.5289528 C19.4668939,56.0622648 20.6275431,54.1824849 21.6938404,53.9060823 Z M8.15912273,36.0751483 C10.0503942,35.2779958 11.9017476,35.7031841 12.9184496,37.5122001 C14.4050966,40.1582866 12.7085772,42.4747464 10.3981656,42.8043732 C8.81051364,43.0311806 6.69364439,41.7459386 6.28055248,40.2514289 C5.79367255,38.492613 6.54243945,36.7561754 8.15912273,36.0751483 Z M86.7662801,22.4950087 C89.9500514,21.1861787 93.6890473,22.0147818 95.404921,25.1048061 C97.0887393,28.1379773 95.1738799,34.5895899 89.9821068,34.5926147 C86.80015,34.5938237 84.2871238,32.8755307 83.3544916,30.0764247 C82.3075486,26.9325714 83.5812991,23.8032339 86.7662801,22.4950087 Z M3.14032816,22.9210437 C6.45171648,21.5970932 9.41533342,22.6186339 10.8789973,25.4225784 C13.1095727,29.696235 9.94455074,33.5809925 6.13902465,33.7146576 C4.53685704,33.7715107 1.55267622,32.7493652 0.34666557,29.7682085 C-0.738985944,27.0834135 0.872253963,23.8282734 3.14032816,22.9210437 Z M75.6006415,18.2273398 C77.5330407,17.2511607 80.1500959,17.7428792 81.2919957,19.9468425 C82.9764188,23.1983536 80.7083446,26.247855 77.71993,26.1970501 C75.9453888,26.1662043 73.904122,25.3339723 73.353736,23.2219416 C72.7954874,21.0814844 74.2458452,18.9119958 75.6006415,18.2273398 Z M58.9187441,2.29826161 C62.3371856,1.07229191 65.2100795,2.05512406 66.6737434,4.64072864 C69.3530951,9.37344345 65.5880919,13.1686876 61.805549,13.1584265 C60.1586247,13.1535671 56.9778775,11.8598576 55.8565416,9.10429865 C54.7352057,6.34934453 56.9718293,2.99682846 58.9187441,2.29826161 Z M70.5731375,0.279554614 C72.316833,-0.44018093 74.1312923,0.315843801 74.8340929,1.56721594 C76.2983616,4.17217475 74.5093047,6.28843918 72.158975,6.24731143 C71.2541646,6.23158612 69.2026159,5.62374223 68.8899241,4.01976016 C68.5367093,2.20590563 69.5225656,0.7132104 70.5731375,0.279554614 Z"></path>
            </g>
        </g>
    </g>
</svg>