<?xml version="1.0" encoding="UTF-8"?>
<svg width="31px" height="26px" viewBox="0 0 31 26" version="1.1" xmlns="http://www.w3.org/2000/svg" xmlns:xlink="http://www.w3.org/1999/xlink">
    <title>icons/meetup</title>
    <g id="lg-1400px" stroke="none" stroke-width="1" fill="none" fill-rule="evenodd">
        <g id="index" transform="translate(-392.000000, -176.000000)" fill-rule="nonzero">
            <g id="Group" transform="translate(392.000000, 173.000000)">
                <rect id="Rectangle" x="0" y="0" width="32" height="32"></rect>
                <path d="M27.6699871,4.2507871 C26.2836645,3.99272258 24.9035355,3.96381935 23.6503742,4.78962581 C23.2354065,5.06420645 22.8348903,4.99814194 22.4736,4.67917419 C22.1948903,4.43659355 21.9326968,4.17956129 21.6622452,3.92975484 C20.3822452,2.74781935 18.693471,2.69104516 17.3205677,3.76872258 C16.7662452,4.20227097 16.3006968,4.74317419 15.6999226,5.12098065 C15.1610839,5.45852903 14.6191484,5.55452903 14.0235355,5.23659355 C13.4557935,4.93414194 12.869471,4.66885161 12.2831484,4.40252903 C11.6896,4.13414194 11.1166968,3.80381935 10.4477935,3.74704516 C8.33682581,3.56743226 6.12572903,4.82265806 5.1936,6.73027097 C4.78069677,7.57465806 4.44314839,8.45104516 4.12314839,9.33465806 C2.64495484,13.4162065 1.44134194,17.5844645 0.195406452,21.738271 C-0.362012903,23.5963355 0.296567742,25.426529 1.87076129,26.4309161 C3.09914839,27.2144 4.4452129,27.4074323 5.83669677,26.9883355 C6.96495484,26.6497548 7.5812129,25.7424 8.01476129,24.7235613 C9.4496,21.3387871 10.7399226,17.8993032 12.1086968,14.4866581 C12.4844387,13.5473032 12.8488258,12.6058839 13.2483097,11.6789161 C13.6508903,10.7395613 14.8101161,10.4195613 15.4986323,11.0430452 C15.9166968,11.4249806 16.0281806,11.9287226 15.9868903,12.4675613 C15.941471,13.0456258 15.7185032,13.578271 15.5079226,14.1088516 C14.6201806,16.3591742 13.7128258,18.6012387 12.8188903,20.850529 C12.6382452,21.3036903 12.4431484,21.7547871 12.3626323,22.2430452 C12.2263742,23.0791742 12.5587613,23.8224 13.2431484,24.1186581 C13.9419871,24.4200774 14.6676645,24.4685935 15.3933419,24.2074323 C16.2356645,23.9018839 16.7394065,23.2402065 17.1275355,22.4773677 C18.4612129,19.858529 19.7856,17.2314323 21.1192774,14.6115613 C21.7345032,13.4007226 22.3621161,12.1960774 22.9907613,10.9934968 C23.2240516,10.5475613 23.4986323,10.1264 23.9352774,9.84769032 C24.3296,9.59788387 24.7548903,9.57930323 25.1585032,9.8064 C25.5528258,10.0273032 25.5796645,10.4309161 25.5631484,10.8283355 C25.5528258,11.0451097 25.4939871,11.2515613 25.4124387,11.4518194 C25.2400516,11.8647226 25.0779871,12.2858839 24.8859871,12.690529 C23.7773419,15.0234323 22.6511484,17.3480774 21.5517935,19.6861419 C21.0893419,20.6719484 20.6062452,21.6649806 20.6640516,22.7024 C20.6640516,25.098271 22.2052129,27.218529 24.3874065,27.9369806 C25.4816,28.298271 26.6088258,28.4696258 27.7546323,28.5191742 C28.5721806,28.5553032 29.3886968,28.498529 30.1432774,28.1217548 C30.7357935,27.8244645 31.0155355,27.3341419 30.989729,26.6817548 C30.9618581,26.0252387 30.6676645,25.5349161 30.0400516,25.2727226 C29.8212129,25.1818839 29.5992774,25.1085935 29.3670194,25.0673032 C28.6754065,24.9424 27.9776,24.8391742 27.2880516,24.7029161 C26.149471,24.4758194 25.6725677,23.8740129 25.6570839,22.7230452 C25.6436645,21.7052387 25.9203097,20.7442065 26.2330839,19.794529 C26.8059871,18.0562065 27.5791484,16.3984 28.3182452,14.7261419 C29.0346323,13.1137548 29.7840516,11.5127226 30.2898581,9.81259355 C30.5685677,8.88046452 30.6996645,7.94420645 30.4467613,6.97904516 C30.0627613,5.51530323 29.1843097,4.53259355 27.6699871,4.2507871" id="Fill-1" fill="#000000"></path>
            </g>
        </g>
    </g>
</svg>