<svg width="32" height="32" viewBox="0 0 32 32" fill="none" xmlns="http://www.w3.org/2000/svg">
<path d="M0 26.5177C0.513611 26.5796 1.03623 26.6112 1.56611 26.6112C4.64193 26.6112 7.47275 25.5406 9.71962 23.7446C6.84678 23.6905 4.42222 21.7545 3.58685 19.0939C3.98762 19.1721 4.39893 19.2141 4.82195 19.2141C5.42077 19.2141 6.00075 19.1323 6.5517 18.9792C3.54822 18.3641 1.28531 15.6575 1.28531 12.4129C1.28531 12.3847 1.28531 12.3566 1.28578 12.3287C2.17102 12.8303 3.18326 13.1315 4.25953 13.1662C2.49794 11.9654 1.33881 9.91567 1.33881 7.59242C1.33881 6.36519 1.66256 5.21484 2.22767 4.2258C5.46572 8.27725 10.3032 10.9433 15.7596 11.2225C15.6477 10.7324 15.5895 10.2213 15.5895 9.69647C15.5895 5.9983 18.5291 3 22.1549 3C24.0431 3 25.7494 3.8133 26.947 5.11479C28.4424 4.8144 29.8475 4.25708 31.1159 3.48975C30.6257 5.05343 29.5848 6.36578 28.2293 7.19461C29.5573 7.03271 30.8226 6.67274 32 6.14013C31.1198 7.48306 30.0067 8.66253 28.724 9.60669C28.7367 9.89382 28.743 10.1826 28.743 10.473C28.743 19.3222 22.1396 29.5263 10.0639 29.5263C6.35634 29.5263 2.90539 28.4178 0 26.5177Z" fill="black"/>
</svg>
