<?xml version="1.0" encoding="utf-8"?>
<!-- Generator: Adobe Illustrator 22.1.0, SVG Export Plug-In . SVG Version: 6.00 Build 0)  -->
<svg version="1.1" id="Layer_1" xmlns="http://www.w3.org/2000/svg" xmlns:xlink="http://www.w3.org/1999/xlink" x="0px" y="0px"
	 viewBox="0 0 444 424" style="enable-background:new 0 0 444 424;" xml:space="preserve">
<path d="M148.3,350.1c0.1-4,0.2-13.1-0.3-17.4c-0.4-4.3-3.5-10.7-5.2-14.6s-9.6-16.7-20.4-17.3c0,0,8.6-7.9,9.1-13.9
	c0.5-5.9-1.3-6.7-1.3-8.5c0-1.8,0.2-3.4-0.4-5.4c-0.6-2-0.8-4.4-2.2-4.3c-0.6,0-0.4,1.8-0.9,1.9c-0.5,0.1-2.1-1.4-1.9-3.3
	c0.2-1.9,0-4-1-4.9c-0.9-0.8-5-0.8-5.5-2c-0.6-1.2-6.4-9.2-14.5-9.7c-9.4-0.6-13.1-2.2-15.2-2.2c-2.1,0-5,1.2-6.6,1.4
	c-2.4,0.3-3.5-0.5-5.8,0.6c-2.2,1.1-2.4,1.9-4.3,2.3c-1.9,0.5-1.9,0.1-3.5,1.2c-1.6,1.1-1.2,2.2-4.2,3.7c-3.1,1.5-6.2,1.4-9,5.2
	s-3.2,7.6-3.4,15.5c-0.2,7.9,4,16.7,3.9,19.5c-0.1,2.8-3.9,15-3.2,19s3.8,6.6,4.3,11.7s1.1,12.8,0.9,15.1c-0.2,2.3-1.7,6.6-0.9,7.4
	c0.8,0.7,0.3,5.8,0.6,7.3c0.3,1.5-0.4,14.9,3.5,23c3.9,8.1,10.3,22,15.7,23.8c5.4,1.8,9.7,3.4,15.8,4.1c6.1,0.7,16.7,1,24.7-1.1
	s19.4-11.4,22.6-18.6c3.2-7.2,4-11.8,6.2-14.4c2.2-2.6,7.3-11.7,6.9-15.2C152.3,356.5,148.2,354.2,148.3,350.1z M81.3,278.5
	c0.3-1.3,1.8-2.3,2.5-3.8c0.7-1.5,0.4-3.9,3.1-5.3c2.7-1.5,10.4-0.3,12.8-0.2c2.4,0.1,3.4,0.2,4.8,1.3c1.4,1.1,1.2,2.7,2,3.6
	c0.8,0.9,2.5,1.2,3,2.3c0.5,1.2-0.2,3.5,0.5,4.3c0.7,0.8-0.1,2-0.9,3.4c-0.8,1.4-0.7,2.7-0.7,3.9c0.1,1.2,0.2,3.5-1.3,5.6
	c-1.4,2.1-5.8,8.5-10.3,9.7s-7.5,2.3-9.5,2.3s-2.1-0.7-2.9-1.7c-0.8-1-1.8,0.2-1.3-2.5c0.6-2.7,1.3-7.2,0.9-10.5
	C83.6,287.6,81,279.8,81.3,278.5z M127.6,363.5c-0.6,3-4.3,11.4-7,15.6c-2.7,4.2-10.4,10.6-20.4,11.1c-10,0.4-12.8-3.4-13.4-6.9
	c-0.7-3.5-2.4-9.4-2.5-12.1s-0.5-6.4-0.5-8.3c0-1.9,1.9-3.9,1.8-5.8c-0.2-1.9-1.9-5-1.5-8.6c0.4-3.5,0.8-13.3,0.6-16.2
	c-0.3-2.8-0.2-6,1.5-7.8c1.7-1.8,2.9-1.7,4.9-2.7c2.1-0.9,2-2.4,5.3-2.2c3.3,0.1,10.3,1.9,11.1,2.8c0.9,0.9,3.5,0.9,4.2,1
	c0.8,0.1,5,2.7,6.4,3.6c1.4,0.9,5.9,4.2,7.2,6.3s2.5,4.3,2.8,4.8c0.3,0.6-0.8,1.1-0.1,2.4c0.6,1.3,1.7,2.1,1.8,3.6s-2.5,7.7-2.4,9.3
	C127.5,355.2,128.2,360.5,127.6,363.5z"/>
<path d="M177.4,249.9c3.9-3.5,3.7,5.2,3.7,5.2s1.6,13.7,1.9,19.8c0.3,6.2,0.4,20.5-0.2,25.6c-0.6,5.1,0.3,10.2,0.5,12.8
	c0.3,2.7-0.4,10.2-0.6,12.9s2.5,16.1,2.5,16.1c3.9,22,34,21.3,34.2,23.5c0.2,2.2-4.1,3-4.1,3s3.5,1.4,3.5,2.7c0,1.3-3.7,3.7-3.7,3.7
	s6.4,0.8,6.4,3.8c0,1.7-4,3-4,3s3.9,2,4,2.9s-1.6,3.2-5.5,3.4s-10.4-2.1-12.5-2.7c-2.1-0.6-7-0.4-15-2.1c-8-1.7-13-5.6-14.4-6.6
	s-6.3-2.1-11.3-9s-5.1-14.3-6.8-21.2c-1.7-7-2.4-25-2.4-25s-1.1-7.2-1.2-9.7c0-2.5,0.2-3,0.2-5.7c0-2.8-1.1-3.4-1.3-5.6
	c-0.2-3,0.7-5,0.6-6.4c0,0-0.4-5.2-0.6-8.4c-0.2-3.2-0.9-4-0.9-5.2c0-1.2-0.8-13.5-0.5-17.2c0.3-3.7,1.9-11.2,2.1-12.4
	s0.4-4.3,0.9-6.1s1.3-3.4,2.4-3.4c1.1,0,1.9,4.7,2.6,4.7s1.1-4.7,3.8-4.8s2.5,3.1,3.5,3.2c1,0.1,1.4-1,2.6-0.8c1.2,0.2,1,2.8,2,3.1
	c1,0.3,1.3-2.2,4.4-1.7C175.9,245.6,176.6,250.7,177.4,249.9z"/>
<path d="M308.7,267.4c-0.8-2.8-7-10.3-7.2-11.2c-0.2-0.9,0.1-2.3-0.7-4.1c-0.8-1.8-3.6-0.7-5.3-2.5s-14.1-17.9-25.8-16.7
	c-13.1,1.4-22.2,2.3-29.3,8.4c-6.1,5.3-5.6,11.5-10.8,15.2c-1.8,1.3-7.9,16.4-10.5,21.7c-1.6,3.3-1.9,9.3-2.3,14.3
	c-0.3,5,1.7,13.9,1.1,16.4c-0.6,2.5-1.2,7.9-0.9,13.3c0.9,13.6,5,30.4,6.8,32.4c1.8,2,1.5,7.9,3.1,10.5c1.7,2.9,4.7,4.5,6.4,5.8
	c1.6,1.3,3.4,6.4,5.3,8c7.4,5.9,22.3,6.6,24.8,6.1c2.5-0.5,8.1,0.2,10.7-1.2c2.6-1.4,2-2.9,8-6.1c5.9-3.1,16.4-17.5,19.5-28.7
	c3.1-11.2,6.4-26.1,7.3-31.3c1.7-10.4-2.1-16.9-1.7-18.9c0.5-2,1.1-7,0.9-9c-0.3-2,1-6.4,1.3-7.6C309.5,281,311,275.3,308.7,267.4z
	 M284.3,292.3c-0.4,4-1.5,8.1-1.7,10.8c-0.2,2.7,2.1,5.5-1.3,26.6c-3.4,21.1-17.1,26.5-19.8,26.3s-3.2-5.5-4.6-7
	c-1.4-1.6-2.4-0.7-5.1-0.9c-2.7-0.2-3.8-1.2-6.5-6.7c-2.6-5.5-1.9-13.3-2.6-17.9c-0.7-4.5,1.5-7.8,1.2-10c-0.4-2.1-0.4-2.7-0.8-7.2
	s1.2-6.7,4.4-21.7c4-18.4,7.8-11.8,13.4-12.6c5.1-0.8,7.7-3,10.9-1.8c3.3,1.2,3.3,2.8,3.4,5s5.9,5.7,8.7,8.8
	C286.7,287.1,284.6,288.3,284.3,292.3z"/>
<path d="M362.7,308c4.8-3.2,22.6,5.2,32.3,10.4c9.7,5.2,5.6,17.5,3.4,26.6c-2.1,9.1-8.7,37.9-35.5,43.4
	c-26.8,5.5-34.1-8.1-39.6-13.9c-5.6-5.8-5.1-18.8-5.9-22.4s-3.2-4.6-3.8-8.2c-0.6-3.6,1.3-9.3,2.1-11.9c0.7-2.6,0.4-16.6,0.2-26.1
	c-0.2-9.6,1.6-33.1,5.6-40.5c0,0,2.1-8.8,5.7-11.5c3.6-2.7,5.4-0.9,5.4-0.9s5-7.1,16.1-10.7c11-3.6,19.5-5.6,37.8,1
	c18.2,6.6,17.7,30.9,17.3,34c-0.4,3.1-1.6,8.3-2.7,8.6c-1,0.3-2.4-3.1-2.4-3.1s-2,13.2-7.2,13.1c-5.2-0.1-5.5-3-5.5-3
	s-1.3,1.3-2.8,1.1c-1.6-0.2-3.7-2.2-3.5-6.9c0.2-4.7,1.2-18.1-11.5-18.1c-12.7,0-19.5,18.3-21.9,28.1s-2.1,22.8-2.3,26.7
	c-0.2,3.9-2.6,9.9-2.1,12.7c0.6,2.8,6.3,3.2,5.3,6.6c-1,3.4,0,11.1,3.9,13.9c3.9,2.8,7.9,5.5,13.5,3.6s8.8-13.4,8.2-15.4
	c-0.6-2.1-4.8-4.6-3.2-3.8c1.6,0.7-4.2-0.7-6-2.5c-3.3-3.1-6.6-4.5-6.6-4.5s-2.9-1.7-2.7-3.8s3.6-2.1,3.6-2.1s-5.8-4.3-4.8-6.9
	c1-2.6,2.5-2.4,2.5-2.4s-4.2-3-2.7-6.7c1.5-3.7,11.4,1,11.4,1S360.7,309.3,362.7,308z"/>
<path d="M43.4,32.6c0,0-9.9-0.7-8.7,8c0,0-0.6-3.7-2.9-3.4c-2.3,0.2-2.7,4.9,1.7,20.1s6.3,16,6.6,20.7c0.4,4.6-0.6,11.4,1.1,13.4
	s4.4,6.9,5.3,10.7s5.9,12.4,6.7,15.2c0.7,2.8,2,8.1,3.9,12.1c1.9,4,4.7,3.5,3.3-0.3c0,0,1.7,4.8,4.2,4c2.5-0.7,0.6-7.8,0.6-7.8
	s0.4,4.4,2.1,3.7c1.8-0.7,0.9-4.2,0.9-4.2s0.4,2,1.7,1.9c1.3-0.1,0.9-8.4-1.4-16.7c-2.2-8.4-1.7-8.4-2.4-13.3
	c-0.7-4.9-2.3-10.8-1.6-12.8c0.7-2,5.7-3.1,12.8-4.2c0,0,4.2-0.1,3.8-2.5c-0.4-2.4-3-2.3-3-2.3s4.6-1.2,4.4-3c-0.1-1.7-5-1.8-5-1.8
	s2.4-0.4,2.3-1.9c-0.1-1.5-3.5-4.2-10.1-3.1c-6.7,1.1-9.6,3.2-10.2-2.8c-0.6-5.4-2.3-8.5-0.1-9.7c1.5-0.8,4.2-0.9,7.7-0.5
	c3.5,0.4,6-0.8,10.4-1.6c4.4-0.7,14.2-2.9,14.4-5s-4.4-1.5-4.4-1.5s6-0.3,5.7-2.5c-0.4-2.2-6.3-1.4-6.4-1.9c0-0.5,6-0.2,6-3.1
	c0-1.2-3.8-1.8-3.8-2.3c0-0.5,3.6-0.8,3.4-2.5c-0.1-1.7-10.2-2.6-29.1-1.5C44.7,31.3,43.4,32.6,43.4,32.6z"/>
<path d="M103.2,45.9c0,0-1.2-8,0.8-8s3,4.5,3,4.5s0.8-7.2,2.8-7.2s3.8,7,3.8,7s1-4.2,3-4.2s1.8,3.8,2.8,3.5s1.2-5.5,3.2-5.5
	s3,28.5,3.2,34S124,82.7,124,85.2s-0.8,11.8,10,13.5s13.8,0.2,16.5,0s4.2-0.5,4.2,1.5s-3.8,4-3.8,4.8s3.8,1,4,2.5s-3.8,1.8-3.8,1.8
	s2.8,1.5,2.5,3.5s-5,3-5,3s2.8,0.5,2.5,3.2s-17,2.2-20.8,3s-13-1.5-16.5-6.2s-9.2-9.5-9.8-16.5s-2.2-10.2-2.5-20
	S103.2,45.9,103.2,45.9z"/>
<path d="M146.7,35.9c-0.3-3.7-1-5.5,1-5.5s2,4,2,4s-0.3-6.5,2.5-6.7c2.8-0.2,3,4.2,3,4.2s0-5,1.7-5c1.7,0,1.7,5.7,2.8,5.8
	c1.2,0.2,0.5-3.3,2.5-3.2s1.2,3.5,1.8,3.5c0.7,0,1.3-2.2,2.8-1.8c1.5,0.3,0,5.5,1.2,6c1.2,0.5,1.5,4,1.7,5.3s0.2,23.7,0.8,27.2
	c0.7,3.5,1.5,5,1.8,6.5c0.3,1.5-0.7,4.3-0.3,5.7c0.3,1.3,1.3,2.3,2.3,3.5c1,1.2,1.2,3.2,3.3,4.3c2.2,1.2,1.2,2.5,3.3,2.8
	c2.2,0.3,10.5,1,10.3-10.8c-0.2-11.8-1.7-12.2-1.7-14.5c0-2.3,1.8-5.3,1.5-7.2s-2.7-5-2.5-13.2c0.1-6.2-0.3-14.5,1.7-14.7
	c2-0.2,1.3,3.7,2.7,3.5c1.3-0.2,0-4.8,2.3-4.8c2.3,0,1.5,3.3,1.5,3.3s0.3-5.2,2.3-5.2s2,5.5,2,5.5s1.2-3.8,2.5-3.8s0.3,1.3,1.3,1.5
	c1,0.2,0.3-1.7,1.5-1.7c1.2,0,1.2,11.2,1.3,13.5c0.2,2.3,1,9.9,1.7,11.3c1.5,3.5,3.5,9.3,2.8,13.7c-0.2,1.5-1.3,3.7-1.2,5.5
	s-0.5,17-1.8,19.8c-1.3,2.8-4.3,7.8-4.3,9.5c0,1.7,0.3,2.8-2,4.3c-2.3,1.5-9.3,1.3-10.8,2.3s-8.3,1.8-11.5,0.2
	c-3.2-1.7-6.7-2.3-8.2-3.2c-1.3-0.7-17.2-11.2-19.2-21c-0.9-4.4-0.8-10.2-1.2-13.5c-0.5-4-2.5-7.3-4.3-14.2
	c-1.5-5.5-0.3-9.8-0.5-11.7C147.2,45.4,147.1,39.6,146.7,35.9z"/>
<path d="M280.7,45.8c-0.7-2.2-3.1-2.7-3.1-2.7c0-0.9-0.5-6.5-0.7-7.4c-0.2-0.9-1.3-0.9-2.5-1.4c-1.3-0.5,0-2.2-2.2-3.4
	c-2.2-1.3-5.4-0.5-6.7-0.9c-1.3-0.4,0-2.5-1.3-3.4c-1.3-0.9-2.5-0.5-4.7-1.4c-2.2-0.9-5.2-3.2-12.1-2.2c-2.7,0.4-3.6,2.7-4.7,2
	c-1.1-0.7-3.4,0.4-3.4,0.4c-5.2,2.5-17.1,22.2-18.6,27.2c-1.4,5-2.9,10.3-3.6,14.8c-0.7,4.5,0.5,9.7,0.7,11.4c0.2,1.6,0,6.3-0.4,9.9
	c-0.4,3.6,2,14.1,2.2,14.8c0.2,0.7-0.5,4.7,0.5,6.8c1.1,2.2,2.5,1.6,4.7,4.1c2.2,2.5,7.6,3.6,10.1,4c2.5,0.4,4.5,2,7.2,1.8
	c2.7-0.2,3.1-1.8,11.4-4c8.3-2.2,14.6-10.1,15.9-12.4c1.3-2.3,0.7-4.3,0.9-6.1c0.2-1.8,4-4.9,4.7-8.8c0.7-4,2.3-13.5,2.9-16
	c0.5-2.5,3.1-5.2,3.8-12.3C282.5,53.4,281.4,48,280.7,45.8z M258.2,56.8c-0.2,1.3-1.2,2.6-1.7,4.3c-0.5,1.7,0.8,3.2,1,4.3
	c0.2,1.2,0.1,6.5-0.6,8.7c-0.7,2.2-1.6,5.5-2.1,7.3c-0.5,1.8-1.5,9.6-2.2,11.4c-0.6,1.8-2.6,4.1-4.1,4.3c-1.5,0.3-3.1,0.3-3.9-1.3
	c-0.8-1.5-0.9-1.6-1.9-2.1c-1.6-0.7-2.6,1.4-4.1,1.8c-1.4,0.4-1.9,0-2.8-1.5c-0.9-1.5-3.5-12.2-3.4-21.1s4.2-21.8,6.4-24.9
	c2.2-3.1,5-1.5,5.9-1.8s2.2-3.2,4-3.3c1.8-0.1,3.3,4.1,4.7,4.5c1.4,0.5,3.6-1.4,4.2-1.1c0.6,0.4,1.4,2.3,1.5,3.3
	C259.2,50.7,258.3,55.6,258.2,56.8z"/>
<path d="M344,98c-2.9-1.6-8-4-10.6-5.3c-2.6-1.3-1.8-3.5-7.1-5.8c-5.3-2.4-7.3-8.4-7.3-8.4c8.2,0.7,10.6-2.7,12.6-3.6
	c2-0.9,3.8-4,4.9-5.8s7.7-2.7,9.3-15.3S345,28.9,343,28c-2-0.9-4-6-10-7.5c-3.7-0.9-15.3-0.4-17.8-0.4c-2.6,0-4.9-1.5-7.3-2
	c-2.4-0.5-5.8,1.1-7.1,1.5c-1.3,0.4-0.7,2.4-0.7,2.4s-1.5-0.9-2.9-0.5c-1.5,0.4-0.9,4.6-0.9,4.6s-1.1-1.8-2.9,0.2
	c-1.8,2-3.1,13.9-2.9,14.9c0.2,1.1-2.2,8.2-3.5,12.6s0.9,14.4,1.1,17.3c0.2,2.9-2,10.2-2,10.2c-0.2,2,0.7,8.2,0.4,12.8
	c-0.4,4.6-1.8,23-1.8,23s0.5,7.8,4,7.3c3.5-0.5,2.2-4.5,4.2-4.2c1.1,0.2,0.7,2.6,3.3,2.7c2.6,0.2,2.7-4.2,3.8-4.4
	c1.1-0.2,1.1,1.3,3.5,1.3s4.4-6.7,2.6-12.4c-1.8-5.7-1.3-6.7-1.3-8.6c0-1.8-2.6-7.1-1.1-8.2c1.5-1.1,5.8,5.5,8,8.2s5.1,4,12.4,9.1
	c7.3,5.1,10.4,4.7,11.7,3.5c1.3-1.3,0.2-3.5,1.1-4c0.9-0.5,3.6,2,5.7,0.2c1.5-1.4,0.4-4.4,0.4-4.4s5,1.6,5.7,0.7
	C349.8,101.7,346.9,99.6,344,98z M308.8,65.9c-2.2-1-3.3,0-4-1.6c-0.7-1.6,1.6-8,1.6-10c0-2-0.7-6.9-0.5-7.8c0.2-0.9,2-7.1,3.5-7.1
	c1.5,0,0.9,1.8,1.8,1.8c0.9,0,1.3-2.4,3.3-1.8c2,0.5,2.9,2.4,5.3,2.6c2.4,0.2,3.6-1.1,4.9,0.2c1.3,1.3,2.2,3.6,2.2,5.3
	s-1.3,3.8-1.3,5.1c0,1.3,0.5,3.6,0,4.4c-0.5,0.7-1.5,2-2.4,2.7c-0.9,0.7-0.5,1.8-2,3.3c-1.5,1.5-3.5,2.4-5.5,2.6
	C313.7,65.5,313,67.9,308.8,65.9z"/>
<path d="M364.2,16.1c-1.9,0.3-4.4-0.5-4.6,3s-2.9,4-2.1,6.4s-1,2.6-0.5,4.4c0.5,1.8,0.6,4.5,0.8,7.4c0.1,3-2.4,17.8-2.7,19.3
	c-0.4,1.5-1.9,5.7-2,6.6s1.4,2.1,1.3,3s-2.8,2.8-2.6,4.9c0.2,2.1,1.9,3.6,1.7,6.3c-0.1,2.6,0.9,11.5,0.2,13.6s0.5,6.5-0.6,11.5
	s-0.9,11.1,4.3,12.9c5.2,1.8,12.5,3,18.6,4.2c6.1,1.2,8.9-0.7,12.9,0.4c4.1,1.1,9,1.9,9.7,0.1s-2.5-2.7-2.5-2.7s5.8,1,6.6-1.2
	c0.9-2.4-2.4-4-2.4-4s3.8,0,4.5-1.7c0.7-1.7-0.5-4.8-2.4-5.5c0,0-4.2-1.3-6.1-1.7c-1.8-0.4-8-0.7-11.2-1s-7.1-2-11.3-2.4
	c-1-0.1-5.6,0.7-5.8-2s0.3-12.7,1.2-14.7c0.9-2,1-5.2,1.3-6c0.3-0.9,1.9-2.2,4.3-2.1c2.5,0,4,1.7,8,2.1c4,0.4,11.1,1,12.1-0.3
	c1.1-1.4-1.4-3-1.4-3s4.7,0,5.2-2.7c0.4-2.6-3-4.3-3-4.3s3.9-1.2,4.1-3.8c0.2-1.8-5.9-1.7-10.9-2.4c-5-0.7-12.8-0.3-13.6-3.1
	c-0.8-2.8-0.4-6.6,1.2-8.5c1.9-2.1,2.6-3.3,3.3-4.9c0.9-2,0.3-5.1,1.5-6c1.2-1,4.3-0.9,6.6,0c1.5,0.6,4.3,1.4,8.4,0
	s14.6,1.9,17.5,0.9c2.9-1-0.6-4.4,1.3-4.3c2,0.1,2.8-0.8,2.8-1.7c0-0.9-2-2.8-2-2.8s2.5-0.2,2.7-1.4c0.3-1.3-2.7-3.6-2.7-3.6
	s4.3-0.4,4.7-2.2c0.4-1.8-2-4.1-6.1-5c-8.4-1.8-22.4-1.8-27.8-2.3c-5.5-0.5-10.9-2.5-12.7-2.2S366.1,15.8,364.2,16.1z"/>
<path d="M352.9,138.1c-1.6,0.2-4,1-4.2,4.1s-2.6,3.4-1.9,5.5s-3,2.7-2.6,4.2c0.4,1.6-0.2,4.6-0.1,7.2c0.1,2.6-2.1,10.5-2.5,11.8
	s-2.6,3.4-2.7,4.2c-0.1,0.8,1.1,1.9,1.1,2.6c-0.1,0.8-2.5,2.4-2.4,4.2c0.1,1.8,1.6,3.2,1.4,5.5c-0.2,2.3-1.6,8.7-2.3,10.5
	c-0.6,1.8,0,9.5-1,13.8c-1.1,4.3,4.3,8,8.8,9.6s7,1.5,12.3,2.6c5.3,1.1,8.9-1,12.4,0c3.5,1,7.8,1.8,8.5,0.3c0.6-1.5-2.1-2.4-2.1-2.4
	s5,0.9,5.8-1c0.8-2.1-2.1-3.5-2.1-3.5s4.1-1.2,4.7-2.7c0.6-1.5-0.4-3.8-2-4.4c0,0-4.4-0.4-6-0.8c-1.6-0.3-7-0.8-9.8-1
	c-2.8-0.3-3.2-1.2-6.9-1.5c-0.8-0.1-4.9,0.5-5-1.8c-0.1-2.3,0.4-11,1.2-12.7s0.9-4.5,1.2-5.2c0.3-0.7,1.7-1.8,3.8-1.8
	c2.1,0.1,3.5,1.5,7,1.9c3.5,0.4,9.7,1,10.5-0.1c0.9-1.2-1.2-2.7-1.2-2.7s4.1,0,4.5-2.2c0.4-2.3-2.6-3.8-2.6-3.8s3.4-1,3.7-3.2
	c0.2-1.5-5.1-1.6-9.4-2.2c-4.3-0.6-11.1-0.4-11.8-2.9c-0.7-2.4-0.3-5.8,1.2-7.4c1.7-1.8,2.9-0.8,3.5-2.2c0.8-1.7,0.4-4.4,1.4-5.2
	c1.1-0.9,3.8-0.7,5.7,0.1c1.3,0.5,3.8,1.3,7.4,0.1c3.6-1.2,6.6,1.2,9.1,0.4s2.6-2.3,4.3-2.2s2.4-0.7,2.5-1.4
	c0.1-0.8-1.7-2.4-1.7-2.4s2.1-0.1,2.4-1.2s-2.3-3.2-2.3-3.2s3.8-0.2,4.2-1.8c0.4-1.6-1.6-3.6-5.2-4.5c-7.3-1.7-15.7-2.2-20.5-2.7
	s-9.9-0.9-11.5-0.6C360.2,136.3,354.5,137.9,352.9,138.1z"/>
<path d="M71.7,218.2c0.9-0.2,0.2-5.3,2.7-5.2c2.3,0.1,2,3.4,4.1,7.6c2.1,4.1,8.2,3.9,10.9,1.6c9.7-8.2-1.6-18.7-5.3-19.8
	c-3.7-1-9.2-4-11.6-7.5c-2.9-4.4-7.4-4.1-10.5-7.4c-3.1-3.4-7.1-8.4-8.9-18.7c-0.9-5.3,1.7-10.9,2.7-13.3c1.6-3.6,2.9-8.8,7.3-12.4
	c7.8-6.4,13.3-1.9,14.8-2.5c1.5-0.6,10.2-1.8,15.2,1.9c5.1,3.7,5.7,7.8,7.2,11.4c1.5,3.6,4,7.1,4.5,10.3c0.5,3.1,1.7,8.7-0.9,9.1
	c-1.6,0.2-2.5-1.6-2.5-1.6s-0.1,4.3-2.6,4.5c-1.1,0.1-3.4-2.1-3.4-2.1s-0.5,1.9-1.2,2c-0.9,0.1-1.6-1-2-2.8
	c-0.8-3.9-2.8-9.1-4.1-10.8s-3.4-2.1-4.1-2.9s-1.4-4.6-5.1-3.7c-3.7,0.9-2.5,2.8-3.6,3.9c-1.1,1.1-2.8,9.9,0.8,14.8s5,7.1,7.5,7.7
	c2.5,0.6,2.3,0,3.3,0.5c1,0.4,1.2,2.5,4.3,3.2c1.7,0.4,12.7,8.1,14.6,20.4c1.3,8.6-0.7,31-20.7,34.3c-4.7,0.8-13-1.3-15.9-3.9
	c-2.9-2.7-5.2-8.6-5.5-12.8c-0.3-4.3,1.9-2.8,2.9-3s0.5-3.9,2.3-4.5C71,216.1,70.9,218.4,71.7,218.2z"/>
<path d="M381,390.8c0.7-1.6,3.4-3.5,6.2-2.8c4.4,1.1,3.6,6.8,2.8,7.9c-0.8,1.1-4.9,2-7.1,0.9C380.6,395.7,380.3,392.4,381,390.8z"/>
<path d="M215.7,245.5c0.7-1.6,3.4-3.5,6.2-2.8c4.4,1.1,3.6,6.8,2.8,7.9c-0.8,1.1-4.9,2-7.1,0.9C215.3,250.3,215,247.1,215.7,245.5z"
	/>
<path d="M121.7,245.5c0.7-1.6,3.4-3.5,6.2-2.8c4.4,1.1,3.6,6.8,2.8,7.9c-0.8,1.1-4.9,2-7.1,0.9C121.3,250.3,121,247.1,121.7,245.5z"
	/>
<path d="M18.3,72.3c0.7-1.6,3.4-3.5,6.2-2.8c4.4,1.1,3.6,6.8,2.8,7.9c-0.8,1.1-4.9,2-7.1,0.9C17.9,77.2,17.7,73.9,18.3,72.3z"/>
<path d="M405,148.3c0.7-1.6,3.4-3.5,6.2-2.8c4.4,1.1,3.6,6.8,2.8,7.9c-0.8,1.1-4.9,2-7.1,0.9S404.3,149.9,405,148.3z"/>
<path d="M397.8,397.7c1.7-0.4,2.8-0.2,3.7,1.1c1.5,2.2-0.5,3.8-2.3,4.1c-0.8,0.1-2.3-0.6-2.9-1.9S396.8,398,397.8,397.7z"/>
<path d="M307,243c1.7-0.4,2.8-0.2,3.7,1.1c1.5,2.2-0.5,3.8-2.3,4.1c-0.8,0.1-2.3-0.6-2.9-1.9C305,244.9,306,243.2,307,243z"/>
<path d="M161,379c1.7-0.4,2.8-0.2,3.7,1.1c1.5,2.2-0.5,3.8-2.3,4.1c-0.8,0.1-2.3-0.6-2.9-1.9C159,380.9,160,379.2,161,379z"/>
<path d="M37.3,287.9c1.7-0.4,2.8-0.2,3.7,1.1c1.5,2.2-0.5,3.8-2.3,4.1c-0.8,0.1-2.3-0.6-2.9-1.9C35.3,289.8,36.3,288.1,37.3,287.9z"
	/>
<path d="M312.8,121.4c1.7-0.4,2.8-0.2,3.7,1.1c1.5,2.2-0.5,3.8-2.3,4.1c-0.8,0.1-2.3-0.6-2.9-1.9
	C310.8,123.3,311.8,121.6,312.8,121.4z"/>
<path d="M206.3,233.7c1.7-0.4,2.8-0.2,3.7,1.1c1.5,2.2-0.5,3.8-2.3,4.1c-0.8,0.1-2.3-0.6-2.9-1.9S205.4,233.9,206.3,233.7z"/>
<path d="M224.7,21.6c1.7-0.4,2.8-0.2,3.7,1.1c1.5,2.2-0.5,3.8-2.3,4.1c-0.8,0.1-2.3-0.6-2.9-1.9S223.7,21.9,224.7,21.6z"/>
<path d="M10.7,61.1c1.7-0.4,2.8-0.2,3.7,1.1c1.5,2.2-0.5,3.8-2.3,4.1c-0.8,0.1-2.3-0.6-2.9-1.9C8.7,63.1,9.7,61.4,10.7,61.1z"/>
<path d="M45.6,175c1.3,1.1,1.8,2.2,1.2,3.7c-0.9,2.4-3.4,1.8-4.7,0.4c-0.5-0.6-0.8-2.3-0.1-3.5C42.9,174.5,44.8,174.4,45.6,175z"/>
<path d="M62.3,403c1.3,1.1,1.8,2.2,1.2,3.7c-0.9,2.4-3.4,1.8-4.7,0.4c-0.5-0.6-0.8-2.3-0.1-3.5C59.6,402.5,61.6,402.4,62.3,403z"/>
<path d="M401.6,236.8c1.3-0.3,2.1-0.2,2.8,0.8c1.1,1.6-0.4,2.9-1.7,3.1c-0.6,0.1-1.7-0.5-2.1-1.5S400.8,237,401.6,236.8z"/>
<path d="M28.3,288.3c1.3-0.3,2.1-0.2,2.8,0.8c1.1,1.6-0.4,2.9-1.7,3.1c-0.6,0.1-1.7-0.5-2.1-1.5C26.8,289.8,27.6,288.5,28.3,288.3z"
	/>
<path d="M428.3,29c1.3-0.3,2.1-0.2,2.8,0.8c1.1,1.6-0.4,2.9-1.7,3.1c-0.6,0.1-1.7-0.5-2.1-1.5S427.6,29.2,428.3,29z"/>
<path d="M194,116c1.3-0.3,2.1-0.2,2.8,0.8c1.1,1.6-0.4,2.9-1.7,3.1c-0.6,0.1-1.7-0.5-2.1-1.5C192.5,117.5,193.3,116.2,194,116z"/>
<path d="M93.5,19c1.3-0.3,2.1-0.2,2.8,0.8c1.1,1.6-0.4,2.9-1.7,3.1c-0.6,0.1-1.7-0.5-2.1-1.5C92,20.5,92.8,19.2,93.5,19z"/>
<path d="M63.7,124.7c1.2-0.3,1.9-0.1,2.5,0.9c0.9,1.5-0.5,2.6-1.7,2.7c-0.5,0.1-1.6-0.5-1.9-1.4C62.3,126,63,124.9,63.7,124.7z"/>
<path d="M63,127.5c-1.2-0.1-1.9-0.5-2.1-1.6c-0.4-1.7,1.3-2.3,2.5-2.1c0.5,0.1,1.3,1,1.4,1.9C64.8,126.7,63.7,127.6,63,127.5z"/>
<path d="M146.8,165.7c-0.6-3.7-0.4-10.5-6.8-10.5c-6.4-0.1-14.7,9.3-14,23.9c0,0,0.6,2.4,1.1,5.8c0.5,3.4-0.4,6.2-0.1,9
	c0.3,2.8,2.2,13.9,5.3,16.1c3.1,2.2,4.3,0.3,5.1,0.7s1.7,1.5,3.7,1c2-0.5,4.6-2.6,7-6.3c0,0,1.1-2.5,3.3-2.6
	c2.2-0.1,2.1,4.8,2.9,4.7c0.8-0.1,0.6-3.1,2.3-2.9c1.7,0.1,1.1,5.7,1.9,5.6s1.4-1.4,2.3-1.7c1.4-0.4,2.4,2.9,1.2,6.3
	c0,0-6,20.9-26.7,17.3c-4.1-0.7-6.6-2.6-9.4-5.1c-1.3-1.1-2.7-1.4-3.8-2.7c-1.5-1.9-1.7-4.3-3.3-6.7c-4.7-7.2-4.9-18.8-4.8-20.8
	c0.1-3.6-2.5-11-2.2-12.6c0.3-1.6-0.3-5.9-0.1-9.4c0.2-3.5,0.4-7.4,1.8-11.8s1.9-11.2,3.8-13.5c1.9-2.3,2.4-0.7,3-1.4
	c0,0,4-10.5,15.2-11.9c11.2-1.4,16.9,0.6,20.4,4.2c3.5,3.5,7.7,11.2,7.1,21.1c-0.3,4.1-1.8,6.6-3.3,7c-0.6,0.2-1.9-1.1-1.9-4
	c0,0,0,5.4-2.1,5.5c-1.7,0.1-1.9-3.6-2.3-3.4s-1,5.6-3.8,5.2C148.3,171.4,147.3,169.4,146.8,165.7z"/>
<path d="M212.7,218.9c0,1.9-2.8,4-5.8,4.8c-3.9,1-8.4,1.6-11.2,0.9c-2.9-0.7-4.8,0.1-12.2,0c-7.4-0.1-10.7-6.6-11.5-11.6
	c-0.8-4.9-1.4-16-1-17.7c0.3-1.8-2-3.5-2.3-4.2c-0.3-0.6,1.8-2.3,1.7-3.2c-0.1-0.9-1.5-2.3-1.6-3.8s0.7-2.7,1.3-3.6
	c0.6-0.9,0.3-4.4-0.2-6.5c-0.6-2.1,0-5.6-0.4-8.4s1.1-8.6,1.1-8.6s-2.3-4.5-1.7-7.1c0.7-2.7,2.1-2.7,2.9-4c0.8-1.2,1.1-3.9,2.5-5.1
	c1.4-1.1,3.9-2.1,7.7-2.1c3.5,0.1,7.8-1.4,10.7-1.9c2.9-0.5,7,0.4,10.5,0.4s5.3-0.6,8.8-0.7c3.5,0,6.2-0.1,6.3,1.9s-6,5.1-6,5.1
	s3,0.9,3.1,2.4c0.1,1.4-3.8,2.9-3.8,2.9s1.8,1,1.1,3.7c-0.7,2.7-3.3,2.1-6.2,2.8c-5.2,1.2-17.7,0.1-18.7,1.4c-1,1.3-2,3.6-1.4,6.2
	c0.6,2.6,0.2,5.6,0,6.7c-0.1,1.1-0.5,5.2,0.4,6.3c0,0,6.2,0.9,9.1,0.4c2.9-0.4,4.5-0.8,6.1-0.2s2.5,1.8,2.6,2.9
	c0.1,1.1-2.7,2.1-2.7,2.1s1.6,1.3,1.4,2.5s-2.8,1.4-2.8,1.4s1.4,1.1,0.9,2.1c-0.5,1-6.2,1.6-8.2,1.7c-2.1,0-4.5-0.2-5.2,0.7
	c-0.7,0.9-1.9,11.3-1.3,12.9c0.7,1.6,2.6,2.7,3.1,2.8c0.5,0.1,2.4-0.3,3.7-0.2s4.6,1.1,6.9,0.9c2.3-0.2,3.2-0.4,4.5-0.2
	c1.3,0.2,3.2,0.9,4.4,0.9c1.2,0,5-0.2,5.3,2.6c0.3,2.8-3.3,3.5-3.3,3.5s3.4-0.2,3.4,1.4c-0.1,2.6-5.4,3.6-5.4,3.6
	S212.6,217.1,212.7,218.9z"/>
<path d="M221.7,162.3c0.7-7.5,1.6-18.3,3.2-20.7c0.8-1.2,1.8,0,4.1-1.1c2.2-1,4.1-4,5.2-4.1c2.1-0.3,1.4,2.1,2.6,2.1
	c1.2,0,1.1-2.1,2.8-2c1.7,0.1,2.1,9.8,3.5,14.5c1.4,4.8,4.8,12,5.4,14.6c0.6,2.6,0.9,9.6,2,13.3c1.1,3.7,1.1,9.6,2.7,9.1
	c1.6-0.6,0.3-8,0.5-10.4c0.2-2.4,0.2-6.6,0-8.6c-0.1-2,0.2-5.7,0.2-8.2c0-2.4-1.1-4.1-1.2-8.1c-0.1-4,1.2-6.5,1.4-9.1
	c0.2-2.7,0.1-6.9,2.6-7.2c1.3-0.2,1.3,1.6,2.2,1.6c0.9,0,1-4.4,3.2-4.4c2.5-0.1,2.3,2.8,3.3,2.6c1-0.2,1.3-2.5,2.5-2.6
	c1.2-0.1,0.7,2.6,1.4,2.5c0.7-0.1,0-2.9,1.9-3c1.9-0.1,1.5,3.9,1.3,7s-1.3,21.9-1,24.1c0.4,2.2,1.1,3.5,1.1,6.3
	c0,2.9-1.9,10.5-1.8,12.3s-1.3,20.8-2.7,25.3c-1.3,4.5-2.8,10.8-4.4,10.9s-2.4-0.8-2.4-0.8s-0.8,2-2.2,2c-2.1,0-2.1-1.2-3.4-1.3
	c-0.9-0.1-0.8,1-2,1.1c-1.2,0.1-2.4-0.7-2.9-2.9c-0.2-1-1.6-1.5-2.4-5.8c-0.8-4.3-7.2-17.3-7.2-17.3s-4.2-14.6-5.7-14
	c-1.4,0.5-0.4,12.7-0.2,15.8c0.2,3.1,1.2,12.9,1,15.4c-0.2,2.4-0.8,6.6-2.3,6.8c-1.5,0.2-2.1-1.8-2.1-1.8s-1,3.6-2.9,3.6
	c-1.9,0-3.1-2.5-3.1-2.5s-2.4,2.6-3.8,2.4c-1.4-0.2-0.9-1-1.8-2.2c-0.9-1.1-1.7-4.4-0.9-6.7s1.8-10.5,1.7-12s-1.3-2.6-0.7-4.6
	c0.7-2.7,1.2-7.9,1.3-12.1C221.9,177.8,221.7,162.3,221.7,162.3z"/>
<path d="M285.1,139.2c0,0-4.5-1.7-4.5-2.9s4.3-2.1,7.7-1.9c3.5,0.1,13.3-1,18-1.3c4.7-0.2,11.4-1.5,17-1.8c5.6-0.3,8.4,0.9,10.6,0.9
	s6.5,1.1,6.5,2.3c0.1,1.3-4.8,3.7-4.8,3.7s3.1,0.2,3.1,1.5s-2.2,3.6-2.2,3.6s2.1-0.2,2,1c-0.1,1.2-4.1,3.4-4,4.1c0,0.7,4,0,4.1,1.4
	s-8.8,4.2-10.8,4.2c-2,0-4.8,0.7-6,0.4s-3.8-1.5-5.2-0.7c-1.4,0.8-1.8,13-1.9,15.1c0,2.1,0.6,10.5,0.5,12.8c-0.1,2.2-2,8.9-2.2,12.1
	s0.2,20.6-0.1,21.9c-0.3,1.3-0.7,7.7-2.7,7.8c-2,0.1-4.3-4.4-4.3-4.4s-0.4,2-2.4,2c-2,0-0.6-3.6-0.6-3.6s-1.8,2.2-3.3,2
	c-1.5-0.2-3.2-1.4-3.5-4.3c-0.3-2.9-1.1-8.1-0.7-10.1c0.4-2-0.7-7.8-0.6-9.1s1.6-4,1.8-10.4c0,0-0.3-13.7,0-17.4
	c0.3-3.7,0.8-10.3,0.8-11.2c0-0.9,0.4-4.8,0.4-4.8s-0.2-1-1.6-1.1s-5.2,0.4-6.6,0.6c-1.4,0.2-2.6,0-3.3-0.2c-0.7-0.2-3-1-4.6-1
	c-1.6,0.1-3.6-1.1-3.5-2.2c0.1-1.1,4-2.3,4.1-2.8c0.1-0.5-2.4-0.7-2.5-2.1c-0.1-1.4,1.5-1.4,1.6-1.8c0.1-0.5-1-0.9-0.9-1.7
	C280.6,138.9,285.1,139.2,285.1,139.2z"/>
</svg>
