<?xml version="1.0" encoding="utf-8"?>
<!-- Generator: Adobe Illustrator 22.1.0, SVG Export Plug-In . SVG Version: 6.00 Build 0)  -->
<svg version="1.1" id="Layer_1" xmlns="http://www.w3.org/2000/svg" xmlns:xlink="http://www.w3.org/1999/xlink" x="0px" y="0px"
	 viewBox="0 0 437 192" style="enable-background:new 0 0 437 192;" xml:space="preserve">
<style type="text/css">
	.st0{fill:#40FC81;}
</style>
<title>library</title>
<desc>Created with Sketch.</desc>
<g>
	<polygon class="st0" points="228.5,11.3 228.5,11.3 228.6,11.4 	"/>
	<path class="st0" d="M228.6,11.8C228.7,11.8,228.7,11.8,228.6,11.8c0-0.1-0.1-0.2-0.2-0.3C228.3,11.5,228.8,11.7,228.6,11.8z"/>
	<path class="st0" d="M228.6,11.8c-0.1,0.1,0,0.1,0.1,0.2C228.6,11.9,228.8,11.8,228.6,11.8z"/>
	<path class="st0" d="M234.4,13.6c-0.2-0.1-0.4-0.1-0.7-0.1s-0.6,0.1-0.9,0.2c0,0,0,0,0.1-0.1c-0.7,0.1-1,0.1-1.4,0.2l0,0
		c-0.1,0-0.1,0-0.2,0.1c-0.3-0.8-0.6-1.5-0.8-2c0-0.3,0-0.6-0.2-0.8l-0.1,0.1c0-0.2-0.1-0.2-0.2-0.3c-0.1,0-0.1,0-0.1,0l0,0
		l-0.1-0.1l0,0c-0.1-0.1-0.2,0-0.2,0.2l0,0c-0.1,0.1-0.2,0.2-0.3,0.4c0,0,0,0,0,0.1c0,0,0,0.1-0.1,0.1c0,0-0.1,0-0.2,0
		c0-0.1-0.2,0.1-0.2-0.1c-0.1,0-0.1,0.3,0,0.3s0.2,0.1,0.2,0.1c-0.1,0.5-0.3,1.4-0.5,2.6c-0.1,0-0.2,0-0.2,0.1c-0.1,0-0.1,0-0.2,0
		c0-0.1,0-0.2,0-0.3h0.1c-0.2-0.7,0-1.3,0.2-2c-0.1,0-0.1,0.1-0.2,0c-0.1,0.2,0.1,0.4-0.1,0.6H228c-0.1,0.1,0.2,0.1,0.1,0.2
		c-0.1,0-0.1,0-0.1,0c0,0.3-0.1,0.6,0,0.9c-0.2,0-0.1,0.3-0.2,0.4c0.1,0.1,0,0.2,0.1,0.2l0,0c-0.6,0-1.1,0.1-1.7,0.1
		c-0.4,0-0.7,0.1-0.9,0.3c-0.1,0.2,0,0.3,0.1,0.4s0.3,0.2,0.4,0.3h-0.1c0.7,0.3,1.3,0.7,1.8,1.1c0,0.3-0.1,0.5-0.2,0.8
		c0.1,0.3,0,0.7-0.1,1.1s-0.1,0.8,0.1,1l0,0c0.3,0.1,0.5-0.1,0.7-0.2c0.1-0.1,0.1-0.2,0.2-0.3c0.5-0.2,1.1-0.7,1.6-1.1
		c0.2,0.1,0.4,0.2,0.5,0.3c0.2,0.1,0.3,0.2,0.5,0.3c0.1,0.1,0.2,0.1,0.3,0.2c0.2,0.3,0.6,0.5,0.9,0.6l0.1,0.1
		c0.6,0.4,0.8,0.4,0.8,0.1c0.1-0.2,0.1-0.4,0.1-0.7c-0.1-0.4-0.2-0.7-0.4-1c-0.2-0.4-0.4-0.7-0.6-1.1c0-0.1-0.1-0.2-0.1-0.3
		c0.7-0.5,1.4-1,2.1-1.5c0.2-0.2,0.3-0.4,0.3-0.6C234.7,14,234.6,13.7,234.4,13.6z M228.2,16.7c-0.1,0.4-0.2,0.7-0.3,1.1
		c0-0.2,0.1-0.5,0.1-0.7l0,0c0-0.1-0.1-0.1-0.1-0.2c0,0,0,0,0.1,0C228.2,17,228.2,16.8,228.2,16.7L228.2,16.7z M233.1,15.2
		c0.2-0.1,0.3-0.2,0.4-0.3C233.5,15,233.3,15.1,233.1,15.2z M233.6,14.8L233.6,14.8C233.7,14.8,233.7,14.8,233.6,14.8L233.6,14.8z"
		/>
</g>
<g>
	<polygon class="st0" points="426.5,52.9 426.5,52.9 426.6,53 	"/>
	<path class="st0" d="M426.6,53.4C426.7,53.4,426.7,53.4,426.6,53.4c0-0.1-0.1-0.2-0.2-0.3C426.3,53.1,426.8,53.3,426.6,53.4z"/>
	<path class="st0" d="M426.6,53.4c-0.1,0.1,0,0.1,0.1,0.2C426.6,53.5,426.8,53.4,426.6,53.4z"/>
	<path class="st0" d="M432.4,55.2c-0.2-0.1-0.4-0.1-0.7-0.1s-0.6,0.1-0.9,0.2c0,0,0,0,0.1-0.1c-0.7,0.1-1,0.1-1.4,0.2l0,0
		c-0.1,0-0.1,0-0.2,0.1c-0.3-0.8-0.6-1.5-0.8-2c0-0.3,0-0.6-0.2-0.8l-0.1,0.1c0-0.2-0.1-0.2-0.2-0.3c-0.1,0-0.1,0-0.1,0l0,0
		l-0.1-0.1l0,0c-0.1-0.1-0.2,0-0.2,0.2l0,0c-0.1,0.1-0.2,0.2-0.3,0.4c0,0,0,0,0,0.1c0,0,0,0.1-0.1,0.1c0,0-0.1,0-0.2,0
		c0-0.1-0.2,0.1-0.2-0.1c-0.1,0-0.1,0.3,0,0.3s0.2,0.1,0.2,0.1c-0.1,0.5-0.3,1.4-0.5,2.6c-0.1,0-0.2,0-0.2,0.1c-0.1,0-0.1,0-0.2,0
		c0-0.1,0-0.2,0-0.3h0.1c-0.2-0.7,0-1.3,0.2-2c-0.1,0-0.1,0.1-0.2,0c-0.1,0.2,0.1,0.4-0.1,0.6H426c-0.1,0.1,0.2,0.1,0.1,0.2
		c-0.1,0-0.1,0-0.1,0c0,0.3-0.1,0.6,0,0.9c-0.2,0-0.1,0.3-0.2,0.4c0.1,0.1,0,0.2,0.1,0.2l0,0c-0.6,0-1.1,0.1-1.7,0.1
		c-0.4,0-0.7,0.1-0.9,0.3c-0.1,0.2,0,0.3,0.1,0.4s0.3,0.2,0.4,0.3h-0.1c0.7,0.3,1.3,0.7,1.8,1.1c0,0.3-0.1,0.5-0.2,0.8
		c0.1,0.3,0,0.7-0.1,1.1c-0.1,0.4-0.1,0.8,0.1,1l0,0c0.3,0.1,0.5-0.1,0.7-0.2c0.1-0.1,0.1-0.2,0.2-0.3c0.5-0.2,1.1-0.7,1.6-1.1
		c0.2,0.1,0.4,0.2,0.5,0.3c0.2,0.1,0.3,0.2,0.5,0.3c0.1,0.1,0.2,0.1,0.3,0.2c0.2,0.3,0.6,0.5,0.9,0.6l0.1,0.1
		c0.6,0.4,0.8,0.4,0.8,0.1c0.1-0.2,0.1-0.4,0.1-0.7c-0.1-0.4-0.2-0.7-0.4-1c-0.2-0.4-0.4-0.7-0.6-1.1c0-0.1-0.1-0.2-0.1-0.3
		c0.7-0.5,1.4-1,2.1-1.5c0.2-0.2,0.3-0.4,0.3-0.6C432.7,55.6,432.6,55.3,432.4,55.2z M426.2,58.3c-0.1,0.4-0.2,0.7-0.3,1.1
		c0-0.2,0.1-0.5,0.1-0.7l0,0c0-0.1-0.1-0.1-0.1-0.2c0,0,0,0,0.1,0C426.2,58.6,426.2,58.4,426.2,58.3L426.2,58.3z M431.1,56.8
		c0.2-0.1,0.3-0.2,0.4-0.3C431.5,56.6,431.3,56.7,431.1,56.8z M431.6,56.4L431.6,56.4C431.7,56.4,431.7,56.4,431.6,56.4L431.6,56.4z
		"/>
</g>
<g>
	<polygon class="st0" points="11.1,163.9 11.1,163.9 11.2,164 	"/>
	<path class="st0" d="M11.2,164.4C11.3,164.4,11.3,164.4,11.2,164.4c0-0.1-0.1-0.2-0.2-0.3C10.9,164.1,11.4,164.3,11.2,164.4z"/>
	<path class="st0" d="M11.2,164.4c-0.1,0.1,0,0.1,0.1,0.2C11.2,164.5,11.4,164.4,11.2,164.4z"/>
	<path class="st0" d="M17,166.2c-0.2-0.1-0.4-0.1-0.7-0.1s-0.6,0.1-0.9,0.2c0,0,0,0,0.1-0.1c-0.7,0.1-1,0.1-1.4,0.2l0,0
		c-0.1,0-0.1,0-0.2,0.1c-0.3-0.8-0.6-1.5-0.8-2c0-0.3,0-0.6-0.2-0.8l-0.1,0.1c0-0.2-0.1-0.2-0.2-0.3c-0.1,0-0.1,0-0.1,0l0,0
		l-0.1-0.1l0,0c-0.1-0.1-0.2,0-0.2,0.2l0,0c-0.1,0.1-0.2,0.2-0.3,0.4c0,0,0,0,0,0.1c0,0,0,0.1-0.1,0.1c0,0-0.1,0-0.2,0
		c0-0.1-0.2,0.1-0.2-0.1c-0.1,0-0.1,0.3,0,0.3s0.2,0.1,0.2,0.1c-0.1,0.5-0.3,1.4-0.5,2.6c-0.1,0-0.2,0-0.2,0.1c-0.1,0-0.1,0-0.2,0
		c0-0.1,0-0.2,0-0.3h0.1c-0.2-0.7,0-1.3,0.2-2c-0.1,0-0.1,0.1-0.2,0c-0.1,0.2,0.1,0.4-0.1,0.6h-0.1c-0.1,0.1,0.2,0.1,0.1,0.2
		c-0.1,0-0.1,0-0.1,0c0,0.3-0.1,0.6,0,0.9c-0.2,0-0.1,0.3-0.2,0.4c0.1,0.1,0,0.2,0.1,0.2l0,0c-0.6,0-1.1,0.1-1.7,0.1
		c-0.4,0-0.7,0.1-0.9,0.3c-0.1,0.2,0,0.3,0.1,0.4s0.3,0.2,0.4,0.3H8.3c0.7,0.3,1.3,0.7,1.8,1.1c0,0.3-0.1,0.5-0.2,0.8
		c0.1,0.3,0,0.7-0.1,1.1s-0.1,0.8,0.1,1l0,0c0.3,0.1,0.5-0.1,0.7-0.2c0.1-0.1,0.1-0.2,0.2-0.3c0.5-0.2,1.1-0.7,1.6-1.1
		c0.2,0.1,0.4,0.2,0.5,0.3c0.2,0.1,0.3,0.2,0.5,0.3c0.1,0.1,0.2,0.1,0.3,0.2c0.2,0.3,0.6,0.5,0.9,0.6l0.1,0.1
		c0.6,0.4,0.8,0.4,0.8,0.1c0.1-0.2,0.1-0.4,0.1-0.7c-0.1-0.4-0.2-0.7-0.4-1c-0.2-0.4-0.4-0.7-0.6-1.1c0-0.1-0.1-0.2-0.1-0.3
		c0.7-0.5,1.4-1,2.1-1.5c0.2-0.2,0.3-0.4,0.3-0.6C17.3,166.6,17.2,166.3,17,166.2z M10.8,169.3c-0.1,0.4-0.2,0.7-0.3,1.1
		c0-0.2,0.1-0.5,0.1-0.7l0,0c0-0.1-0.1-0.1-0.1-0.2c0,0,0,0,0.1,0C10.8,169.6,10.8,169.4,10.8,169.3L10.8,169.3z M15.7,167.8
		c0.2-0.1,0.3-0.2,0.4-0.3C16.1,167.6,15.9,167.7,15.7,167.8z M16.2,167.4L16.2,167.4C16.3,167.4,16.3,167.4,16.2,167.4L16.2,167.4z
		"/>
</g>
<g>
	<path class="st0" d="M422.6,167.3c-0.2-1,0.5-2.8,2.1-3.3c2.5-0.8,3.9,2.1,3.8,2.9c0,0.8-1.7,2.5-3.1,2.7
		C424,169.7,422.8,168.2,422.6,167.3z"/>
	<g>
		<path class="st0" d="M422,167.4L422,167.4L422,167.4z"/>
		<path class="st0" d="M422.2,167.5C422.2,167.5,422.3,167.5,422.2,167.5c0,0-0.1,0-0.2-0.1C421.8,167.5,422.3,167.5,422.2,167.5z"
			/>
		<path class="st0" d="M422.2,167.6C422.1,167.7,422.3,167.6,422.2,167.6C422.2,167.6,422.3,167.5,422.2,167.6z"/>
		<path class="st0" d="M424.4,169.9L424.4,169.9L424.4,169.9z"/>
		<path class="st0" d="M425.3,169.5L425.3,169.5c-0.1,0.1-0.3-0.1-0.4,0l0,0c-0.3-0.1-0.7-0.1-1.1-0.2l0,0c0,0-0.1,0.1-0.1,0l0,0
			c0-0.2-0.3-0.1-0.2-0.2c0,0-0.1,0-0.1,0.1c-0.3-0.2-0.5-0.4-0.8-0.6l0.1-0.1c-0.4-0.1-0.5-0.4-0.5-0.7c-0.1,0-0.1,0.1-0.2,0.1
			c-0.1,0.1,0.2,0.1,0.1,0.2H422c0,0.1,0.2-0.1,0.1,0c0,0.1-0.1,0-0.1,0c0.1,0.1,0.1,0.3,0.3,0.3c-0.1,0.1,0.1,0.1,0,0.3
			c0.1,0,0.1,0,0.2,0c0.2,0.4,0.7,0.7,1,1c0.4-0.2,0.4,0.3,0.7,0.3l0,0c0.1,0,0.2-0.1,0.3,0l0.1-0.1c0.3,0.2,0.6,0.2,0.9,0.1
			c0.3-0.1,0.6-0.2,0.9-0.3c0.6-0.3,1.3-0.5,1.4-1.3l0,0c0.1-0.2,0.3-0.3,0.3-0.4l0,0c0-0.3,0.1-0.5,0.2-0.7c0.1-0.3,0-0.6-0.2-0.7
			c-0.1-0.5-0.4-1-0.8-1.4h0.1c-0.3-0.2-0.4-0.8-0.9-0.9c-0.1-0.2-0.4-0.2-0.7-0.2c-0.2,0-0.5,0.1-0.7-0.1c-0.1-0.2-0.3,0-0.4,0
			c-0.1,0.1-0.2,0.2-0.4,0.1c-0.7-0.3-1.1,0.3-1.2,0.9c-0.5,0.2-0.3,0.9-0.8,1.1c0.1,0.3-0.4,0.3-0.4,0.6h0.1
			c-0.3,0.1,0.3,0.2,0,0.3l0,0c-0.2,0,0.4,0.1,0.2,0.1h0.1c0,0.1-0.1,0-0.1,0.1c0,0,0.2,0,0.1,0c-0.4,0,0.1,0.1-0.3,0.2
			c0,0-0.1,0.1-0.2,0c0,0,0,0.1,0.2,0.1s0.3,0,0.5-0.1h-0.1c0.1,0,0.1,0,0.2,0c0-0.1,0.2-0.1,0.3-0.1l0,0c-0.2,0-0.1-0.1,0-0.1h0.1
			c0.2,0-0.3-0.1,0,0c-0.1-0.1,0-0.3,0-0.4c-0.1,0,0-0.1-0.2-0.1c0.2,0,0.3-0.1,0.3-0.1l0,0c0.3,0-0.2-0.2,0.1-0.1
			c-0.2-0.1,0.1-0.1-0.1-0.2c0.1,0,0.1,0,0.1,0.1c0.1-0.1,0.2-0.2,0.3-0.3c-0.1-0.2,0.2-0.1,0-0.4c0.1,0,0.3,0,0.2-0.2l0,0
			c0.1-0.1,0.1-0.2,0.1-0.4c0.2,0.2,0.2,0.1,0.3,0.2c0-0.1,0.1-0.2,0.1-0.4c0.1,0.1,0-0.1,0.1,0.1c0-0.5,0.6-0.5,0.9-0.2l0,0
			c0-0.1,0-0.3,0.1-0.5l0,0c0.1,0,0.1,0.1,0.2,0.1c0,0,0,0,0,0.1c0.1-0.1,0.1,0.2,0.2,0v0.1v-0.1c0,0.1,0,0.2,0,0.1
			c0.4,0.1,1,0.1,1.4,0.5H427h0.2c0,0,0,0-0.1,0c0,0.2,0.2,0.2,0.3,0.3c0,0-0.1,0-0.1,0.1c0.2,0-0.1,0.3,0.2,0.1l-0.1,0.1
			c0.3,0.2,0.4,0.4,0.4,0.7c0.4,0.1,0.2,0.4,0.5,0.6h-0.1c0.1,0.1,0.1,0.3,0,0.5c-0.1,0.1-0.2,0.3-0.3,0.4c-0.1,0.1-0.1,0.2-0.2,0.3
			l-0.1-0.1c0.1,0.4-0.5,0.2-0.5,0.6l-0.1-0.1c0.1,0.2-0.2,0.1,0,0.3h-0.1c0.1,0.4-0.4,0-0.4,0.4v-0.1c0,0.1-0.1,0.1-0.1,0.1
			s0,0,0-0.1c-0.3-0.1-0.3,0.2-0.5,0.3v-0.1c0,0.2-0.2,0.1-0.3,0.2v-0.1v0.1v-0.1C425.6,169.3,425.5,169.5,425.3,169.5z"/>
		<path class="st0" d="M423.8,169.2L423.8,169.2C423.8,169.1,423.8,169.1,423.8,169.2z"/>
		<path class="st0" d="M423.1,167L423.1,167C423.2,167,423.1,167,423.1,167z"/>
	</g>
</g>
<g>
	<path class="st0" d="M247,18.5c0.8,0.2,2,1.4,1.9,2.8c-0.2,2.3-3.1,2.3-3.7,2s-1.4-2.3-1-3.5S246.2,18.3,247,18.5z"/>
	<g>
		<polygon class="st0" points="247.2,17.8 247.2,17.8 247.1,17.9 		"/>
		<path class="st0" d="M247,18C247,18,247,18.1,247,18c0,0,0.1-0.1,0.1-0.2C247.1,17.6,247,18.1,247,18z"/>
		<path class="st0" d="M246.9,18C246.9,17.9,246.8,18.1,246.9,18C246.9,18,246.9,18.1,246.9,18z"/>
		<path class="st0" d="M244.3,19C244.3,19,244.3,18.9,244.3,19C244.3,18.9,244.3,18.9,244.3,19z"/>
		<path class="st0" d="M244.3,19.8L244.3,19.8c0-0.2,0.2-0.2,0.2-0.4l0,0c0.2-0.2,0.3-0.5,0.5-0.8c0,0,0,0,0,0.1v-0.1c0,0,0,0,0,0.1
			c0.1,0.1,0.1-0.2,0.2-0.1v-0.1c0.2-0.2,0.5-0.3,0.8-0.5v0.1c0.2-0.3,0.5-0.2,0.8-0.1c0-0.1,0-0.1,0-0.2c-0.1-0.1-0.2,0.2-0.3,0
			v-0.1c-0.1,0,0,0.2-0.1,0.1c0-0.1,0-0.1,0-0.1c-0.1,0-0.3,0-0.4,0.2c0-0.2-0.1,0-0.2-0.1c0,0.1-0.1,0.1,0,0.2
			c-0.4,0-0.8,0.3-1.2,0.5c0,0.4-0.4,0.2-0.5,0.5l0,0c0,0.1,0,0.2-0.1,0.3c0,0,0,0.1,0.1,0.1c-0.3,0.2-0.4,0.5-0.4,0.7
			c0,0.3,0,0.5-0.1,0.8c0,0.6-0.1,1.2,0.5,1.6c0,0,0,0-0.1,0c0.1,0.1,0.1,0.3,0.2,0.4l0,0c0.2,0.1,0.3,0.3,0.5,0.4
			c0.2,0.2,0.4,0.2,0.6,0.1c0.4,0.1,0.9,0,1.4-0.1v0.1c0.3-0.2,0.8,0,1.1-0.3c0.2,0,0.3-0.3,0.4-0.5s0.1-0.4,0.3-0.5
			c0.2,0,0.2-0.2,0.1-0.4c0-0.2-0.1-0.3,0.1-0.4c0.6-0.4,0.1-1-0.3-1.2c0-0.5-0.6-0.5-0.6-1c-0.3,0-0.1-0.5-0.3-0.6v0.1
			c0.1-0.3-0.3,0.2-0.2-0.1l0,0c0-0.2-0.3,0.3-0.2,0.1v0.1c-0.1,0,0-0.1,0-0.1l-0.1,0.1c0.1-0.3-0.1,0,0-0.3c0,0,0-0.2,0.1-0.2
			c0,0-0.1-0.1-0.1,0.1s-0.1,0.3-0.1,0.5v-0.1c0,0.1,0,0.1,0,0.2c0,0,0,0.2,0,0.3l0,0c0.1-0.1,0.1,0,0.1,0v0.1c-0.1,0.1,0.2-0.3,0,0
			c0.1,0,0.2,0,0.3,0.1c0.1-0.1,0.1,0.1,0.2-0.1c-0.1,0.2-0.1,0.3,0,0.3l0,0c-0.1,0.3,0.2-0.1,0,0.2c0.2-0.2,0,0.1,0.3,0l-0.1,0.1
			c0.1,0.1,0.1,0.2,0.1,0.3c0.2-0.1,0,0.2,0.3,0.1c0,0.1-0.1,0.2,0,0.2l0,0c0.1,0.1,0.1,0.2,0.3,0.2c-0.3,0.1-0.2,0.1-0.3,0.2
			c0.1,0,0.1,0.1,0.3,0.2c-0.1,0,0.1,0.1-0.1,0.1c0.4,0.2,0.2,0.6-0.1,0.7l0,0c0.1,0.1,0.3,0.2,0.4,0.3l0,0c0,0.1-0.2,0-0.2,0.1
			c0,0,0,0-0.1,0c0.1,0.1-0.2,0-0.1,0.1l0,0v0.1c-0.1,0-0.1-0.1-0.1-0.1c-0.2,0.3-0.4,0.8-0.9,0.9v-0.1v0.1c0,0,0,0,0-0.1
			c-0.1-0.1-0.2,0.1-0.3,0.1v-0.1c0,0.2-0.2-0.2-0.2,0.2v-0.1c-0.2,0.2-0.5,0.2-0.7,0.1c-0.2,0.3-0.4,0-0.7,0.2v-0.1
			c-0.2,0.1-0.3-0.1-0.4-0.2s-0.1-0.3-0.2-0.4c0-0.1-0.1-0.2-0.2-0.3h0.1c-0.4-0.1,0.1-0.5-0.3-0.6h0.1c-0.2,0,0-0.1-0.3-0.1
			l0.1-0.1c-0.4-0.1,0.1-0.3-0.2-0.4h0.1c-0.1,0-0.1-0.1-0.1-0.1s0,0,0.1,0c0.3-0.2-0.1-0.3,0-0.5h0.1c-0.1-0.1,0-0.2-0.1-0.3h0.1
			l-0.1-0.1h0.1C244.3,20.1,244.3,19.9,244.3,19.8z"/>
		<path class="st0" d="M245.1,18.7L245.1,18.7L245.1,18.7z"/>
		<path class="st0" d="M247,19L247,19L247,19z"/>
	</g>
</g>
<g>
	<path class="st0" d="M109.6,20.6c0.8,0.2,2,1.4,1.9,2.8c-0.2,2.3-3.1,2.3-3.7,2s-1.4-2.3-1-3.5S108.8,20.4,109.6,20.6z"/>
	<g>
		<polygon class="st0" points="109.8,19.9 109.8,19.9 109.7,20 		"/>
		<path class="st0" d="M109.6,20.1C109.6,20.1,109.6,20.2,109.6,20.1c0,0,0.1-0.1,0.1-0.2C109.7,19.7,109.6,20.2,109.6,20.1z"/>
		<path class="st0" d="M109.5,20.1C109.5,20,109.4,20.2,109.5,20.1C109.5,20.1,109.5,20.2,109.5,20.1z"/>
		<path class="st0" d="M106.9,21.1C106.9,21.1,106.9,21,106.9,21.1C106.9,21,106.9,21,106.9,21.1z"/>
		<path class="st0" d="M106.9,21.9L106.9,21.9c0-0.2,0.2-0.2,0.2-0.4l0,0c0.2-0.2,0.3-0.5,0.5-0.8c0,0,0,0,0,0.1v-0.1c0,0,0,0,0,0.1
			c0.1,0.1,0.1-0.2,0.2-0.1v-0.1c0.2-0.2,0.5-0.3,0.8-0.5v0.1c0.2-0.3,0.5-0.2,0.8-0.1c0-0.1,0-0.1,0-0.2c-0.1-0.1-0.2,0.2-0.3,0
			v-0.1c-0.1,0,0,0.2-0.1,0.1c0-0.1,0-0.1,0-0.1c-0.1,0-0.3,0-0.4,0.2c0-0.2-0.1,0-0.2-0.1c0,0.1-0.1,0.1,0,0.2
			c-0.4,0-0.8,0.3-1.2,0.5c0,0.4-0.4,0.2-0.5,0.5l0,0c0,0.1,0,0.2-0.1,0.3c0,0,0,0.1,0.1,0.1c-0.3,0.2-0.4,0.5-0.4,0.7
			c0,0.3,0,0.5-0.1,0.8c0,0.6-0.1,1.2,0.5,1.6c0,0,0,0-0.1,0c0.1,0.1,0.1,0.3,0.2,0.4l0,0c0.2,0.1,0.3,0.3,0.5,0.4
			c0.2,0.2,0.4,0.2,0.6,0.1c0.4,0.1,0.9,0,1.4-0.1v0.1c0.3-0.2,0.8,0,1.1-0.3c0.2,0,0.3-0.3,0.4-0.5s0.1-0.4,0.3-0.5
			c0.2,0,0.2-0.2,0.1-0.4c0-0.2-0.1-0.3,0.1-0.4c0.6-0.4,0.1-1-0.3-1.2c0-0.5-0.6-0.5-0.6-1c-0.3,0-0.1-0.5-0.3-0.6v0.1
			c0.1-0.3-0.3,0.2-0.2-0.1l0,0c0-0.2-0.3,0.3-0.2,0.1v0.1c-0.1,0,0-0.1,0-0.1l-0.1,0.1c0.1-0.3-0.1,0,0-0.3c0,0,0-0.2,0.1-0.2
			c0,0-0.1-0.1-0.1,0.1s-0.1,0.3-0.1,0.5v-0.1c0,0.1,0,0.1,0,0.2c0,0,0,0.2,0,0.3l0,0c0.1-0.1,0.1,0,0.1,0v0.1c-0.1,0.1,0.2-0.3,0,0
			c0.1,0,0.2,0,0.3,0.1c0.1-0.1,0.1,0.1,0.2-0.1c-0.1,0.2-0.1,0.3,0,0.3l0,0c-0.1,0.3,0.2-0.1,0,0.2c0.2-0.2,0,0.1,0.3,0l-0.1,0.1
			c0.1,0.1,0.1,0.2,0.1,0.3c0.2-0.1,0,0.2,0.3,0.1c0,0.1-0.1,0.2,0,0.2l0,0c0.1,0.1,0.1,0.2,0.3,0.2c-0.3,0.1-0.2,0.1-0.3,0.2
			c0.1,0,0.1,0.1,0.3,0.2c-0.1,0,0.1,0.1-0.1,0.1c0.4,0.2,0.2,0.6-0.1,0.7l0,0c0.1,0.1,0.3,0.2,0.4,0.3l0,0c0,0.1-0.2,0-0.2,0.1
			c0,0,0,0-0.1,0c0.1,0.1-0.2,0-0.1,0.1l0,0v0.1c-0.1,0-0.1-0.1-0.1-0.1c-0.2,0.3-0.4,0.8-0.9,0.9v-0.1v0.1c0,0,0,0,0-0.1
			c-0.1-0.1-0.2,0.1-0.3,0.1v-0.1c0,0.2-0.2-0.2-0.2,0.2v-0.1c-0.2,0.2-0.5,0.2-0.7,0.1c-0.2,0.3-0.4,0-0.7,0.2v-0.1
			c-0.2,0.1-0.3-0.1-0.4-0.2s-0.1-0.3-0.2-0.4c0-0.1-0.1-0.2-0.2-0.3h0.1c-0.4-0.1,0.1-0.5-0.3-0.6h0.1c-0.2,0,0-0.1-0.3-0.1
			l0.1-0.1c-0.4-0.1,0.1-0.3-0.2-0.4h0.1c-0.1,0-0.1-0.1-0.1-0.1s0,0,0.1,0c0.3-0.2-0.1-0.3,0-0.5h0.1c-0.1-0.1,0-0.2-0.1-0.3h0.1
			l-0.1-0.1h0.1C106.9,22.2,106.9,22,106.9,21.9z"/>
		<path class="st0" d="M107.7,20.8L107.7,20.8L107.7,20.8z"/>
		<path class="st0" d="M109.6,21.1L109.6,21.1L109.6,21.1z"/>
	</g>
</g>
<g>
	<path class="st0" d="M11.8,44.1c0.8,0.2,2,1.4,1.9,2.8c-0.2,2.3-3.1,2.3-3.7,2s-1.4-2.3-1-3.5S11,43.9,11.8,44.1z"/>
	<g>
		<polygon class="st0" points="12,43.4 12,43.4 11.9,43.5 		"/>
		<path class="st0" d="M11.8,43.6C11.8,43.6,11.8,43.7,11.8,43.6c0,0,0.1-0.1,0.1-0.2C11.9,43.2,11.8,43.7,11.8,43.6z"/>
		<path class="st0" d="M11.7,43.6C11.7,43.5,11.6,43.7,11.7,43.6C11.7,43.6,11.7,43.7,11.7,43.6z"/>
		<path class="st0" d="M9.1,44.6C9.1,44.6,9.1,44.5,9.1,44.6C9.1,44.5,9.1,44.5,9.1,44.6z"/>
		<path class="st0" d="M9.1,45.4L9.1,45.4c0-0.2,0.2-0.2,0.2-0.4l0,0c0.2-0.2,0.3-0.5,0.5-0.8c0,0,0,0,0,0.1v-0.1c0,0,0,0,0,0.1
			c0.1,0.1,0.1-0.2,0.2-0.1v-0.1c0.2-0.2,0.5-0.3,0.8-0.5v0.1c0.2-0.3,0.5-0.2,0.8-0.1c0-0.1,0-0.1,0-0.2c-0.1-0.1-0.2,0.2-0.3,0
			v-0.1c-0.1,0,0,0.2-0.1,0.1c0-0.1,0-0.1,0-0.1c-0.1,0-0.3,0-0.4,0.2c0-0.2-0.1,0-0.2-0.1c0,0.1-0.1,0.1,0,0.2
			c-0.4,0-0.8,0.3-1.2,0.5c0,0.4-0.4,0.2-0.5,0.5l0,0c0,0.1,0,0.2-0.1,0.3c0,0,0,0.1,0.1,0.1c-0.3,0.2-0.4,0.5-0.4,0.7
			c0,0.3,0,0.5-0.1,0.8c0,0.6-0.1,1.2,0.5,1.6c0,0,0,0-0.1,0c0.1,0.1,0.1,0.3,0.2,0.4l0,0c0.2,0.1,0.3,0.3,0.5,0.4
			c0.2,0.2,0.4,0.2,0.6,0.1c0.4,0.1,0.9,0,1.4-0.1V49c0.3-0.2,0.8,0,1.1-0.3c0.2,0,0.3-0.3,0.4-0.5s0.1-0.4,0.3-0.5
			c0.2,0,0.2-0.2,0.1-0.4c0-0.2-0.1-0.3,0.1-0.4c0.6-0.4,0.1-1-0.3-1.2c0-0.5-0.6-0.5-0.6-1c-0.3,0-0.1-0.5-0.3-0.6v0.1
			c0.1-0.3-0.3,0.2-0.2-0.1l0,0c0-0.2-0.3,0.3-0.2,0.1v0.1c-0.1,0,0-0.1,0-0.1l-0.1,0.1c0.1-0.3-0.1,0,0-0.3c0,0,0-0.2,0.1-0.2
			c0,0-0.1-0.1-0.1,0.1s-0.1,0.3-0.1,0.5v-0.1c0,0.1,0,0.1,0,0.2c0,0,0,0.2,0,0.3l0,0c0.1-0.1,0.1,0,0.1,0v0.1c-0.1,0.1,0.2-0.3,0,0
			c0.1,0,0.2,0,0.3,0.1c0.1-0.1,0.1,0.1,0.2-0.1c-0.1,0.2-0.1,0.3,0,0.3l0,0c-0.1,0.3,0.2-0.1,0,0.2c0.2-0.2,0,0.1,0.3,0l-0.1,0.1
			c0.1,0.1,0.1,0.2,0.1,0.3c0.2-0.1,0,0.2,0.3,0.1c0,0.1-0.1,0.2,0,0.2l0,0c0.1,0.1,0.1,0.2,0.3,0.2c-0.3,0.1-0.2,0.1-0.3,0.2
			c0.1,0,0.1,0.1,0.3,0.2c-0.1,0,0.1,0.1-0.1,0.1c0.4,0.2,0.2,0.6-0.1,0.7l0,0c0.1,0.1,0.3,0.2,0.4,0.3l0,0c0,0.1-0.2,0-0.2,0.1
			c0,0,0,0-0.1,0c0.1,0.1-0.2,0-0.1,0.1l0,0v0.1c-0.1,0-0.1-0.1-0.1-0.1c-0.2,0.3-0.4,0.8-0.9,0.9v-0.1v0.1c0,0,0,0,0-0.1
			c-0.1-0.1-0.2,0.1-0.3,0.1v-0.1c0,0.2-0.2-0.2-0.2,0.2v-0.1c-0.2,0.2-0.5,0.2-0.7,0.1c-0.2,0.3-0.4,0-0.7,0.2v-0.1
			c-0.2,0.1-0.3-0.1-0.4-0.2s-0.1-0.3-0.2-0.4c0-0.1-0.1-0.2-0.2-0.3h0.1c-0.4-0.1,0.1-0.5-0.3-0.6h0.1c-0.2,0,0-0.1-0.3-0.1L9,47.4
			c-0.4-0.1,0.1-0.3-0.2-0.4h0.1c-0.1,0-0.1-0.1-0.1-0.1s0,0,0.1,0c0.3-0.2-0.1-0.3,0-0.5H9c-0.1-0.1,0-0.2-0.1-0.3H9L8.9,46H9
			C9.1,45.7,9.1,45.5,9.1,45.4z"/>
		<path class="st0" d="M9.9,44.3L9.9,44.3L9.9,44.3z"/>
		<path class="st0" d="M11.8,44.6L11.8,44.6L11.8,44.6z"/>
	</g>
</g>
<g>
	<path class="st0" d="M67,13.3c0.8,0.2,2,1.4,1.9,2.8c-0.2,2.3-3.1,2.3-3.7,2s-1.4-2.3-1-3.5C64.6,13.4,66.2,13.1,67,13.3z"/>
	<g>
		<polygon class="st0" points="67.2,12.6 67.2,12.6 67.1,12.7 		"/>
		<path class="st0" d="M67,12.8C67,12.8,67,12.9,67,12.8c0,0,0.1-0.1,0.1-0.2C67.1,12.4,67,12.9,67,12.8z"/>
		<path class="st0" d="M66.9,12.8C66.9,12.7,66.8,12.9,66.9,12.8C66.9,12.8,66.9,12.9,66.9,12.8z"/>
		<path class="st0" d="M64.3,13.8C64.3,13.8,64.3,13.7,64.3,13.8C64.3,13.7,64.3,13.7,64.3,13.8z"/>
		<path class="st0" d="M64.3,14.6L64.3,14.6c0-0.2,0.2-0.2,0.2-0.4l0,0c0.2-0.2,0.3-0.5,0.5-0.8c0,0,0,0,0,0.1v-0.1c0,0,0,0,0,0.1
			c0.1,0.1,0.1-0.2,0.2-0.1v-0.1c0.2-0.2,0.5-0.3,0.8-0.5v0.1c0.2-0.3,0.5-0.2,0.8-0.1c0-0.1,0-0.1,0-0.2c-0.1-0.1-0.2,0.2-0.3,0
			v-0.1c-0.1,0,0,0.2-0.1,0.1c0-0.1,0-0.1,0-0.1c-0.1,0-0.3,0-0.4,0.2c0-0.2-0.1,0-0.2-0.1c0,0.1-0.1,0.1,0,0.2
			c-0.4,0-0.8,0.3-1.2,0.5c0,0.4-0.4,0.2-0.5,0.5l0,0c0,0.1,0,0.2-0.1,0.3c0,0,0,0.1,0.1,0.1c-0.3,0.2-0.4,0.5-0.4,0.7
			c0,0.3,0,0.5-0.1,0.8c0,0.6-0.1,1.2,0.5,1.6c0,0,0,0-0.1,0c0.1,0.1,0.1,0.3,0.2,0.4l0,0c0.2,0.1,0.3,0.3,0.5,0.4
			c0.2,0.2,0.4,0.2,0.6,0.1c0.4,0.1,0.9,0,1.4-0.1v0.1c0.3-0.2,0.8,0,1.1-0.3c0.2,0,0.3-0.3,0.4-0.5s0.1-0.4,0.3-0.5
			c0.2,0,0.2-0.2,0.1-0.4c0-0.2-0.1-0.3,0.1-0.4c0.6-0.4,0.1-1-0.3-1.2c0-0.5-0.6-0.5-0.6-1c-0.3,0-0.1-0.5-0.3-0.6v0.1
			c0.1-0.3-0.3,0.2-0.2-0.1l0,0c0-0.2-0.3,0.3-0.2,0.1v0.1c-0.1,0,0-0.1,0-0.1L67,13.5c0.1-0.3-0.1,0,0-0.3c0,0,0-0.2,0.1-0.2
			c0,0-0.1-0.1-0.1,0.1s-0.1,0.3-0.1,0.5v-0.1c0,0.1,0,0.1,0,0.2c0,0,0,0.2,0,0.3l0,0c0.1-0.1,0.1,0,0.1,0v0.1c-0.1,0.1,0.2-0.3,0,0
			c0.1,0,0.2,0,0.3,0.1c0.1-0.1,0.1,0.1,0.2-0.1c-0.1,0.2-0.1,0.3,0,0.3l0,0c-0.1,0.3,0.2-0.1,0,0.2c0.2-0.2,0,0.1,0.3,0l-0.1,0.1
			c0.1,0.1,0.1,0.2,0.1,0.3c0.2-0.1,0,0.2,0.3,0.1c0,0.1-0.1,0.2,0,0.2l0,0c0.1,0.1,0.1,0.2,0.3,0.2c-0.3,0.1-0.2,0.1-0.3,0.2
			c0.1,0,0.1,0.1,0.3,0.2c-0.1,0,0.1,0.1-0.1,0.1c0.4,0.2,0.2,0.6-0.1,0.7l0,0c0.1,0.1,0.3,0.2,0.4,0.3l0,0c0,0.1-0.2,0-0.2,0.1
			c0,0,0,0-0.1,0c0.1,0.1-0.2,0-0.1,0.1l0,0v0.1c-0.1,0-0.1-0.1-0.1-0.1c-0.2,0.3-0.4,0.8-0.9,0.9V18v0.1c0,0,0,0,0-0.1
			c-0.1-0.1-0.2,0.1-0.3,0.1V18c0,0.2-0.2-0.2-0.2,0.2v-0.1c-0.2,0.2-0.5,0.2-0.7,0.1c-0.2,0.3-0.4,0-0.7,0.2v-0.1
			c-0.2,0.1-0.3-0.1-0.4-0.2s-0.1-0.3-0.2-0.4c0-0.1-0.1-0.2-0.2-0.3h0.1c-0.4-0.1,0.1-0.5-0.3-0.6h0.1c-0.2,0,0-0.1-0.3-0.1
			l0.1-0.1c-0.4-0.1,0.1-0.3-0.2-0.4h0.1c-0.1,0-0.1-0.1-0.1-0.1s0,0,0.1,0c0.3-0.2-0.1-0.3,0-0.5h0.1c-0.1-0.1,0-0.2-0.1-0.3h0.1
			l-0.1-0.1h0.1C64.3,14.9,64.3,14.7,64.3,14.6z"/>
		<path class="st0" d="M65.1,13.5L65.1,13.5L65.1,13.5z"/>
		<path class="st0" d="M67,13.8L67,13.8L67,13.8z"/>
	</g>
</g>
<g>
	<polygon class="st0" points="248.2,15.6 248.2,15.6 248.3,15.6 	"/>
	<path class="st0" d="M248.5,15.5L248.5,15.5c-0.1,0-0.1,0.1-0.2,0.1C248.3,15.8,248.5,15.4,248.5,15.5z"/>
	<path class="st0" d="M248.6,15.4C248.5,15.5,248.5,15.4,248.6,15.4C248.5,15.6,248.6,15.4,248.6,15.4z"/>
	<path class="st0" d="M247.8,14c0,0.3,0.2,0.5,0.5,0.7c0,0.1-0.1,0.2,0,0.2v-0.1c-0.1,0.1,0.1,0,0.1,0l0,0c0,0,0,0,0,0.1l0,0
		c0,0.1,0,0,0.1-0.1c0,0,0,0,0.1,0l0,0l0,0c0,0,0,0-0.1,0.1c0,0,0,0.1-0.2,0.2c0,0,0,0.1,0.1-0.1c0-0.1,0.1-0.1,0.2-0.2
		c0.3,0.2,0.8,0.1,1.2-0.1c-0.1,0,0,0.1-0.1,0.1c0,0,0,0,0-0.1v0.1v-0.1c-0.1-0.1,0,0.1-0.1,0v0.1c-0.1,0-0.3,0.2-0.5,0.3V15
		c-0.1,0.4-0.4,0.1-0.6,0.1c0,0.1,0,0.1,0,0.1c0,0.1,0.2-0.1,0.2,0v0.1c0,0.1,0-0.2,0-0.1c0.1,0.3,0.1,0.3,0.1,0.3
		c0.1,0,0.2,0,0.3-0.1c0,0.2,0.1,0,0.1,0.1c0-0.1,0.1,0,0-0.1c0.3,0.1,0.6-0.2,0.8-0.3c0-0.3,0.3-0.1,0.3-0.3l0,0
		c0-0.1,0-0.2,0.1-0.2v-0.1c0.2-0.1,0.3-0.2,0.5-0.3c0.1-0.1,0-0.3,0.2-0.5c0.1-0.4,0.4-0.8-0.3-1h0.1c-0.1,0,0-0.1-0.2-0.3l0,0
		c-0.3,0-0.4-0.4-0.8-0.2c-0.2-0.1-0.6-0.1-0.8-0.1V12c-0.2,0.1-0.5-0.2-0.7,0.1c-0.2,0-0.2,0.1-0.2,0.2c0,0.1,0,0.1,0,0.2
		c0,0,0,0-0.1,0v0.1c-0.2,0-0.1,0.1-0.1,0.2c0,0.1,0,0.1-0.1,0.2l0,0C247.4,13.5,247.5,13.9,247.8,14z M250.6,13.9L250.6,13.9
		C250.7,13.9,250.7,13.9,250.6,13.9z M250.5,13.8L250.5,13.8C250.5,13.8,250.6,13.7,250.5,13.8L250.5,13.8z M250.6,13.7
		c0-0.1,0-0.1,0-0.1C250.8,13.6,250.6,13.7,250.6,13.7z M250.6,13.6L250.6,13.6L250.6,13.6L250.6,13.6z"/>
</g>
<g>
	<path class="st0" d="M428.5,5.7L428.5,5.7L428.5,5.7z"/>
	<path class="st0" d="M428.7,5.9L428.7,5.9c0-0.1-0.1-0.1-0.2-0.1C428.3,5.7,428.8,5.9,428.7,5.9z"/>
	<path class="st0" d="M428.7,5.9C428.6,5.9,428.8,5.9,428.7,5.9C428.5,5.9,428.7,5.9,428.7,5.9z"/>
	<path class="st0" d="M429.9,5c-0.3,0.1-0.4,0.2-0.6,0.6c-0.1,0-0.2-0.1-0.2,0h0.1c-0.1-0.1,0,0.1,0.1,0.1l0,0c0,0,0,0-0.1,0l0,0
		c-0.1,0,0,0,0.1,0.1c0,0,0,0,0,0.1l0,0l0,0c0,0,0,0-0.1-0.1c0,0-0.1,0-0.2-0.1c0,0-0.1,0,0.1,0.1c0.1,0,0.1,0.1,0.2,0.1
		c-0.1,0.3,0,0.8,0.3,1.1c0-0.1-0.1,0-0.1-0.1c0,0,0,0,0.1,0h-0.1h0.1c0.1-0.1-0.1,0-0.1-0.1c0,0-0.1,0-0.1,0.1
		c-0.1-0.1-0.2-0.2-0.4-0.4h0.1c-0.3,0-0.2-0.3-0.2-0.5c-0.1,0-0.1,0-0.1,0c-0.1,0,0.2,0.1,0,0.2h-0.1c-0.1,0,0.2,0,0.1,0
		c-0.2,0.1-0.2,0.1-0.2,0.1c0,0.1,0,0.2,0.1,0.2c-0.2,0,0,0.1-0.1,0.1c0.1,0,0,0.1,0.1,0c0,0.3,0.3,0.5,0.4,0.7
		c0.3-0.1,0.1,0.2,0.3,0.2l0,0c0.1,0,0.2,0,0.2,0.1h0.1c0.1,0.2,0.2,0.3,0.4,0.4s0.3,0,0.4,0.1c0.3,0,0.8,0.2,0.9-0.5v0.1
		c0-0.1,0.1-0.1,0.2-0.2l0,0c0-0.3,0.3-0.4,0.1-0.8c0.1-0.2,0-0.6,0-0.8h0.1c-0.2-0.1,0.1-0.4-0.2-0.6c0-0.2-0.2-0.1-0.3-0.2
		c-0.1,0-0.1,0-0.2,0c0,0,0,0,0-0.1H431c0-0.2-0.1-0.1-0.2-0.1s-0.1,0-0.2-0.1l0,0C430.2,4.5,429.9,4.7,429.9,5z M430.5,7.5
		L430.5,7.5C430.5,7.6,430.5,7.6,430.5,7.5z M430.6,7.4L430.6,7.4C430.6,7.4,430.7,7.5,430.6,7.4L430.6,7.4z M430.7,7.5
		c0.1,0,0.1,0,0.1-0.1C430.8,7.7,430.7,7.5,430.7,7.5z M430.8,7.4L430.8,7.4L430.8,7.4L430.8,7.4z"/>
</g>
<g>
	<polygon class="st0" points="56.5,16.2 56.5,16.2 56.5,16.1 	"/>
	<path class="st0" d="M56.7,16L56.7,16c-0.1,0-0.1,0.1-0.2,0.1C56.5,16.3,56.8,15.9,56.7,16z"/>
	<path class="st0" d="M56.8,16C56.8,16.1,56.8,15.9,56.8,16C56.7,16.2,56.8,16,56.8,16z"/>
	<path class="st0" d="M56,14.6c0,0.3,0.2,0.5,0.5,0.7c0,0.1-0.1,0.2,0,0.2v-0.1c-0.1,0.1,0.1,0,0.1,0l0,0c0,0,0,0,0,0.1l0,0
		c0,0.1,0,0,0.1-0.1c0,0,0,0,0.1,0l0,0l0,0c0,0,0,0-0.1,0.1c0,0,0,0.1-0.2,0.2c0,0,0,0.1,0.1-0.1c0-0.1,0.1-0.1,0.2-0.2
		c0.3,0.2,0.8,0.1,1.2-0.1c-0.1,0,0,0.1-0.1,0.1c0,0,0,0,0-0.1v0.1v-0.1c-0.1-0.1,0,0.1-0.1,0v0.1c-0.1,0-0.3,0.2-0.5,0.3v-0.1
		c-0.1,0.4-0.4,0.1-0.6,0.1c0,0.1,0,0.1,0,0.1c0,0.1,0.2-0.1,0.2,0v0.1c0,0.1,0-0.2,0-0.1c0.1,0.3,0.1,0.3,0.1,0.3
		c0.1,0,0.2,0,0.3-0.1c0,0.2,0.1,0,0.1,0.1c0-0.1,0.1,0,0-0.1c0.3,0.1,0.6-0.2,0.8-0.3c0-0.3,0.3-0.1,0.3-0.3l0,0
		c0-0.1,0-0.2,0.1-0.2v-0.1c0.2-0.1,0.3-0.2,0.5-0.3c0.1-0.1,0-0.3,0.2-0.5c0.1-0.4,0.4-0.8-0.3-1h0.1c-0.1,0,0-0.1-0.2-0.3l0,0
		c-0.3,0-0.4-0.4-0.8-0.2c-0.2-0.1-0.6-0.1-0.8-0.1v-0.1c-0.2,0.1-0.5-0.2-0.7,0.1c-0.2,0-0.2,0.1-0.2,0.2c0,0.1,0,0.1,0,0.2
		c0,0,0,0-0.1,0v0.1c-0.2,0-0.1,0.1-0.1,0.2c0,0.1,0,0.1-0.1,0.2l0,0C55.6,14.1,55.7,14.4,56,14.6z M58.8,14.4L58.8,14.4
		C58.9,14.4,58.9,14.4,58.8,14.4z M58.8,14.3L58.8,14.3L58.8,14.3L58.8,14.3z M58.8,14.2c0-0.1,0-0.1,0-0.1
		C59,14.1,58.8,14.2,58.8,14.2z M58.8,14.1L58.8,14.1L58.8,14.1L58.8,14.1z"/>
</g>
<g>
	<path class="st0" d="M19.9,126.7L19.9,126.7L19.9,126.7z"/>
	<path class="st0" d="M20.1,126.5L20.1,126.5c-0.1,0-0.1,0.1-0.2,0.1C19.9,126.8,20.2,126.4,20.1,126.5z"/>
	<path class="st0" d="M20.2,126.5C20.2,126.6,20.2,126.4,20.2,126.5C20.1,126.7,20.2,126.5,20.2,126.5z"/>
	<path class="st0" d="M19.4,125.1c0,0.3,0.2,0.5,0.5,0.7c0,0.1-0.1,0.2,0,0.2v-0.1c-0.1,0.1,0.1,0,0.1,0l0,0c0,0,0,0,0,0.1l0,0
		c0,0.1,0,0,0.1-0.1c0,0,0,0,0.1,0l0,0l0,0c0,0,0,0-0.1,0.1c0,0,0,0.1-0.2,0.2c0,0,0,0.1,0.1-0.1c0-0.1,0.1-0.1,0.2-0.2
		c0.3,0.2,0.8,0.1,1.2-0.1c-0.1,0,0,0.1-0.1,0.1c0,0,0,0,0-0.1v0.1v-0.1c-0.1-0.1,0,0.1-0.1,0v0.1c-0.1,0-0.3,0.2-0.5,0.3v-0.1
		c-0.1,0.4-0.4,0.1-0.6,0.1c0,0.1,0,0.1,0,0.1c0,0.1,0.2-0.1,0.2,0v0.1c0,0.1,0-0.2,0-0.1c0.1,0.3,0.1,0.3,0.1,0.3
		c0.1,0,0.2,0,0.3-0.1c0,0.2,0.1,0,0.1,0.1c0-0.1,0.1,0,0-0.1c0.3,0.1,0.6-0.2,0.8-0.3c0-0.3,0.3-0.1,0.3-0.3l0,0
		c0-0.1,0-0.2,0.1-0.2v-0.1c0.2-0.1,0.3-0.2,0.5-0.3s0-0.3,0.2-0.5c0.1-0.4,0.4-0.8-0.3-1h0.1c-0.1,0,0-0.1-0.2-0.3l0,0
		c-0.3,0-0.4-0.4-0.8-0.2c-0.2-0.1-0.6-0.1-0.8-0.1v-0.1c-0.2,0.1-0.5-0.2-0.7,0.1c-0.2,0-0.2,0.1-0.2,0.2s0,0.1,0,0.2
		c0,0,0,0-0.1,0v0.1c-0.2,0-0.1,0.1-0.1,0.2s0,0.1-0.1,0.2l0,0C19,124.6,19.1,124.9,19.4,125.1z M22.2,125L22.2,125
		C22.3,124.9,22.3,124.9,22.2,125z M22.2,124.8L22.2,124.8C22.2,124.8,22.3,124.8,22.2,124.8L22.2,124.8z M22.2,124.7
		C22.2,124.6,22.2,124.6,22.2,124.7C22.4,124.6,22.2,124.7,22.2,124.7z M22.2,124.6L22.2,124.6L22.2,124.6L22.2,124.6z"/>
</g>
<g>
	<polygon class="st0" points="433.3,160.3 433.3,160.3 433.2,160.4 	"/>
	<path class="st0" d="M433,160.4L433,160.4c0,0,0.1-0.1,0.2-0.1C433.4,160.2,433,160.5,433,160.4z"/>
	<path class="st0" d="M432.9,160.4C433,160.3,432.9,160.5,432.9,160.4C433.1,160.3,433,160.4,432.9,160.4z"/>
	<path class="st0" d="M433.3,162c0-0.3,0-0.6-0.2-0.9c0-0.1,0.1-0.2,0-0.2H433c0.1-0.1-0.1,0-0.1,0l0,0c0,0,0,0,0.1-0.1l0,0
		c0.1-0.1,0,0-0.1,0c0,0,0,0,0-0.1l0,0l0,0c0,0,0,0,0.1-0.1c0,0,0.1-0.1,0.2-0.1c0,0,0-0.1-0.1,0.1c-0.1,0.1-0.1,0.1-0.2,0.2
		c-0.2-0.2-0.7-0.4-1.1-0.3l0.1-0.1c0,0,0,0,0,0.1v-0.1v0.1c0,0.2,0.1-0.1,0.1,0c0,0,0-0.1,0-0.2c0.2,0,0.3-0.1,0.5-0.1v0.1
		c0.2-0.2,0.4,0,0.5,0.1c0.1-0.1,0-0.1,0.1-0.1c0-0.1-0.2,0.1-0.2-0.1v-0.1c0-0.1-0.1,0.2-0.1,0.1c0-0.1,0.1-0.1,0-0.1
		s-0.2-0.1-0.3,0c0-0.2-0.1,0-0.1-0.2c0,0.1-0.1,0-0.1,0.1c-0.2-0.2-0.5,0-0.8,0c-0.1,0.3-0.3,0-0.4,0.1l0,0c0,0.1-0.1,0.1-0.1,0.1
		v0.1c-0.2,0-0.4,0.1-0.5,0.2c-0.1,0.1-0.2,0.3-0.3,0.4c-0.2,0.3-0.5,0.7,0,1c0,0,0,0-0.1,0c0.1,0.1,0,0.2,0.1,0.3l0,0
		c0.3,0.2,0.3,0.5,0.6,0.4c0.2,0.2,0.4,0.3,0.7,0.3v0.1c0.2-0.1,0.4,0.3,0.6,0.2c0.1,0.1,0.2-0.1,0.3-0.2c0-0.1,0.1-0.1,0.1-0.2
		c0,0,0,0,0.1,0c0,0,0-0.1,0.1,0c0.2,0.1,0.1-0.1,0.1-0.2c0-0.1,0.1-0.1,0.1-0.2l0,0C433.5,162.6,433.5,162.3,433.3,162z
		 M430.8,161.3L430.8,161.3C430.7,161.3,430.7,161.3,430.8,161.3z M430.8,161.4L430.8,161.4C430.7,161.4,430.7,161.4,430.8,161.4
		L430.8,161.4z M430.7,161.4L430.7,161.4C430.5,161.5,430.7,161.5,430.7,161.4z M430.7,161.6L430.7,161.6L430.7,161.6L430.7,161.6z"
		/>
</g>
<g>
	<polygon class="st0" points="6.8,39.3 6.8,39.3 6.7,39.4 	"/>
	<path class="st0" d="M6.5,39.4L6.5,39.4c0,0,0.1-0.1,0.2-0.1C6.9,39.2,6.5,39.5,6.5,39.4z"/>
	<path class="st0" d="M6.4,39.4C6.5,39.3,6.4,39.5,6.4,39.4C6.6,39.3,6.5,39.4,6.4,39.4z"/>
	<path class="st0" d="M6.8,41c0-0.3,0-0.6-0.2-0.9c0-0.1,0.1-0.2,0-0.2H6.5c0.1-0.1-0.1,0-0.1,0l0,0c0,0,0,0,0.1-0.1l0,0
		c0.1-0.1,0,0-0.1,0c0,0,0,0,0-0.1l0,0l0,0c0,0,0,0,0.1-0.1c0,0,0.1-0.1,0.2-0.1c0,0,0-0.1-0.1,0.1c-0.1,0.1-0.1,0.1-0.2,0.2
		c-0.2-0.2-0.7-0.4-1.1-0.3l0.1-0.1c0,0,0,0,0,0.1v-0.1v0.1c0,0.2,0.1-0.1,0.1,0c0,0,0-0.1,0-0.2c0.2,0,0.3-0.1,0.5-0.1v0.1
		c0.2-0.2,0.4,0,0.5,0.1c0.1-0.1,0-0.1,0.1-0.1c0-0.1-0.2,0.1-0.2-0.1v-0.1c0-0.1-0.1,0.2-0.1,0.1s0.1-0.1,0-0.1S6.1,39,6,39.1
		c0-0.2-0.1,0-0.1-0.2c0,0.1-0.1,0-0.1,0.1c-0.2-0.2-0.5,0-0.8,0c-0.1,0.3-0.3,0-0.4,0.1l0,0c0,0.1-0.1,0.1-0.1,0.1v0.1
		c-0.2,0-0.4,0.1-0.5,0.2c-0.1,0.1-0.2,0.3-0.3,0.4c-0.2,0.3-0.5,0.7,0,1c0,0,0,0-0.1,0c0.1,0.1,0,0.2,0.1,0.3l0,0
		C4,41.4,4,41.7,4.3,41.6c0.2,0.2,0.4,0.3,0.7,0.3V42c0.2-0.1,0.4,0.3,0.6,0.2c0.1,0.1,0.2-0.1,0.3-0.2c0-0.1,0.1-0.1,0.1-0.2
		c0,0,0,0,0.1,0c0,0,0-0.1,0.1,0c0.2,0.1,0.1-0.1,0.1-0.2s0.1-0.1,0.1-0.2l0,0C7,41.6,7,41.3,6.8,41z M4.3,40.3L4.3,40.3
		C4.2,40.3,4.2,40.3,4.3,40.3z M4.3,40.4L4.3,40.4C4.2,40.4,4.2,40.4,4.3,40.4L4.3,40.4z M4.2,40.4L4.2,40.4
		C4,40.5,4.2,40.5,4.2,40.4z M4.2,40.6L4.2,40.6L4.2,40.6L4.2,40.6z"/>
</g>
<g>
	<path d="M20.1,112.6c0.2,0,18.2,0.3,36.2,0.5c5.8,0,10.9,0.1,15.4,0.1c3.7,0,6.9,0,9.7-0.1c12.5-0.2,12.6-0.5,13.2-1.6
		c0.5-1.1,0.7-5.3,0.5-12.5c0-0.9-0.8-1.6-1.7-1.6c-0.1,0-1.8,0-4.8,0c0-5.5,0.1-24.9,0-31.1c0-1.6-0.3-10-4.4-18.1
		c-5-9.9-13.8-15.5-25.4-16.1c-10.7-0.6-19.1,2-25.1,7.7C25,47.9,24,60.1,24,64.9v31.8c0,0.1,0,0.3,0.1,0.4
		c-4.7,0.1-4.9,0.3-5.3,0.9c-0.4,0.5-0.9,1.2-0.4,12.8C18.5,111.9,19.2,112.6,20.1,112.6z M27.4,96.8V64.9c0-4.4,0.8-15.5,8.5-22.8
		c5.3-5,12.9-7.3,22.6-6.8C84,36.7,85.1,63.2,85.2,66.3c0.1,6.2,0,25.5,0,31.1c-7-0.1-17.6-0.1-28.2-0.2c-10.6,0-19-0.1-25.1,0
		c-1.7,0-3.2,0-4.4,0C27.4,97,27.4,96.9,27.4,96.8z M21.6,100.6c7-0.4,44.1-0.2,70.1,0.1c0.1,3.4,0,7.1-0.1,8.7
		c-6.4,0.7-44.8,0.3-69.8-0.1C21.6,105.9,21.5,102.4,21.6,100.6z"/>
	<path d="M428.2,180c-0.6,0-4.7-0.1-11.7-0.1c0-7.6,0.2-44.5,0.3-81.1c0.1-24,0.1-43.1,0.1-56.9c0-8.2,0-14.5-0.1-18.9
		c-0.1-7.9-0.1-7.9-0.7-8.5c-0.7-0.7-0.7-0.7-22.1-0.9c-12.5-0.1-29.1-0.1-45.6,0c-44.1,0.1-67.3,0.5-68.9,1.2
		c-0.7,0.3-1.1,0.9-1.1,1.6v0.2c0,7.4,0,46,0.1,84.5c0.1,23.4,0.1,42,0.2,55.4c0.1,7.9,0.1,14,0.2,18.2c0,2.2,0.1,3.8,0.1,5
		c-6.7,0-13.4,0-20.2,0c0.3-3.1,0.4-10.3,0.2-28.1c-0.2-14.2-0.5-28.3-0.5-28.5c0-0.9-0.8-1.6-1.7-1.6c-0.1,0-4.4,0-11.5-0.1
		c0.2-1.8,0.4-5,0.6-7.3c1.2-0.2,1.4-0.6,1.6-0.9c0.1-0.3,0.5-0.9,0.3-6.6c0-0.8-0.6-1.4-1.4-1.4c-2.9-0.1-5.3-0.1-7.2-0.1
		c-0.1-0.6-0.1-1.6-0.2-2.7c1.2-0.6,3.7-1.9,4.8-3.4c0.5-0.6,0.3-1.5-0.3-2c-0.6-0.5-1.5-0.3-2,0.3c-0.5,0.6-1.5,1.3-2.6,1.9
		c0-0.7,0-1.5,0.1-2.3c1.2-0.6,3.6-2,5.4-4c0.5-0.6,0.4-1.5-0.2-2c-0.6-0.5-1.5-0.4-2,0.2c-0.8,1-1.9,1.8-2.8,2.4
		c0.2-1.1,0.4-2.2,0.7-3.3c0.2-0.8-0.2-1.6-1-1.8c-0.8-0.2-1.6,0.2-1.8,1c-0.6,2.2-1,4.6-1.1,6.9c-1-0.9-2-2-2.1-2.9
		c-0.1-0.8-0.9-1.3-1.6-1.2c-0.8,0.1-1.3,0.9-1.2,1.6c0.4,2.7,3.6,5.3,4.8,6.1c0,2.2,0.1,4,0.2,5.2c-5.9,0-6.1,0.3-6.5,0.8
		c-0.3,0.4-0.6,0.8-0.3,6.9c0,0.7,0.6,1.3,1.4,1.4c0.1,0,0.3,0,0.4,0c0,1.2,0.2,3.4,0.5,7.3c-10.1,0-22.4-0.1-35.3-0.1
		c0-2.1,0-5.6,0-8.6c25.4-0.6,25.8-0.8,26.4-1.1c0.5-0.3,0.8-0.8,0.8-1.4c0-0.1,0.1-8,0.2-16c0.1-16.7-0.3-17.1-0.9-17.7
		c-0.6-0.6-0.8-0.8-11.4-0.8c-6,0-14.1,0-22,0.1c-14.7,0.2-32.6,0.6-34.8,1.5c-0.9,0.4-1.2,1.1-1.2,1.7c0,0.5,0.1,8.3,0.3,16.2
		c0.4,16.4,0.9,16.8,1.7,17.4c0.5,0.4,0.8,0.6,9.3,0.6c3.9,0,9.4-0.1,17.4-0.2v8.3c-15.3,0-28.3,0-39,0c0-1,0.1-2.4,0-4.7
		c0-0.8-0.6-1.4-1.4-1.4c-3.2-0.1-5.8-0.1-7.9-0.1c0,0,0,0,0,0c0.2-3.6,0-8.2-0.2-10.6c0.8,0,1.6,0,2.3,0c6.1,0,6.3-0.5,6.6-1.1
		c0.2-0.4,0.4-0.8,0.3-33.6c0-0.8-0.6-1.4-1.4-1.4c-17.5-0.3-17.7-0.1-18.2,0.6c-0.4,0.5-0.4,0.6-0.4,17.5c0,8.2,0.1,16.4,0.1,16.4
		c0,0.8,0.6,1.4,1.4,1.4c2.5,0.1,4.6,0.2,6.4,0.2c0.1,2.3,0.4,7,0.2,10.5c0,0,0,0.1,0,0.1c-6.9,0-7,0.2-7.5,0.8
		c-0.3,0.4-0.5,0.7-0.4,5.5c-15.1,0.1-15.3,0.2-15.8,0.6c-0.9,0.6-1.1,0.7-1.1,10.8c0,4.8,0.1,11.6,0.3,19.9
		c0.3,11.4,0.6,22.9,0.7,27.1c-50.9,0-88.7,0-93.7,0c-1.1,0-1.9,0.9-1.9,1.9s0.9,1.9,1.9,1.9c2.5,0,150.9,0,269.4,0.1
		c2.8,0.1,8.1,0.1,18.9,0.2c4.9,0,10.5,0,16.5,0c8.9,0,18.9,0,29.2-0.1c6.4,0,12.6,0,18.5-0.1c36,0,60.1,0.1,61.7,0.2
		c0,0,0.1,0,0.1,0c1,0,1.9-0.8,1.9-1.8C430.1,180.9,429.2,180,428.2,180z M232.3,108c2.2-0.1,7.5,0,12.7,0.1c0,1.3,0,2.5,0,3.3
		c0,0,0,0,0,0c-0.1,0-0.2,0-0.3,0c-6.9-0.4-10.1-0.3-11.6-0.1c-0.2,0-0.5,0-0.7,0C232.3,110,232.3,108.8,232.3,108z M241.3,114.4
		c0.6,0,1.2,0,1.7,0c-0.2,2.8-0.4,5.6-0.5,6.8c-1.3,0.2-4.7,0.1-7.8-0.3c-0.2-2.6-0.4-5.2-0.5-6.7
		C237.2,114.3,239.5,114.4,241.3,114.4z M125.9,71c2.4-0.1,8.5,0,14.2,0.1c0,11.1,0,26.3-0.1,30.3c-1.4,0.1-4.3,0.1-7.6,0
		c-0.1,0-0.2,0-0.3,0c0,0,0,0,0,0c-2,0-4.1-0.1-6.2-0.2C125.9,90.3,125.8,75.2,125.9,71z M287.9,155.1c0.8,0,2.2,0,3,0
		c0.2,3.8,0,19.7-0.2,24.6c-0.9,0-1.9,0-2.8,0C287.9,170.6,287.9,158.5,287.9,155.1z M297.4,155.1c0.8,0,2,0,2.8,0
		c0.2,3.8,0,19.7-0.2,24.6c-0.9,0-1.7,0-2.6,0C297.4,170.6,297.3,158.5,297.4,155.1z M306.5,163.7c0.8,0,2.1,0,3,0
		c0.1,2.9,0,12.2-0.1,16c-1,0-1.9,0-2.9,0C306.4,173.9,306.4,166.3,306.5,163.7z M315.7,163.7c0.8,0,2.1,0,3,0
		c0.1,2.9,0,12.2-0.1,16c-1,0-1.9,0-2.9,0C315.7,173.9,315.6,166.3,315.7,163.7z M324.7,155.1c0.8,0,2,0,2.8,0
		c0.2,3.8,0,19.7-0.2,24.6c-0.9,0-1.7,0-2.6,0C324.7,170.6,324.6,158.5,324.7,155.1z M334,163.4c1.3-0.1,4-0.1,5.4,0
		c0.1,3.1,0,12.9-0.1,16.4c-1.7,0-3.5,0-5.2,0C334,173.9,333.9,166,334,163.4z M354.4,163.1c1.3-0.1,4-0.1,5.4,0
		c0.1,3.1,0,13.4-0.1,16.6c-1.7,0-3.5,0-5.2,0C354.4,173.9,354.4,165.8,354.4,163.1z M365.6,163.1c1.3-0.1,4-0.1,5.4,0
		c0.1,3.1,0,13.4-0.1,16.6c-1.7,0-3.4,0-5.2,0C365.6,173.9,365.5,165.8,365.6,163.1z M377.6,179.7c-0.1-9.1-0.1-21.8,0-25.2
		c0.8,0,2.2,0,3,0c0.2,4,0,21.4-0.2,25.3c-0.7,0-1.3,0-2,0C378.1,179.8,377.9,179.8,377.6,179.7z M387.6,179.7
		c-0.1-9.1-0.1-21.8,0-25.2c0.8,0,2.2,0,3,0c0.2,4,0,21.4-0.2,25.3c-0.6,0-1.2,0-1.8,0C388.2,179.8,387.9,179.8,387.6,179.7z
		 M393,167c0-2.1,0-3.9,0-5.4c0.5,1.8,1.2,4,2,6.8c1.4,4.6,2.8,9.1,3.5,11.4c-1.9,0-3.8,0-5.8,0C392.8,178.2,392.9,174.7,393,167z
		 M401,179.6c-2.7-8.7-6.3-20.8-7.2-24.1c0.8-0.3,2.1-0.7,2.9-0.9c1.4,3.8,6.2,20.6,7,24.3C403.1,179.2,402.1,179.4,401,179.6z
		 M406.2,179.8c0,0,0-0.1,0-0.1c0-0.3,0.1-0.8-3.6-13.8c-3.9-13.4-4.1-13.5-4.8-13.8c-0.3-0.1-0.6-0.2-3.3,0.6
		c-0.7,0.2-1.2,0.4-1.7,0.5c-0.1-0.5-0.3-0.7-0.4-0.8c-0.3-0.2-0.5-0.4-3.4-0.4c-2.9,0-3.2,0.2-3.5,0.6c-0.4,0.5-0.4,0.5-0.4,14.5
		c0,5.2,0.1,10.4,0.1,12.6c-0.8,0-1.6,0-2.4,0c0.1-1.6,0.2-5.1,0.3-12.8c0.1-13.9-0.1-14.1-0.7-14.6c-0.3-0.2-0.5-0.4-3.2-0.4
		c-0.1,0-0.1,0-0.2,0c-2.9,0-3.2,0.2-3.5,0.6c-0.4,0.5-0.4,0.5-0.4,14.5c0,5.2,0.1,10.4,0.1,12.5c-0.7,0-1.3,0-2,0
		c0.1-1.3,0.1-3.8,0.1-8.4c0.1-9.6,0-9.7-0.3-10.1c-0.3-0.4-0.6-0.7-5.9-0.6c-2.8,0-3.2,0.2-3.6,0.7c-0.3,0.4-0.5,0.6-0.3,18.4
		c-0.4,0-0.8,0-1.1,0c0.1-1.3,0.1-3.8,0.1-8.4c0.1-9.6,0-9.7-0.3-10.1c-0.3-0.4-0.6-0.7-5.9-0.6c-2.8,0-3.2,0.2-3.6,0.7
		c-0.3,0.4-0.5,0.6-0.3,18.4c-1.1,0-2.2,0-3.4,0c0-4.8-0.2-22.9-0.2-39.6c26.7,0,53.7,0.1,64.8,0.3c-0.1,15.2-0.1,29-0.2,39.3
		c-1,0-2.4,0.1-4.3,0.1C408,179.8,407.1,179.8,406.2,179.8z M341.1,136.6c-0.6,0-1.7,0-2.8-0.1c-0.1-9.1-0.1-21.8,0-25.2
		c0.8,0,2.2,0,3,0C341.5,115.3,341.3,132.8,341.1,136.6z M343.1,109.3c-0.3-0.2-0.5-0.4-3.4-0.4c-2.9,0-3.2,0.2-3.5,0.6
		c-0.4,0.5-0.4,0.5-0.4,14.5c0,5.4,0.1,10.7,0.1,12.7c-0.5,0-1.1,0-1.6,0c0.1-1.5,0.2-5,0.3-12.9c0.1-13.9-0.1-14.1-0.7-14.6
		c-0.3-0.2-0.5-0.4-3.4-0.4c-2.9,0-3.2,0.2-3.5,0.6c-0.4,0.5-0.4,0.5-0.4,14.5c0,5.4,0.1,10.7,0.1,12.7c-1.4,0-2.9,0-4.3,0
		c0.1-1.3,0.1-3.7,0.1-8.6c0.1-9.6,0-9.7-0.3-10.1c-0.3-0.4-0.6-0.7-5.9-0.6c-2.8,0-3.2,0.2-3.6,0.7c-0.3,0.4-0.5,0.6-0.3,18.6
		c-0.5,0-1.1,0-1.6,0c0.1-1.5,0.2-5,0.3-13c0.1-13.9-0.1-14.1-0.7-14.6c-0.3-0.2-0.5-0.4-3.4-0.4c-2.9,0-3.2,0.2-3.5,0.6
		c-0.4,0.5-0.4,0.5-0.4,14.5c0,5.4,0.1,10.8,0.1,12.8c-0.8,0-1.5,0-2.2,0c0.1-1.3,0.1-3.7,0.2-8.6c0.1-9.6,0-9.7-0.3-10.1
		c-0.3-0.4-0.5-0.7-4.2-0.6c-2,0-2.6,0.2-3,0.7c-0.3,0.4-0.5,0.6-0.3,18.6c-0.6,0-1.1,0-1.6,0c0.1-1.3,0.1-3.7,0.2-8.6
		c0.1-9.6,0-9.7-0.3-10.1c-0.3-0.4-0.5-0.7-4.2-0.6c-2,0-2.6,0.2-3,0.7c-0.3,0.4-0.5,0.6-0.3,18.6c-1,0-1.7,0-2.3,0
		c-0.1-11.1-0.1-23.5-0.1-36.4c5.9,0,34.7-0.1,64.5-0.1c0,4.9-0.1,8.7-0.1,10.7c-0.1,4.2-0.1,14.4-0.1,25.7c-0.9,0-1.8,0-2.7,0
		c0.1-1.5,0.2-5,0.3-12.9C343.9,109.9,343.7,109.7,343.1,109.3z M329.1,111.3c0.8,0,2.2,0,3,0c0.2,4,0,21.5-0.2,25.3
		c-0.6,0-1.7,0-2.8-0.1C329.1,127.4,329,114.7,329.1,111.3z M314.9,136.7c-0.1-5.8-0.1-14.1,0-16.7c1.3-0.1,4-0.1,5.4,0
		c0.1,3.2,0,13.9-0.1,16.8c-1.1,0-2.2,0-3.3,0C316.1,136.7,315.5,136.7,314.9,136.7z M305.7,111.3c0.9,0,2.2,0,3,0
		c0.2,4,0,21.5-0.2,25.3c-0.6,0-1.7,0-2.8-0.1C305.7,127.4,305.6,114.7,305.7,111.3z M295.9,136.7c-0.1-5.9-0.1-14.2,0-16.8
		c0.8,0,2.1,0,3,0c0.1,3.2,0,14-0.1,16.9c-0.5,0-1,0-1.5,0C296.9,136.8,296.4,136.7,295.9,136.7z M286.7,136.7
		c-0.1-5.9-0.1-14.2,0-16.8c0.8,0,2.1,0,3,0c0.1,3.2,0,14-0.1,16.9c-0.4,0-0.7,0-1.1,0C287.9,136.8,287.3,136.8,286.7,136.7z
		 M288.6,31.9c0.8,0,2.2,0,3,0c0.2,3.9,0,20.7-0.2,25c-1,0-1.9,0-2.8,0C288.6,47.8,288.5,35.3,288.6,31.9z M346.4,60.2
		c0,13.2,0,26.8-0.1,36.8c-1.3,0-2.6,0-3.9,0c0.1-1.6,0.2-5.1,0.3-12.8c0.1-13.9-0.1-14.1-0.7-14.6c-0.3-0.2-0.5-0.4-3.2-0.4
		c-0.1,0-0.1,0-0.2,0c-2.9,0-3.2,0.2-3.5,0.6c-0.4,0.5-0.4,0.5-0.4,14.5c0,5.2,0.1,10.5,0.1,12.6c-3.1,0-6.2,0-9.3,0
		c0.1-1.6,0.2-5.1,0.3-12.8c0.1-13.9-0.1-14.1-0.7-14.6c-0.3-0.2-0.5-0.4-3.2-0.4c-0.1,0-0.1,0-0.2,0c-2.9,0-3.2,0.2-3.5,0.6
		c-0.4,0.5-0.4,0.5-0.4,14.5c0,5.2,0.1,10.5,0.1,12.6c-0.8,0-1.6,0-2.4,0c0.1-1.6,0.2-5.1,0.3-12.8c0.1-13.9-0.1-14.1-0.7-14.6
		c-0.3-0.2-0.5-0.4-3.2-0.4c-0.1,0-0.1,0-0.2,0c-2.9,0-3.2,0.2-3.5,0.6c-0.4,0.5-0.4,0.5-0.4,14.5c0,5.3,0.1,10.5,0.1,12.6
		c-0.7,0-1.4,0-2,0c0.1-1.3,0.1-3.7,0.1-8.4c0.1-9.6,0-9.7-0.3-10.1c-0.3-0.4-0.6-0.7-5.9-0.6c-2.9,0-3.3,0.2-3.7,0.7
		c-0.3,0.4-0.5,0.6-0.3,18.5c-0.4,0-0.8,0-1.1,0c0.1-1.3,0.1-3.7,0.1-8.5c0.1-9.6,0-9.7-0.3-10.1c-0.3-0.4-0.6-0.7-5.9-0.6
		c-2.8,0-3.2,0.2-3.6,0.7c-0.3,0.4-0.5,0.6-0.3,18.5c-1.4,0-2.4,0-3.1,0c0-12.1,0-24.6-0.1-36.7C288.6,60.2,321.1,60.2,346.4,60.2z
		 M298,40.6c1.3-0.1,4-0.1,5.4,0c0.1,3,0,12.8-0.1,16.3c-1.8,0-3.6,0-5.2,0C298,51.1,298,43.2,298,40.6z M309.8,31.9
		c0.8,0,2.2,0,3,0c0.2,3.9,0,20.5-0.2,24.9c-0.9,0-1.9,0-2.8,0C309.8,47.8,309.7,35.3,309.8,31.9z M315.3,44.5c0-2.7,0-5,0-6.7
		c0.7,1.9,1.7,4.6,3,8.3c1.6,4.3,3.1,8.5,4,10.9c-2.5,0-4.9,0-7.3,0C315.1,55.1,315.2,51.6,315.3,44.5z M325.1,56.9
		c-0.1,0-0.1,0-0.2,0c-3.2-8.6-7.5-20.4-8.6-23.6c0.8-0.3,2-0.8,2.8-1c1.6,3.7,7.3,20.2,8.4,23.9C327,56.3,326.1,56.6,325.1,56.9z
		 M336.7,40.6c1.3-0.1,4-0.1,5.4,0c0.1,3,0,12.8-0.1,16.3c-1.7,0-3.5,0-5.2,0C336.7,51,336.6,43.1,336.7,40.6z M353.4,31.9
		c0.8,0,2.2,0,3,0c0.2,3.9,0,20.6-0.2,25c-0.9,0-1.8,0-2.8,0C353.4,47.8,353.3,35.3,353.4,31.9z M376.6,60.4
		c10.4,0.3,32,0.3,36.9,0.3c0,11.3,0,23.8-0.1,36.6c-0.3,0-0.6,0-0.9,0c0.1-1.2,0.1-3.7,0.2-8.7c0.1-9.6,0-9.7-0.3-10.1
		c-0.3-0.4-0.6-0.7-5.9-0.6c-2.8,0-3.2,0.2-3.6,0.7c-0.3,0.4-0.5,0.6-0.3,18.6c-0.4,0-0.8,0-1.2,0c0.1-1.3,0.1-3.7,0.2-8.6
		c0.1-9.6,0-9.7-0.3-10.1c-0.3-0.4-0.6-0.7-5.9-0.6c-2.9,0-3.3,0.2-3.7,0.7c-0.3,0.4-0.5,0.6-0.3,18.5c-0.5,0-1,0-1.6,0
		c0.1-1.6,0.2-5,0.3-12.9c0.1-13.9-0.1-14.1-0.7-14.6c-0.3-0.2-0.5-0.4-3.2-0.4c-0.1,0-0.1,0-0.2,0c-2.9,0-3.2,0.2-3.5,0.6
		c-0.4,0.5-0.4,0.5-0.4,14.5c0,5.3,0.1,10.6,0.1,12.6c-0.6,0-1.2,0-1.8,0c0.1-1.6,0.2-5,0.3-12.8c0.1-13.9-0.1-14.1-0.7-14.6
		c-0.3-0.2-0.6-0.4-3.4-0.4c-2.9,0-3.2,0.2-3.5,0.6c-0.4,0.5-0.4,0.5-0.4,14.5c0,5.3,0.1,10.5,0.1,12.6c-0.6,0-1.2,0-1.8,0
		c0.1-1.3,0.1-3.7,0.1-8.5c0.1-9.6,0-9.7-0.3-10.1c-0.3-0.4-0.6-0.7-5.9-0.6c-2.9,0-3.3,0.2-3.7,0.7c-0.3,0.4-0.5,0.6-0.3,18.4
		c-0.6,0-1.2,0-1.9,0c0.1-1.6,0.2-5.1,0.3-12.8c0.1-13.9-0.1-14.1-0.7-14.6c-0.3-0.2-0.5-0.4-3.2-0.4c-0.1,0-0.1,0-0.2,0
		c-2.9,0-3.2,0.2-3.5,0.6c-0.4,0.5-0.4,0.5-0.4,14.5c0,5.2,0.1,10.5,0.1,12.6c-1,0-2,0-3,0c0.1-10,0.1-23.6,0.1-36.8
		C361.9,60.3,372.7,60.3,376.6,60.4z M362.9,31.9c0.8,0,2,0,2.8,0c0.2,3.9,0,20.7-0.2,25c-0.8,0-1.7,0-2.5,0
		C362.9,47.8,362.8,35.3,362.9,31.9z M371.9,40.5c0.8,0,2.1,0,3,0c0.1,3.1,0,13.1-0.1,16.5c-0.8,0-1.8,0-2.9,0
		C371.9,51.2,371.9,43.1,371.9,40.5z M381.2,40.5c0.8,0,2.1,0,3,0c0.1,3.1,0,13.5-0.1,16.7c-1,0-1.9,0-2.8,0
		C381.2,51.3,381.1,43.2,381.2,40.5z M390.2,31.9c0.8,0,2,0,2.8,0c0.2,4,0,21.5-0.2,25.3c-0.6,0-1.5,0-2.5-0.1
		C390.2,48,390.1,35.4,390.2,31.9z M401.9,56.2c-0.8,0.1-0.8-0.9-0.8-1.1c0-0.8,0-1-0.3-1.3c-0.2-0.1-0.4-0.2-0.6-0.2l-0.1,0
		c0,0-0.1,0-0.1,0c-0.6,0-1-0.5-1-1c0-0.1,0-0.1,0-0.2c0-0.1,0-0.1,0-0.2l0-0.1c0.2-0.5,0.1-1.1-0.1-1.5c0,0-0.4-0.8-0.4-1.6
		c0-5.9,3.8-6.8,6.1-6.8c2.3,0,6.1,0.9,6.1,6.8c0,0.8-0.4,1.6-0.4,1.6c-0.2,0.4-0.3,1.1-0.1,1.5l0,0.1c0,0,0,0.1,0,0.1l0,0
		c0,0.1,0,0.1,0,0.2c0,0.6-0.5,1-1,1c0,0-0.1,0-0.1,0l-0.1,0c-0.2,0-0.4,0-0.6,0.2c-0.3,0.2,0.1,2.4-0.7,2.4c-0.9,0-0.4-2.4-1.2-2.4
		c-0.7,0,0,2.9-0.9,2.9c-1,0.1-0.6-2.1-0.8-2.4c-0.1-0.1-0.2-0.2-0.4-0.2c-0.5,0-0.4,0.8-0.4,1.4s-0.1,1.1-0.5,1.1s-0.6-0.4-0.6-0.6
		l0-0.8c0,0,0.2-1.4-0.5-1.4C402,53.9,402.5,56.1,401.9,56.2z M404.9,80.4c1.3-0.1,4-0.1,5.4,0c0.1,3.2,0,13.9-0.1,16.9
		c-1,0.1-3.2,0-5.2-0.1C404.9,91.2,404.8,83,404.9,80.4z M393.8,97.1c-0.1-5.8-0.1-14.1,0-16.7c1.3-0.1,4-0.1,5.4,0
		c0.1,3.2,0,13.9-0.1,16.8c-1.3,0-2.6,0-4,0C394.6,97.1,394.2,97.1,393.8,97.1z M384.7,71.7c0.8,0,2.2,0,3,0c0.2,4,0,21.5-0.2,25.3
		c-0.6,0-1.7,0-2.8-0.1C384.6,87.8,384.6,75.2,384.7,71.7z M375.3,71.7c0.8,0,2.2,0,3,0c0.2,4,0,21.5-0.2,25.3c-0.6,0-1.7,0-2.8-0.1
		C375.3,87.8,375.2,75.2,375.3,71.7z M363.5,80.4c1.3-0.1,4-0.1,5.4,0c0.1,3.2,0,13.6-0.1,16.7c-1.7,0-3.5,0-5.2,0
		C363.5,91.2,363.5,83,363.5,80.4z M354.1,96.9c-0.1-9.1-0.1-21.8,0-25.2c0.8,0,2.2,0,3,0c0.2,4,0,21.5-0.2,25.3c-0.4,0-0.9,0-1.3,0
		C355.2,97,354.7,97,354.1,96.9z M337.3,96.9c-0.1-9.1-0.1-21.8,0-25.2c0.8,0,2.2,0,3,0c0.2,4,0,21.5-0.2,25.3c-0.5,0-1,0-1.5,0
		C338.2,97,337.8,97,337.3,96.9z M320.5,96.9c-0.1-9.1-0.1-21.8,0-25.2c0.8,0,2.2,0,3,0c0.2,4,0,21.5-0.2,25.3c-0.4,0-0.9,0-1.3,0
		C321.5,97,321,97,320.5,96.9z M310.6,96.9c-0.1-9.1-0.1-21.8,0-25.2c0.8,0,2.2,0,3,0c0.2,4,0,21.5-0.2,25.3c-0.4,0-0.7,0-1.1,0
		C311.7,97,311.2,97,310.6,96.9z M298.5,80.4c1.3-0.1,4-0.1,5.4,0c0.1,3.2,0,13.6-0.1,16.7c-1.8,0-3.6,0-5.2,0
		C298.5,91.2,298.4,83,298.5,80.4z M287.3,80.4c1.3-0.1,4-0.1,5.4,0c0.1,3.2,0,13.6-0.1,16.7c-1.9,0-3.7,0-5.2,0
		C287.3,91.2,287.3,83,287.3,80.4z M348.6,111.1c0.1-2,0.1-5.8,0.1-10.7c26.8,0,53.7,0.1,64.7,0.3c0,12.3-0.1,24.7-0.1,36.4
		c-1.8,0-4.1-0.1-6.7-0.1c0.1-1.3,0.1-3.7,0.1-8.6c0.1-9.6,0-9.7-0.3-10.1c-0.3-0.4-0.6-0.7-5.9-0.6c-2.8,0-3.2,0.2-3.6,0.7
		c-0.3,0.4-0.5,0.6-0.3,18.5c-0.7,0-1.3,0-2,0c0.1-1.6,0.2-5,0.3-12.8c0.1-13.9-0.1-14.1-0.7-14.6c-0.3-0.2-0.5-0.4-3.2-0.4
		c-0.1,0-0.1,0-0.2,0c-2.9,0-3.2,0.2-3.5,0.6c-0.1,0.1-0.2,0.2-0.2,0.5c-0.4-0.1-1-0.3-1.8-0.5c-2.8-0.8-3.1-0.7-3.5-0.3
		c-0.5,0.3-0.5,0.4-4.3,13.9c-1.8,6.6-3.6,13.1-3.6,13.1c0,0.2,0,0.4,0,0.5c-0.9,0-1.9,0-2.8,0c0.1-1.3,0.1-3.8,0.1-8.4
		c0.1-9.6,0-9.7-0.3-10.1c-0.3-0.4-0.6-0.7-5.9-0.6c-2.9,0-3.3,0.2-3.7,0.7c-0.3,0.4-0.5,0.6-0.3,18.4c-0.6,0-1.2,0-1.9,0
		c0.1-1.6,0.2-5.1,0.3-12.7c0.1-13.9-0.1-14.1-0.7-14.6c-0.3-0.2-0.5-0.4-3.2-0.4c-0.1,0-0.1,0-0.2,0c-2.9,0-3.2,0.2-3.5,0.6
		c-0.4,0.5-0.4,0.5-0.4,14.5c0,5.2,0.1,10.3,0.1,12.5c-1.1,0-2.2,0-3.3,0C348.5,125.5,348.5,115.3,348.6,111.1z M399,136.9
		c-0.1-5.8-0.1-14.1,0-16.7c1.3-0.1,4-0.1,5.4,0c0.1,3.2,0,13.8-0.1,16.8c-1.5,0-3.1,0-4.8,0C399.3,136.9,399.2,136.9,399,136.9z
		 M376.6,135.9c2.4-8.8,5.7-21,6.8-24.3c0.8,0.2,2.1,0.5,2.9,0.8c-0.9,3.9-5.8,20.7-7,24.3C378.6,136.6,377.6,136.3,376.6,135.9z
		 M385.2,125.1c0.7-2.5,1.3-4.5,1.8-6.1c0,1.5,0,3.2,0,5.3c0,5.2,0.1,10.5,0.1,12.6c-1.7,0-3.5,0-5.4,0
		C382.3,135.1,383.3,131.8,385.2,125.1z M389.4,111.5c0.8,0,2.2,0,3,0c0.2,4,0,21.5-0.2,25.3c-0.6,0-1.7,0-2.8-0.1
		C389.4,127.6,389.3,115,389.4,111.5z M363.5,120.2c1.3-0.1,4-0.1,5.4,0c0.1,3.1,0,13.4-0.1,16.6c-1.7,0-3.5,0-5.2,0
		C363.5,130.9,363.5,122.8,363.5,120.2z M354.1,136.7c-0.1-9.1-0.1-21.8,0-25.2c0.8,0,2.2,0,3,0c0.2,4,0,21.3-0.2,25.2
		c-0.8,0-1.7,0-2.5,0C354.3,136.8,354.2,136.8,354.1,136.7z M413.3,17.3c0.1,4.5,0.2,20,0.2,40.1c-1.2,0-5.4,0.1-5.3,0.1
		c0.3,0,0.7-0.1,0.9-0.2c0.8-0.3,1-1.4,1-1.5c1.2-0.2,2.2-1.6,2.2-2.8c0-0.1,0-0.3,0-0.4c0,0,0,0,0,0c0,0,0,0,0,0
		c0-0.1-0.1-0.2-0.1-0.3c0,0,0,0,0-0.1l-0.1-0.2c0,0,0,0,0,0c0-0.1,0-0.2,0.1-0.4c0,0,0.4-2.2,0.4-3.4c0-5.2-2.9-8.2-7.6-8.2
		c-4.7,0-8.5,3.1-8.5,8.2c0,1.1,0.6,3.1,0.6,3.1c0.1,0.1,0,0.1,0,0.1c0,0-0.9,3.7,2.5,3.9c0,0.4,0.1,1,0.2,1.4
		c0.3,0.6,1.3,0.8,1.5,0.8c0.2,0-3.9-0.2-6.3-0.2c0.1-1.6,0.2-5,0.3-12.9c0.1-13.9-0.1-14.1-0.7-14.6c-0.3-0.2-0.5-0.4-3.2-0.4
		c-2.8,0-3,0.2-3.4,0.6c-0.4,0.5-0.4,0.5-0.4,14.5c0,5.3,0.1,10.5,0.1,12.6c-0.5,0-0.9,0-1.4,0c0.1-1.3,0.1-3.7,0.1-8.4
		c0.1-9.6,0-9.7-0.3-10.1c-0.3-0.4-0.5-0.7-4.2-0.6c-2.1,0-2.6,0.2-3,0.7c-0.3,0.4-0.5,0.6-0.3,18.3c-0.6,0-1.1,0-1.6,0
		c0.1-1.3,0.1-3.8,0.1-8.3c0.1-9.6,0-9.7-0.3-10.1c-0.3-0.4-0.5-0.7-4.2-0.6c-2.1,0-2.6,0.2-3,0.7c-0.3,0.4-0.5,0.6-0.3,18.2
		c-0.5,0-1.1,0-1.7,0c0.1-1.7,0.2-5.2,0.3-12.5c0.1-13.9-0.1-14.1-0.7-14.6c-0.3-0.2-0.5-0.4-3.2-0.4c-2.8,0-3,0.2-3.4,0.6
		c-0.4,0.5-0.4,0.5-0.4,14.5c0,5,0.1,10,0.1,12.3c-0.6,0-1.3,0-1.9,0c0.1-1.7,0.2-5.2,0.3-12.5c0.1-13.9-0.1-14.1-0.7-14.6
		c-0.3-0.2-0.5-0.4-3.2-0.4c-0.1,0-0.1,0-0.2,0c-2.9,0-3.2,0.2-3.5,0.6c-0.4,0.5-0.4,0.5-0.4,14.5c0,5,0.1,9.9,0.1,12.2
		c-0.7,0-1.5,0-2.2,0c0-17.7-0.1-34.2-0.2-39.9C379.4,16.9,407.1,17,413.3,17.3z M281.8,17.8c5.7-0.4,30.1-0.7,64.5-0.8
		c0.1,5.6,0.2,22.1,0.2,39.9c-0.7,0-1.4,0-2.1,0c0.1-1.4,0.1-3.8,0.1-8.1c0.1-9.6,0-9.7-0.3-10.1c-0.3-0.4-0.6-0.7-5.9-0.6
		c-2.8,0-3.2,0.2-3.6,0.7c-0.3,0.4-0.5,0.6-0.3,18.1c-1.4,0-2.8,0-4.2,0c0-0.1,0-0.1,0-0.2c0-0.3,0.1-0.8-4.4-13.6
		c-4.6-13.2-4.9-13.2-5.6-13.5c-0.3-0.1-0.6-0.2-3.3,0.8c-0.7,0.3-1.3,0.5-1.7,0.7c-0.1-0.9-0.3-1-0.5-1.2c-0.3-0.2-0.6-0.4-3.4-0.4
		c-2.9,0-3.2,0.2-3.5,0.6c-0.4,0.5-0.4,0.5-0.4,14.5c0,5,0.1,9.9,0.1,12.2c-0.6,0-1.2,0-1.8,0c0.1-1.4,0.1-3.8,0.1-8.1
		c0.1-9.6,0-9.7-0.3-10.1c-0.3-0.4-0.6-0.7-5.9-0.6c-2.8,0-3.2,0.2-3.6,0.7c-0.3,0.4-0.5,0.6-0.3,18.1c-0.6,0-1.2,0-1.8,0
		c0.1-1.7,0.2-5.2,0.3-12.5c0.1-13.9-0.1-14.1-0.7-14.6c-0.3-0.2-0.5-0.4-3.4-0.4c-2.9,0-3.2,0.2-3.5,0.6c-0.4,0.5-0.4,0.5-0.4,14.5
		c0,5,0.1,10.1,0.1,12.3c-1.9,0-3.4,0-4.4,0.1C281.8,43.1,281.8,29.6,281.8,17.8z M282,140.2c6.1,0,34.7-0.1,64.1-0.1
		c0,16.7,0.2,34.8,0.2,39.6c-1.5,0-3.1,0-4.7,0c0.1-1.4,0.1-3.8,0.1-8.1c0.1-9.6,0-9.7-0.3-10.1c-0.3-0.4-0.6-0.7-5.9-0.6
		c-2.8,0-3.2,0.2-3.6,0.7c-0.3,0.4-0.5,0.6-0.3,18.1c-0.6,0-1.3,0-1.9,0c0.1-1.8,0.2-5.3,0.2-12.1c0.1-13.9-0.1-14.1-0.7-14.6
		c-0.3-0.2-0.5-0.4-3.1-0.4c0,0-0.1,0-0.1,0c-2.8,0-3,0.2-3.4,0.6c-0.4,0.5-0.4,0.5-0.4,14.5c0,4.7,0,9.4,0.1,11.9
		c-0.4,0-0.9,0-1.3,0c0.1-1.4,0.1-3.8,0.1-7.7c0.1-9.6,0-9.7-0.3-10.1c-0.3-0.4-0.5-0.7-4.2-0.6c-2,0-2.6,0.2-3,0.7
		c-0.3,0.4-0.5,0.6-0.3,17.7c-0.5,0-1,0-1.6,0c0.1-1.4,0.1-3.8,0.1-7.7c0.1-9.6,0-9.7-0.3-10.1c-0.3-0.4-0.5-0.7-4.2-0.6
		c-2,0-2.6,0.2-3,0.7c-0.3,0.4-0.5,0.6-0.3,17.7c-0.6,0-1.1,0-1.7,0c0.1-1.8,0.2-5.3,0.2-12.1c0.1-13.9-0.1-14.1-0.7-14.6
		c-0.3-0.2-0.5-0.4-3.2-0.4c-2.8,0-3,0.2-3.4,0.6c-0.4,0.5-0.4,0.5-0.4,14.5c0,4.7,0,9.4,0.1,11.9c-0.6,0-1.3,0-1.9,0
		c0.1-1.9,0.2-5.3,0.2-12.1c0.1-13.9-0.1-14.1-0.7-14.6c-0.3-0.2-0.5-0.4-3.4-0.4c-2.9,0-3.2,0.2-3.5,0.6c-0.4,0.5-0.4,0.5-0.4,14.5
		c0,4.7,0,9.4,0.1,11.8c-1,0-2.1,0-3.1,0C282.3,174.8,282.1,159.9,282,140.2z M186.7,121.2l-1.1,0v-14c0-0.5,0.1-2.1,1.1-3.1
		c0.7-0.6,1.7-0.9,3-0.8c3.2,0.2,3.4,3.5,3.4,4.2c0,1,0,9.8,0,13.8C191,121.3,188.9,121.2,186.7,121.2z M157.9,109.6
		c-0.6-4.4-0.9-23.2-1-29.4c8-1.1,55.6-1.4,63.4-1.1c0.3,4.1,0.2,19.2,0,29.5c-2.4,0.2-8.8,0.4-23.9,0.7c0-0.9,0-1.6,0-1.9
		c0-2.6-1.5-7.2-6.6-7.5c-2.3-0.1-4.1,0.5-5.5,1.7c-1.9,1.8-2.1,4.5-2.1,5.5v2.3C166.2,109.8,160,109.8,157.9,109.6z M126.1,117.9
		c2.4-0.1,8.5,0,14.3,0.1c0,1.2,0,2.4,0,3.2c-3,0-5.8,0-8.3,0c-2.2,0-4.1,0-5.9,0C126.1,120,126.1,118.7,126.1,117.9z M110.8,179.6
		c-0.6-19.4-1.3-48.6-0.9-54.8c6.8-0.3,41.3-0.3,76.8-0.2l8.1,0.3c0,0,0,0,0.1,0c0.3,0,0.6-0.1,0.9-0.3c22.7,0.1,44.9,0.1,59.5,0.2
		c0.5,19.5,0.9,49.1,0.4,54.8c-0.2,0-0.4,0-0.7,0.1c-46,0-94.3,0-135.5,0C116.5,179.6,113.6,179.6,110.8,179.6z"/>
	<path d="M204.4,86.7c0.1,0,0.1,0,0.2,0c0.8,0,1.6-0.6,1.7-1.5c0.1-0.9-0.6-1.8-1.5-1.9c-3-0.4-29,0-32,0c-0.9,0-1.7,0.8-1.7,1.7
		c0,0.9,0.8,1.7,1.7,1.7c0,0,0,0,0,0C180.9,86.6,202.1,86.4,204.4,86.7z"/>
	<path d="M403.3,49.7c0-1-0.8-1.7-1.7-1.7c-1,0-1.7,0.8-1.7,1.7c0,0.9,0.8,1.7,1.7,1.7C402.5,51.5,403.3,50.7,403.3,49.7z"/>
	<path d="M404.4,52.7h0.7c0.4,0,0.6-0.3,0.4-0.7l-0.5-1c-0.2-0.4-0.5-0.4-0.6,0l-0.5,1C403.8,52.4,404,52.7,404.4,52.7z"/>
	<path d="M407.9,51.5c1,0,1.7-0.8,1.7-1.7c0-1-0.8-1.7-1.7-1.7c-0.9,0-1.7,0.8-1.7,1.7C406.2,50.7,407,51.5,407.9,51.5z"/>
</g>
</svg>
