<?xml version="1.0" encoding="utf-8"?>
<!-- Generator: Adobe Illustrator 22.1.0, SVG Export Plug-In . SVG Version: 6.00 Build 0)  -->
<svg version="1.1" id="Layer_1" xmlns="http://www.w3.org/2000/svg" xmlns:xlink="http://www.w3.org/1999/xlink" x="0px" y="0px"
	 viewBox="0 0 505 166" style="enable-background:new 0 0 505 166;" xml:space="preserve">
<style type="text/css">
	.st0{fill:#40FC81;}
</style>
<title>moon</title>
<desc>Created with Sketch.</desc>
<g>
	<polygon class="st0" points="113.2,32 113.2,32 113.3,32.1 	"/>
	<path class="st0" d="M113.3,32.5C113.4,32.5,113.4,32.5,113.3,32.5c0-0.1-0.1-0.2-0.2-0.3C113,32.2,113.5,32.4,113.3,32.5z"/>
	<path class="st0" d="M113.3,32.5c-0.1,0.1,0,0.1,0.1,0.2C113.3,32.6,113.5,32.5,113.3,32.5z"/>
	<path class="st0" d="M119.1,34.3c-0.2-0.1-0.4-0.1-0.7-0.1s-0.6,0.1-0.9,0.2c0,0,0,0,0.1-0.1c-0.7,0.1-1,0.1-1.4,0.2l0,0
		c-0.1,0-0.1,0-0.2,0.1c-0.3-0.8-0.6-1.5-0.8-2c0-0.3,0-0.6-0.2-0.8l-0.1,0.1c0-0.2-0.1-0.2-0.2-0.3c-0.1,0-0.1,0-0.1,0l0,0
		l-0.1-0.1l0,0c-0.1-0.1-0.2,0-0.2,0.2l0,0c-0.1,0.1-0.2,0.2-0.3,0.4c0,0,0,0,0,0.1c0,0,0,0.1-0.1,0.1c0,0-0.1,0-0.2,0
		c0-0.1-0.2,0.1-0.2-0.1c-0.1,0-0.1,0.3,0,0.3s0.2,0.1,0.2,0.1c-0.1,0.5-0.3,1.4-0.5,2.6c-0.1,0-0.2,0-0.2,0.1c-0.1,0-0.1,0-0.2,0
		c0-0.1,0-0.2,0-0.3h0.1c-0.2-0.7,0-1.3,0.2-2c-0.1,0-0.1,0.1-0.2,0c-0.1,0.2,0.1,0.4-0.1,0.6h-0.1c-0.1,0.1,0.2,0.1,0.1,0.2
		c-0.1,0-0.1,0-0.1,0c0,0.3-0.1,0.6,0,0.9c-0.2,0-0.1,0.3-0.2,0.4c0.1,0.1,0,0.2,0.1,0.2l0,0c-0.6,0-1.1,0.1-1.7,0.1
		c-0.4,0-0.7,0.1-0.9,0.3c-0.1,0.2,0,0.3,0.1,0.4s0.3,0.2,0.4,0.3h-0.1c0.7,0.3,1.3,0.7,1.8,1.1c0,0.3-0.1,0.5-0.2,0.8
		c0.1,0.3,0,0.7-0.1,1.1c-0.1,0.4-0.1,0.8,0.1,1l0,0c0.3,0.1,0.5-0.1,0.7-0.2c0.1-0.1,0.1-0.2,0.2-0.3c0.5-0.2,1.1-0.7,1.6-1.1
		c0.2,0.1,0.4,0.2,0.5,0.3c0.2,0.1,0.3,0.2,0.5,0.3c0.1,0.1,0.2,0.1,0.3,0.2c0.2,0.3,0.6,0.5,0.9,0.6l0.1,0.1
		c0.6,0.4,0.8,0.4,0.8,0.1c0.1-0.2,0.1-0.4,0.1-0.7c-0.1-0.4-0.2-0.7-0.4-1c-0.2-0.4-0.4-0.7-0.6-1.1c0-0.1-0.1-0.2-0.1-0.3
		c0.7-0.5,1.4-1,2.1-1.5c0.2-0.2,0.3-0.4,0.3-0.6C119.4,34.7,119.3,34.4,119.1,34.3z M112.9,37.4c-0.1,0.4-0.2,0.7-0.3,1.1
		c0-0.2,0.1-0.5,0.1-0.7l0,0c0-0.1-0.1-0.1-0.1-0.2c0,0,0,0,0.1,0C112.9,37.7,112.9,37.5,112.9,37.4L112.9,37.4z M117.8,35.9
		c0.2-0.1,0.3-0.2,0.4-0.3C118.2,35.7,118,35.8,117.8,35.9z M118.3,35.5L118.3,35.5C118.4,35.5,118.4,35.5,118.3,35.5L118.3,35.5z"
		/>
</g>
<g>
	<polygon class="st0" points="479.1,80.1 479.1,80.1 479.2,80.2 	"/>
	<path class="st0" d="M479.2,80.6C479.3,80.6,479.3,80.6,479.2,80.6c0-0.1-0.1-0.2-0.2-0.3C478.9,80.3,479.4,80.5,479.2,80.6z"/>
	<path class="st0" d="M479.2,80.6c-0.1,0.1,0,0.1,0.1,0.2C479.2,80.7,479.4,80.6,479.2,80.6z"/>
	<path class="st0" d="M485,82.4c-0.2-0.1-0.4-0.1-0.7-0.1s-0.6,0.1-0.9,0.2c0,0,0,0,0.1-0.1c-0.7,0.1-1,0.1-1.4,0.2l0,0
		c-0.1,0-0.1,0-0.2,0.1c-0.3-0.8-0.6-1.5-0.8-2c0-0.3,0-0.6-0.2-0.8l-0.1,0.1c0-0.2-0.1-0.2-0.2-0.3c-0.1,0-0.1,0-0.1,0l0,0
		l-0.1-0.1l0,0c-0.1-0.1-0.2,0-0.2,0.2l0,0c-0.1,0.1-0.2,0.2-0.3,0.4c0,0,0,0,0,0.1c0,0,0,0.1-0.1,0.1c0,0-0.1,0-0.2,0
		c0-0.1-0.2,0.1-0.2-0.1c-0.1,0-0.1,0.3,0,0.3s0.2,0.1,0.2,0.1c-0.1,0.5-0.3,1.4-0.5,2.6c-0.1,0-0.2,0-0.2,0.1c-0.1,0-0.1,0-0.2,0
		c0-0.1,0-0.2,0-0.3h0.1c-0.2-0.7,0-1.3,0.2-2c-0.1,0-0.1,0.1-0.2,0c-0.1,0.2,0.1,0.4-0.1,0.6h-0.1c-0.1,0.1,0.2,0.1,0.1,0.2
		c-0.1,0-0.1,0-0.1,0c0,0.3-0.1,0.6,0,0.9c-0.2,0-0.1,0.3-0.2,0.4c0.1,0.1,0,0.2,0.1,0.2l0,0c-0.6,0-1.1,0.1-1.7,0.1
		c-0.4,0-0.7,0.1-0.9,0.3c-0.1,0.2,0,0.3,0.1,0.4s0.3,0.2,0.4,0.3h-0.1c0.7,0.3,1.3,0.7,1.8,1.1c0,0.3-0.1,0.5-0.2,0.8
		c0.1,0.3,0,0.7-0.1,1.1s-0.1,0.8,0.1,1l0,0c0.3,0.1,0.5-0.1,0.7-0.2c0.1-0.1,0.1-0.2,0.2-0.3c0.5-0.2,1.1-0.7,1.6-1.1
		c0.2,0.1,0.4,0.2,0.5,0.3c0.2,0.1,0.3,0.2,0.5,0.3c0.1,0.1,0.2,0.1,0.3,0.2c0.2,0.3,0.6,0.5,0.9,0.6l0.1,0.1
		c0.6,0.4,0.8,0.4,0.8,0.1c0.1-0.2,0.1-0.4,0.1-0.7c-0.1-0.4-0.2-0.7-0.4-1c-0.2-0.4-0.4-0.7-0.6-1.1c0-0.1-0.1-0.2-0.1-0.3
		c0.7-0.5,1.4-1,2.1-1.5c0.2-0.2,0.3-0.4,0.3-0.6C485.3,82.8,485.2,82.5,485,82.4z M478.8,85.5c-0.1,0.4-0.2,0.7-0.3,1.1
		c0-0.2,0.1-0.5,0.1-0.7l0,0c0-0.1-0.1-0.1-0.1-0.2c0,0,0,0,0.1,0C478.8,85.8,478.8,85.6,478.8,85.5L478.8,85.5z M483.7,84
		c0.2-0.1,0.3-0.2,0.4-0.3C484.1,83.8,483.9,83.9,483.7,84z M484.2,83.6L484.2,83.6C484.3,83.6,484.3,83.6,484.2,83.6L484.2,83.6z"
		/>
</g>
<g>
	<polygon class="st0" points="378.9,25.4 378.9,25.5 379,25.6 	"/>
	<path class="st0" d="M379,25.9C379.1,25.9,379.1,25.9,379,25.9c0-0.1-0.1-0.2-0.2-0.3C378.7,25.7,379.2,25.9,379,25.9z"/>
	<path class="st0" d="M379,26c-0.1,0.1,0,0.1,0.1,0.2C379,26.1,379.1,26,379,26z"/>
	<path class="st0" d="M384.8,27.7c-0.2-0.1-0.4-0.1-0.7-0.1s-0.6,0.1-0.9,0.2c0,0,0,0,0.1-0.1c-0.7,0.1-1,0.1-1.4,0.2l0,0
		c-0.1,0-0.1,0-0.2,0.1c-0.3-0.8-0.6-1.5-0.8-2c0-0.3,0-0.6-0.2-0.8l-0.1,0.1c0-0.2-0.1-0.2-0.2-0.3c-0.1,0-0.1,0-0.1,0l0,0
		l-0.1-0.1l0,0c-0.1-0.1-0.2,0-0.2,0.2l0,0c-0.1,0.1-0.2,0.2-0.3,0.4c0,0,0,0,0,0.1c0,0,0,0.1-0.1,0.1c0,0-0.1,0-0.2,0
		c0-0.1-0.2,0.1-0.2-0.1c-0.1,0-0.1,0.3,0,0.3s0.2,0.1,0.2,0.1c-0.1,0.5-0.3,1.4-0.5,2.6c-0.1,0-0.2,0-0.2,0.1c-0.1,0-0.1,0-0.2,0
		c0-0.1,0-0.2,0-0.3h0.1c-0.2-0.7,0-1.3,0.2-2c-0.1,0-0.1,0.1-0.2,0c-0.1,0.2,0.1,0.4-0.1,0.6h-0.1c-0.1,0.1,0.2,0.1,0.1,0.2
		c-0.1,0-0.1,0-0.1,0c0,0.3-0.1,0.6,0,0.9c-0.2,0-0.1,0.3-0.2,0.4c0.1,0.1,0,0.2,0.1,0.2l0,0c-0.6,0-1.1,0.1-1.7,0.1
		c-0.4,0-0.7,0.1-0.9,0.3c-0.1,0.2,0,0.3,0.1,0.4s0.3,0.2,0.4,0.3h-0.1c0.7,0.3,1.3,0.7,1.8,1.1c0,0.3-0.1,0.5-0.2,0.8
		c0.1,0.3,0,0.7-0.1,1.1s-0.1,0.8,0.1,1l0,0c0.3,0.1,0.5-0.1,0.7-0.2c0.1-0.1,0.1-0.2,0.2-0.3c0.5-0.2,1.1-0.7,1.6-1.1
		c0.2,0.1,0.4,0.2,0.5,0.3c0.2,0.1,0.3,0.2,0.5,0.3c0.1,0.1,0.2,0.1,0.3,0.2c0.2,0.3,0.6,0.5,0.9,0.6l0.1,0.1
		c0.6,0.4,0.8,0.4,0.8,0.1c0.1-0.2,0.1-0.4,0.1-0.7c-0.1-0.4-0.2-0.7-0.4-1c-0.2-0.4-0.4-0.7-0.6-1.1c0-0.1-0.1-0.2-0.1-0.3
		c0.7-0.5,1.4-1,2.1-1.5c0.2-0.2,0.3-0.4,0.3-0.6C385.1,28.1,385,27.8,384.8,27.7z M378.6,30.9c-0.1,0.4-0.2,0.7-0.3,1.1
		c0-0.2,0.1-0.5,0.1-0.7l0,0c0-0.1-0.1-0.1-0.1-0.2c0,0,0,0,0.1,0C378.6,31.1,378.6,31,378.6,30.9L378.6,30.9z M383.5,29.4
		c0.2-0.1,0.3-0.2,0.4-0.3C383.8,29.2,383.7,29.3,383.5,29.4z M384,28.9L384,28.9C384,28.9,384.1,28.9,384,28.9L384,28.9z"/>
</g>
<g>
	<path class="st0" d="M17.2,33c-0.2-1,0.5-2.8,2.1-3.3c2.5-0.8,3.9,2.1,3.8,2.9c0,0.8-1.7,2.5-3.1,2.7C18.6,35.4,17.4,33.9,17.2,33z
		"/>
	<g>
		<path class="st0" d="M16.6,33.1L16.6,33.1L16.6,33.1z"/>
		<path class="st0" d="M16.8,33.2C16.8,33.2,16.9,33.2,16.8,33.2c0,0-0.1,0-0.2-0.1C16.4,33.2,16.9,33.2,16.8,33.2z"/>
		<path class="st0" d="M16.8,33.3C16.7,33.4,16.9,33.3,16.8,33.3C16.8,33.3,16.9,33.2,16.8,33.3z"/>
		<path class="st0" d="M19,35.6L19,35.6L19,35.6z"/>
		<path class="st0" d="M19.9,35.2L19.9,35.2c-0.1,0.1-0.3-0.1-0.4,0l0,0c-0.3-0.1-0.7-0.1-1.1-0.2l0,0c0,0-0.1,0.1-0.1,0l0,0
			c0-0.2-0.3-0.1-0.2-0.2c0,0-0.1,0-0.1,0.1c-0.3-0.2-0.5-0.4-0.8-0.6l0.1-0.1c-0.4-0.1-0.5-0.4-0.5-0.7c-0.1,0-0.1,0.1-0.2,0.1
			c-0.1,0.1,0.2,0.1,0.1,0.2h-0.1c0,0.1,0.2-0.1,0.1,0c0,0.1-0.1,0-0.1,0c0.1,0.1,0.1,0.3,0.3,0.3c-0.1,0.1,0.1,0.1,0,0.3
			c0.1,0,0.1,0,0.2,0c0.2,0.4,0.7,0.7,1,1c0.4-0.2,0.4,0.3,0.7,0.3l0,0c0.1,0,0.2-0.1,0.3,0l0.1-0.1c0.3,0.2,0.6,0.2,0.9,0.1
			c0.3-0.1,0.6-0.2,0.9-0.3c0.6-0.3,1.3-0.5,1.4-1.3l0,0c0.1-0.2,0.3-0.3,0.3-0.4l0,0c0-0.3,0.1-0.5,0.2-0.7c0.1-0.3,0-0.6-0.2-0.7
			c-0.1-0.5-0.4-1-0.8-1.4H22c-0.3-0.2-0.4-0.8-0.9-0.9c-0.1-0.2-0.4-0.2-0.7-0.2c-0.2,0-0.5,0.1-0.7-0.1c-0.1-0.2-0.3,0-0.4,0
			c-0.1,0.1-0.2,0.2-0.4,0.1c-0.7-0.3-1.1,0.3-1.2,0.9c-0.5,0.2-0.3,0.9-0.8,1.1c0.1,0.3-0.4,0.3-0.4,0.6h0.1
			c-0.3,0.1,0.3,0.2,0,0.3l0,0c-0.2,0,0.4,0.1,0.2,0.1h0.1c0,0.1-0.1,0-0.1,0.1c0,0,0.2,0,0.1,0c-0.4,0,0.1,0.1-0.3,0.2
			c0,0-0.1,0.1-0.2,0c0,0,0,0.1,0.2,0.1s0.3,0,0.5-0.1H17c0.1,0,0.1,0,0.2,0c0-0.1,0.2-0.1,0.3-0.1l0,0c-0.2,0-0.1-0.1,0-0.1h0.1
			c0.2,0-0.3-0.1,0,0c-0.1-0.1,0-0.3,0-0.4c-0.1,0,0-0.1-0.2-0.1c0.2,0,0.3-0.1,0.3-0.1l0,0c0.3,0-0.2-0.2,0.1-0.1
			c-0.2-0.1,0.1-0.1-0.1-0.2c0.1,0,0.1,0,0.1,0.1c0.1-0.1,0.2-0.2,0.3-0.3c-0.1-0.2,0.2-0.1,0-0.4c0.1,0,0.3,0,0.2-0.2l0,0
			c0.1-0.1,0.1-0.2,0.1-0.4c0.2,0.2,0.2,0.1,0.3,0.2c0-0.1,0.1-0.2,0.1-0.4c0.1,0.1,0-0.1,0.1,0.1c0-0.5,0.6-0.5,0.9-0.2l0,0
			c0-0.1,0-0.3,0.1-0.5l0,0c0.1,0,0.1,0.1,0.2,0.1c0,0,0,0,0,0.1c0.1-0.1,0.1,0.2,0.2,0v0.1v-0.1c0,0.1,0,0.2,0,0.1
			c0.4,0.1,1,0.1,1.4,0.5h-0.1h0.2c0,0,0,0-0.1,0c0,0.2,0.2,0.2,0.3,0.3c0,0-0.1,0-0.1,0.1c0.2,0-0.1,0.3,0.2,0.1L22,31.4
			c0.3,0.2,0.4,0.4,0.4,0.7c0.4,0.1,0.2,0.4,0.5,0.6h-0.1c0.1,0.1,0.1,0.3,0,0.5c-0.1,0.1-0.2,0.3-0.3,0.4s-0.1,0.2-0.2,0.3
			l-0.1-0.1c0.1,0.4-0.5,0.2-0.5,0.6l-0.1-0.1c0.1,0.2-0.2,0.1,0,0.3h-0.1c0.1,0.4-0.4,0-0.4,0.4v-0.1C21.1,35,21,35,21,35
			s0,0,0-0.1c-0.3-0.1-0.3,0.2-0.5,0.3v-0.1c0,0.2-0.2,0.1-0.3,0.2v-0.1v0.1v-0.1C20.2,35,20.1,35.2,19.9,35.2z"/>
		<path class="st0" d="M18.4,34.9L18.4,34.9C18.4,34.8,18.4,34.8,18.4,34.9z"/>
		<path class="st0" d="M17.7,32.7L17.7,32.7C17.8,32.7,17.7,32.7,17.7,32.7z"/>
	</g>
</g>
<g>
	<path class="st0" d="M181.5,48.3c-0.2-1,0.5-2.8,2.1-3.3c2.5-0.8,3.9,2.1,3.8,2.9c0,0.8-1.7,2.5-3.1,2.7
		C182.9,50.7,181.7,49.2,181.5,48.3z"/>
	<g>
		<path class="st0" d="M180.9,48.4L180.9,48.4L180.9,48.4z"/>
		<path class="st0" d="M181.1,48.5C181.1,48.5,181.2,48.5,181.1,48.5c0,0-0.1,0-0.2-0.1C180.7,48.5,181.2,48.5,181.1,48.5z"/>
		<path class="st0" d="M181.1,48.6C181,48.7,181.2,48.6,181.1,48.6C181.1,48.6,181.2,48.5,181.1,48.6z"/>
		<path class="st0" d="M183.3,50.9L183.3,50.9L183.3,50.9z"/>
		<path class="st0" d="M184.2,50.5L184.2,50.5c-0.1,0.1-0.3-0.1-0.4,0l0,0c-0.3-0.1-0.7-0.1-1.1-0.2l0,0c0,0-0.1,0.1-0.1,0l0,0
			c0-0.2-0.3-0.1-0.2-0.2c0,0-0.1,0-0.1,0.1c-0.3-0.2-0.5-0.4-0.8-0.6l0.1-0.1c-0.4-0.1-0.5-0.4-0.5-0.7c-0.1,0-0.1,0.1-0.2,0.1
			c-0.1,0.1,0.2,0.1,0.1,0.2h-0.1c0,0.1,0.2-0.1,0.1,0c0,0.1-0.1,0-0.1,0c0.1,0.1,0.1,0.3,0.3,0.3c-0.1,0.1,0.1,0.1,0,0.3
			c0.1,0,0.1,0,0.2,0c0.2,0.4,0.7,0.7,1,1c0.4-0.2,0.4,0.3,0.7,0.3l0,0c0.1,0,0.2-0.1,0.3,0l0.1-0.1c0.3,0.2,0.6,0.2,0.9,0.1
			c0.3-0.1,0.6-0.2,0.9-0.3c0.6-0.3,1.3-0.5,1.4-1.3l0,0c0.1-0.2,0.3-0.3,0.3-0.4l0,0c0-0.3,0.1-0.5,0.2-0.7c0.1-0.3,0-0.6-0.2-0.7
			c-0.1-0.5-0.4-1-0.8-1.4h0.1c-0.3-0.2-0.4-0.8-0.9-0.9c-0.1-0.2-0.4-0.2-0.7-0.2c-0.2,0-0.5,0.1-0.7-0.1c-0.1-0.2-0.3,0-0.4,0
			c-0.1,0.1-0.2,0.2-0.4,0.1c-0.7-0.3-1.1,0.3-1.2,0.9c-0.5,0.2-0.3,0.9-0.8,1.1c0.1,0.3-0.4,0.3-0.4,0.6h0.1
			c-0.3,0.1,0.3,0.2,0,0.3l0,0c-0.2,0,0.4,0.1,0.2,0.1h0.1c0,0.1-0.1,0-0.1,0.1c0,0,0.2,0,0.1,0c-0.4,0,0.1,0.1-0.3,0.2
			c0,0-0.1,0.1-0.2,0c0,0,0,0.1,0.2,0.1s0.3,0,0.5-0.1h-0.1c0.1,0,0.1,0,0.2,0c0-0.1,0.2-0.1,0.3-0.1l0,0c-0.2,0-0.1-0.1,0-0.1h0.1
			c0.2,0-0.3-0.1,0,0c-0.1-0.1,0-0.3,0-0.4c-0.1,0,0-0.1-0.2-0.1c0.2,0,0.3-0.1,0.3-0.1l0,0c0.3,0-0.2-0.2,0.1-0.1
			c-0.2-0.1,0.1-0.1-0.1-0.2c0.1,0,0.1,0,0.1,0.1c0.1-0.1,0.2-0.2,0.3-0.3c-0.1-0.2,0.2-0.1,0-0.4c0.1,0,0.3,0,0.2-0.2l0,0
			c0.1-0.1,0.1-0.2,0.1-0.4c0.2,0.2,0.2,0.1,0.3,0.2c0-0.1,0.1-0.2,0.1-0.4c0.1,0.1,0-0.1,0.1,0.1c0-0.5,0.6-0.5,0.9-0.2l0,0
			c0-0.1,0-0.3,0.1-0.5l0,0c0.1,0,0.1,0.1,0.2,0.1c0,0,0,0,0,0.1c0.1-0.1,0.1,0.2,0.2,0v0.1v-0.1c0,0.1,0,0.2,0,0.1
			c0.4,0.1,1,0.1,1.4,0.5h-0.1h0.2c0,0,0,0-0.1,0c0,0.2,0.2,0.2,0.3,0.3c0,0-0.1,0-0.1,0.1c0.2,0-0.1,0.3,0.2,0.1l-0.1,0.1
			c0.3,0.2,0.4,0.4,0.4,0.7c0.4,0.1,0.2,0.4,0.5,0.6h-0.1c0.1,0.1,0.1,0.3,0,0.5c-0.1,0.1-0.2,0.3-0.3,0.4c-0.1,0.1-0.1,0.2-0.2,0.3
			l-0.1-0.1c0.1,0.4-0.5,0.2-0.5,0.6l-0.1-0.1c0.1,0.2-0.2,0.1,0,0.3h-0.1c0.1,0.4-0.4,0-0.4,0.4v-0.1c0,0.1-0.1,0.1-0.1,0.1
			s0,0,0-0.1c-0.3-0.1-0.3,0.2-0.5,0.3v-0.1c0,0.2-0.2,0.1-0.3,0.2v-0.1v0.1v-0.1C184.5,50.3,184.4,50.5,184.2,50.5z"/>
		<path class="st0" d="M182.7,50.2L182.7,50.2C182.7,50.1,182.7,50.1,182.7,50.2z"/>
		<path class="st0" d="M182,48L182,48C182.1,48,182,48,182,48z"/>
	</g>
</g>
<g>
	<path class="st0" d="M41.5,134.7c-0.2-1,0.5-2.8,2.1-3.3c2.5-0.8,3.9,2.1,3.8,2.9c0,0.8-1.7,2.5-3.1,2.7
		C42.9,137.1,41.7,135.6,41.5,134.7z"/>
	<g>
		<path class="st0" d="M40.9,134.8L40.9,134.8L40.9,134.8z"/>
		<path class="st0" d="M41.1,134.9C41.1,134.9,41.2,134.9,41.1,134.9c0,0-0.1,0-0.2-0.1C40.7,134.9,41.2,134.9,41.1,134.9z"/>
		<path class="st0" d="M41.1,135C41,135.1,41.2,135,41.1,135C41.1,135,41.2,134.9,41.1,135z"/>
		<path class="st0" d="M43.3,137.3L43.3,137.3L43.3,137.3z"/>
		<path class="st0" d="M44.2,136.9L44.2,136.9c-0.1,0.1-0.3-0.1-0.4,0l0,0c-0.3-0.1-0.7-0.1-1.1-0.2l0,0c0,0-0.1,0.1-0.1,0l0,0
			c0-0.2-0.3-0.1-0.2-0.2c0,0-0.1,0-0.1,0.1c-0.3-0.2-0.5-0.4-0.8-0.6l0.1-0.1c-0.4-0.1-0.5-0.4-0.5-0.7c-0.1,0-0.1,0.1-0.2,0.1
			c-0.1,0.1,0.2,0.1,0.1,0.2h-0.1c0,0.1,0.2-0.1,0.1,0c0,0.1-0.1,0-0.1,0c0.1,0.1,0.1,0.3,0.3,0.3c-0.1,0.1,0.1,0.1,0,0.3
			c0.1,0,0.1,0,0.2,0c0.2,0.4,0.7,0.7,1,1c0.4-0.2,0.4,0.3,0.7,0.3l0,0c0.1,0,0.2-0.1,0.3,0l0.1-0.1c0.3,0.2,0.6,0.2,0.9,0.1
			c0.3-0.1,0.6-0.2,0.9-0.3c0.6-0.3,1.3-0.5,1.4-1.3l0,0c0.1-0.2,0.3-0.3,0.3-0.4l0,0c0-0.3,0.1-0.5,0.2-0.7c0.1-0.3,0-0.6-0.2-0.7
			c-0.1-0.5-0.4-1-0.8-1.4h0.1c-0.3-0.2-0.4-0.8-0.9-0.9c-0.1-0.2-0.4-0.2-0.7-0.2c-0.2,0-0.5,0.1-0.7-0.1c-0.1-0.2-0.3,0-0.4,0
			c-0.1,0.1-0.2,0.2-0.4,0.1c-0.7-0.3-1.1,0.3-1.2,0.9c-0.5,0.2-0.3,0.9-0.8,1.1c0.1,0.3-0.4,0.3-0.4,0.6h0.1
			c-0.3,0.1,0.3,0.2,0,0.3l0,0c-0.2,0,0.4,0.1,0.2,0.1h0.1c0,0.1-0.1,0-0.1,0.1c0,0,0.2,0,0.1,0c-0.4,0,0.1,0.1-0.3,0.2
			c0,0-0.1,0.1-0.2,0c0,0,0,0.1,0.2,0.1s0.3,0,0.5-0.1h-0.1c0.1,0,0.1,0,0.2,0c0-0.1,0.2-0.1,0.3-0.1l0,0c-0.2,0-0.1-0.1,0-0.1h0.1
			c0.2,0-0.3-0.1,0,0c-0.1-0.1,0-0.3,0-0.4c-0.1,0,0-0.1-0.2-0.1c0.2,0,0.3-0.1,0.3-0.1l0,0c0.3,0-0.2-0.2,0.1-0.1
			c-0.2-0.1,0.1-0.1-0.1-0.2c0.1,0,0.1,0,0.1,0.1c0.1-0.1,0.2-0.2,0.3-0.3c-0.1-0.2,0.2-0.1,0-0.4c0.1,0,0.3,0,0.2-0.2l0,0
			c0.1-0.1,0.1-0.2,0.1-0.4c0.2,0.2,0.2,0.1,0.3,0.2c0-0.1,0.1-0.2,0.1-0.4c0.1,0.1,0-0.1,0.1,0.1c0-0.5,0.6-0.5,0.9-0.2l0,0
			c0-0.1,0-0.3,0.1-0.5l0,0c0.1,0,0.1,0.1,0.2,0.1c0,0,0,0,0,0.1c0.1-0.1,0.1,0.2,0.2,0v0.1v-0.1c0,0.1,0,0.2,0,0.1
			c0.4,0.1,1,0.1,1.4,0.5h-0.1h0.2c0,0,0,0-0.1,0c0,0.2,0.2,0.2,0.3,0.3c0,0-0.1,0-0.1,0.1c0.2,0-0.1,0.3,0.2,0.1l-0.1,0.1
			c0.3,0.2,0.4,0.4,0.4,0.7c0.4,0.1,0.2,0.4,0.5,0.6h-0.1c0.1,0.1,0.1,0.3,0,0.5c-0.1,0.1-0.2,0.3-0.3,0.4c-0.1,0.1-0.1,0.2-0.2,0.3
			l-0.1-0.1c0.1,0.4-0.5,0.2-0.5,0.6l-0.1-0.1c0.1,0.2-0.2,0.1,0,0.3h-0.1c0.1,0.4-0.4,0-0.4,0.4v-0.1c0,0.1-0.1,0.1-0.1,0.1
			s0,0,0-0.1c-0.3-0.1-0.3,0.2-0.5,0.3v-0.1c0,0.2-0.2,0.1-0.3,0.2v-0.1v0.1v-0.1C44.5,136.7,44.4,136.9,44.2,136.9z"/>
		<path class="st0" d="M42.7,136.6L42.7,136.6C42.7,136.5,42.7,136.5,42.7,136.6z"/>
		<path class="st0" d="M42,134.4L42,134.4C42.1,134.4,42,134.4,42,134.4z"/>
	</g>
</g>
<g>
	<path class="st0" d="M481.6,140.3c-0.1-1,0.7-2.8,2.3-3.1c2.6-0.6,3.7,2.4,3.6,3.2s-1.9,2.4-3.3,2.5
		C482.8,142.8,481.7,141.2,481.6,140.3z"/>
	<g>
		<path class="st0" d="M480.9,140.4L480.9,140.4L480.9,140.4z"/>
		<path class="st0" d="M481.1,140.5C481.1,140.5,481.2,140.5,481.1,140.5c0,0-0.1,0-0.2-0.1C480.7,140.4,481.2,140.5,481.1,140.5z"
			/>
		<path class="st0" d="M481.1,140.6C481,140.7,481.2,140.6,481.1,140.6C481.1,140.6,481.2,140.5,481.1,140.6z"/>
		<path class="st0" d="M483.2,143L483.2,143L483.2,143z"/>
		<path class="st0" d="M484.1,142.7L484.1,142.7c-0.1,0.1-0.3-0.1-0.4,0l0,0c-0.3-0.1-0.7-0.2-1.1-0.3l0,0c0,0-0.1,0.1-0.1,0l0,0
			c0-0.2-0.3-0.1-0.2-0.2c0,0-0.1,0-0.1,0.1c-0.3-0.2-0.5-0.4-0.8-0.7l0.1-0.1c-0.4-0.1-0.5-0.4-0.4-0.7c-0.1,0-0.1,0.1-0.2,0.1
			c-0.1,0.1,0.2,0.1,0.1,0.2h-0.1c0,0.1,0.2-0.1,0.1,0c0,0.1-0.1,0-0.1,0c0.1,0.1,0.1,0.3,0.3,0.3c-0.1,0.1,0.1,0.1,0,0.3
			c0.1,0,0.1,0,0.2,0c0.2,0.4,0.6,0.8,0.9,1.1c0.4-0.2,0.4,0.3,0.7,0.4l0,0c0.1,0,0.2-0.1,0.3,0l0.1-0.1c0.3,0.2,0.6,0.2,0.9,0.2
			c0.3-0.1,0.6-0.2,0.9-0.2c0.6-0.3,1.3-0.4,1.5-1.2l0,0c0.1-0.2,0.3-0.3,0.3-0.4l0,0c0-0.3,0.1-0.5,0.3-0.7c0.1-0.3,0-0.6-0.1-0.7
			c-0.1-0.5-0.3-1-0.7-1.5h0.1c-0.3-0.2-0.3-0.8-0.8-1c-0.1-0.2-0.4-0.2-0.7-0.3c-0.2,0-0.5,0.1-0.7-0.2c-0.1-0.2-0.3,0-0.4,0
			c-0.1,0.1-0.2,0.2-0.4,0.1c-0.7-0.4-1.1,0.2-1.3,0.8c-0.5,0.2-0.4,0.9-0.9,1c0.1,0.3-0.4,0.3-0.4,0.6h0.1c-0.3,0.1,0.3,0.2,0,0.3
			l0,0c-0.2,0,0.4,0.1,0.2,0.1h0.1c0,0.1-0.1,0-0.1,0.1c0,0,0.2,0,0.1,0c-0.4,0,0.1,0.1-0.3,0.2c0,0-0.1,0.1-0.2,0
			c0,0,0,0.1,0.2,0.1s0.3,0,0.5-0.1h-0.1c0.1,0,0.1,0,0.2,0c0-0.1,0.2-0.1,0.3-0.1l0,0c-0.2,0-0.1-0.1,0-0.1h0.1c0.2,0-0.3-0.1,0,0
			c-0.1-0.1,0-0.3,0-0.4c-0.1,0,0-0.1-0.2-0.1c0.2,0,0.3-0.1,0.3-0.1l0,0c0.3,0-0.2-0.2,0.1-0.1c-0.2-0.1,0.1-0.1-0.1-0.2
			c0.1,0,0.1,0,0.1,0.1c0.1-0.1,0.2-0.2,0.3-0.3c-0.1-0.2,0.2-0.1,0-0.4c0.1,0,0.3,0,0.2-0.2l0,0c0.1-0.1,0.1-0.2,0.1-0.4
			c0.2,0.2,0.2,0.1,0.3,0.2c0-0.1,0.1-0.2,0.1-0.4c0.1,0.1,0-0.1,0.1,0.1c0-0.5,0.6-0.5,0.9-0.1l0,0c0-0.1,0-0.3,0.1-0.5l0,0
			c0.1,0,0.1,0.1,0.2,0.1c0,0,0,0,0,0.1c0.1-0.1,0.1,0.2,0.2,0v0.1v-0.1c0,0.1,0,0.2,0,0.1c0.4,0.1,1,0.2,1.4,0.6h-0.1h0.2
			c0,0,0,0-0.1,0c0,0.2,0.2,0.2,0.3,0.3c0,0-0.1,0-0.1,0.1c0.2,0-0.1,0.3,0.2,0.1l-0.1,0.1c0.3,0.2,0.4,0.4,0.3,0.7
			c0.4,0.1,0.2,0.4,0.5,0.6h-0.1c0.1,0.1,0.1,0.3,0,0.5c-0.1,0.1-0.2,0.3-0.3,0.4s-0.1,0.2-0.2,0.3l-0.1-0.1
			c0.1,0.4-0.5,0.2-0.5,0.6l-0.1-0.1c0.1,0.2-0.2,0.1,0,0.3h-0.1c0.1,0.4-0.4,0-0.4,0.4v-0.1c0,0.1-0.1,0.1-0.1,0.1s0,0,0-0.1
			c-0.3-0.1-0.3,0.2-0.5,0.3v-0.1c0,0.2-0.2,0.1-0.3,0.2v-0.1v0.1v-0.1C484.4,142.5,484.3,142.7,484.1,142.7z"/>
		<path class="st0" d="M482.6,142.3L482.6,142.3C482.6,142.2,482.6,142.2,482.6,142.3z"/>
		<path class="st0" d="M482.1,140L482.1,140C482.2,140,482.1,140,482.1,140z"/>
	</g>
</g>
<g>
	<path class="st0" d="M456.5,37.5c-0.2-1,0.5-2.8,2.1-3.3c2.5-0.8,3.9,2.1,3.8,2.9c0,0.8-1.7,2.5-3.1,2.7
		C457.9,39.9,456.7,38.4,456.5,37.5z"/>
	<g>
		<path class="st0" d="M455.9,37.6L455.9,37.6L455.9,37.6z"/>
		<path class="st0" d="M456.1,37.7C456.1,37.7,456.2,37.7,456.1,37.7c0,0-0.1,0-0.2-0.1C455.7,37.7,456.2,37.7,456.1,37.7z"/>
		<path class="st0" d="M456.1,37.8C456,37.9,456.2,37.8,456.1,37.8C456.1,37.8,456.2,37.7,456.1,37.8z"/>
		<path class="st0" d="M458.3,40.1L458.3,40.1L458.3,40.1z"/>
		<path class="st0" d="M459.2,39.7L459.2,39.7c-0.1,0.1-0.3-0.1-0.4,0l0,0c-0.3-0.1-0.7-0.1-1.1-0.2l0,0c0,0-0.1,0.1-0.1,0l0,0
			c0-0.2-0.3-0.1-0.2-0.2c0,0-0.1,0-0.1,0.1c-0.3-0.2-0.5-0.4-0.8-0.6l0.1-0.1c-0.4-0.1-0.5-0.4-0.5-0.7c-0.1,0-0.1,0.1-0.2,0.1
			c-0.1,0.1,0.2,0.1,0.1,0.2h-0.1c0,0.1,0.2-0.1,0.1,0c0,0.1-0.1,0-0.1,0c0.1,0.1,0.1,0.3,0.3,0.3c-0.1,0.1,0.1,0.1,0,0.3
			c0.1,0,0.1,0,0.2,0c0.2,0.4,0.7,0.7,1,1c0.4-0.2,0.4,0.3,0.7,0.3l0,0c0.1,0,0.2-0.1,0.3,0l0.1-0.1c0.3,0.2,0.6,0.2,0.9,0.1
			c0.3-0.1,0.6-0.2,0.9-0.3c0.6-0.3,1.3-0.5,1.4-1.3l0,0c0.1-0.2,0.3-0.3,0.3-0.4l0,0c0-0.3,0.1-0.5,0.2-0.7c0.1-0.3,0-0.6-0.2-0.7
			c-0.1-0.5-0.4-1-0.8-1.4h0.1c-0.3-0.2-0.4-0.8-0.9-0.9c-0.1-0.2-0.4-0.2-0.7-0.2c-0.2,0-0.5,0.1-0.7-0.1c-0.1-0.2-0.3,0-0.4,0
			c-0.1,0.1-0.2,0.2-0.4,0.1c-0.7-0.3-1.1,0.3-1.2,0.9c-0.5,0.2-0.3,0.9-0.8,1.1c0.1,0.3-0.4,0.3-0.4,0.6h0.1
			c-0.3,0.1,0.3,0.2,0,0.3l0,0c-0.2,0,0.4,0.1,0.2,0.1h0.1c0,0.1-0.1,0-0.1,0.1c0,0,0.2,0,0.1,0c-0.4,0,0.1,0.1-0.3,0.2
			c0,0-0.1,0.1-0.2,0c0,0,0,0.1,0.2,0.1s0.3,0,0.5-0.1h-0.1c0.1,0,0.1,0,0.2,0c0-0.1,0.2-0.1,0.3-0.1l0,0c-0.2,0-0.1-0.1,0-0.1h0.1
			c0.2,0-0.3-0.1,0,0c-0.1-0.1,0-0.3,0-0.4c-0.1,0,0-0.1-0.2-0.1c0.2,0,0.3-0.1,0.3-0.1l0,0c0.3,0-0.2-0.2,0.1-0.1
			c-0.2-0.1,0.1-0.1-0.1-0.2c0.1,0,0.1,0,0.1,0.1c0.1-0.1,0.2-0.2,0.3-0.3c-0.1-0.2,0.2-0.1,0-0.4c0.1,0,0.3,0,0.2-0.2l0,0
			c0.1-0.1,0.1-0.2,0.1-0.4c0.2,0.2,0.2,0.1,0.3,0.2c0-0.1,0.1-0.2,0.1-0.4c0.1,0.1,0-0.1,0.1,0.1c0-0.5,0.6-0.5,0.9-0.2l0,0
			c0-0.1,0-0.3,0.1-0.5l0,0c0.1,0,0.1,0.1,0.2,0.1c0,0,0,0,0,0.1c0.1-0.1,0.1,0.2,0.2,0v0.1v-0.1c0,0.1,0,0.2,0,0.1
			c0.4,0.1,1,0.1,1.4,0.5h-0.1h0.2c0,0,0,0-0.1,0c0,0.2,0.2,0.2,0.3,0.3c0,0-0.1,0-0.1,0.1c0.2,0-0.1,0.3,0.2,0.1l-0.1,0.1
			c0.3,0.2,0.4,0.4,0.4,0.7c0.4,0.1,0.2,0.4,0.5,0.6h-0.1c0.1,0.1,0.1,0.3,0,0.5c-0.1,0.1-0.2,0.3-0.3,0.4s-0.1,0.2-0.2,0.3
			l-0.1-0.1c0.1,0.4-0.5,0.2-0.5,0.6l-0.1-0.1c0.1,0.2-0.2,0.1,0,0.3h-0.1c0.1,0.4-0.4,0-0.4,0.4v-0.1c0,0.1-0.1,0.1-0.1,0.1
			s0,0,0-0.1c-0.3-0.1-0.3,0.2-0.5,0.3v-0.1c0,0.2-0.2,0.1-0.3,0.2v-0.1v0.1v-0.1C459.5,39.5,459.4,39.7,459.2,39.7z"/>
		<path class="st0" d="M457.7,39.4L457.7,39.4C457.7,39.3,457.7,39.3,457.7,39.4z"/>
		<path class="st0" d="M457,37.2L457,37.2C457.1,37.2,457,37.2,457,37.2z"/>
	</g>
</g>
<g>
	<path class="st0" d="M399.9,105.8c0.8,0.2,2,1.4,1.9,2.8c-0.2,2.3-3.1,2.3-3.7,2s-1.4-2.3-1-3.5
		C397.5,105.9,399.1,105.6,399.9,105.8z"/>
	<g>
		<polygon class="st0" points="400.1,105.1 400.1,105.1 400,105.2 		"/>
		<path class="st0" d="M399.9,105.3C399.9,105.3,399.9,105.4,399.9,105.3c0,0,0.1-0.1,0.1-0.2C400,104.9,399.9,105.4,399.9,105.3z"
			/>
		<path class="st0" d="M399.8,105.3C399.8,105.2,399.7,105.4,399.8,105.3C399.8,105.3,399.8,105.4,399.8,105.3z"/>
		<path class="st0" d="M397.2,106.3C397.2,106.3,397.2,106.2,397.2,106.3C397.2,106.2,397.2,106.2,397.2,106.3z"/>
		<path class="st0" d="M397.2,107.1L397.2,107.1c0-0.2,0.2-0.2,0.2-0.4l0,0c0.2-0.2,0.3-0.5,0.5-0.8c0,0,0,0,0,0.1v-0.1
			c0,0,0,0,0,0.1c0.1,0.1,0.1-0.2,0.2-0.1v-0.1c0.2-0.2,0.5-0.3,0.8-0.5v0.1c0.2-0.3,0.5-0.2,0.8-0.1c0-0.1,0-0.1,0-0.2
			c-0.1-0.1-0.2,0.2-0.3,0V105c-0.1,0,0,0.2-0.1,0.1c0-0.1,0-0.1,0-0.1c-0.1,0-0.3,0-0.4,0.2c0-0.2-0.1,0-0.2-0.1
			c0,0.1-0.1,0.1,0,0.2c-0.4,0-0.8,0.3-1.2,0.5c0,0.4-0.4,0.2-0.5,0.5l0,0c0,0.1,0,0.2-0.1,0.3c0,0,0,0.1,0.1,0.1
			c-0.3,0.2-0.4,0.5-0.4,0.7c0,0.3,0,0.5-0.1,0.8c0,0.6-0.1,1.2,0.5,1.6c0,0,0,0-0.1,0c0.1,0.1,0.1,0.3,0.2,0.4l0,0
			c0.2,0.1,0.3,0.3,0.5,0.4c0.2,0.2,0.4,0.2,0.6,0.1c0.4,0.1,0.9,0,1.4-0.1v0.1c0.3-0.2,0.8,0,1.1-0.3c0.2,0,0.3-0.3,0.4-0.5
			s0.1-0.4,0.3-0.5c0.2,0,0.2-0.2,0.1-0.4c0-0.2-0.1-0.3,0.1-0.4c0.6-0.4,0.1-1-0.3-1.2c0-0.5-0.6-0.5-0.6-1c-0.3,0-0.1-0.5-0.3-0.6
			v0.1c0.1-0.3-0.3,0.2-0.2-0.1l0,0c0-0.2-0.3,0.3-0.2,0.1v0.1c-0.1,0,0-0.1,0-0.1l-0.1,0.1c0.1-0.3-0.1,0,0-0.3c0,0,0-0.2,0.1-0.2
			c0,0-0.1-0.1-0.1,0.1s-0.1,0.3-0.1,0.5V106c0,0.1,0,0.1,0,0.2c0,0,0,0.2,0,0.3l0,0c0.1-0.1,0.1,0,0.1,0v0.1c-0.1,0.1,0.2-0.3,0,0
			c0.1,0,0.2,0,0.3,0.1c0.1-0.1,0.1,0.1,0.2-0.1c-0.1,0.2-0.1,0.3,0,0.3l0,0c-0.1,0.3,0.2-0.1,0,0.2c0.2-0.2,0,0.1,0.3,0l-0.1,0.1
			c0.1,0.1,0.1,0.2,0.1,0.3c0.2-0.1,0,0.2,0.3,0.1c0,0.1-0.1,0.2,0,0.2l0,0c0.1,0.1,0.1,0.2,0.3,0.2c-0.3,0.1-0.2,0.1-0.3,0.2
			c0.1,0,0.1,0.1,0.3,0.2c-0.1,0,0.1,0.1-0.1,0.1c0.4,0.2,0.2,0.6-0.1,0.7l0,0c0.1,0.1,0.3,0.2,0.4,0.3l0,0c0,0.1-0.2,0-0.2,0.1
			c0,0,0,0-0.1,0c0.1,0.1-0.2,0-0.1,0.1l0,0v0.1c-0.1,0-0.1-0.1-0.1-0.1c-0.2,0.3-0.4,0.8-0.9,0.9v-0.1v0.1c0,0,0,0,0-0.1
			c-0.1-0.1-0.2,0.1-0.3,0.1v-0.1c0,0.2-0.2-0.2-0.2,0.2v-0.1c-0.2,0.2-0.5,0.2-0.7,0.1c-0.2,0.3-0.4,0-0.7,0.2v-0.1
			c-0.2,0.1-0.3-0.1-0.4-0.2s-0.1-0.3-0.2-0.4c0-0.1-0.1-0.2-0.2-0.3h0.1c-0.4-0.1,0.1-0.5-0.3-0.6h0.1c-0.2,0,0-0.1-0.3-0.1
			l0.1-0.1c-0.4-0.1,0.1-0.3-0.2-0.4h0.1c-0.1,0-0.1-0.1-0.1-0.1s0,0,0.1,0c0.3-0.2-0.1-0.3,0-0.5h0.1c-0.1-0.1,0-0.2-0.1-0.3h0.1
			l-0.1-0.1h0.1C397.2,107.4,397.2,107.2,397.2,107.1z"/>
		<path class="st0" d="M398,106L398,106L398,106z"/>
		<path class="st0" d="M399.9,106.3L399.9,106.3L399.9,106.3z"/>
	</g>
</g>
<g>
	<polygon class="st0" points="30.3,36.7 30.3,36.7 30.2,36.8 	"/>
	<path class="st0" d="M30,36.8L30,36.8c0,0,0.1-0.1,0.2-0.1C30.4,36.6,30,36.9,30,36.8z"/>
	<path class="st0" d="M29.9,36.8C30,36.7,29.9,36.9,29.9,36.8C30.1,36.7,30,36.8,29.9,36.8z"/>
	<path class="st0" d="M30.3,38.4c0-0.3,0-0.6-0.2-0.9c0-0.1,0.1-0.2,0-0.2H30c0.1-0.1-0.1,0-0.1,0l0,0c0,0,0,0,0.1-0.1l0,0
		c0.1-0.1,0,0-0.1,0c0,0,0,0,0-0.1l0,0l0,0c0,0,0,0,0.1-0.1c0,0,0.1-0.1,0.2-0.1c0,0,0-0.1-0.1,0.1c-0.1,0.1-0.1,0.1-0.2,0.2
		c-0.2-0.2-0.7-0.4-1.1-0.3l0.1-0.1c0,0,0,0,0,0.1v-0.1v0.1c0,0.2,0.1-0.1,0.1,0c0,0,0-0.1,0-0.2c0.2,0,0.3-0.1,0.5-0.1v0.1
		c0.2-0.2,0.4,0,0.5,0.1c0.1-0.1,0-0.1,0.1-0.1c0-0.1-0.2,0.1-0.2-0.1v-0.1c0-0.1-0.1,0.2-0.1,0.1s0.1-0.1,0-0.1s-0.2-0.1-0.3,0
		c0-0.2-0.1,0-0.1-0.2c0,0.1-0.1,0-0.1,0.1c-0.2-0.2-0.5,0-0.8,0c-0.1,0.3-0.3,0-0.4,0.1l0,0c0,0.1-0.1,0.1-0.1,0.1v0.1
		c-0.2,0-0.4,0.1-0.5,0.2s-0.2,0.3-0.3,0.4c-0.2,0.3-0.5,0.7,0,1c0,0,0,0-0.1,0c0.1,0.1,0,0.2,0.1,0.3l0,0c0.3,0.2,0.3,0.5,0.6,0.4
		c0.2,0.2,0.4,0.3,0.7,0.3v0.1c0.2-0.1,0.4,0.3,0.6,0.2c0.1,0.1,0.2-0.1,0.3-0.2c0-0.1,0.1-0.1,0.1-0.2c0,0,0,0,0.1,0
		c0,0,0-0.1,0.1,0c0.2,0.1,0.1-0.1,0.1-0.2s0.1-0.1,0.1-0.2l0,0C30.5,39,30.5,38.7,30.3,38.4z M27.8,37.7L27.8,37.7
		C27.7,37.7,27.7,37.7,27.8,37.7z M27.8,37.8L27.8,37.8C27.7,37.8,27.7,37.8,27.8,37.8L27.8,37.8z M27.7,37.8L27.7,37.8
		C27.5,37.9,27.7,37.9,27.7,37.8z M27.7,38L27.7,38L27.7,38L27.7,38z"/>
</g>
<g>
	<polygon class="st0" points="171.2,49.3 171.2,49.3 171.1,49.4 	"/>
	<path class="st0" d="M170.9,49.4L170.9,49.4c0,0,0.1-0.1,0.2-0.1C171.3,49.2,170.9,49.5,170.9,49.4z"/>
	<path class="st0" d="M170.8,49.4C170.9,49.3,170.8,49.5,170.8,49.4C171,49.3,170.9,49.4,170.8,49.4z"/>
	<path class="st0" d="M171.2,51c0-0.3,0-0.6-0.2-0.9c0-0.1,0.1-0.2,0-0.2h-0.1c0.1-0.1-0.1,0-0.1,0l0,0c0,0,0,0,0.1-0.1l0,0
		c0.1-0.1,0,0-0.1,0c0,0,0,0,0-0.1l0,0l0,0c0,0,0,0,0.1-0.1c0,0,0.1-0.1,0.2-0.1c0,0,0-0.1-0.1,0.1c-0.1,0.1-0.1,0.1-0.2,0.2
		c-0.2-0.2-0.7-0.4-1.1-0.3l0.1-0.1c0,0,0,0,0,0.1v-0.1v0.1c0,0.2,0.1-0.1,0.1,0c0,0,0-0.1,0-0.2c0.2,0,0.3-0.1,0.5-0.1v0.1
		c0.2-0.2,0.4,0,0.5,0.1c0.1-0.1,0-0.1,0.1-0.1c0-0.1-0.2,0.1-0.2-0.1v-0.1c0-0.1-0.1,0.2-0.1,0.1c0-0.1,0.1-0.1,0-0.1
		s-0.2-0.1-0.3,0c0-0.2-0.1,0-0.1-0.2c0,0.1-0.1,0-0.1,0.1c-0.2-0.2-0.5,0-0.8,0c-0.1,0.3-0.3,0-0.4,0.1l0,0c0,0.1-0.1,0.1-0.1,0.1
		v0.1c-0.2,0-0.4,0.1-0.5,0.2s-0.2,0.3-0.3,0.4c-0.2,0.3-0.5,0.7,0,1c0,0,0,0-0.1,0c0.1,0.1,0,0.2,0.1,0.3l0,0
		c0.3,0.2,0.3,0.5,0.6,0.4c0.2,0.2,0.4,0.3,0.7,0.3V52c0.2-0.1,0.4,0.3,0.6,0.2c0.1,0.1,0.2-0.1,0.3-0.2c0-0.1,0.1-0.1,0.1-0.2
		c0,0,0,0,0.1,0c0,0,0-0.1,0.1,0c0.2,0.1,0.1-0.1,0.1-0.2c0-0.1,0.1-0.1,0.1-0.2l0,0C171.4,51.6,171.4,51.3,171.2,51z M168.7,50.3
		L168.7,50.3C168.6,50.3,168.6,50.3,168.7,50.3z M168.7,50.4L168.7,50.4C168.6,50.4,168.6,50.4,168.7,50.4L168.7,50.4z M168.6,50.4
		L168.6,50.4C168.4,50.5,168.6,50.5,168.6,50.4z M168.6,50.6L168.6,50.6L168.6,50.6L168.6,50.6z"/>
</g>
<g>
	<polygon class="st0" points="39.5,139.6 39.5,139.6 39.4,139.7 	"/>
	<path class="st0" d="M39.2,139.7L39.2,139.7c0,0,0.1-0.1,0.2-0.1C39.6,139.5,39.2,139.8,39.2,139.7z"/>
	<path class="st0" d="M39.1,139.7C39.2,139.6,39.1,139.8,39.1,139.7C39.3,139.6,39.2,139.7,39.1,139.7z"/>
	<path class="st0" d="M39.5,141.3c0-0.3,0-0.6-0.2-0.9c0-0.1,0.1-0.2,0-0.2h-0.1c0.1-0.1-0.1,0-0.1,0l0,0c0,0,0,0,0.1-0.1l0,0
		c0.1-0.1,0,0-0.1,0c0,0,0,0,0-0.1l0,0l0,0c0,0,0,0,0.1-0.1c0,0,0.1-0.1,0.2-0.1c0,0,0-0.1-0.1,0.1c-0.1,0.1-0.1,0.1-0.2,0.2
		c-0.2-0.2-0.7-0.4-1.1-0.3l0.1-0.1c0,0,0,0,0,0.1v-0.1v0.1c0,0.2,0.1-0.1,0.1,0c0,0,0-0.1,0-0.2c0.2,0,0.3-0.1,0.5-0.1v0.1
		c0.2-0.2,0.4,0,0.5,0.1c0.1-0.1,0-0.1,0.1-0.1c0-0.1-0.2,0.1-0.2-0.1v-0.1c0-0.1-0.1,0.2-0.1,0.1c0-0.1,0.1-0.1,0-0.1
		c-0.1,0-0.2-0.1-0.3,0c0-0.2-0.1,0-0.1-0.2c0,0.1-0.1,0-0.1,0.1c-0.2-0.2-0.5,0-0.8,0c-0.1,0.3-0.3,0-0.4,0.1l0,0
		c0,0.1-0.1,0.1-0.1,0.1v0.1c-0.2,0-0.4,0.1-0.5,0.2c-0.1,0.1-0.2,0.3-0.3,0.4c-0.2,0.3-0.5,0.7,0,1c0,0,0,0-0.1,0
		c0.1,0.1,0,0.2,0.1,0.3l0,0c0.3,0.2,0.3,0.5,0.6,0.4c0.2,0.2,0.4,0.3,0.7,0.3v0.1c0.2-0.1,0.4,0.3,0.6,0.2c0.1,0.1,0.2-0.1,0.3-0.2
		c0-0.1,0.1-0.1,0.1-0.2c0,0,0,0,0.1,0c0,0,0-0.1,0.1,0c0.2,0.1,0.1-0.1,0.1-0.2c0-0.1,0.1-0.1,0.1-0.2l0,0
		C39.7,141.9,39.7,141.6,39.5,141.3z M37,140.6L37,140.6C36.9,140.6,36.9,140.6,37,140.6z M37,140.7L37,140.7
		C36.9,140.7,36.9,140.7,37,140.7L37,140.7z M36.9,140.7L36.9,140.7C36.7,140.8,36.9,140.8,36.9,140.7z M36.9,140.9L36.9,140.9
		L36.9,140.9L36.9,140.9z"/>
</g>
<g>
	<polygon class="st0" points="389.9,108.7 389.9,108.7 389.8,108.8 	"/>
	<path class="st0" d="M389.6,108.8L389.6,108.8c0,0,0.1-0.1,0.2-0.1C390,108.6,389.6,108.9,389.6,108.8z"/>
	<path class="st0" d="M389.5,108.8C389.6,108.7,389.5,108.9,389.5,108.8C389.7,108.7,389.6,108.8,389.5,108.8z"/>
	<path class="st0" d="M389.9,110.4c0-0.3,0-0.6-0.2-0.9c0-0.1,0.1-0.2,0-0.2h-0.1c0.1-0.1-0.1,0-0.1,0l0,0c0,0,0,0,0.1-0.1l0,0
		c0.1-0.1,0,0-0.1,0c0,0,0,0,0-0.1l0,0l0,0c0,0,0,0,0.1-0.1c0,0,0.1-0.1,0.2-0.1c0,0,0-0.1-0.1,0.1c-0.1,0.1-0.1,0.1-0.2,0.2
		c-0.2-0.2-0.7-0.4-1.1-0.3l0.1-0.1c0,0,0,0,0,0.1v-0.1v0.1c0,0.2,0.1-0.1,0.1,0c0,0,0-0.1,0-0.2c0.2,0,0.3-0.1,0.5-0.1v0.1
		c0.2-0.2,0.4,0,0.5,0.1c0.1-0.1,0-0.1,0.1-0.1c0-0.1-0.2,0.1-0.2-0.1v-0.1c0-0.1-0.1,0.2-0.1,0.1s0.1-0.1,0-0.1s-0.2-0.1-0.3,0
		c0-0.2-0.1,0-0.1-0.2c0,0.1-0.1,0-0.1,0.1c-0.2-0.2-0.5,0-0.8,0c-0.1,0.3-0.3,0-0.4,0.1l0,0c0,0.1-0.1,0.1-0.1,0.1v0.1
		c-0.2,0-0.4,0.1-0.5,0.2s-0.2,0.3-0.3,0.4c-0.2,0.3-0.5,0.7,0,1c0,0,0,0-0.1,0c0.1,0.1,0,0.2,0.1,0.3l0,0c0.3,0.2,0.3,0.5,0.6,0.4
		c0.2,0.2,0.4,0.3,0.7,0.3v0.1c0.2-0.1,0.4,0.3,0.6,0.2c0.1,0.1,0.2-0.1,0.3-0.2c0-0.1,0.1-0.1,0.1-0.2c0,0,0,0,0.1,0
		c0,0,0-0.1,0.1,0c0.2,0.1,0.1-0.1,0.1-0.2s0.1-0.1,0.1-0.2l0,0C390.1,111,390.1,110.7,389.9,110.4z M387.4,109.7L387.4,109.7
		C387.3,109.7,387.3,109.7,387.4,109.7z M387.4,109.8L387.4,109.8C387.3,109.8,387.3,109.8,387.4,109.8L387.4,109.8z M387.3,109.8
		L387.3,109.8C387.1,109.9,387.3,109.9,387.3,109.8z M387.3,110L387.3,110L387.3,110L387.3,110z"/>
</g>
<g>
	<polygon class="st0" points="344.2,40.6 344.2,40.6 344.1,40.7 	"/>
	<path class="st0" d="M343.9,40.7L343.9,40.7c0,0,0.1-0.1,0.2-0.1C344.3,40.5,343.9,40.8,343.9,40.7z"/>
	<path class="st0" d="M343.8,40.7C343.9,40.6,343.8,40.8,343.8,40.7C344,40.6,343.9,40.7,343.8,40.7z"/>
	<path class="st0" d="M344.2,42.3c0-0.3,0-0.6-0.2-0.9c0-0.1,0.1-0.2,0-0.2h-0.1c0.1-0.1-0.1,0-0.1,0l0,0c0,0,0,0,0.1-0.1l0,0
		c0.1-0.1,0,0-0.1,0c0,0,0,0,0-0.1l0,0l0,0c0,0,0,0,0.1-0.1c0,0,0.1-0.1,0.2-0.1c0,0,0-0.1-0.1,0.1c-0.1,0.1-0.1,0.1-0.2,0.2
		c-0.2-0.2-0.7-0.4-1.1-0.3l0.1-0.1c0,0,0,0,0,0.1v-0.1v0.1c0,0.2,0.1-0.1,0.1,0c0,0,0-0.1,0-0.2c0.2,0,0.3-0.1,0.5-0.1v0.1
		c0.2-0.2,0.4,0,0.5,0.1c0.1-0.1,0-0.1,0.1-0.1c0-0.1-0.2,0.1-0.2-0.1v-0.1c0-0.1-0.1,0.2-0.1,0.1s0.1-0.1,0-0.1s-0.2-0.1-0.3,0
		c0-0.2-0.1,0-0.1-0.2c0,0.1-0.1,0-0.1,0.1c-0.2-0.2-0.5,0-0.8,0c-0.1,0.3-0.3,0-0.4,0.1l0,0c0,0.1-0.1,0.1-0.1,0.1v0.1
		c-0.2,0-0.4,0.1-0.5,0.2s-0.2,0.3-0.3,0.4c-0.2,0.3-0.5,0.7,0,1c0,0,0,0-0.1,0c0.1,0.1,0,0.2,0.1,0.3l0,0c0.3,0.2,0.3,0.5,0.6,0.4
		c0.2,0.2,0.4,0.3,0.7,0.3v0.1c0.2-0.1,0.4,0.3,0.6,0.2c0.1,0.1,0.2-0.1,0.3-0.2c0-0.1,0.1-0.1,0.1-0.2c0,0,0,0,0.1,0
		c0,0,0-0.1,0.1,0c0.2,0.1,0.1-0.1,0.1-0.2s0.1-0.1,0.1-0.2l0,0C344.4,42.9,344.4,42.6,344.2,42.3z M341.7,41.6L341.7,41.6
		C341.6,41.6,341.6,41.6,341.7,41.6z M341.7,41.7L341.7,41.7C341.6,41.7,341.6,41.7,341.7,41.7L341.7,41.7z M341.6,41.7L341.6,41.7
		C341.4,41.8,341.6,41.8,341.6,41.7z M341.6,41.9L341.6,41.9L341.6,41.9L341.6,41.9z"/>
</g>
<g>
	<polygon class="st0" points="464,91.1 464,91.1 463.9,91.2 	"/>
	<path class="st0" d="M463.7,91.2L463.7,91.2c0,0,0.1-0.1,0.2-0.1C464.1,91,463.7,91.3,463.7,91.2z"/>
	<path class="st0" d="M463.6,91.3C463.7,91.1,463.6,91.4,463.6,91.3C463.8,91.1,463.7,91.2,463.6,91.3z"/>
	<path class="st0" d="M464.3,92.7c-0.1-0.3-0.1-0.6-0.4-0.8c0-0.1,0.1-0.2,0-0.2h-0.1c0.1-0.1-0.1,0-0.1,0l0,0c0,0,0,0,0.1-0.1l0,0
		c0.1-0.1,0,0-0.1,0c0,0,0,0,0-0.1l0,0l0,0c0,0,0,0,0.1-0.1c0,0,0.1-0.1,0.2-0.1c0,0,0-0.1-0.1,0.1c-0.1,0.1-0.1,0.1-0.2,0.2
		c-0.2-0.2-0.8-0.3-1.1-0.1l0.1-0.1c0,0,0,0,0,0.1v-0.1v0.1c0,0.2,0.1-0.1,0.1,0c0,0,0-0.1,0-0.2c0.2,0,0.3-0.2,0.5-0.2v0.1
		c0.2-0.2,0.4-0.1,0.5,0c0.1-0.1,0-0.1,0.1-0.1c0-0.1-0.2,0.1-0.2-0.1v-0.1c0-0.1-0.1,0.2-0.1,0.1s0.1-0.1,0-0.1s-0.2-0.1-0.3,0.1
		c0-0.2-0.1,0-0.1-0.2c0,0.1-0.1,0-0.1,0.1c-0.2-0.2-0.5,0.1-0.8,0.2c0,0.3-0.3,0.1-0.4,0.2l0,0c0,0.1-0.1,0.1-0.1,0.1v0.1
		c-0.2,0-0.4,0.2-0.5,0.3s-0.1,0.3-0.2,0.4c-0.1,0.3-0.4,0.8,0.2,1c0,0,0,0-0.1,0c0.1,0.1,0,0.2,0.2,0.3l0,0
		c0.3,0.1,0.4,0.4,0.7,0.3c0.2,0.2,0.4,0.2,0.7,0.2v0.1c0.2-0.1,0.4,0.2,0.6,0.1c0.1,0.1,0.2-0.1,0.3-0.3c0-0.1,0.1-0.1,0.1-0.2
		c0,0,0,0,0.1,0c0,0,0-0.1,0.1,0c0.2,0.1,0.1-0.1,0.1-0.2s0.1-0.1,0.1-0.2l0,0C464.6,93.3,464.6,93,464.3,92.7z M461.7,92.5
		L461.7,92.5C461.6,92.6,461.6,92.6,461.7,92.5z M461.8,92.6L461.8,92.6C461.7,92.7,461.7,92.7,461.8,92.6L461.8,92.6z M461.7,92.7
		L461.7,92.7C461.5,92.8,461.7,92.8,461.7,92.7z M461.7,92.9L461.7,92.9L461.7,92.9L461.7,92.9z"/>
</g>
<g>
	<polygon class="st0" points="498.3,134.3 498.3,134.3 498.2,134.4 	"/>
	<path class="st0" d="M498,134.4L498,134.4c0,0,0.1-0.1,0.2-0.1C498.4,134.2,498,134.5,498,134.4z"/>
	<path class="st0" d="M497.9,134.4C498,134.3,497.9,134.5,497.9,134.4C498.1,134.3,498,134.4,497.9,134.4z"/>
	<path class="st0" d="M498.3,136c0-0.3,0-0.6-0.2-0.9c0-0.1,0.1-0.2,0-0.2H498c0.1-0.1-0.1,0-0.1,0l0,0c0,0,0,0,0.1-0.1l0,0
		c0.1-0.1,0,0-0.1,0c0,0,0,0,0-0.1l0,0l0,0c0,0,0,0,0.1-0.1c0,0,0.1-0.1,0.2-0.1c0,0,0-0.1-0.1,0.1c-0.1,0.1-0.1,0.1-0.2,0.2
		c-0.2-0.2-0.7-0.4-1.1-0.3l0.1-0.1c0,0,0,0,0,0.1v-0.1v0.1c0,0.2,0.1-0.1,0.1,0c0,0,0-0.1,0-0.2c0.2,0,0.3-0.1,0.5-0.1v0.1
		c0.2-0.2,0.4,0,0.5,0.1c0.1-0.1,0-0.1,0.1-0.1c0-0.1-0.2,0.1-0.2-0.1v-0.1c0-0.1-0.1,0.2-0.1,0.1c0-0.1,0.1-0.1,0-0.1
		s-0.2-0.1-0.3,0c0-0.2-0.1,0-0.1-0.2c0,0.1-0.1,0-0.1,0.1c-0.2-0.2-0.5,0-0.8,0c-0.1,0.3-0.3,0-0.4,0.1l0,0c0,0.1-0.1,0.1-0.1,0.1
		v0.1c-0.2,0-0.4,0.1-0.5,0.2s-0.2,0.3-0.3,0.4c-0.2,0.3-0.5,0.7,0,1c0,0,0,0-0.1,0c0.1,0.1,0,0.2,0.1,0.3l0,0
		c0.3,0.2,0.3,0.5,0.6,0.4c0.2,0.2,0.4,0.3,0.7,0.3v0.1c0.2-0.1,0.4,0.3,0.6,0.2c0.1,0.1,0.2-0.1,0.3-0.2c0-0.1,0.1-0.1,0.1-0.2
		c0,0,0,0,0.1,0c0,0,0-0.1,0.1,0c0.2,0.1,0.1-0.1,0.1-0.2c0-0.1,0.1-0.1,0.1-0.2l0,0C498.5,136.6,498.5,136.3,498.3,136z
		 M495.8,135.3L495.8,135.3C495.7,135.3,495.7,135.3,495.8,135.3z M495.8,135.4L495.8,135.4C495.7,135.4,495.7,135.4,495.8,135.4
		L495.8,135.4z M495.7,135.4L495.7,135.4C495.5,135.5,495.7,135.5,495.7,135.4z M495.7,135.6L495.7,135.6L495.7,135.6L495.7,135.6z"
		/>
</g>
<g>
	<path d="M442.3,159.1c-5.5-3.5-22.4-13.6-47.3-22c-25.2-8.5-65.4-17.6-118.3-21.2c-0.3-38.4-0.6-92.2-0.1-112.7
		c0-0.9-0.7-1.7-1.6-1.7c-0.9,0-1.7,0.7-1.7,1.6c0,1.3-0.1,2.7-0.1,4.3c-4.1-2.5-13.9-2.6-25.7,1.1c-10.5,3.2-18.2-1.1-21.8-3.2
		c-1.8-1-3-1.7-4-0.9c-0.6,0.5-1,1.7-1,13.7c0,1.2-0.6,11.3,0.2,13.3c0.6,1.6,3.6,4.9,9.1,7c2.5,0.9,5.8,1.7,10.1,1.7
		c3.8,0,8.3-0.6,13.5-2.4c7.3-2.5,14.3,0.4,17.3,1.7c0.9,0.4,1.6,0.7,2.2,0.8c0,23.6,0.2,52.3,0.3,75.5c-6.2-0.4-12.6-0.7-19.2-0.9
		c-8-0.2-14.8-0.2-21.4,0c0,0-0.1,0-0.1,0c-0.2-2.6-0.4-5.2-0.4-6.4c0-1.6-0.9-4.3-1.7-7c-0.4-1.3-0.9-2.9-1.1-3.8
		c0.9,0.6,2.1,1,3.1,1.2c0.2,0,0.3,0,0.5,0c1.4,0,2.7-1.1,4-1.9c0.7-0.5,1.4-0.9,2-1.1c0.8-0.3,1.5-0.3,2.1-0.3
		c0.8,0,1.5-0.1,2.1-0.5c0.8-0.6,1.1-1.6,0.9-2.9c0.4-0.3,1.4-0.7,2.4-1.1c0,0,0,0,0.1,0c0.5,0.3,1.1,0.4,1.6,0.4
		c0.2,0,0.3,0,0.5-0.1c0.8-0.2,2.4-1.1,3.1-1.4c0.1,0,0.1,0,0.2,0c0.1,0,0.1,0,0.1,0c0.7,0,2-0.3,3.3-0.6c1.8-0.5,2.7-1.2,2.9-2
		c0.3-1.1,0-2.2-0.1-2.7c0.3-0.4,0.4-0.7,0.5-1.1c0.1-1.2-0.4-2.5-0.6-3.1c0.1-0.2,0.1-0.3,0.2-0.5c0.2-0.7,0-1.1-0.2-1.4
		c-0.7-1.2-3-1.2-5.3-1c-0.8,0.1-1.6,0.5-2.4,1c0.1-0.8,0.1-1.6-0.2-2.1c-0.2-0.4-0.5-0.6-0.9-0.7c-1.4-0.4-2,0.8-2.4,1.6
		c-0.3,0.5-0.6,1.1-1.1,1.6c-0.9,0.9-1.3,2.3-1.6,3.5c-0.1,0.5-0.3,1.1-0.5,1.3c-0.5,0.1-0.9,0.5-1.1,0.7c-0.4,0.4-0.7,0.6-1.4,0.6
		c-0.7,0-1.5,0.3-2.4,0.7c0.2-0.1,0.3-0.2,0.5-0.3c0.6-0.4,1.3-0.9,2.1-1.3c2-1,2.7-1.5,2.9-3.3c0.1-0.6-0.1-1.1-0.5-1.5
		c-0.1-0.1-0.2-0.2-0.3-0.3c0.3-0.4,0.5-0.7,0.6-1.1c0.2-0.7,0.1-1.5-0.3-2.1c-0.1-0.1-0.2-0.3-0.3-0.4c1.2-0.9,2.1-1.9,1.1-3.6
		c-0.5-0.9-1.2-1.2-1.7-1.3c-1.5-0.3-3,0.8-4.2,1.6c-0.3,0.2-0.6,0.4-0.8,0.5c-0.4,0.3-0.8,0.5-1.1,0.7c-0.3,0.2-0.7,0.4-0.9,0.6
		c-0.5-0.6-1.3-1.1-2.9-0.4c-1.2,0.5-1.8,2-2.3,3.5c-0.3,0.8-0.6,1.8-1,2.2c-0.1,0.1-0.2,0.3-0.3,0.4c-0.3,0.4-0.6,0.7-0.8,0.8
		c-0.4-0.8-1.1-1.6-1.9-2.1c-0.2-0.1-0.4-0.3-0.6-0.4c0-0.2,0.1-0.5,0.2-0.7c0.2-0.8,0.4-1.7,0.3-2.4c-0.1-0.3-0.2-0.5-0.4-0.8
		c4.7-2.2,5.6-3.9,5.6-6.5c0-9-5.2-13.1-8-14.5c-3.7-1.8-7.6-1.1-12,0.7c-3,1.3-4.9,3.1-6.1,5.9c-1.1,2.8-1,6,0.5,9.2
		c1.3,3,3.3,4.8,5.3,5.9c0,0.3-0.1,0.5-0.1,0.7c-0.2,0-0.4,0-0.6,0c-2,0-6.6,0.7-7.6,6.2c-0.7,3.9-1.4,11,0,16c0,0.1,0,0.1,0.1,0.2
		c0.2,0.4,0.7,1.7,0.6,2.7c0,0.3-0.1,0.6-0.1,0.9c-0.2,1.3-0.4,2.3,0,3.1c0.2,0.4,0.3,1.3,0.3,1.6c0,0,0,0-0.1,0.1
		c-0.5,0.6-0.7,1.8-0.5,5c0.1,1.1,0.5,2.9,1.1,5c-53.7,2-91.7,12.9-113.8,22.5c-24.1,10.4-34.9,21.2-35.4,21.6
		c-0.6,0.5-0.7,1.4-0.1,2c0.3,0.3,0.7,0.5,1.1,0.5c0.3,0,0.7-0.1,1-0.4c0.1-0.1,11.3-9.9,34.9-20.1c21.9-9.5,58.5-20.7,111.8-22.7
		c0.2,0,0.4-0.1,0.6-0.2c0.1,0.5,0.3,0.9,0.4,1.4c0.7,2.3,1.7,4.9,1.8,5.6c-0.4,1.1-0.7,3.7-0.7,4.6c0,0.4,0.2,0.8,0.3,1.2
		c0.2,0.6,0.3,1.2,0.3,1.7c0,0.3-0.1,0.7-0.2,1.3c-0.4,2.5-0.2,4.4,0.4,5.7c-0.1,0.2-0.2,0.6-0.2,1c0,0.8,0.1,1.5,0.2,2.3
		c0.2,1.4,0.3,2.9,0.1,5.1c-0.1,0.6-0.1,1.3-0.2,1.9c-0.2,1.2-0.3,2.4-0.2,3.4c-0.3,0.2-0.4,0.5-0.4,0.8c-0.1,0.9-0.2,3.8,0.6,5
		c0.4,0.6,0.7,0.7,1.2,0.9c0.3,0.1,0.7,0.2,1.4,0.5c0.5,0.2,0.8,0.4,1.2,0.7c1,0.6,2.1,1.3,5.7,1.9c1.1,0.2,2.2,0.2,3.1,0.2
		c3.5,0,5.6-1,6.3-1.7c0.4-0.4,0.6-1.2,0.6-2.1c0,0,0,0,0.1,0c0.6,0.1,1.6,0.3,3.7,0.9c1.5,0.4,3,0.6,4.3,0.6c2.8,0,5.1-0.6,5.6-1
		c0.4-0.2,2.5-1.3,1.6-5.1c0.5-1,0.6-2,0.3-2.9c-0.5-1.5-2.5-2.9-5.1-3.9c-2.3-0.9-2.1-1.4-2.1-2.1c0.3-0.1,0.5-0.1,0.8-0.2
		c0.5-0.2,0.8-0.8,0.7-1.3c-0.2-0.5-0.8-0.8-1.3-0.7c0,0-0.1,0-0.1,0c0-0.3,0-0.7,0-1c0,0,0.1,0,0.1,0c0.6-0.1,0.9-0.6,0.8-1.2
		c-0.1-0.5-0.5-0.8-0.9-0.8c0-1.7,0.1-3.3,0.1-3.7c0.2-0.9-0.1-2.7-0.7-6.2c-0.3-1.7-0.7-3.9-0.6-4.4c0-0.4,0.1-0.7,0.1-1
		c0.2-1.2,0.3-2.4,0-4.6c-0.1-0.9-0.7-2.4-0.9-4.1c6.5-0.2,13.3-0.2,21.2,0c6.6,0.2,13.1,0.5,19.3,0.9c0.2,22.3,0.3,38.8,0.4,39.2
		c0,0.9,0.7,1.6,1.7,1.6c0,0,0,0,0,0c0.9,0,1.6-0.8,1.6-1.7c0-0.4-0.2-16.8-0.4-39c52.4,3.6,92,13.7,117,22.1
		c30.9,10.4,46.9,20.5,47,20.6c0.2,0.2,0.5,0.2,0.8,0.2c0.5,0,0.9-0.2,1.2-0.7C443.2,160.5,443,159.6,442.3,159.1z M273,24.5
		c-0.1,5.9-0.4,10.4-0.6,12.5c-0.1-0.1-0.2-0.1-0.4-0.2c-3.4-1.5-10.4-4.6-18.7-1.7c-10.2,3.5-17.4,2.3-21.6,0.7
		c-4.8-1.8-7.2-4.6-7.4-5.3c-0.7-2-0.9-17.9-0.4-22.5c0.2,0.1,0.5,0.3,0.7,0.4c4,2.3,12.4,7,24.1,3.4c8.5-2.6,14.1-3.1,17.3-3.1
		c4.4,0,6.1,1.1,6.4,1.8C272.8,11.4,273.2,16.1,273,24.5z M236.3,95.5c-1.2,0.8-2.5,1.6-3.5,1.4c-2.2-0.3-2.7-0.6-3-1.7
		c0-0.1,0-0.1-0.1-0.2c0.1-0.4,0.1-0.8,0.2-1.2c0.2-1.2,0.4-2.4,0.4-3c0,0,0,0,0,0c0.5-0.4,0.9-1,1.4-1.6c0.4-0.6,0.9-1.2,1.4-1.6
		c1,0.3,2,0.8,2.1,1.1c0.1,0.2,0.3,0.4,0.5,0.5c0.1,0,0.1,0,0.2,0c0.1,0,0.1,0,0.2,0c-0.2,0.2-0.3,0.4-0.3,0.7c0,0.4,0.2,3.2,1.6,5
		C237,95,236.7,95.2,236.3,95.5z M238.1,83.5c-0.1,0-0.1,0.1-0.1,0.1c-1.3,0.5-3.2,1-3.8,0.9c-0.6-0.7-1.2-1.5-1.4-1.8
		c0.6-0.7,3-2.9,4.1-3.5c0.6,0.9,1.7,3,2,3.9C238.5,83.2,238.3,83.3,238.1,83.5z M255.5,82.8c0.1-0.1,0.2-0.1,0.3-0.2
		c0.3-0.2,0.6-0.4,1-0.7c0.1,0.5,0.2,0.9,0.2,1.4c0,0.2-0.6,0.8-2.1,1.5c-1.3,0.6-2.4,0.9-2.6,0.8c-0.3,0-0.5-0.2-0.6-0.4
		c0-0.1-0.1-0.2,0-0.3c0,0,0-0.1,0-0.1C253,84.3,254.5,83.4,255.5,82.8z M256.7,86.7c-0.4,0.6-3,1.2-4.2,1.4c0-0.3,0-0.6,0-1
		c1-0.1,2.9-0.7,4.3-1.6C256.8,85.9,256.8,86.3,256.7,86.7z M243.6,85.4c0.1-0.1,0.3-0.3,0.4-0.3c1-0.1,1.3-1.1,1.6-2.4
		c0.3-1,0.6-2.2,1.2-2.8c0.6-0.7,1-1.4,1.3-2c0.1-0.3,0.3-0.6,0.4-0.8c0.1,0.6-0.2,1.9-0.6,3.1c-0.1,0.4,0,0.8,0.4,1
		c0.3,0.2,0.7,0.2,1-0.1c0.9-0.9,2.4-2.1,3.3-2.1c3.2-0.2,3.7,0.2,3.8,0.3c0,0.1,0,0.2-0.1,0.4c-0.1,0.1-0.2,0.2-0.2,0.4
		c-0.3,0.4-0.7,0.9-1.3,1.2c-0.1,0.1-0.2,0.1-0.3,0.2c-3.2,2-4.1,1.9-4.3,1.7c0.2-0.3,1.2-0.9,1.7-1.2c0.9-0.6,1.5-0.9,1.7-1.5
		c0.1-0.4-0.1-0.9-0.6-1c-0.4-0.1-0.8,0.1-1,0.5c-0.2,0.2-0.7,0.5-1,0.7c-1.1,0.7-2.3,1.4-2.5,2.4c-0.1,0.3,0,0.8,0.4,1.2
		c0.2,0.3,0.5,0.5,0.9,0.6c0,0.4,0,0.8,0.2,1.1c0.2,0.3,0.4,0.6,0.7,0.8c0,0.9,0,1.5,0,1.8c-0.9,0.5-2,1.1-2.5,1.2
		c-0.4,0.1-1.8-0.6-2.1-1.4c-0.2-0.4-0.6-0.7-1.1-0.5c-0.4,0.2-0.7,0.6-0.5,1.1c0.1,0.3,0.3,0.6,0.5,0.9c-2.1,0.8-2.9,1.5-2.7,2.3
		c0.2,0.9,0.1,1.4-0.2,1.7c-0.1,0-0.1,0.1-0.2,0.1c-1.7-1.7-2.2-4.7-2.2-4.8c-0.1-0.5-0.5-0.8-0.9-0.7c-0.5,0.1-0.8,0.5-0.7,0.9
		c0,0.1,0.4,2.6,1.8,4.7c-0.4,0-0.8,0.1-1.2,0.2c-1.1-1.1-1.5-3.5-1.5-4.4c0-0.5-0.4-0.8-0.9-0.8c0,0-0.1,0-0.1,0
		c1.3-0.9,3.6-2.4,4.6-2.4C242.5,86.5,243.2,85.8,243.6,85.4z M236,87.1c-0.2-0.1-0.4-0.3-0.6-0.4c0.4,0,0.9-0.1,1.4-0.2
		c0.1,0,0.2-0.1,0.3-0.1C236.8,86.6,236.4,86.9,236,87.1z M223.3,55.3c2.2,1.2,5.9,4.1,6.1,10.7c-2.2,0.1-6.8,0.3-10,0
		c0-0.8-0.2-1.9-1.2-3.1c-1-1.1-2.1-1.6-3.2-1.6c-0.6-2.3-0.9-4.8-1.1-6.2c1.7-0.6,3.2-0.9,4.7-0.9
		C220.3,54.2,221.8,54.6,223.3,55.3z M213.6,63.6c0.1-0.1,0.3-0.1,0.5-0.2c0.1,0,0.1,0,0.2,0c0.1,0,0.2,0,0.3,0c0.1,0,0.1,0,0.1-0.1
		c0.6,0,1.3,0.2,1.9,0.9c0.6,0.7,0.8,1.3,0.7,1.9c-0.1,0.8-0.7,1.2-0.9,1.4c-1.3,0.9-2.2,0.8-3.1-0.3
		C212.2,65.9,211.9,65.4,213.6,63.6z M208.5,67.8c-1.2-2.7-1.3-5.1-0.4-7.3c0.7-1.8,2.1-3.4,3.9-4.4c0.2,1.4,0.5,3.6,1,5.6
		c-0.2,0.1-0.4,0.2-0.5,0.3c-0.1,0.1-0.2,0.1-0.2,0.2c-2.3,2.4-2.4,4.1-0.5,6.4c0.6,0.7,1.7,1.6,3.1,1.6c0.8,0,1.7-0.3,2.7-0.9
		c0.5-0.3,0.9-0.7,1.2-1.2c0,0,0.1,0,0.1,0c1.5,0.2,3.3,0.2,5.1,0.2c2,0,4-0.1,5.2-0.1c-1.1,3.1-6.2,4.7-9.4,5.5
		C218.3,73.8,211.5,74.6,208.5,67.8z M217.9,76.2c1.2,0,2-0.1,2.3-0.2c0,0,0,0,0.1,0c1.3-0.3,2.5-0.6,3.5-1c0.4,0.1,0.8,0.2,0.9,0.3
		c0.1,0.4-0.1,1.1-0.3,1.6c-0.2,0.8-0.3,1.3-0.1,1.8c0.2,0.4,0.6,0.6,1.2,1c0.3,0.2,0.7,0.5,1,0.8c-1.4,0.2-2.9,1.3-4.5,2.5
		c-0.6,0.5-1.5,1.1-1.9,1.3c-0.2-0.2-0.5-0.5-0.7-0.8c-0.5-0.7-1.1-1.5-2.1-1.7c-1-0.2-1.4-0.6-1.6-1.4c-0.3-1.3-1.2-3.1-2.5-4.2
		c0.1-0.2,0.2-0.5,0.2-0.7C215.1,76.1,216.7,76.2,217.9,76.2z M205.6,110.9c-0.2-2.3,0.5-3.1,1-3.5c0.1-0.2,0.3-0.3,0.4-0.5
		c0.5-0.9,0-2.7-0.3-3.3c-0.1-0.3,0-1.2,0.2-2c0-0.3,0.1-0.6,0.1-1c0.2-1.7-0.5-3.4-0.7-3.8c-1.4-4.6-1.6-11.7-0.9-15.3
		c0.7-3.6,3.1-3.9,5.6-4c0.1,0,0.3,0,0.4,0c0,0,0,0,0,0c0.9,0.2,2.1,2.1,2.4,3.4c0.4,1.6,1.5,2.6,3.2,3c0.2,0,0.6,0.5,0.9,0.9
		c0.5,0.6,1,1.3,1.9,1.6c1,0.3,2-0.5,3.6-1.7c1.1-0.8,2.9-2.1,3.6-2.1c2.3,0.2,3-0.5,4-1.7c0.1-0.1,0.2-0.2,0.3-0.4
		c0.6-0.7,1-1.8,1.4-2.8c0.3-0.8,0.8-2.1,1.1-2.3c0.3-0.1,0.5-0.1,0.6-0.2c0,0,0,0.1,0.1,0.1c0.2,0.2,0.5,0.6,1.1,0.7
		c0.8,0.1,1.5-0.3,2.4-1c0.3-0.2,0.7-0.4,1.1-0.7c0.3-0.2,0.6-0.4,0.9-0.6c0.8-0.6,2-1.4,2.6-1.3c0.1,0,0.2,0,0.4,0.3
		C243,72.9,243,73,243,73c-0.1,0.2-0.7,0.6-1.2,1c-0.2,0.1-0.4,0.3-0.6,0.4c-0.3,0.2-0.5,0.4-0.7,0.5c-0.4,0.1-0.7,0.2-0.8,0.3
		c-0.5,0.2-0.7,0.7-0.6,1.2c0.1,0.5,0.5,0.8,1,0.8c0,0,0,0,0,0c0.1,0,0.5,0,1.1-0.3c0.4-0.1,0.8-0.1,1-0.1c0,0.1,0.1,0.2,0,0.3
		c-0.1,0.4-0.6,0.9-1.1,1.2c-0.4,0.2-0.7,0.7-0.6,1.1c0.1,0.5,0.5,0.8,1,0.8c0.3,0,0.7,0.1,0.8,0.2c-0.1,0.7-0.1,0.7-1.8,1.6
		c-0.1,0-0.1,0.1-0.2,0.1c-0.6-1.9-2.2-4.4-2.6-4.7c-0.1-0.1-0.4-0.3-0.9-0.2c-1.2,0.3-5.3,3.9-5.6,4.7c-0.1,0.3-0.5,1.1,1.5,3.2
		c-0.2,0.1-0.3,0.2-0.5,0.3c-0.5-0.5-1-1.2-1.2-1.5l-0.4-0.8c-0.2-0.4-0.7-0.5-1.1-0.3c-0.4,0.2-0.5,0.7-0.3,1.1l0.4,0.8
		c0.3,0.6,1,1.4,1.5,1.9c-0.3,0.4-0.6,0.8-0.9,1.2c-0.3,0.5-0.8,1.1-1.1,1.3c-0.2,0-0.5,0.1-0.8,0.1c-0.4-0.5-1.2-1.5-1.7-2.2
		c-0.5-0.9-0.6-2.2-0.6-2.2c0-0.5-0.4-0.8-0.9-0.8c-0.5,0-0.8,0.4-0.8,0.9c0,0.1,0.1,1.7,0.9,3c0.4,0.6,0.9,1.4,1.4,1.9
		c-0.4,0.1-0.8,0.3-1.2,0.5c-1.3-1.7-1.6-4.2-1.6-4.2c0-0.5-0.5-0.8-0.9-0.7c-0.5,0-0.8,0.5-0.7,0.9c0,0.1,0.3,2.8,1.8,4.9
		c-0.3,0.2-0.6,0.5-0.9,0.7c-1,0.8-2,1.5-3.1,1.5c-1.2,0-3.1-1.1-5.8-3.3c-0.1-0.1-0.2-0.2-0.3-0.2c-0.3-0.2-0.7-0.3-1.2-0.5
		c-1.4-0.4-3.9-1-4.6-4.9c-0.1-0.6-0.6-0.9-1.2-0.8c-0.6,0.1-0.9,0.6-0.8,1.2c0.9,4.8,4,5.9,5.7,6.4c-0.2,1.5-0.5,4.7,0.8,6.8
		c1.5,2.4,2.3,6.8,2.3,6.9c0.1,0.4,0.4,0.7,0.8,0.7c0,0,0.1,0,0.1,0c0.5-0.1,0.8-0.5,0.7-1c0-0.2-0.8-4.7-2.5-7.5
		c-0.9-1.5-0.8-3.7-0.7-5.1c1.9,1.5,4.5,3.3,6.5,3.3c0,0,0.1,0,0.1,0c1.8,0,3.1-1,4.2-1.9c-0.1,1-0.2,2.5-0.2,3.6
		c0.1,2,0,4.9-0.1,7.4c0,0.5,0.3,0.8,0.8,0.9c0,0,0,0,0,0c0.4,0,0.8-0.3,0.8-0.8c0.1-2.6,0.2-5.5,0.1-7.6c-0.1-1.8,0.3-4.7,0.3-4.7
		c0,0,0,0,0,0c0.9-0.4,1.7-0.7,2.3-0.9c-0.1,0.6-0.2,1.3-0.3,2c-0.2,1.2-0.4,2.5-0.5,3.3c-0.1,0.9,0.4,2.5,1.3,5.3
		c0.7,2.3,1.6,5.1,1.6,6.3c0,2.7,0.7,11.1,1.1,13.8c0.3,1.9,0.1,2.9,0,4c0,0.4-0.1,0.7-0.1,1.1c-0.1,0.8,0.2,2.4,0.6,5
		c0.3,1.7,0.7,4.3,0.7,5.2c-1.3,0.4-6.9,0.4-8.5-0.1c-0.1-0.3,0-0.9,0.3-2.3c0.1-0.3,0.1-0.5,0.1-0.6c0.1-0.5-0.1-1.5-0.4-3.5
		c-0.1-0.3-0.1-0.6-0.1-0.8c-0.1-0.5,0-2.4,0-3.5c0-0.5,0-0.8,0-1.1c0-0.1,0-0.3,0-0.5c0-1,0.1-2.3-0.7-3.3
		c-0.1-0.2-0.3-1.1-0.5-1.7c-0.5-2.2-1.2-4.9-3.2-4.9c0,0-0.1,0-0.1,0c-0.6,0-1.1,0.3-1.4,0.7c-1.1,1.4-0.9,4.4-0.5,7.3
		c0.2,1.2-0.4,4.4-1,6.8c-0.2,1,0,2.5,0.4,4.9c0.3,1.5,0.7,4,0.5,4.5c-0.1,0.1-0.2,0.2-0.4,0.3c0,0,0,0-0.1,0c-0.2,0-0.4,0-0.6,0.1
		c-0.3,0-0.6,0-1-0.1c-0.6,0-1.2-0.1-1.9-0.1c-0.4,0-0.9,0.1-1.3,0.1c-0.2,0-0.3,0-0.5,0c-1.2-0.1-2.2-0.1-3,0
		c-0.3-0.9,0.1-3.5,0.3-4.6c0.1-0.6,0.2-1.1,0.2-1.5c0.1-0.9-0.2-1.8-0.4-2.4c-0.1-0.3-0.2-0.6-0.2-0.8c-0.1-0.6,0.3-3.1,0.6-3.7
		c0.3-0.6,0.1-1.5-1.5-7C206.8,116.3,205.8,112.5,205.6,110.9z M223.6,147.4c0,0.9-0.2,1.6-0.4,2.4c-0.2,0.8-0.3,1.6-0.3,2.4
		c-0.5-0.2-1-0.4-1.6-0.6c-1.2-0.4-3.1-1.2-3.4-1.8c0.2,0,0.4-0.1,0.6-0.2c0.5-0.2,0.8-0.8,0.6-1.3c-0.2-0.5-0.8-0.8-1.3-0.6
		c0,0-0.1,0-0.1,0c0-0.4,0-0.7,0-1.1c0.1,0,0.3,0,0.4-0.1c0.6-0.1,0.9-0.6,0.8-1.2c-0.1-0.5-0.6-0.9-1.1-0.8c0.1-1,0.2-2,0.3-2.9
		c0.4-0.2,0.8-0.5,1.1-1c0.7-1,0.4-2.9-0.2-6c-0.3-1.5-0.6-3.5-0.5-4.1c0.4-1.6,1.3-5.7,1-7.6c-0.6-4.2-0.2-5.3,0-5.6
		c0.5,0.4,0.9,2.4,1.1,3.3c0.3,1.3,0.5,2.1,0.9,2.5c0.3,0.4,0.3,1.3,0.3,1.9c0,0.2,0,0.4,0,0.6c0,0.2,0,0.6,0,1c0,1.7-0.1,3.2,0,3.9
		c0,0.2,0.1,0.5,0.1,0.8c0.1,0.7,0.4,2.5,0.4,2.8c0,0.1-0.1,0.2-0.1,0.4c-0.3,1.3-0.9,3.5,0.4,4.5c0.1,0.1,0.2,0.1,0.4,0.2
		C223.3,140.4,223.8,145.2,223.6,147.4z M209,143.8c-0.1-0.6-0.1-1.2-0.2-1.7c0.3,0,0.5,0.1,0.8,0.1c0.7,0,1.4-0.1,2.2-0.2
		c0.2,0,0.4-0.1,0.5-0.1c1.1,0.1,2.3,0.1,3.7,0c-0.1,0.8-0.2,1.8-0.3,2.9c-2.1,0.2-3.4-0.1-3.4-0.1c-0.6-0.1-1.1,0.2-1.2,0.8
		c-0.1,0.6,0.2,1.1,0.8,1.2c0.1,0,1,0.2,2.7,0.2c0.3,0,0.7,0,1.1,0c0,0.4,0,0.7,0,1.1c-1.2,0-2.5-0.1-3.6-0.2
		c-0.6-0.1-1.1,0.4-1.1,0.9c-0.1,0.6,0.4,1.1,0.9,1.1c0.5,0,2,0.2,3.5,0.2c0.1,0,0.3,0,0.4,0c0,0.2,0.1,0.4,0.2,0.6
		c0.6,1.4,2.5,2.1,4.5,2.9c1,0.4,2.7,1,2.9,1.4c0.7,1.2,0.7,2.2,0.1,2.9c-0.7,0.7-3.7,1.6-7.4,0.4l-0.3-0.1
		c-4.6-1.5-4.8-1.5-6.6-2.9c-0.8-0.6-0.7-1.8-0.4-3.9c0.1-0.6,0.2-1.3,0.2-2C209.4,147,209.2,145.2,209,143.8z M224.3,161.2
		c-0.5,0.4-3,1.5-7.5,0.8c-3.2-0.5-4.1-1-4.9-1.6c-0.4-0.3-0.9-0.6-1.6-0.9c-0.8-0.3-1.3-0.5-1.6-0.5c0,0-0.1,0-0.1,0c0,0,0,0,0,0
		c-0.2-0.2-0.3-1-0.3-2c1.9,1.4,2.5,1.6,7,3.1l0.3,0.1c1.5,0.5,2.9,0.7,4.2,0.7c1.9,0,3.5-0.4,4.5-1
		C224.3,160.4,224.3,161,224.3,161.2z M239,159.3c-0.6,0.3-4.5,1.2-8.3,0.2c-2.1-0.6-3.2-0.8-3.8-0.9c-0.5-0.1-0.6-0.1-0.7-0.2
		c0-0.2-0.1-0.3-0.1-0.5c0-0.1,0-0.2-0.1-0.2c0.1-0.3,0.1-0.7,0.1-1.1c0.4,0.1,0.8,0.2,1.3,0.5c1.2,0.5,4.5,1.3,7.7,1.3
		c1.6,0,3.1-0.2,4.3-0.8C239.5,158.3,239.4,159.1,239,159.3z M232.3,145.2c-1.8,0.1-3.4-0.2-3.4-0.2c-0.6-0.1-1.1,0.2-1.2,0.8
		c-0.1,0.6,0.2,1.1,0.8,1.2c0.1,0,1.4,0.3,3.2,0.3c0.2,0,0.4,0,0.6,0c0.1,1.5,0.9,2.6,3.9,3.7c1.9,0.7,3.1,1.6,3.4,2.4
		c0.1,0.2,0.2,0.7-0.3,1.5c-1.2,1.9-8.1,1.2-11,0c-0.7-0.3-1.3-0.5-1.7-0.6c-0.9-0.3-0.9-0.3-1.3-1.3c-0.4-1-0.2-1.8,0.1-3
		c0.2-0.8,0.4-1.6,0.4-2.7c0.1-2.1-0.2-6.1-0.4-7.9c2.3,0.3,5.4,0.3,7.1,0c0,0.7,0,1.6-0.1,2.5c-2.5,0.3-3.6-0.1-3.7-0.1
		c-0.5-0.2-1.1,0.1-1.3,0.7c-0.2,0.5,0.1,1.1,0.7,1.3c0.1,0,0.9,0.3,2.5,0.3c0.5,0,1.1,0,1.8-0.1
		C232.3,144.5,232.3,144.9,232.3,145.2z"/>
	<path d="M208.7,84.6c0.3,0.2,0.6,0.5,1,0.5c0.1,0,0.1,0,0.2,0c0.6-0.2,2.9-3.1,2.9-3.7c0-0.7-1.5-2.4-2-2.7c-0.4-0.3-0.8-0.2-1-0.1
		c-0.7,0.3-3.2,2.8-3.2,3.6C206.7,83,208.5,84.4,208.7,84.6z M210.2,80.3c0.3,0.3,0.6,0.7,0.8,1c-0.3,0.5-1,1.4-1.5,1.9
		c-0.3-0.3-0.8-0.7-1.1-1C208.9,81.6,209.7,80.7,210.2,80.3z"/>
	<path d="M211.6,110.4c0.4,0.3,1,1.5,1.4,2.1c0.2,0.4,0.5,0.6,0.9,0.6c0.1,0,0.3,0,0.4-0.1c0.5-0.2,0.7-0.9,0.5-1.4
		c-0.2-0.3-1-2.1-1.9-2.8c-0.5-0.4-1-1.3-1.2-1.6c-0.3-0.5-0.9-0.7-1.4-0.5c-0.5,0.3-0.7,0.9-0.5,1.4
		C210,108.3,210.7,109.6,211.6,110.4z"/>
	<path d="M224.2,113c0.1,0.1,0.3,0.1,0.4,0.1c0.4,0,0.8-0.2,0.9-0.6c0.2-0.4,1.7-3.6,1.9-5.5c0.1-0.6-0.3-1.1-0.9-1.1
		c-0.6-0.1-1.1,0.3-1.1,0.9c-0.2,1.4-1.3,4-1.7,4.9C223.5,112.2,223.7,112.8,224.2,113z"/>
	<path d="M180.2,152.1c-13.7,1.4-19.1-2-24.4-5.2c-3.9-2.4-7.6-4.7-13.9-4.7c-7,0-11.6,3.1-16.1,6c-5.3,3.5-10.2,6.8-19.2,5.8
		c-0.8-0.1-1.5,0.5-1.6,1.3c-0.1,0.8,0.5,1.5,1.3,1.6c1.2,0.1,2.3,0.2,3.4,0.2c7.9,0,12.9-3.3,17.7-6.4c4.3-2.8,8.4-5.5,14.5-5.5
		c5.5,0,8.7,2,12.4,4.3c5.4,3.4,11.6,7.2,26.2,5.7c0.8-0.1,1.4-0.8,1.3-1.6C181.7,152.6,181,152,180.2,152.1z"/>
	<path d="M372.1,156.4c-8.9,1-13.9-2.3-19.2-5.8c-4.5-3-9.1-6-16.1-6c-6.3,0-10,2.3-13.9,4.7c-5.3,3.3-10.7,6.6-24.4,5.2
		c-0.8-0.1-1.5,0.5-1.6,1.3c-0.1,0.8,0.5,1.5,1.3,1.6c14.6,1.5,20.8-2.3,26.2-5.7c3.7-2.3,6.9-4.3,12.4-4.3c6.1,0,10.2,2.7,14.5,5.5
		c4.8,3.2,9.8,6.4,17.7,6.4c1.1,0,2.2-0.1,3.4-0.2c0.8-0.1,1.4-0.8,1.3-1.6C373.6,156.9,372.9,156.4,372.1,156.4z"/>
</g>
</svg>
