<?xml version="1.0" encoding="utf-8"?>
<!-- Generator: Adobe Illustrator 22.1.0, SVG Export Plug-In . SVG Version: 6.00 Build 0)  -->
<svg version="1.1" id="Layer_1" xmlns="http://www.w3.org/2000/svg" xmlns:xlink="http://www.w3.org/1999/xlink" x="0px" y="0px"
	 viewBox="0 0 485 149.7" style="enable-background:new 0 0 485 149.7;" xml:space="preserve">
<style type="text/css">
	.st0{fill:#40FC81;}
</style>
<title>estudio</title>
<desc>Created with Sketch.</desc>
<g>
	<polygon class="st0" points="331.3,14.7 331.3,14.7 331.4,14.8 	"/>
	<path class="st0" d="M331.4,15.2C331.5,15.2,331.5,15.2,331.4,15.2c0-0.1-0.1-0.2-0.2-0.3C331.1,14.9,331.6,15.1,331.4,15.2z"/>
	<path class="st0" d="M331.4,15.2c-0.1,0.1,0,0.1,0.1,0.2C331.4,15.3,331.6,15.2,331.4,15.2z"/>
	<path class="st0" d="M337.2,17c-0.2-0.1-0.4-0.1-0.7-0.1s-0.6,0.1-0.9,0.2c0,0,0,0,0.1-0.1c-0.7,0.1-1,0.1-1.4,0.2l0,0
		c-0.1,0-0.1,0-0.2,0.1c-0.3-0.8-0.6-1.5-0.8-2c0-0.3,0-0.6-0.2-0.8l-0.1,0.1c0-0.2-0.1-0.2-0.2-0.3c-0.1,0-0.1,0-0.1,0l0,0
		l-0.1-0.1l0,0c-0.1-0.1-0.2,0-0.2,0.2l0,0c-0.1,0.1-0.2,0.2-0.3,0.4c0,0,0,0,0,0.1c0,0,0,0.1-0.1,0.1c0,0-0.1,0-0.2,0
		c0-0.1-0.2,0.1-0.2-0.1c-0.1,0-0.1,0.3,0,0.3s0.2,0.1,0.2,0.1c-0.1,0.5-0.3,1.4-0.5,2.6c-0.1,0-0.2,0-0.2,0.1c-0.1,0-0.1,0-0.2,0
		c0-0.1,0-0.2,0-0.3h0.1c-0.2-0.7,0-1.3,0.2-2c-0.1,0-0.1,0.1-0.2,0c-0.1,0.2,0.1,0.4-0.1,0.6h-0.1c-0.1,0.1,0.2,0.1,0.1,0.2
		c-0.1,0-0.1,0-0.1,0c0,0.3-0.1,0.6,0,0.9c-0.2,0-0.1,0.3-0.2,0.4c0.1,0.1,0,0.2,0.1,0.2l0,0c-0.6,0-1.1,0.1-1.7,0.1
		c-0.4,0-0.7,0.1-0.9,0.3c-0.1,0.2,0,0.3,0.1,0.4s0.3,0.2,0.4,0.3h-0.1c0.7,0.3,1.3,0.7,1.8,1.1c0,0.3-0.1,0.5-0.2,0.8
		c0.1,0.3,0,0.7-0.1,1.1s-0.1,0.8,0.1,1l0,0c0.3,0.1,0.5-0.1,0.7-0.2c0.1-0.1,0.1-0.2,0.2-0.3c0.5-0.2,1.1-0.7,1.6-1.1
		c0.2,0.1,0.4,0.2,0.5,0.3c0.2,0.1,0.3,0.2,0.5,0.3c0.1,0.1,0.2,0.1,0.3,0.2c0.2,0.3,0.6,0.5,0.9,0.6l0.1,0.1
		c0.6,0.4,0.8,0.4,0.8,0.1c0.1-0.2,0.1-0.4,0.1-0.7c-0.1-0.4-0.2-0.7-0.4-1c-0.2-0.4-0.4-0.7-0.6-1.1c0-0.1-0.1-0.2-0.1-0.3
		c0.7-0.5,1.4-1,2.1-1.5c0.2-0.2,0.3-0.4,0.3-0.6C337.5,17.4,337.4,17.1,337.2,17z M331,20.1c-0.1,0.4-0.2,0.7-0.3,1.1
		c0-0.2,0.1-0.5,0.1-0.7l0,0c0-0.1-0.1-0.1-0.1-0.2c0,0,0,0,0.1,0C331,20.4,331,20.2,331,20.1L331,20.1z M335.9,18.6
		c0.2-0.1,0.3-0.2,0.4-0.3C336.3,18.4,336.1,18.5,335.9,18.6z M336.4,18.2L336.4,18.2C336.5,18.2,336.5,18.2,336.4,18.2L336.4,18.2z
		"/>
</g>
<g>
	<polygon class="st0" points="462.3,18.9 462.3,18.9 462.3,19 	"/>
	<path class="st0" d="M462.3,19.3C462.4,19.3,462.4,19.3,462.3,19.3c0-0.1-0.1-0.2-0.2-0.3C462.1,19.1,462.5,19.2,462.3,19.3z"/>
	<path class="st0" d="M462.3,19.3c-0.1,0.1,0,0.1,0.1,0.2C462.3,19.4,462.5,19.3,462.3,19.3z"/>
	<path class="st0" d="M467.5,20.9c-0.2-0.1-0.4-0.1-0.6-0.1c-0.3,0-0.5,0.1-0.8,0.2c0,0,0,0,0.1-0.1c-0.6,0.1-0.9,0.1-1.2,0.2l0,0
		c-0.1,0-0.1,0-0.2,0.1c-0.3-0.7-0.5-1.3-0.7-1.8c0-0.3,0-0.5-0.2-0.7l-0.1,0.1c0-0.2-0.1-0.2-0.2-0.3c-0.1,0-0.1,0-0.1,0l0,0
		l-0.1-0.1l0,0c-0.1-0.1-0.2,0-0.2,0.2l0,0c-0.1,0.1-0.2,0.2-0.3,0.4c0,0,0,0,0,0.1c0,0,0,0.1-0.1,0.1c0,0-0.1,0-0.2,0
		c0-0.1-0.2,0.1-0.2-0.1c-0.1,0-0.1,0.3,0,0.3s0.2,0.1,0.2,0.1c-0.1,0.4-0.3,1.2-0.4,2.3c-0.1,0-0.2,0-0.2,0.1c-0.1,0-0.1,0-0.2,0
		c0-0.1,0-0.2,0-0.3h0.1c-0.2-0.6,0-1.2,0.2-1.8c-0.1,0-0.1,0.1-0.2,0c-0.1,0.2,0.1,0.4-0.1,0.5h-0.1c-0.1,0.1,0.2,0.1,0.1,0.2
		c-0.1,0-0.1,0-0.1,0c0,0.3-0.1,0.5,0,0.8c-0.2,0-0.1,0.3-0.2,0.4c0.1,0.1,0,0.2,0.1,0.2l0,0c-0.5,0-1,0.1-1.5,0.1
		c-0.4,0-0.6,0.1-0.8,0.3c-0.1,0.2,0,0.3,0.1,0.4s0.3,0.2,0.4,0.3h-0.1c0.6,0.3,1.2,0.6,1.6,1c0,0.3-0.1,0.4-0.2,0.7
		c0.1,0.3,0,0.6-0.1,1s-0.1,0.7,0.1,0.9l0,0c0.3,0.1,0.4-0.1,0.6-0.2c0.1-0.1,0.1-0.2,0.2-0.3c0.4-0.2,1-0.6,1.4-1
		c0.2,0.1,0.4,0.2,0.4,0.3c0.2,0.1,0.3,0.2,0.4,0.3c0.1,0.1,0.2,0.1,0.3,0.2c0.2,0.3,0.5,0.4,0.8,0.5l0.1,0.1
		c0.5,0.4,0.7,0.4,0.7,0.1c0.1-0.2,0.1-0.4,0.1-0.6c-0.1-0.4-0.2-0.6-0.4-0.9c-0.2-0.4-0.4-0.6-0.5-1c0-0.1-0.1-0.2-0.1-0.3
		c0.6-0.4,1.2-0.9,1.9-1.3c0.2-0.2,0.3-0.4,0.3-0.5C467.8,21.3,467.7,21,467.5,20.9z M462,23.7c-0.1,0.4-0.2,0.6-0.3,1
		c0-0.2,0.1-0.4,0.1-0.6l0,0c0-0.1-0.1-0.1-0.1-0.2c0,0,0,0,0.1,0C462,23.9,462,23.8,462,23.7L462,23.7z M466.3,22.3
		c0.2-0.1,0.3-0.2,0.4-0.3C466.7,22.2,466.5,22.2,466.3,22.3z M466.8,22L466.8,22C466.9,22,466.9,22,466.8,22L466.8,22z"/>
</g>
<g>
	<polygon class="st0" points="40.6,44.1 40.6,44.1 40.7,44.2 	"/>
	<path class="st0" d="M40.7,44.6C40.8,44.6,40.8,44.6,40.7,44.6c0-0.1-0.1-0.2-0.2-0.3C40.4,44.3,40.9,44.5,40.7,44.6z"/>
	<path class="st0" d="M40.7,44.6c-0.1,0.1,0,0.1,0.1,0.2C40.7,44.7,40.9,44.6,40.7,44.6z"/>
	<path class="st0" d="M46.5,46.4c-0.2-0.1-0.4-0.1-0.7-0.1s-0.6,0.1-0.9,0.2c0,0,0,0,0.1-0.1c-0.7,0.1-1,0.1-1.4,0.2l0,0
		c-0.1,0-0.1,0-0.2,0.1c-0.3-0.8-0.6-1.5-0.8-2c0-0.3,0-0.6-0.2-0.8L42.3,44c0-0.2-0.1-0.2-0.2-0.3c-0.1,0-0.1,0-0.1,0l0,0l-0.1-0.1
		l0,0c-0.1-0.1-0.2,0-0.2,0.2l0,0c-0.1,0.1-0.2,0.2-0.3,0.4c0,0,0,0,0,0.1c0,0,0,0.1-0.1,0.1c0,0-0.1,0-0.2,0c0-0.1-0.2,0.1-0.2-0.1
		c-0.1,0-0.1,0.3,0,0.3s0.2,0.1,0.2,0.1c-0.1,0.5-0.3,1.4-0.5,2.6c-0.1,0-0.2,0-0.2,0.1c-0.1,0-0.1,0-0.2,0c0-0.1,0-0.2,0-0.3h0.1
		c-0.2-0.7,0-1.3,0.2-2c-0.1,0-0.1,0.1-0.2,0c-0.1,0.2,0.1,0.4-0.1,0.6h-0.1c-0.1,0.1,0.2,0.1,0.1,0.2c-0.1,0-0.1,0-0.1,0
		c0,0.3-0.1,0.6,0,0.9c-0.2,0-0.1,0.3-0.2,0.4c0.1,0.1,0,0.2,0.1,0.2l0,0c-0.6,0-1.1,0.1-1.7,0.1c-0.4,0-0.7,0.1-0.9,0.3
		c-0.1,0.2,0,0.3,0.1,0.4s0.3,0.2,0.4,0.3h-0.1c0.7,0.3,1.3,0.7,1.8,1.1c0,0.3-0.1,0.5-0.2,0.8c0.1,0.3,0,0.7-0.1,1.1
		c-0.1,0.4-0.1,0.8,0.1,1l0,0c0.3,0.1,0.5-0.1,0.7-0.2c0.1-0.1,0.1-0.2,0.2-0.3c0.5-0.2,1.1-0.7,1.6-1.1c0.2,0.1,0.4,0.2,0.5,0.3
		c0.2,0.1,0.3,0.2,0.5,0.3c0.1,0.1,0.2,0.1,0.3,0.2c0.2,0.3,0.6,0.5,0.9,0.6l0.1,0.1c0.6,0.4,0.8,0.4,0.8,0.1
		c0.1-0.2,0.1-0.4,0.1-0.7c-0.1-0.4-0.2-0.7-0.4-1c-0.2-0.4-0.4-0.7-0.6-1.1c0-0.1-0.1-0.2-0.1-0.3c0.7-0.5,1.4-1,2.1-1.5
		c0.2-0.2,0.3-0.4,0.3-0.6C46.8,46.8,46.7,46.5,46.5,46.4z M40.3,49.5c-0.1,0.4-0.2,0.7-0.3,1.1c0-0.2,0.1-0.5,0.1-0.7l0,0
		c0-0.1-0.1-0.1-0.1-0.2c0,0,0,0,0.1,0C40.3,49.8,40.3,49.6,40.3,49.5L40.3,49.5z M45.2,48c0.2-0.1,0.3-0.2,0.4-0.3
		C45.6,47.8,45.4,47.9,45.2,48z M45.7,47.6L45.7,47.6C45.8,47.6,45.8,47.6,45.7,47.6L45.7,47.6z"/>
</g>
<g>
	<path class="st0" d="M3.3,108.8c-0.1-1,0.7-2.8,2.3-3.1c2.6-0.6,3.7,2.4,3.6,3.2c-0.1,0.8-1.9,2.4-3.3,2.5
		C4.6,111.3,3.5,109.7,3.3,108.8z"/>
	<g>
		<path class="st0" d="M2.7,108.8L2.7,108.8L2.7,108.8z"/>
		<path class="st0" d="M2.9,109C2.9,109,3,109,2.9,109c0,0-0.1,0-0.2-0.1C2.5,108.9,3,109,2.9,109z"/>
		<path class="st0" d="M2.9,109.1C2.8,109.2,3,109.1,2.9,109.1C2.9,109.1,3,109,2.9,109.1z"/>
		<path class="st0" d="M4.9,111.5L4.9,111.5L4.9,111.5z"/>
		<path class="st0" d="M5.9,111.2L5.9,111.2c-0.1,0.1-0.3-0.1-0.4,0l0,0c-0.3-0.1-0.7-0.2-1.1-0.3l0,0c0,0-0.1,0.1-0.1,0l0,0
			c0-0.2-0.3-0.1-0.2-0.2c0,0-0.1,0-0.1,0.1c-0.3-0.2-0.5-0.4-0.8-0.7l0.1-0.1c-0.4-0.1-0.5-0.4-0.4-0.7c-0.1,0-0.1,0.1-0.2,0.1
			c-0.1,0.1,0.2,0.1,0.1,0.2H2.7c0,0.1,0.2-0.1,0.1,0c0,0.1-0.1,0-0.1,0c0.1,0.1,0.1,0.3,0.3,0.3c-0.1,0.1,0.1,0.1,0,0.3
			c0.1,0,0.1,0,0.2,0c0.2,0.4,0.6,0.8,0.9,1.1c0.4-0.2,0.4,0.3,0.7,0.4l0,0c0.1,0,0.2-0.1,0.3,0l0.1-0.1c0.3,0.2,0.6,0.2,0.9,0.2
			c0.3-0.1,0.6-0.2,0.9-0.2c0.6-0.3,1.3-0.4,1.5-1.2l0,0c0.1-0.2,0.3-0.3,0.3-0.4l0,0c0-0.3,0.1-0.5,0.3-0.7c0.1-0.3,0-0.6-0.1-0.7
			c-0.1-0.5-0.3-1-0.7-1.5h0.1c-0.3-0.2-0.3-0.8-0.8-1c-0.1-0.2-0.4-0.2-0.7-0.3c-0.2,0-0.5,0.1-0.7-0.2c-0.1-0.2-0.3,0-0.4,0
			c-0.1,0.1-0.2,0.2-0.4,0.1c-0.7-0.4-1.1,0.2-1.3,0.8c-0.5,0.2-0.4,0.9-0.9,1c0.1,0.3-0.4,0.3-0.4,0.6h0.1c-0.3,0.1,0.3,0.2,0,0.3
			l0,0c-0.2,0,0.4,0.1,0.2,0.1h0.1c0,0.1-0.1,0-0.1,0.1c0,0,0.2,0,0.1,0c-0.4,0,0.1,0.1-0.3,0.2c0,0-0.1,0.1-0.2,0
			c0,0,0,0.1,0.2,0.1s0.3,0,0.5-0.1H3.3c0.1,0,0.1,0,0.2,0c0-0.1,0.2-0.1,0.3-0.1l0,0c-0.2,0-0.1-0.1,0-0.1h0.1c0.2,0-0.3-0.1,0,0
			c-0.1-0.1,0-0.3,0-0.4c-0.1,0,0-0.1-0.2-0.1c0.2,0,0.3-0.1,0.3-0.1l0,0c0.3,0-0.2-0.2,0.1-0.1c-0.2-0.1,0.1-0.1-0.1-0.2
			c0.1,0,0.1,0,0.1,0.1c0.1-0.1,0.2-0.2,0.3-0.3c-0.1-0.2,0.2-0.1,0-0.4c0.1,0,0.3,0,0.2-0.2l0,0c0.1-0.1,0.1-0.2,0.1-0.4
			c0.2,0.2,0.2,0.1,0.3,0.2c0-0.1,0.1-0.2,0.1-0.4c0.1,0.1,0-0.1,0.1,0.1c0-0.5,0.6-0.5,0.9-0.1l0,0c0-0.1,0-0.3,0.1-0.5l0,0
			c0.1,0,0.1,0.1,0.2,0.1c0,0,0,0,0,0.1c0.1-0.1,0.1,0.2,0.2,0v0.1V106c0,0.1,0,0.2,0,0.1c0.4,0.1,1,0.2,1.4,0.6H7.9h0.2
			c0,0,0,0-0.1,0c0,0.2,0.2,0.2,0.3,0.3c0,0-0.1,0-0.1,0.1c0.2,0-0.1,0.3,0.2,0.1l-0.1,0.1c0.3,0.2,0.4,0.4,0.3,0.7
			c0.4,0.1,0.2,0.4,0.5,0.6H9c0.1,0.1,0.1,0.3,0,0.5c-0.1,0.1-0.2,0.3-0.3,0.4s-0.1,0.2-0.2,0.3L8.3,110c0.1,0.4-0.5,0.2-0.5,0.6
			l-0.1-0.1c0.1,0.2-0.2,0.1,0,0.3H7.6c0.1,0.4-0.4,0-0.4,0.4v-0.1c0,0.1-0.1,0.1-0.1,0.1s0,0,0-0.1c-0.3-0.1-0.3,0.2-0.5,0.3v-0.1
			c0,0.2-0.2,0.1-0.3,0.2v-0.1v0.1v-0.1C6.2,111,6.1,111.2,5.9,111.2z"/>
		<path class="st0" d="M4.4,110.8L4.4,110.8C4.4,110.7,4.4,110.7,4.4,110.8z"/>
		<path class="st0" d="M3.9,108.5L3.9,108.5C4,108.5,3.9,108.5,3.9,108.5z"/>
	</g>
</g>
<g>
	<path class="st0" d="M139.2,34.1c-0.1-1,0.7-2.8,2.3-3.1c2.6-0.6,3.7,2.4,3.6,3.2c-0.1,0.8-1.9,2.4-3.3,2.5
		C140.4,36.6,139.3,35,139.2,34.1z"/>
	<g>
		<path class="st0" d="M138.6,34.2L138.6,34.2L138.6,34.2z"/>
		<path class="st0" d="M138.8,34.3C138.8,34.3,138.9,34.3,138.8,34.3c0,0-0.1,0-0.2-0.1C138.4,34.2,138.9,34.3,138.8,34.3z"/>
		<path class="st0" d="M138.8,34.4C138.6,34.5,138.9,34.4,138.8,34.4C138.8,34.4,138.9,34.3,138.8,34.4z"/>
		<path class="st0" d="M140.8,36.8L140.8,36.8L140.8,36.8z"/>
		<path class="st0" d="M141.7,36.5L141.7,36.5c-0.1,0.1-0.3-0.1-0.4,0l0,0c-0.3-0.1-0.7-0.2-1.1-0.3l0,0c0,0-0.1,0.1-0.1,0l0,0
			c0-0.2-0.3-0.1-0.2-0.2c0,0-0.1,0-0.1,0.1c-0.3-0.2-0.5-0.4-0.8-0.7l0.1-0.1c-0.4-0.1-0.5-0.4-0.4-0.7c-0.1,0-0.1,0.1-0.2,0.1
			c-0.1,0.1,0.2,0.1,0.1,0.2h-0.1c0,0.1,0.2-0.1,0.1,0c0,0.1-0.1,0-0.1,0c0.1,0.1,0.1,0.3,0.3,0.3c-0.1,0.1,0.1,0.1,0,0.3
			c0.1,0,0.1,0,0.2,0c0.2,0.4,0.6,0.8,0.9,1.1c0.4-0.2,0.4,0.3,0.7,0.4l0,0c0.1,0,0.2-0.1,0.3,0l0.1-0.1c0.3,0.2,0.6,0.2,0.9,0.2
			c0.3-0.1,0.6-0.2,0.9-0.2c0.6-0.3,1.3-0.4,1.5-1.2l0,0c0.1-0.2,0.3-0.3,0.3-0.4l0,0c0-0.3,0.1-0.5,0.3-0.7c0.1-0.3,0-0.6-0.1-0.7
			c-0.1-0.5-0.3-1-0.7-1.5h0.1c-0.3-0.2-0.3-0.8-0.8-1c-0.1-0.2-0.4-0.2-0.7-0.3c-0.2,0-0.5,0.1-0.7-0.2c-0.1-0.2-0.3,0-0.4,0
			c-0.1,0.1-0.2,0.2-0.4,0.1c-0.7-0.4-1.1,0.2-1.3,0.8c-0.5,0.2-0.4,0.9-0.9,1c0.1,0.3-0.4,0.3-0.4,0.6h0.1c-0.3,0.1,0.3,0.2,0,0.3
			l0,0c-0.2,0,0.4,0.1,0.2,0.1h0.1c0,0.1-0.1,0-0.1,0.1c0,0,0.2,0,0.1,0c-0.4,0,0.1,0.1-0.3,0.2c0,0-0.1,0.1-0.2,0
			c0,0,0,0.1,0.2,0.1s0.3,0,0.5-0.1h-0.1c0.1,0,0.1,0,0.2,0c0-0.1,0.2-0.1,0.3-0.1l0,0c-0.2,0-0.1-0.1,0-0.1h0.1c0.2,0-0.3-0.1,0,0
			c-0.1-0.1,0-0.3,0-0.4c-0.1,0,0-0.1-0.2-0.1c0.2,0,0.3-0.1,0.3-0.1l0,0c0.3,0-0.2-0.2,0.1-0.1c-0.2-0.1,0.1-0.1-0.1-0.2
			c0.1,0,0.1,0,0.1,0.1c0.1-0.1,0.2-0.2,0.3-0.3c-0.1-0.2,0.2-0.1,0-0.4c0.1,0,0.3,0,0.2-0.2l0,0c0.1-0.1,0.1-0.2,0.1-0.4
			c0.2,0.2,0.2,0.1,0.3,0.2c0-0.1,0.1-0.2,0.1-0.4c0.1,0.1,0-0.1,0.1,0.1c0-0.5,0.6-0.5,0.9-0.1l0,0c0-0.1,0-0.3,0.1-0.5l0,0
			c0.1,0,0.1,0.1,0.2,0.1c0,0,0,0,0,0.1c0.1-0.1,0.1,0.2,0.2,0v0.1v-0.1c0,0.1,0,0.2,0,0.1c0.4,0.1,1,0.2,1.4,0.6h-0.1h0.2
			c0,0,0,0-0.1,0c0,0.2,0.2,0.2,0.3,0.3c0,0-0.1,0-0.1,0.1c0.2,0-0.1,0.3,0.2,0.1l-0.1,0.1c0.3,0.2,0.4,0.4,0.3,0.7
			c0.4,0.1,0.2,0.4,0.5,0.6h-0.1c0.1,0.1,0.1,0.3,0,0.5c-0.1,0.1-0.2,0.3-0.3,0.4s-0.1,0.2-0.2,0.3l-0.1-0.1
			c0.1,0.4-0.5,0.2-0.5,0.6l-0.1-0.1c0.1,0.2-0.2,0.1,0,0.3h-0.1c0.1,0.4-0.4,0-0.4,0.4v-0.1c0,0.1-0.1,0.1-0.1,0.1s0,0,0-0.1
			c-0.3-0.1-0.3,0.2-0.5,0.3v-0.1c0,0.2-0.2,0.1-0.3,0.2v-0.1v0.1v-0.1C142,36.3,141.9,36.5,141.7,36.5z"/>
		<path class="st0" d="M140.2,36.1L140.2,36.1C140.2,36,140.2,36,140.2,36.1z"/>
		<path class="st0" d="M139.7,33.8L139.7,33.8C139.8,33.9,139.7,33.8,139.7,33.8z"/>
	</g>
</g>
<g>
	<path class="st0" d="M444,65.8c0.8,0.2,2,1.4,1.9,2.8c-0.2,2.3-3.1,2.3-3.7,2s-1.4-2.3-1-3.5C441.6,65.9,443.2,65.6,444,65.8z"/>
	<g>
		<polygon class="st0" points="444.2,65.1 444.2,65.1 444.1,65.2 		"/>
		<path class="st0" d="M444,65.3C444,65.3,444,65.4,444,65.3c0,0,0.1-0.1,0.1-0.2C444.1,64.9,444,65.4,444,65.3z"/>
		<path class="st0" d="M443.9,65.3C443.9,65.2,443.8,65.4,443.9,65.3C443.9,65.3,443.9,65.4,443.9,65.3z"/>
		<path class="st0" d="M441.3,66.3C441.3,66.3,441.3,66.2,441.3,66.3C441.3,66.2,441.3,66.2,441.3,66.3z"/>
		<path class="st0" d="M441.3,67.1L441.3,67.1c0-0.2,0.2-0.2,0.2-0.4l0,0c0.2-0.2,0.3-0.5,0.5-0.8c0,0,0,0,0,0.1v-0.1c0,0,0,0,0,0.1
			c0.1,0.1,0.1-0.2,0.2-0.1v-0.1c0.2-0.2,0.5-0.3,0.8-0.5v0.1c0.2-0.3,0.5-0.2,0.8-0.1c0-0.1,0-0.1,0-0.2c-0.1-0.1-0.2,0.2-0.3,0V65
			c-0.1,0,0,0.2-0.1,0.1c0-0.1,0-0.1,0-0.1c-0.1,0-0.3,0-0.4,0.2c0-0.2-0.1,0-0.2-0.1c0,0.1-0.1,0.1,0,0.2c-0.4,0-0.8,0.3-1.2,0.5
			c0,0.4-0.4,0.2-0.5,0.5l0,0c0,0.1,0,0.2-0.1,0.3c0,0,0,0.1,0.1,0.1c-0.3,0.2-0.4,0.5-0.4,0.7c0,0.3,0,0.5-0.1,0.8
			c0,0.6-0.1,1.2,0.5,1.6c0,0,0,0-0.1,0c0.1,0.1,0.1,0.3,0.2,0.4l0,0c0.2,0.1,0.3,0.3,0.5,0.4c0.2,0.2,0.4,0.2,0.6,0.1
			c0.4,0.1,0.9,0,1.4-0.1v0.1c0.3-0.2,0.8,0,1.1-0.3c0.2,0,0.3-0.3,0.4-0.5s0.1-0.4,0.3-0.5c0.2,0,0.2-0.2,0.1-0.4
			c0-0.2-0.1-0.3,0.1-0.4c0.6-0.4,0.1-1-0.3-1.2c0-0.5-0.6-0.5-0.6-1c-0.3,0-0.1-0.5-0.3-0.6v0.1c0.1-0.3-0.3,0.2-0.2-0.1l0,0
			c0-0.2-0.3,0.3-0.2,0.1V66c-0.1,0,0-0.1,0-0.1L444,66c0.1-0.3-0.1,0,0-0.3c0,0,0-0.2,0.1-0.2c0,0-0.1-0.1-0.1,0.1
			s-0.1,0.3-0.1,0.5V66c0,0.1,0,0.1,0,0.2c0,0,0,0.2,0,0.3l0,0c0.1-0.1,0.1,0,0.1,0v0.1c-0.1,0.1,0.2-0.3,0,0c0.1,0,0.2,0,0.3,0.1
			c0.1-0.1,0.1,0.1,0.2-0.1c-0.1,0.2-0.1,0.3,0,0.3l0,0c-0.1,0.3,0.2-0.1,0,0.2c0.2-0.2,0,0.1,0.3,0l-0.1,0.1
			c0.1,0.1,0.1,0.2,0.1,0.3c0.2-0.1,0,0.2,0.3,0.1c0,0.1-0.1,0.2,0,0.2l0,0c0.1,0.1,0.1,0.2,0.3,0.2c-0.3,0.1-0.2,0.1-0.3,0.2
			c0.1,0,0.1,0.1,0.3,0.2c-0.1,0,0.1,0.1-0.1,0.1c0.4,0.2,0.2,0.6-0.1,0.7l0,0c0.1,0.1,0.3,0.2,0.4,0.3l0,0c0,0.1-0.2,0-0.2,0.1
			c0,0,0,0-0.1,0c0.1,0.1-0.2,0-0.1,0.1l0,0v0.1c-0.1,0-0.1-0.1-0.1-0.1c-0.2,0.3-0.4,0.8-0.9,0.9v-0.1v0.1c0,0,0,0,0-0.1
			c-0.1-0.1-0.2,0.1-0.3,0.1v-0.1c0,0.2-0.2-0.2-0.2,0.2v-0.1c-0.2,0.2-0.5,0.2-0.7,0.1c-0.2,0.3-0.4,0-0.7,0.2v-0.1
			c-0.2,0.1-0.3-0.1-0.4-0.2s-0.1-0.3-0.2-0.4c0-0.1-0.1-0.2-0.2-0.3h0.1c-0.4-0.1,0.1-0.5-0.3-0.6h0.1c-0.2,0,0-0.1-0.3-0.1
			l0.1-0.1c-0.4-0.1,0.1-0.3-0.2-0.4h0.1c-0.1,0-0.1-0.1-0.1-0.1s0,0,0.1,0c0.3-0.2-0.1-0.3,0-0.5h0.1c-0.1-0.1,0-0.2-0.1-0.3h0.1
			l-0.1-0.1h0.1C441.3,67.4,441.3,67.2,441.3,67.1z"/>
		<path class="st0" d="M442.1,66L442.1,66L442.1,66z"/>
		<path class="st0" d="M444,66.3L444,66.3L444,66.3z"/>
	</g>
</g>
<g>
	<polygon class="st0" points="428.5,77.9 428.5,77.9 428.6,77.7 	"/>
	<path class="st0" d="M428.8,77.7L428.8,77.7c0,0-0.1,0.1-0.2,0.2C428.5,78,428.8,77.6,428.8,77.7z"/>
	<path class="st0" d="M428.9,77.6C428.8,77.8,428.9,77.5,428.9,77.6C428.7,77.8,428.8,77.7,428.9,77.6z"/>
	<path class="st0" d="M427.9,76.3c0.1,0.3,0.2,0.6,0.5,0.8c0,0.1,0,0.2,0.1,0.2h0.1c-0.1,0.1,0.1,0,0.1,0l0,0c0,0,0,0-0.1,0.1l0,0
		c-0.1,0.1,0,0,0.1,0c0,0,0,0,0,0.1l0,0l0,0c0,0,0,0-0.1,0.1c0,0-0.1,0.1-0.2,0.2c0,0,0,0.1,0.1-0.1c0.1-0.1,0.1-0.1,0.1-0.3
		c0.3,0.1,0.8,0.1,1.1-0.1l-0.1,0.1c0,0,0,0,0-0.1v0.1v-0.1c-0.1-0.2-0.1,0.1-0.1,0c0,0,0,0.1,0.1,0.2c-0.2,0.1-0.2,0.2-0.4,0.3
		v-0.1c-0.1,0.3-0.4,0.1-0.5,0.1c-0.1,0.1,0,0.1-0.1,0.1c0,0.1,0.2-0.2,0.2,0V78c0,0.1,0-0.2,0.1-0.1s-0.1,0.1,0,0.1s0.2,0,0.3-0.1
		c0.1,0.2,0.1,0,0.2,0.2c0-0.1,0.1,0,0.1-0.1c0.3,0.1,0.5-0.2,0.7-0.3c0-0.3,0.3-0.1,0.3-0.2l0,0c0-0.1,0.1-0.1,0.1-0.1v-0.1
		c0.2-0.1,0.3-0.2,0.4-0.4c0.1-0.1,0.1-0.4,0.1-0.5c0.1-0.4,0.2-0.8-0.4-0.9c0,0,0,0,0.1,0c-0.1-0.1-0.1-0.2-0.2-0.2l0,0
		c-0.4-0.1-0.5-0.4-0.7-0.2c-0.3-0.1-0.5-0.1-0.8,0V75c-0.2,0.2-0.5-0.1-0.6,0c-0.1-0.1-0.2,0.2-0.2,0.3c0,0.1-0.1,0.1,0,0.2
		c0,0,0,0-0.1,0c0,0,0,0.1-0.1,0c-0.2,0-0.1,0.1,0,0.2c0,0.1-0.1,0.1,0,0.2l0,0C427.5,75.8,427.6,76.1,427.9,76.3z M430.5,76
		L430.5,76C430.6,76,430.6,76,430.5,76z M430.5,76L430.5,76C430.6,75.9,430.6,75.9,430.5,76L430.5,76z M430.6,75.9L430.6,75.9
		C430.7,75.8,430.5,75.8,430.6,75.9z M430.5,75.7L430.5,75.7L430.5,75.7L430.5,75.7z"/>
</g>
<g>
	<polygon class="st0" points="312.5,126.5 312.5,126.5 312.5,126.4 	"/>
	<path class="st0" d="M312.7,126.3L312.7,126.3c0,0-0.1,0.1-0.2,0.2S312.7,126.2,312.7,126.3z"/>
	<path class="st0" d="M312.8,126.3C312.7,126.4,312.8,126.2,312.8,126.3C312.6,126.4,312.7,126.3,312.8,126.3z"/>
	<path class="st0" d="M311.9,124.9c0.1,0.3,0.2,0.6,0.5,0.8c0,0.1,0,0.2,0.1,0.2h0.1c-0.1,0.1,0.1,0,0.1,0l0,0c0,0,0,0-0.1,0.1l0,0
		c-0.1,0.1,0,0,0.1,0c0,0,0,0,0,0.1l0,0l0,0c0,0,0,0-0.1,0.1c0,0-0.1,0.1-0.2,0.2c0,0,0,0.1,0.1-0.1c0.1-0.1,0.1-0.1,0.1-0.3
		c0.3,0.1,0.8,0.1,1.1-0.1l-0.1,0.1c0,0,0,0,0-0.1v0.1v-0.1c-0.1-0.2-0.1,0.1-0.1,0c0,0,0,0.1,0.1,0.2c-0.2,0.1-0.2,0.2-0.4,0.3
		v-0.1c-0.1,0.3-0.4,0.1-0.5,0.1c-0.1,0.1,0,0.1-0.1,0.1c0,0.1,0.2-0.2,0.2,0v0.1c0,0.1,0-0.2,0.1-0.1c0,0.1-0.1,0.1,0,0.1
		s0.2,0,0.3-0.1c0.1,0.2,0.1,0,0.2,0.2c0-0.1,0.1,0,0.1-0.1c0.3,0.1,0.5-0.2,0.7-0.3c0-0.3,0.3-0.1,0.3-0.2l0,0
		c0-0.1,0.1-0.1,0.1-0.1v-0.1c0.2-0.1,0.3-0.2,0.4-0.4s0.1-0.4,0.1-0.5c0.1-0.4,0.2-0.8-0.4-0.9c0,0,0,0,0.1,0
		c-0.1-0.1-0.1-0.2-0.2-0.2l0,0c-0.4-0.1-0.5-0.4-0.7-0.2c-0.3-0.1-0.5-0.1-0.8,0v-0.1c-0.2,0.2-0.5-0.1-0.6,0
		c-0.1-0.1-0.2,0.2-0.2,0.3c0,0.1-0.1,0.1,0,0.2c0,0,0,0-0.1,0c0,0,0,0.1-0.1,0c-0.2,0-0.1,0.1,0,0.2s-0.1,0.1,0,0.2l0,0
		C311.4,124.4,311.6,124.7,311.9,124.9z M314.4,124.7L314.4,124.7C314.5,124.6,314.5,124.6,314.4,124.7z M314.4,124.6L314.4,124.6
		C314.5,124.6,314.5,124.6,314.4,124.6L314.4,124.6z M314.5,124.6L314.5,124.6C314.6,124.4,314.5,124.5,314.5,124.6z M314.4,124.4
		L314.4,124.4L314.4,124.4L314.4,124.4z"/>
</g>
<g>
	<polygon class="st0" points="450.9,26.4 450.9,26.4 450.8,26.5 	"/>
	<path class="st0" d="M450.6,26.5L450.6,26.5c0,0,0.1-0.1,0.2-0.1C451,26.3,450.6,26.6,450.6,26.5z"/>
	<path class="st0" d="M450.5,26.5C450.6,26.4,450.5,26.6,450.5,26.5C450.7,26.4,450.6,26.5,450.5,26.5z"/>
	<path class="st0" d="M450.9,28.1c0-0.3,0-0.6-0.2-0.9c0-0.1,0.1-0.2,0-0.2h-0.1c0.1-0.1-0.1,0-0.1,0l0,0c0,0,0,0,0.1-0.1l0,0
		c0.1-0.1,0,0-0.1,0c0,0,0,0,0-0.1l0,0l0,0c0,0,0,0,0.1-0.1c0,0,0.1-0.1,0.2-0.1c0,0,0-0.1-0.1,0.1c-0.1,0.1-0.1,0.1-0.2,0.2
		c-0.2-0.2-0.7-0.4-1.1-0.3l0.1-0.1c0,0,0,0,0,0.1v-0.1v0.1c0,0.2,0.1-0.1,0.1,0c0,0,0-0.1,0-0.2c0.2,0,0.3-0.1,0.5-0.1v0.1
		c0.2-0.2,0.4,0,0.5,0.1c0.1-0.1,0-0.1,0.1-0.1c0-0.1-0.2,0.1-0.2-0.1v-0.1c0-0.1-0.1,0.2-0.1,0.1s0.1-0.1,0-0.1s-0.2-0.1-0.3,0
		c0-0.2-0.1,0-0.1-0.2c0,0.1-0.1,0-0.1,0.1c-0.2-0.2-0.5,0-0.8,0c-0.1,0.3-0.3,0-0.4,0.1l0,0c0,0.1-0.1,0.1-0.1,0.1v0.1
		c-0.2,0-0.4,0.1-0.5,0.2s-0.2,0.3-0.3,0.4c-0.2,0.3-0.5,0.7,0,1c0,0,0,0-0.1,0c0.1,0.1,0,0.2,0.1,0.3l0,0c0.3,0.2,0.3,0.5,0.6,0.4
		c0.2,0.2,0.4,0.3,0.7,0.3v0.1c0.2-0.1,0.4,0.3,0.6,0.2c0.1,0.1,0.2-0.1,0.3-0.2c0-0.1,0.1-0.1,0.1-0.2c0,0,0,0,0.1,0
		c0,0,0-0.1,0.1,0c0.2,0.1,0.1-0.1,0.1-0.2s0.1-0.1,0.1-0.2l0,0C451.1,28.7,451.1,28.4,450.9,28.1z M448.4,27.4L448.4,27.4
		C448.3,27.4,448.3,27.4,448.4,27.4z M448.4,27.5L448.4,27.5C448.3,27.5,448.3,27.5,448.4,27.5L448.4,27.5z M448.3,27.5L448.3,27.5
		C448.1,27.6,448.3,27.6,448.3,27.5z M448.3,27.7L448.3,27.7L448.3,27.7L448.3,27.7z"/>
</g>
<g>
	<polygon class="st0" points="467.8,127.7 467.8,127.7 467.7,127.8 	"/>
	<path class="st0" d="M467.5,127.8L467.5,127.8c0,0,0.1-0.1,0.2-0.1C467.9,127.6,467.5,127.9,467.5,127.8z"/>
	<path class="st0" d="M467.4,127.8C467.5,127.7,467.4,127.9,467.4,127.8C467.6,127.7,467.5,127.8,467.4,127.8z"/>
	<path class="st0" d="M467.8,129.4c0-0.3,0-0.6-0.2-0.9c0-0.1,0.1-0.2,0-0.2h-0.1c0.1-0.1-0.1,0-0.1,0l0,0c0,0,0,0,0.1-0.1l0,0
		c0.1-0.1,0,0-0.1,0c0,0,0,0,0-0.1l0,0l0,0c0,0,0,0,0.1-0.1c0,0,0.1-0.1,0.2-0.1c0,0,0-0.1-0.1,0.1c-0.1,0.1-0.1,0.1-0.2,0.2
		c-0.2-0.2-0.7-0.4-1.1-0.3l0.1-0.1c0,0,0,0,0,0.1v-0.1v0.1c0,0.2,0.1-0.1,0.1,0c0,0,0-0.1,0-0.2c0.2,0,0.3-0.1,0.5-0.1v0.1
		c0.2-0.2,0.4,0,0.5,0.1c0.1-0.1,0-0.1,0.1-0.1c0-0.1-0.2,0.1-0.2-0.1v-0.1c0-0.1-0.1,0.2-0.1,0.1s0.1-0.1,0-0.1s-0.2-0.1-0.3,0
		c0-0.2-0.1,0-0.1-0.2c0,0.1-0.1,0-0.1,0.1c-0.2-0.2-0.5,0-0.8,0c-0.1,0.3-0.3,0-0.4,0.1l0,0c0,0.1-0.1,0.1-0.1,0.1v0.1
		c-0.2,0-0.4,0.1-0.5,0.2s-0.2,0.3-0.3,0.4c-0.2,0.3-0.5,0.7,0,1c0,0,0,0-0.1,0c0.1,0.1,0,0.2,0.1,0.3l0,0c0.3,0.2,0.3,0.5,0.6,0.4
		c0.2,0.2,0.4,0.3,0.7,0.3v0.1c0.2-0.1,0.4,0.3,0.6,0.2c0.1,0.1,0.2-0.1,0.3-0.2c0-0.1,0.1-0.1,0.1-0.2c0,0,0,0,0.1,0
		c0,0,0-0.1,0.1,0c0.2,0.1,0.1-0.1,0.1-0.2c0-0.1,0.1-0.1,0.1-0.2l0,0C468,130,468,129.7,467.8,129.4z M465.3,128.7L465.3,128.7
		C465.2,128.7,465.2,128.7,465.3,128.7z M465.3,128.8L465.3,128.8C465.2,128.8,465.2,128.8,465.3,128.8L465.3,128.8z M465.2,128.8
		L465.2,128.8C465,128.9,465.2,128.9,465.2,128.8z M465.2,129L465.2,129L465.2,129L465.2,129z"/>
</g>
<g>
	<polygon class="st0" points="61.8,44.3 61.8,44.3 61.7,44.4 	"/>
	<path class="st0" d="M61.5,44.4L61.5,44.4c0,0,0.1-0.1,0.2-0.1C61.9,44.2,61.5,44.5,61.5,44.4z"/>
	<path class="st0" d="M61.4,44.4C61.5,44.3,61.4,44.5,61.4,44.4C61.6,44.3,61.5,44.4,61.4,44.4z"/>
	<path class="st0" d="M61.8,46c0-0.3,0-0.6-0.2-0.9c0-0.1,0.1-0.2,0-0.2h-0.1c0.1-0.1-0.1,0-0.1,0l0,0c0,0,0,0,0.1-0.1l0,0
		c0.1-0.1,0,0-0.1,0c0,0,0,0,0-0.1l0,0l0,0c0,0,0,0,0.1-0.1c0,0,0.1-0.1,0.2-0.1c0,0,0-0.1-0.1,0.1c-0.1,0.1-0.1,0.1-0.2,0.2
		c-0.2-0.2-0.7-0.4-1.1-0.3l0.1-0.1c0,0,0,0,0,0.1v-0.1v0.1c0,0.2,0.1-0.1,0.1,0c0,0,0-0.1,0-0.2c0.2,0,0.3-0.1,0.5-0.1v0.1
		c0.2-0.2,0.4,0,0.5,0.1c0.1-0.1,0-0.1,0.1-0.1c0-0.1-0.2,0.1-0.2-0.1v-0.1c0-0.1-0.1,0.2-0.1,0.1s0.1-0.1,0-0.1s-0.2-0.1-0.3,0
		c0-0.2-0.1,0-0.1-0.2c0,0.1-0.1,0-0.1,0.1c-0.2-0.2-0.5,0-0.8,0c-0.1,0.3-0.3,0-0.4,0.1l0,0c0,0.1-0.1,0.1-0.1,0.1v0.1
		c-0.2,0-0.4,0.1-0.5,0.2s-0.2,0.3-0.3,0.4c-0.2,0.3-0.5,0.7,0,1c0,0,0,0-0.1,0c0.1,0.1,0,0.2,0.1,0.3l0,0c0.3,0.2,0.3,0.5,0.6,0.4
		c0.2,0.2,0.4,0.3,0.7,0.3V47c0.2-0.1,0.4,0.3,0.6,0.2c0.1,0.1,0.2-0.1,0.3-0.2c0-0.1,0.1-0.1,0.1-0.2c0,0,0,0,0.1,0
		c0,0,0-0.1,0.1,0c0.2,0.1,0.1-0.1,0.1-0.2s0.1-0.1,0.1-0.2l0,0C62,46.6,62,46.3,61.8,46z M59.3,45.3L59.3,45.3
		C59.2,45.3,59.2,45.3,59.3,45.3z M59.3,45.4L59.3,45.4C59.2,45.4,59.2,45.4,59.3,45.4L59.3,45.4z M59.2,45.4L59.2,45.4
		C59,45.5,59.2,45.5,59.2,45.4z M59.2,45.6L59.2,45.6L59.2,45.6L59.2,45.6z"/>
</g>
<g>
	<polygon class="st0" points="134.2,29.5 134.2,29.5 134.1,29.6 	"/>
	<path class="st0" d="M133.9,29.6L133.9,29.6c0,0,0.1-0.1,0.2-0.1C134.3,29.4,133.9,29.7,133.9,29.6z"/>
	<path class="st0" d="M133.8,29.6C133.9,29.5,133.8,29.7,133.8,29.6C134,29.5,133.9,29.6,133.8,29.6z"/>
	<path class="st0" d="M134.2,31.2c0-0.3,0-0.6-0.2-0.9c0-0.1,0.1-0.2,0-0.2h-0.1c0.1-0.1-0.1,0-0.1,0l0,0c0,0,0,0,0.1-0.1l0,0
		c0.1-0.1,0,0-0.1,0c0,0,0,0,0-0.1l0,0l0,0c0,0,0,0,0.1-0.1c0,0,0.1-0.1,0.2-0.1c0,0,0-0.1-0.1,0.1c-0.1,0.1-0.1,0.1-0.2,0.2
		c-0.2-0.2-0.7-0.4-1.1-0.3l0.1-0.1c0,0,0,0,0,0.1v-0.1v0.1c0,0.2,0.1-0.1,0.1,0c0,0,0-0.1,0-0.2c0.2,0,0.3-0.1,0.5-0.1v0.1
		c0.2-0.2,0.4,0,0.5,0.1c0.1-0.1,0-0.1,0.1-0.1c0-0.1-0.2,0.1-0.2-0.1v-0.1c0-0.1-0.1,0.2-0.1,0.1s0.1-0.1,0-0.1s-0.2-0.1-0.3,0
		c0-0.2-0.1,0-0.1-0.2c0,0.1-0.1,0-0.1,0.1c-0.2-0.2-0.5,0-0.8,0c-0.1,0.3-0.3,0-0.4,0.1l0,0c0,0.1-0.1,0.1-0.1,0.1v0.1
		c-0.2,0-0.4,0.1-0.5,0.2s-0.2,0.3-0.3,0.4c-0.2,0.3-0.5,0.7,0,1c0,0,0,0-0.1,0c0.1,0.1,0,0.2,0.1,0.3l0,0c0.3,0.2,0.3,0.5,0.6,0.4
		c0.2,0.2,0.4,0.3,0.7,0.3v0.1c0.2-0.1,0.4,0.3,0.6,0.2c0.1,0.1,0.2-0.1,0.3-0.2c0-0.1,0.1-0.1,0.1-0.2c0,0,0,0,0.1,0
		c0,0,0-0.1,0.1,0c0.2,0.1,0.1-0.1,0.1-0.2s0.1-0.1,0.1-0.2l0,0C134.4,31.8,134.4,31.5,134.2,31.2z M131.7,30.5L131.7,30.5
		C131.6,30.5,131.6,30.5,131.7,30.5z M131.7,30.6L131.7,30.6C131.6,30.6,131.6,30.6,131.7,30.6L131.7,30.6z M131.6,30.6L131.6,30.6
		C131.4,30.7,131.6,30.7,131.6,30.6z M131.6,30.8L131.6,30.8L131.6,30.8L131.6,30.8z"/>
</g>
<g>
	<path d="M452.6,140.3c-0.8,0-43.5-0.1-91-0.4c0-6.4,0-26.2,0-44.5c0.1,0,0.2,0,0.3,0c8.2,0,15.4-4,21.1-11.6
		c10.8-14.6,12.9-38.4,8.9-47.2c-1.5-3.4-3.6-4.3-5.1-4.4c-1.8-0.2-3.3,0.2-4.5,1.3c-0.7,0.6-1.3,1.4-1.8,2.3
		c0.2-12.1,0-24.8-6.4-25.4c-1.5-0.1-2.9,0.3-4,1.3c-2.6,2.2-3.6,6.9-4.1,11.5c-1.1-7.9-2.5-14.5-5.9-17c-1.1-0.9-2.5-1.2-3.9-1
		c-4.5,0.7-6.6,7.2-6.7,20.6c0,1.4,0,2.8,0,4.2c-0.9-1.4-1.8-2.6-2.9-3.4c-1.6-1.3-3.5-1.8-5.5-1.5c-1.3,0.2-2.4,0.9-3.3,2
		c-3,4.1-1.8,13.2,0,23.9c0,0.1,0,0.1,0,0.2c-1.8-4.4-3.8-8.5-6.9-8.1c-1.7,0.2-4.5,1.6-4.5,8.8c0,7.6,3.2,17.8,8,25.8
		c4.3,7.1,11.7,15.8,23.1,17.6c0,4.3,0,8.7,0,13c-2.3-2.6-6.2-6.4-11.5-9.9c-0.7-0.4-1.6-0.3-2,0.4c-0.4,0.7-0.3,1.6,0.4,2
		c7.6,5.1,12.2,11,13.1,12.1c0,12.1,0,22.8,0,27.2c-18.4-0.1-37.3-0.2-54.7-0.3c-0.6-17.1-0.7-42.3-0.8-53.3c2.4-0.1,5.7-0.1,9.3,0
		c0,1.6,0.1,2.6,0.1,3.8c-1.8,0.1-3.9,0.3-4.5,0.6c-0.9,0.4-1,1.1-1,1.4l0,0.4c-0.2,19.6,0.6,21.2,1.2,21.7
		c0.3,0.2,1.5,0.8,12.5,0.9c1.1,0,2.1,0,3,0c8.1,0,9.4-0.5,9.6-0.6c0.3-0.2,0.6-0.6,0.6-1c1-20.2,0.3-21.8-0.1-22.3
		c-0.2-0.2-1-0.6-4.8-0.8c0-1.1,0-2.1-0.1-3.7c1.2,0,2,0,2,0c0,0,0,0,0,0c0.9,0,1.7-0.7,1.7-1.7c0-0.9-0.7-1.7-1.7-1.7
		c-0.9,0-19.9-0.5-28-0.3c0-1.3,0-2.1,0-2.1c0-0.1,0-0.2,0-0.3c3.4-3.4,3.4-8.5,3.4-8.7c0-0.1,0-0.1,0-0.2c0-0.1-0.8-7-1.7-14
		c-2-14.8-3.7-14.9-4.6-15.5c-0.6-0.3,1.7-1.5-20.7-1.7c-13.2-0.1-28.6-0.1-46.1-0.1c-18.8,0-35.9,0.1-48.2,0.3
		c-22.7,0.3-26.5,1.3-27.2,1.9c-0.5,0.5-1.6,1.6-4.6,28.9c0,0.1,0,0.2,0,0.3c0.1,1.8,0.7,4.3,2,6.5c0,0,0,0.1,0,0.1
		c0,0.4-0.9,40.2-0.5,60.6c-10,0-20,0.1-29.7,0.1c0.1-2.7,0.7-7.8,0.8-15.2c8.1-0.9,14.8-4.5,19.3-10.5c5.2-6.9,5.8-16,6.1-20.2
		c0.3-6.4-1-13.1-4.6-13.6c-4.1-0.6-5.8,2.9-6.8,5.3c-0.1-1.2-0.1-2.7-0.2-3.9c-0.3-7.6-0.6-17.1-6.9-17.1c-5.8,0-7.9,7.3-9.3,12.2
		c-0.2,0.5-0.3,1.2-0.5,1.7c-0.1-0.4-0.2-0.9-0.2-1.3c-0.7-4.3-1.9-11.5-8.9-10.4c-4.4,0.7-6.9,6-7.8,16.2c0,0.2,0,0.3,0,0.5
		c-0.9-1.8-2.1-4-2.8-4.4c-0.8-0.5-1.7-0.5-2.6-0.1c-4.2,1.9-5.4,13.5-3,23.5c3.1,13.1,12.2,22,24.3,22.1
		c-0.1,7.4-0.6,12.7-0.6,15.3c-20.2,0.1-39.2,0.2-54.3,0.3c0.1-2.5,0.2-8.9,0.2-16.7c6.9-1.2,12.8-4.6,17.1-10.1
		c3.8-4.8,6.5-11.3,7.3-17.9c0.6-4.9,0.2-10.6-2.8-11.5c-1.1-0.4-2-0.1-2.5,0.2c-0.4,0.2-0.8,0.6-1.1,1c0.1-7.7,0.2-17.1-5.5-17.7
		c-3.2-0.4-4.5,4.1-5.5,8.8c-2.5-6-7.5-15.1-16.4-13.3c-2.4,0.5-4.3,1.7-5.6,3.7c-2.4,3.7-2.2,9.2-1.4,14.1
		c-1.7-2.6-4.2-5.9-6.2-6.1c-0.9-0.1-2.2,0.1-3.4,1.5c-4.5,5.3-0.4,14.4,3.1,20.7c-1.7-0.9-3.6-1.4-5.4-0.4
		c-0.8,0.4-2.5,1.7-1.5,5.2c1,3.7,5.7,10.4,10.3,14.8c3.1,2.9,9.2,7.7,15.2,7.7c0.1,0,0.2,0,0.2,0c0,7.7-0.1,14-0.2,16.3
		c-17.7,0.1-29.3,0.2-29.7,0.2c-1.1,0-1.9,0.9-1.9,2c0,1.1,0.9,1.9,1.9,1.9c0,0,0,0,0,0c1.7,0,164.9,0.3,216,0.9
		c23.4,0.3,69.2-1,110.4-0.8c0.3,0.1,0.6,0.2,0.9,0.2c0,0,0,0,0,0c0.3,0,0.6-0.1,0.9-0.2c47.9,0.2,91.2,0.4,92,0.4c0,0,0,0,0,0
		c1.1,0,1.9-0.9,1.9-1.9C454.6,141.2,453.7,140.3,452.6,140.3z M324.7,86.5c0,1.6,0.1,2.5,0.1,3.6c-1.2,0-2.6-0.1-4.2-0.1
		c-1.5,0-3.5-0.1-5.5,0c0-1.1,0-2-0.1-3.6C318.5,86.4,322,86.4,324.7,86.5z M311.7,93.3c0,0.9,0.8,1.7,1.7,1.7
		c0.9,0,1.7-0.8,1.7-1.7c0,0,0-0.2,0-0.5c3.1,0,6.7,0,9.7,0.1c0,0.2,0,0.3,0,0.3c0,0.9,0.8,1.7,1.7,1.7c0.9,0,1.7-0.8,1.7-1.7
		c0,0,0-0.1,0-0.2c1,0.1,1.8,0.2,2.4,0.2c0.2,2.3,0,10.6-0.4,18.4c-3.6,0.4-17.7,0.2-20.7-0.3c-0.2-1.1-0.6-4.9-0.4-18.4
		c0.6-0.1,1.5-0.2,2.7-0.2C311.7,93.2,311.7,93.3,311.7,93.3z M62.3,89.2c-1.1,0.1-1.8,1.1-1.7,2.2c1.1,8.2,1.5,19.1,1.6,28.6
		c-6.2,0.1-14.9-7.2-19.4-14.2c-2.3-3.5-2.4-5.3-2.3-5.6c1.3-0.6,4,1.6,5.5,2.7c1.4,1.1,2.2,1.8,3.2,1.8c0.6,0,1.2-0.3,1.5-0.9
		c0.6-1.1,0.1-1.8-1.5-4.6c-2.8-4.7-9.2-15.6-5.4-20c0.1-0.1,0.3-0.3,0.4-0.3c1.5,0.2,4.3,5.5,5.4,7.6c1.6,3.1,2.5,4.7,4.2,4
		c1.4-0.6,1.2-2.2,1.1-2.8c-0.1-0.6-0.3-1.5-0.5-2.5c-1-4.5-2.8-13-0.2-17.1c0.8-1.2,1.9-1.9,3.4-2.2c7.3-1.4,11.4,7.7,13.9,14.7
		c0.7,1.9,1,2.8,2.3,2.8c1.6,0,1.8-1.2,2.4-4.3c0.4-1.9,1.4-7.5,2.5-8.6c2.4,0.8,2.3,10.5,2.2,14.6c0,1.8,0,3.3,0,4.5
		c0.1,1,0.2,3.3,2.2,3.4c2.2,0.1,2.8-2.2,3.2-4c0.1-0.6,0.4-1.5,0.6-2c0.9,1.6,1.1,8-1.5,15.2c-2.1,5.8-7.4,15.2-19.3,17.4
		c-0.1-9.4-0.5-20.3-1.7-28.7C64.3,89.8,63.3,89,62.3,89.2z M122.4,89.2c-1.1,0-1.9,0.9-1.9,2c0.2,8.5,0.2,19.4,0.1,28.8
		c-14.1-0.1-18.9-11.2-20.5-18c-2.1-9-0.5-17.2,1.3-18.8c1.2,1.3,2.8,7.3,3.6,13.4c0.1,0.9,0.9,1.6,1.9,1.5c0.9-0.1,1.6-0.9,1.5-1.8
		c-0.7-10.6,0.5-25.9,5.1-26.6c3.2-0.5,4.1,2,5,7.6c0.5,2.9,0.8,5.1,2.6,5.8c0.6,0.2,1.3,0.2,1.8-0.1c1.4-0.7,2-2.6,2.9-5.8
		c1.2-4.1,2.8-9.8,6-9.8c3,0,3.3,8.7,3.5,13.8c0.2,5.5,0.3,8,1.9,8.9c0.7,0.4,1.4,0.5,2.1,0.3c1.3-0.5,1.8-1.9,2.4-3.5
		c1-2.8,1.7-4,3.3-3.8c1.3,0.8,2.9,8.1,0.8,16.8c-1.7,6.8-6.7,18-21.5,19.8c0.1-9.4,0.1-20.2-0.1-28.6
		C124.3,90,123.4,89.1,122.4,89.2z M284.7,139.5c-13.7-0.1-25.7-0.2-34.7-0.3c-1.2,0-2.4,0-3.6,0l-0.7-28.4c0-3,0.6-10.4,5.7-15.2
		c3.5-3.3,8.6-4.8,15-4.5c16.9,0.9,18.3,19.1,18.4,21.1C284.8,116.6,284.7,134.6,284.7,139.5z M288.6,139.6c0-5,0.1-23,0-27.4
		c-0.1-8.6-5.4-24.3-22-25.2c-7.6-0.4-13.6,1.4-17.9,5.5c-6.2,5.9-6.9,14.6-6.9,18v27.9c-20.3-0.2-50.7,0.5-84,0.8
		c0-1.1,0-2.2-0.1-3.3c6.4-0.2,13.4-0.2,13.4-0.2c0,0,0,0,0,0c0.7,0,1.2-0.5,1.2-1.2c0-0.7-0.5-1.2-1.2-1.2c-0.1,0-7-0.1-13.5,0.2
		c0-0.7,0-1.4,0-2.2c7.3-0.2,21.1,0,21.2,0.1c0.7,0,1.2-0.5,1.2-1.2c0-0.7-0.5-1.2-1.2-1.2c-0.1,0-13.9-0.3-21.3-0.1
		c0-16.6,0.4-37.9,0.5-46.4c1.4,0.8,3.1,1.3,5.1,1.3c0.2,0,0.5,0,0.7,0c4.5-0.2,7.2-2.5,8.7-5.1c0.4,0.8,0.9,1.5,1.6,2.2
		c1.8,1.9,4.3,2.8,7.4,2.7c5-0.1,8.1-2.8,9.9-5.8c0.5,1.2,1.3,2.4,2.3,3.4c1.8,1.7,4,2.5,6.7,2.4c5.5-0.1,8.4-2.8,10-5.5
		c1.4,2.7,4,5.1,8.3,5.2c5.4,0.1,8.2-2.4,9.8-4.8c0.3,0.5,0.7,1.1,1.2,1.6c2.1,2.3,5.2,3.5,9.3,3.5c4.8,0,7.6-2.9,9.1-6.1
		c2.1,3.8,5.3,5.8,9.1,5.8c4.5,0,7.3-2.6,8.9-5.4c1.6,3.2,4.7,5.9,9.9,5.7c4.7-0.3,7.6-2.8,9.1-5.6c1.4,2.6,3.9,4.9,7.8,5.4
		c2,0.2,3.7,0.1,5.3-0.4c0,6.6,0.1,27.9,0.5,46.1c-1.5,0-3.8,0.1-6.5,0.1c-0.7,0-1.2,0.6-1.2,1.3c0,0.7,0.6,1.2,1.2,1.2c0,0,0,0,0,0
		c2.7-0.1,5-0.1,6.5-0.1c0.1,2.9,0.2,5.7,0.2,8.3C295.5,139.6,292,139.6,288.6,139.6z M299.6,78.3c-1.5,1.3-3.5,1.8-6.1,1.5
		c-6.1-0.7-6.5-8-6.5-8.3c0-0.9-0.8-1.6-1.7-1.6c0,0,0,0,0,0c-0.9,0-1.7,0.7-1.7,1.7c0,0.3-0.3,8.1-7.6,8.5
		c-7.1,0.4-7.9-7.3-7.9-8.1c-0.1-0.9-0.8-1.6-1.7-1.6c-0.9,0-1.6,0.6-1.7,1.5c0,0.3-0.9,7.9-7.3,7.9c-2.6,0-4.7-1.4-6.2-4.1
		c-1.2-2.3-1.6-4.6-1.6-4.6c-0.1-0.9-0.9-1.5-1.8-1.5c-0.9,0.1-1.6,0.8-1.6,1.7c0,0-0.1,2.4-1.1,4.7c-1.2,2.8-3.2,4.1-6,4.1
		c-3,0-5.3-0.8-6.7-2.3c-1.8-1.9-1.8-4.6-1.8-5.3c0-0.2,0-0.3,0-0.3c0-0.9-0.7-1.7-1.6-1.7c-0.9-0.1-1.7,0.6-1.8,1.5
		c0,0,0,0.2,0,0.4c-0.1,1.6-1,7.7-8.2,7.5c-6.1-0.2-6.6-7.3-6.6-7.6c0-0.9-0.8-1.6-1.7-1.6c0,0,0,0,0,0c-0.9,0-1.6,0.7-1.7,1.6
		c0,0.3-0.5,7.7-8.5,7.9c-2.8,0.1-4.7-1.2-5.9-3.9c-1-2.2-1.1-4.6-1.1-4.6c0-0.9-0.7-1.6-1.6-1.7c-0.9,0-1.7,0.6-1.8,1.5
		c0,0.3-0.9,8.5-8.5,8.7c-2.1,0.1-3.7-0.5-4.8-1.7c-2-2-2.2-5.4-2.2-6.3c0-0.1,0-0.2,0-0.3c0-0.9-0.7-1.7-1.7-1.7
		c-0.9,0-1.7,0.7-1.7,1.6c0,0,0,0.1,0,0.3c0,1.4-0.6,7.9-7.4,8.3c-2.4,0.1-4.3-0.7-5.6-2.4c-0.1-0.3-0.3-0.5-0.5-0.7
		c-0.2-0.2-0.3-0.5-0.4-0.8c-1-2-1.3-4.1-1.3-4.6c1.2-11.1,2.8-23.3,3.6-26.4c5-0.4,32.3-0.7,69.7-0.8c34.1-0.1,63.7,0.1,69.2,0.4
		c0.8,3.2,2.5,15.6,3.8,26.9C302.2,72.5,302,76.2,299.6,78.3z M360.1,64c-1.1,0-2,0.8-2,1.9c-0.1,5.8-0.2,15.4-0.3,25.8
		c-18.1-3.3-27.7-27.5-27.7-40c0-3.7,0.9-5.3,1.5-5.4c1.2,0.4,3.2,5.4,4,7.6c1.7,4.4,2.8,7,5,6.7c0.5-0.1,1-0.3,1.3-0.8
		c0.9-1.1,0.6-3.1-0.5-9.5c-1.1-6.8-3-18.1-0.6-21.4c0.3-0.4,0.6-0.6,1-0.6c1-0.1,2,0.1,2.9,0.8c3.7,2.8,5.5,11.6,5.8,14.7
		c0.1,0.9,0.9,1.6,1.9,1.5c0.9-0.1,1.6-0.9,1.5-1.9c0-0.1-1-8.9-0.9-17.8c0.1-15.9,3.2-17.1,3.8-17.2c0.5-0.1,0.9,0,1.3,0.4
		c3,2.2,4.2,11.9,5,17.6c0.3,2,0.5,3.7,0.7,4.9c0.2,1.2,0.6,3.3,2.5,3.3c2.2,0,2.4-2.3,2.8-7c0.4-4.3,0.9-11.4,3.3-13.4
		c0.4-0.4,0.9-0.5,1.5-0.5c0.5,0,2.1,0.7,2.9,7.8c0.5,5,0.4,11.4,0.3,16.6c-0.2,8.7-0.2,11.1,1.9,11.5c0.6,0.1,1.2,0,1.7-0.4
		c1.1-0.8,1.2-2.4,1.5-5c0.2-2.7,0.6-6.8,2.3-8.2c0.3-0.3,0.9-0.6,2-0.5c1.1,0.1,1.8,1.4,2.3,2.4c3.5,7.9,1.4,30.3-8.6,43.8
		c-5.1,6.9-11.3,10.3-18.6,10.2c0.1-10.5,0.1-20.2,0.3-26.1C362,65,361.1,64.1,360.1,64z"/>
	<path d="M194.5,114.2c0,0-0.4,0-1.1,0c0-3.1,0-9.8,0-12.3c-0.1-5.5-2.2-15-12.8-15.5c-4.8-0.3-8.9,0.2-11.6,2.8
		c-3.9,3.7-4.4,9.2-4.4,11.4l-0.6,13.5c-1.6,0.1-1.7,0.3-2,0.7c-0.4,0.5-0.6,0.8-0.4,7c0,0.9,0.8,1.6,1.7,1.6
		c0.1,0,7.7,0.1,15.4,0.2c3.3,0,5.9,0,8.1,0c8.4,0,8.6-0.3,9.1-1.3c0.2-0.4,0.4-0.9,0.3-6.7C196.1,114.9,195.4,114.2,194.5,114.2z
		 M167.5,101.4c0-1.8,0.3-6.1,3.3-9c2-1.9,5-2.8,8.9-2.6c9.9,0.5,10.3,11,10.4,12.1c0,2.4,0,9.1,0,12.2c-2.9,0-7-0.1-11-0.1
		c-5.5,0-9.1,0-11.6,0V101.4z M192.8,120.3c-4.1,0.2-18,0.1-27.7-0.1c0-1,0-2,0-2.7c4.3-0.1,18.1,0,27.8,0.1
		C192.8,118.6,192.8,119.6,192.8,120.3z"/>
	<path d="M232.9,114.2c0,0-0.4,0-1.1,0c0-3.1,0.2-11.1,0.2-13.5c-0.1-5.5-3.2-13.7-13.8-14.3c-4.8-0.3-8.6,0.9-11.4,3.5
		c-3.9,3.7-4.4,9.2-4.4,11.4v12.8c-1.6,0.1-1.7,0.3-2,0.7c-0.4,0.5-0.6,0.8-0.4,7c0,0.9,0.8,1.6,1.7,1.6c0.1,0,7.7,0.1,15.4,0.2
		c3.3,0,5.9,0,8.1,0c8.4,0,8.6-0.3,9.1-1.3c0.2-0.4,0.4-0.9,0.3-6.7C234.6,114.9,233.9,114.2,232.9,114.2z M205.9,101.4
		c0-1.8,0.3-6.1,3.3-9c2-1.9,5-2.8,8.9-2.6c9.9,0.5,10.3,11,10.4,12.1c0,2.4,0,9.1,0,12.2c-2.9,0-7-0.1-11-0.1c-5.5,0-9.1,0-11.6,0
		V101.4z M231.2,120.3c-4.1,0.2-18,0.1-27.7-0.1c0-1,0-2,0-2.7c4.3-0.1,18.1,0,27.8,0.1C231.3,118.6,231.2,119.6,231.2,120.3z"/>
	<path d="M276.3,116.1c-0.1,0.1-0.2,0.1-0.3,0.2c-2.3,2.4-2.4,4.1-0.5,6.4c0.6,0.7,1.7,1.6,3.1,1.6c0.8,0,1.7-0.3,2.7-0.9
		c1-0.7,1.7-1.7,1.8-2.8c0.1-0.8,0-2.1-1.2-3.5C280.1,114.8,277.4,115.5,276.3,116.1z M280.8,120.3c-0.1,0.6-0.6,1-0.8,1.1
		c-1.1,0.7-1.8,0.7-2.6-0.3c-1-1.2-1.2-1.5,0.2-3c0.4-0.2,1.6-0.6,2.5,0.5C280.6,119.3,280.8,119.8,280.8,120.3z"/>
	<path d="M295.4,61.6c-5.2,0-126.5,0.6-133.3,1c-0.9,0-1.7,0.8-1.6,1.8c0,0.9,0.8,1.6,1.7,1.6c0,0,0.1,0,0.1,0
		c6.8-0.3,132.6-0.2,133.9-0.2c0,0,0,0,0,0c0.9,0,1.7-0.8,1.7-1.7C297.9,63.1,298.1,61.6,295.4,61.6z"/>
</g>
</svg>
