<?xml version="1.0" encoding="UTF-8" standalone="no"?>
<svg width="153px" height="152px" viewBox="0 0 153 152" version="1.1" xmlns="http://www.w3.org/2000/svg" xmlns:xlink="http://www.w3.org/1999/xlink" xmlns:sketch="http://www.bohemiancoding.com/sketch/ns">
    <!-- Generator: Sketch 3.4 (15575) - http://www.bohemiancoding.com/sketch -->
    <title>Shape</title>
    <desc>Created with Sketch.</desc>
    <defs></defs>
    <g id="Page-1" stroke="none" stroke-width="1" fill="none" fill-rule="evenodd" sketch:type="MSPage">
        <path d="M88.1307159,75.9996055 L149.48977,14.6405516 C152.835691,11.2946301 152.835691,5.85536273 149.48977,2.50944117 C146.143848,-0.83648039 140.704581,-0.83648039 137.358659,2.50944117 L75.9996055,63.868495 L14.6405516,2.50944117 C11.2946301,-0.83648039 5.85536273,-0.83648039 2.50944117,2.50944117 C-0.83648039,5.85536273 -0.83648039,11.2946301 2.50944117,14.6405516 L63.868495,75.9996055 L2.50944117,137.358659 C-0.83648039,140.704581 -0.83648039,146.143848 2.50944117,149.48977 C4.19098123,151.17131 6.38727846,151.994921 8.58357569,151.994921 C10.7798729,151.994921 12.9761701,151.154151 14.6577102,149.48977 L76.016764,88.1307159 L137.375818,149.48977 C139.057358,151.17131 141.270814,151.994921 143.449952,151.994921 C145.663408,151.994921 147.842547,151.154151 149.524087,149.48977 C152.870008,146.143848 152.870008,140.704581 149.524087,137.358659 L88.1307159,75.9996055 L88.1307159,75.9996055 Z" id="Shape" fill="#000000" sketch:type="MSShapeGroup"></path>
    </g>
</svg>