<?xml version="1.0" encoding="UTF-8" standalone="no"?>
<svg width="340px" height="119px" viewBox="0 0 340 119" version="1.1" xmlns="http://www.w3.org/2000/svg" xmlns:xlink="http://www.w3.org/1999/xlink" xmlns:sketch="http://www.bohemiancoding.com/sketch/ns">
    <!-- Generator: Sketch 3.3.3 (12072) - http://www.bohemiancoding.com/sketch -->
    <title>Shape Copy</title>
    <desc>Created with Sketch.</desc>
    <defs></defs>
    <g id="Page-1" stroke="none" stroke-width="1" fill="none" fill-rule="evenodd" sketch:type="MSPage">
        <path d="M293.703617,94.2436034 C293.703617,109.683309 301.834747,118.508435 316.72722,118.508435 C331.615141,118.508435 339.750823,109.684446 339.750823,94.2436034 L339.750823,44.0585881 C339.750823,28.6177451 331.615141,19.7937561 316.72722,19.7937561 C301.834747,19.7937561 293.703617,28.6177451 293.703617,44.0585881 L293.703617,94.2436034 L293.703617,94.2436034 Z M308.864586,43.0926821 C308.864586,36.1993674 311.901103,33.5803856 316.72722,33.5803856 C321.553337,33.5803856 324.584165,36.2005051 324.584165,43.0926821 L324.584165,95.2072339 C324.584165,102.101686 321.553337,104.71953 316.72722,104.71953 C311.901103,104.71953 308.864586,102.100549 308.864586,95.2072339 L308.864586,43.0926821 L308.864586,43.0926821 Z M236.972285,34.6839531 L252.826112,34.6839531 L252.826112,117.40373 L267.993908,117.40373 L267.993908,34.6839531 L283.850011,34.6839531 L283.850011,20.8961859 L236.973422,20.8961859 L236.973422,34.6839531 L236.972285,34.6839531 Z M210.713067,117.40373 L225.875174,117.40373 L225.875174,20.8961859 L210.713067,20.8961859 L210.713067,117.40373 L210.713067,117.40373 Z M173.698049,34.6839531 C178.520753,34.6839531 181.417333,37.1641357 181.417333,44.0585881 L181.417333,94.2436034 C181.417333,101.136918 178.520753,103.619376 173.698049,103.619376 L165.147108,103.619376 L165.147108,34.6839531 L173.698049,34.6839531 L173.698049,34.6839531 Z M149.986139,117.40373 L173.972234,117.40373 C189.138892,117.40373 196.580578,108.995001 196.580578,93.5541581 L196.580578,44.7480334 C196.580578,29.3071903 189.138892,20.8961859 173.972234,20.8961859 L149.986139,20.8961859 L149.986139,117.40373 L149.986139,117.40373 Z M116.691394,0.491564587 L107.316759,15.7958838 L117.519639,15.7958838 L131.583866,0.491564587 L116.691394,0.491564587 L116.691394,0.491564587 Z M109.935741,34.6839531 L136.133522,34.6839531 L136.133522,20.8961859 L94.7690831,20.8961859 L94.7690831,117.40373 L136.133522,117.40373 L136.133522,103.618238 L109.935741,103.618238 L109.935741,75.3543964 L130.75676,75.3543964 L130.75676,61.5666292 L109.935741,61.5666292 L109.935741,34.6839531 L109.935741,34.6839531 Z M63.8202728,117.40373 L79.3976397,117.40373 L79.3976397,20.8961859 L65.8886085,20.8961859 L65.8886085,78.6628234 L65.6121478,78.6628234 L50.3112417,20.8961859 L31.2832355,20.8961859 L31.2832355,117.40373 L44.9333412,117.40373 L44.9333412,47.5046766 L45.2086643,47.5046766 L63.8202728,117.40373 L63.8202728,117.40373 Z M0.750822866,117.40373 L15.9140675,117.40373 L15.9140675,20.8961859 L0.750822866,20.8961859 L0.750822866,117.40373 L0.750822866,117.40373 Z" id="Shape-Copy" fill="#000000" sketch:type="MSShapeGroup"></path>
    </g>
</svg>