<?xml version="1.0" encoding="UTF-8" standalone="no"?>
<svg width="247px" height="246px" viewBox="0 0 247 246" version="1.1" xmlns="http://www.w3.org/2000/svg" xmlns:xlink="http://www.w3.org/1999/xlink" xmlns:sketch="http://www.bohemiancoding.com/sketch/ns">
    <!-- Generator: Sketch 3.3.3 (12072) - http://www.bohemiancoding.com/sketch -->
    <title>inedito-desk</title>
    <desc>Created with Sketch.</desc>
    <defs></defs>
    <g id="Page-1" stroke="none" stroke-width="1" fill="none" fill-rule="evenodd" sketch:type="MSPage">
        <g id="inedito-desk" sketch:type="MSLayerGroup" transform="translate(0.375411, 0.000000)" fill="#000000">
            <path d="M122.918071,246.018311 L16.5445265,184.602085 L16.5445265,61.7696327 L122.918071,0.353406533 L229.296474,61.7696327 L229.296474,184.602085 L122.918071,246.018311 L122.918071,246.018311 Z M18.5580936,183.439244 L122.917464,243.692629 L227.281692,183.439244 L227.281692,62.9324737 L122.917464,2.6790887 L18.5580936,62.9324737 L18.5580936,183.439244 L18.5580936,183.439244 Z" id="Shape" sketch:type="MSShapeGroup"></path>
            <path d="M194.782258,165.001989 L196.940952,165.001989 L196.940952,151.633263 L195.070084,151.633263 L195.070084,159.63531 L195.031828,159.63531 L192.911389,151.633263 L190.275413,151.633263 L190.275413,165.001989 L192.167535,165.001989 L192.167535,155.319135 L192.203969,155.319135 L194.782258,165.001989 L194.782258,165.001989 Z M178.776949,161.79279 C178.776949,163.932053 179.903964,165.154403 181.966109,165.154403 C184.030076,165.154403 185.157698,163.932053 185.157698,161.79279 L185.157698,154.841247 C185.157698,152.701984 184.030684,151.480242 181.966109,151.480242 C179.903964,151.480242 178.776949,152.701984 178.776949,154.841247 L178.776949,161.79279 L178.776949,161.79279 Z M180.877957,154.707657 C180.877957,153.752488 181.296944,153.389973 181.966109,153.389973 C182.635274,153.389973 183.05669,153.752488 183.05669,154.707657 L183.05669,161.927595 C183.05669,162.882157 182.635274,163.245279 181.966109,163.245279 C181.296944,163.245279 180.877957,162.882157 180.877957,161.927595 L180.877957,154.707657 L180.877957,154.707657 Z M171.538188,165.001989 L173.639803,165.001989 L173.639803,151.633263 L171.538188,151.633263 L171.538188,165.001989 L171.538188,165.001989 Z M160.343337,153.542387 L162.541502,153.542387 L162.541502,165.001989 L164.641902,165.001989 L164.641902,153.542387 L166.838245,153.542387 L166.838245,151.632656 L160.343337,151.632656 L160.343337,153.542387 L160.343337,153.542387 Z M154.060352,165.001989 L156.219047,165.001989 L153.297067,157.591381 L156.219047,151.633263 L154.118646,151.633263 L151.403731,157.419536 L151.367905,157.419536 L151.367905,151.633263 L149.267504,151.633263 L149.267504,165.001989 L151.367905,165.001989 L151.367905,160.895307 L152.017031,159.673565 L154.060352,165.001989 L154.060352,165.001989 Z M137.786042,151.633263 L137.786042,161.812829 C137.786042,163.952092 138.857192,165.174441 140.919337,165.174441 C142.981482,165.174441 144.052025,163.952092 144.052025,161.812829 L144.052025,151.633263 L142.064569,151.633263 L142.064569,161.945811 C142.064569,162.901588 141.645581,163.245279 140.977631,163.245279 C140.307859,163.245279 139.88705,162.901588 139.88705,161.945811 L139.88705,151.633263 L137.786042,151.633263 L137.786042,151.633263 Z M129.592718,153.542387 C130.261883,153.542387 130.662046,153.886078 130.662046,154.841247 L130.662046,161.79279 C130.662046,162.748566 130.261883,163.09165 129.592718,163.09165 L128.408624,163.09165 L128.408624,153.542387 L129.592718,153.542387 L129.592718,153.542387 Z M126.307616,165.001989 L129.629759,165.001989 C131.730767,165.001989 132.762447,163.837326 132.762447,161.698062 L132.762447,154.937189 C132.762447,152.797926 131.730767,151.63387 129.629759,151.63387 L126.307616,151.63387 L126.307616,165.001989 L126.307616,165.001989 Z M114.789114,161.79279 C114.789114,163.932053 115.915521,165.154403 117.977667,165.154403 C120.042241,165.154403 121.167434,163.932053 121.167434,161.79279 L121.167434,154.841247 C121.167434,152.701984 120.042241,151.480242 117.977667,151.480242 C115.915521,151.480242 114.789114,152.701984 114.789114,154.841247 L114.789114,161.79279 L114.789114,161.79279 Z M116.890729,154.707657 C116.890729,153.752488 117.309716,153.389973 117.977667,153.389973 C118.647439,153.389973 119.066426,153.752488 119.066426,154.707657 L119.066426,161.927595 C119.066426,162.882157 118.647439,163.245279 117.977667,163.245279 C117.309716,163.245279 116.890729,162.882157 116.890729,161.927595 L116.890729,154.707657 L116.890729,154.707657 Z M106.6134,153.542387 C107.359683,153.542387 107.68455,153.962589 107.68455,154.918365 L107.68455,156.235442 C107.68455,157.30477 107.207269,157.648461 106.422123,157.648461 L105.599937,157.648461 L105.599937,153.542387 L106.6134,153.542387 L106.6134,153.542387 Z M110.032699,165.001989 C109.821384,164.505276 109.80256,164.027995 109.80256,163.378869 L109.80256,161.316116 C109.80256,159.921921 109.461298,158.928497 108.408365,158.489471 L108.408365,158.451216 C109.343496,158.01219 109.785557,157.132924 109.785557,155.757554 L109.785557,154.707657 C109.785557,152.645512 108.847391,151.633263 106.672301,151.633263 L103.498929,151.633263 L103.498929,165.001989 L105.599937,165.001989 L105.599937,159.558192 L106.327396,159.558192 C107.281958,159.558192 107.701552,160.016649 107.701552,161.25843 L107.701552,163.359438 C107.701552,164.448197 107.779277,164.658298 107.892221,165.001989 L110.032699,165.001989 L110.032699,165.001989 Z M95.6128624,153.542387 C96.2808129,153.542387 96.6445423,153.847823 96.6445423,154.802992 L96.6445423,156.808665 C96.6445423,157.763227 96.2802057,158.06927 95.6128624,158.06927 L94.6182234,158.06927 L94.6182234,153.542387 L95.6128624,153.542387 L95.6128624,153.542387 Z M95.6128624,151.633263 L92.5172155,151.633263 L92.5172155,165.001989 L94.6182234,165.001989 L94.6182234,159.979001 L95.6128624,159.979001 C97.7126559,159.979001 98.7455502,158.814338 98.7455502,156.674468 L98.7455502,154.936582 C98.7455502,152.797319 97.7126559,151.633263 95.6128624,151.633263 L95.6128624,151.633263 Z M80.9999273,161.79279 C80.9999273,163.932053 82.1263348,165.154403 84.1890873,165.154403 C86.2518399,165.154403 87.3776401,163.932053 87.3776401,161.79279 L87.3776401,154.841247 C87.3776401,152.701984 86.2518399,151.480242 84.1890873,151.480242 C82.1263348,151.480242 80.9999273,152.701984 80.9999273,154.841247 L80.9999273,161.79279 L80.9999273,161.79279 Z M83.1015425,154.707657 C83.1015425,153.752488 83.5193151,153.389973 84.1884801,153.389973 C84.857645,153.389973 85.2760249,153.752488 85.2760249,154.707657 L85.2760249,161.927595 C85.2760249,162.882157 84.857645,163.245279 84.1884801,163.245279 C83.5193151,163.245279 83.1015425,162.882157 83.1015425,161.927595 L83.1015425,154.707657 L83.1015425,154.707657 Z M69.9799587,153.542387 L72.1744796,153.542387 L72.1744796,165.001989 L74.2754876,165.001989 L74.2754876,153.542387 L76.4730447,153.542387 L76.4730447,151.632656 L69.9799587,151.632656 L69.9799587,153.542387 L69.9799587,153.542387 Z M59.0717199,161.79279 C59.0717199,163.932053 60.1987345,165.154403 62.2608799,165.154403 C64.3230252,165.154403 65.4500399,163.932053 65.4500399,161.79279 L65.4500399,154.841247 C65.4500399,152.701984 64.3230252,151.480242 62.2608799,151.480242 C60.1987345,151.480242 59.0717199,152.701984 59.0717199,154.841247 L59.0717199,161.79279 L59.0717199,161.79279 Z M61.1739423,154.707657 C61.1739423,153.752488 61.5923222,153.389973 62.2608799,153.389973 C62.9300448,153.389973 63.349032,153.752488 63.349032,154.707657 L63.349032,161.927595 C63.349032,162.882157 62.9300448,163.245279 62.2608799,163.245279 C61.5923222,163.245279 61.1739423,162.882157 61.1739423,161.927595 L61.1739423,154.707657 L61.1739423,154.707657 Z M50.9937695,153.542387 L54.4488953,153.542387 L54.4488953,151.632656 L48.8927616,151.632656 L48.8927616,165.001381 L50.9937695,165.001381 L50.9937695,159.481681 L53.7050413,159.481681 L53.7050413,157.571343 L50.9937695,157.571343 L50.9937695,153.542387 L50.9937695,153.542387 Z" id="Shape" sketch:type="MSShapeGroup"></path>
            <path d="M122.918071,245.945444 L36.1154759,209.990276 L0.159093663,123.185859 L36.1154759,36.3814417 L122.918071,0.42627386 L209.72431,36.3820489 L245.678263,123.186466 L209.72431,209.990883 L122.918071,245.945444 L122.918071,245.945444 Z M37.6572271,208.448525 L122.918071,243.765496 L208.182559,208.448525 L243.498316,123.185859 L208.182559,37.9231928 L122.918071,2.60622138 L37.6572271,37.9231928 L2.33904118,123.186466 L37.6572271,208.448525 L37.6572271,208.448525 Z" id="Shape" sketch:type="MSShapeGroup"></path>
            <path d="M6.15789631,123.185859 L9.10902304,116.977563 L12.060757,110.769266 L12.060757,123.185859 L12.060757,135.602451 L9.10902304,129.394762 L6.15789631,123.185859 Z" id="Shape" sketch:type="MSShapeGroup"></path>
            <path d="M238.85606,123.185859 L235.903719,116.977563 L232.953807,110.769266 L232.953807,123.185859 L232.953807,135.602451 L235.903719,129.394762 L238.85606,123.185859 Z" id="Shape" sketch:type="MSShapeGroup"></path>
            <rect id="Rectangle-path" sketch:type="MSShapeGroup" x="34.2415712" y="157.624172" width="9.5201162" height="1.40573217"></rect>
            <path d="M122.922322,27.1224334 L129.643118,41.3382415 L136.361486,55.5528352 L122.922322,63.7923082 L109.483158,55.5528352 L116.201526,41.3382415 L122.922322,27.1224334 Z" id="Shape" sketch:type="MSShapeGroup"></path>
            <path d="M188.810173,133.721867 C188.810173,141.962554 193.15003,146.67282 201.09864,146.67282 C209.044822,146.67282 213.387108,141.963162 213.387108,133.721867 L213.387108,106.936445 C213.387108,98.6951503 209.044822,93.9854921 201.09864,93.9854921 C193.15003,93.9854921 188.810173,98.6951503 188.810173,106.936445 L188.810173,133.721867 L188.810173,133.721867 Z M196.90209,106.420909 C196.90209,102.741716 198.52278,101.343878 201.09864,101.343878 C203.6745,101.343878 205.292155,102.742323 205.292155,106.420909 L205.292155,134.236189 C205.292155,137.915989 203.6745,139.31322 201.09864,139.31322 C198.52278,139.31322 196.90209,137.915382 196.90209,134.236189 L196.90209,106.420909 L196.90209,106.420909 Z M158.530763,101.932889 L166.992481,101.932889 L166.992481,146.083202 L175.088041,146.083202 L175.088041,101.932889 L183.550974,101.932889 L183.550974,94.5738958 L158.53137,94.5738958 L158.53137,101.932889 L158.530763,101.932889 Z M144.51534,146.083202 L152.607864,146.083202 L152.607864,94.5738958 L144.51534,94.5738958 L144.51534,146.083202 L144.51534,146.083202 Z M124.759186,101.932889 C127.333224,101.932889 128.879226,103.256645 128.879226,106.936445 L128.879226,133.721867 C128.879226,137.40106 127.333224,138.726031 124.759186,138.726031 L120.195262,138.726031 L120.195262,101.932889 L124.759186,101.932889 L124.759186,101.932889 Z M112.103346,146.083202 L124.905528,146.083202 C133.00048,146.083202 136.972357,141.595182 136.972357,133.353887 L136.972357,107.304425 C136.972357,99.0631303 133.00048,94.5738958 124.905528,94.5738958 L112.103346,94.5738958 L112.103346,146.083202 L112.103346,146.083202 Z M94.3328264,83.6832666 L89.32927,91.8516939 L94.7748882,91.8516939 L102.281437,83.6832666 L94.3328264,83.6832666 L94.3328264,83.6832666 Z M90.7271082,101.932889 L104.709741,101.932889 L104.709741,94.5738958 L82.6321554,94.5738958 L82.6321554,146.083202 L104.709741,146.083202 L104.709741,138.725423 L90.7271082,138.725423 L90.7271082,123.640065 L101.839983,123.640065 L101.839983,116.281072 L90.7271082,116.281072 L90.7271082,101.932889 L90.7271082,101.932889 Z M66.1137398,146.083202 L74.4279017,146.083202 L74.4279017,94.5738958 L67.2176798,94.5738958 L67.2176798,125.405883 L67.0701234,125.405883 L58.9035178,94.5738958 L48.7476342,94.5738958 L48.7476342,146.083202 L56.0331524,146.083202 L56.0331524,108.775738 L56.1801015,108.775738 L66.1137398,146.083202 L66.1137398,146.083202 Z M32.4514638,146.083202 L40.5445949,146.083202 L40.5445949,94.5738958 L32.4514638,94.5738958 L32.4514638,146.083202 L32.4514638,146.083202 Z" id="Shape" sketch:type="MSShapeGroup"></path>
            <rect id="Rectangle-path" sketch:type="MSShapeGroup" x="202.215939" y="158.569625" width="9.52254511" height="1.40512495"></rect>
            <path d="M196.810398,170.356523 C197.313183,170.356523 197.718204,169.949073 197.718204,169.437787 C197.718204,168.926501 197.313183,168.509336 196.810398,168.509336 C196.29972,168.509336 195.883769,168.926501 195.883769,169.437787 C195.883769,169.949073 196.29972,170.356523 196.810398,170.356523 L196.810398,170.356523 Z M191.536018,170.356523 C192.034552,170.356523 192.442609,169.949073 192.442609,169.437787 C192.442609,168.926501 192.034552,168.509336 191.536018,168.509336 C191.024732,168.509336 190.605745,168.926501 190.605745,169.437787 C190.605745,169.949073 191.024732,170.356523 191.536018,170.356523 L191.536018,170.356523 Z M186.258602,170.356523 C186.758958,170.356523 187.166408,169.949073 187.166408,169.437787 C187.166408,168.926501 186.758958,168.509336 186.258602,168.509336 C185.744887,168.509336 185.329544,168.926501 185.329544,169.437787 C185.329544,169.949073 185.745495,170.356523 186.258602,170.356523 L186.258602,170.356523 Z M180.980579,170.356523 C181.483363,170.356523 181.88717,169.949073 181.88717,169.437787 C181.88717,168.926501 181.483363,168.509336 180.980579,168.509336 C180.469293,168.509336 180.050306,168.926501 180.050306,169.437787 C180.050306,169.949073 180.469293,170.356523 180.980579,170.356523 L180.980579,170.356523 Z M175.704984,170.356523 C176.204126,170.356523 176.611575,169.949073 176.611575,169.437787 C176.611575,168.926501 176.204126,168.509336 175.704984,168.509336 C175.193699,168.509336 174.774711,168.926501 174.774711,169.437787 C174.774711,169.949073 175.194306,170.356523 175.704984,170.356523 L175.704984,170.356523 Z M170.426354,170.356523 C170.927317,170.356523 171.335981,169.949073 171.335981,169.437787 C171.335981,168.926501 170.927317,168.509336 170.426354,168.509336 C169.915068,168.509336 169.499117,168.926501 169.499117,169.437787 C169.499117,169.949073 169.915068,170.356523 170.426354,170.356523 L170.426354,170.356523 Z M165.150759,170.356523 C165.652329,170.356523 166.05735,169.949073 166.05735,169.437787 C166.05735,168.926501 165.652329,168.509336 165.150759,168.509336 C164.640081,168.509336 164.221094,168.926501 164.221094,169.437787 C164.220486,169.949073 164.640081,170.356523 165.150759,170.356523 L165.150759,170.356523 Z M159.874558,170.356523 C160.373092,170.356523 160.781756,169.949073 160.781756,169.437787 C160.781756,168.926501 160.373092,168.509336 159.874558,168.509336 C159.360843,168.509336 158.944892,168.926501 158.944892,169.437787 C158.944892,169.949073 159.360843,170.356523 159.874558,170.356523 L159.874558,170.356523 Z M154.596534,170.356523 C155.098104,170.356523 155.503125,169.949073 155.503125,169.437787 C155.503125,168.926501 155.098104,168.509336 154.596534,168.509336 C154.085249,168.509336 153.666261,168.926501 153.666261,169.437787 C153.666261,169.949073 154.085249,170.356523 154.596534,170.356523 L154.596534,170.356523 Z M149.319118,170.356523 C149.818867,170.356523 150.227531,169.949073 150.227531,169.437787 C150.227531,168.926501 149.818867,168.509336 149.319118,168.509336 C148.80844,168.509336 148.39006,168.926501 148.39006,169.437787 C148.39006,169.949073 148.80844,170.356523 149.319118,170.356523 L149.319118,170.356523 Z M144.041095,170.356523 C144.543272,170.356523 144.9489,169.949073 144.9489,169.437787 C144.9489,168.926501 144.543272,168.509336 144.041095,168.509336 C143.530416,168.509336 143.115073,168.926501 143.115073,169.437787 C143.115073,169.949073 143.530416,170.356523 144.041095,170.356523 L144.041095,170.356523 Z M138.764893,170.356523 C139.265249,170.356523 139.672091,169.949073 139.672091,169.437787 C139.672091,168.926501 139.265249,168.509336 138.764893,168.509336 C138.254215,168.509336 137.835228,168.926501 137.835228,169.437787 C137.835228,169.949073 138.254822,170.356523 138.764893,170.356523 L138.764893,170.356523 Z M133.489299,170.356523 C133.989047,170.356523 134.396497,169.949073 134.396497,169.437787 C134.396497,168.926501 133.989047,168.509336 133.489299,168.509336 C132.975584,168.509336 132.560848,168.926501 132.560848,169.437787 C132.560848,169.949073 132.975584,170.356523 133.489299,170.356523 L133.489299,170.356523 Z M128.211275,170.356523 C128.712845,170.356523 129.118474,169.949073 129.118474,169.437787 C129.118474,168.926501 128.712845,168.509336 128.211275,168.509336 C127.700597,168.509336 127.28161,168.926501 127.28161,169.437787 C127.281003,169.949073 127.700597,170.356523 128.211275,170.356523 L128.211275,170.356523 Z M122.935074,170.356523 C123.433608,170.356523 123.842272,169.949073 123.842272,169.437787 C123.842272,168.926501 123.433608,168.509336 122.935074,168.509336 C122.423788,168.509336 122.005408,168.926501 122.005408,169.437787 C122.005408,169.949073 122.423788,170.356523 122.935074,170.356523 L122.935074,170.356523 Z M117.656443,170.356523 C118.15862,170.356523 118.567285,169.949073 118.567285,169.437787 C118.567285,168.926501 118.15862,168.509336 117.656443,168.509336 C117.146372,168.509336 116.729206,168.926501 116.729206,169.437787 C116.728599,169.949073 117.146372,170.356523 117.656443,170.356523 L117.656443,170.356523 Z M112.380849,170.356523 C112.882419,170.356523 113.288047,169.949073 113.288047,169.437787 C113.288047,168.926501 112.882419,168.509336 112.380849,168.509336 C111.869563,168.509336 111.451183,168.926501 111.451183,169.437787 C111.451183,169.949073 111.869563,170.356523 112.380849,170.356523 L112.380849,170.356523 Z M107.104647,170.356523 C107.604395,170.356523 108.012452,169.949073 108.012452,169.437787 C108.012452,168.926501 107.604395,168.509336 107.104647,168.509336 C106.590932,168.509336 106.174981,168.926501 106.174981,169.437787 C106.174981,169.949073 106.590932,170.356523 107.104647,170.356523 L107.104647,170.356523 Z M101.825409,170.356523 C102.328194,170.356523 102.733822,169.949073 102.733822,169.437787 C102.733822,168.926501 102.328194,168.509336 101.825409,168.509336 C101.314123,168.509336 100.899387,168.926501 100.899387,169.437787 C100.899387,169.949073 101.314731,170.356523 101.825409,170.356523 L101.825409,170.356523 Z M96.550422,170.356523 C97.0495632,170.356523 97.4582275,169.949073 97.4582275,169.437787 C97.4582275,168.926501 97.0495632,168.509336 96.550422,168.509336 C96.0367074,168.509336 95.6207564,168.926501 95.6207564,169.437787 C95.6207564,169.949073 96.0367074,170.356523 96.550422,170.356523 L96.550422,170.356523 Z M91.2717915,170.356523 C91.774576,170.356523 92.1789897,169.949073 92.1789897,169.437787 C92.1789897,168.926501 91.774576,168.509336 91.2717915,168.509336 C90.7605057,168.509336 90.3445547,168.926501 90.3445547,169.437787 C90.3439475,169.949073 90.7605057,170.356523 91.2717915,170.356523 L91.2717915,170.356523 Z M85.9955898,170.356523 C86.4953382,170.356523 86.9021808,169.949073 86.9021808,169.437787 C86.9021808,168.926501 86.4953382,168.509336 85.9955898,168.509336 C85.4849113,168.509336 85.0665314,168.926501 85.0665314,169.437787 C85.0665314,169.949073 85.4849113,170.356523 85.9955898,170.356523 L85.9955898,170.356523 Z M80.7175664,170.356523 C81.2191365,170.356523 81.6271936,169.949073 81.6271936,169.437787 C81.6271936,168.926501 81.2191365,168.509336 80.7175664,168.509336 C80.2062807,168.509336 79.7903297,168.926501 79.7903297,169.437787 C79.7897225,169.949073 80.2062807,170.356523 80.7175664,170.356523 L80.7175664,170.356523 Z M75.4413648,170.356523 C75.9435421,170.356523 76.3479558,169.949073 76.3479558,169.437787 C76.3479558,168.926501 75.9435421,168.509336 75.4413648,168.509336 C74.930079,168.509336 74.5110919,168.926501 74.5110919,169.437787 C74.5110919,169.949073 74.930079,170.356523 75.4413648,170.356523 L75.4413648,170.356523 Z M70.1645559,170.356523 C70.6649115,170.356523 71.0729686,169.949073 71.0729686,169.437787 C71.0729686,168.926501 70.6649115,168.509336 70.1645559,168.509336 C69.6520557,168.509336 69.2361047,168.926501 69.2361047,169.437787 C69.2361047,169.949073 69.6520557,170.356523 70.1645559,170.356523 L70.1645559,170.356523 Z M64.8865325,170.356523 C65.3881026,170.356523 65.794338,169.949073 65.794338,169.437787 C65.794338,168.926501 65.3881026,168.509336 64.8865325,168.509336 C64.375854,168.509336 63.959903,168.926501 63.959903,169.437787 C63.959903,169.949073 64.3764613,170.356523 64.8865325,170.356523 L64.8865325,170.356523 Z M59.6103309,170.356523 C60.1106865,170.356523 60.5181363,169.949073 60.5181363,169.437787 C60.5181363,168.926501 60.1106865,168.509336 59.6103309,168.509336 C59.0996524,168.509336 58.6812725,168.926501 58.6812725,169.437787 C58.6812725,169.949073 59.0996524,170.356523 59.6103309,170.356523 L59.6103309,170.356523 Z M54.3323075,170.356523 C54.8350921,170.356523 55.2431491,169.949073 55.2431491,169.437787 C55.2431491,168.926501 54.8350921,168.509336 54.3323075,168.509336 C53.8210218,168.509336 53.4062853,168.926501 53.4062853,169.437787 C53.405678,169.949073 53.8210218,170.356523 54.3323075,170.356523 L54.3323075,170.356523 Z M49.0567131,170.356523 C49.557676,170.356523 49.9639113,169.949073 49.9639113,169.437787 C49.9639113,168.926501 49.557676,168.509336 49.0567131,168.509336 C48.5454274,168.509336 48.1270475,168.926501 48.1270475,169.437787 C48.1270475,169.949073 48.5454274,170.356523 49.0567131,170.356523 L49.0567131,170.356523 Z" id="Shape" sketch:type="MSShapeGroup"></path>
            <path d="M130.127079,196.886909 L130.127079,197.583399 C130.127079,198.927801 130.798673,199.695944 132.095104,199.695944 C133.391535,199.695944 134.065558,198.927801 134.065558,197.583399 L134.065558,195.710709 C134.065558,194.473786 133.571274,193.790048 132.59971,193.790048 C132.072636,193.790048 131.700406,194.005613 131.459944,194.401526 L131.43444,194.401526 L131.541919,192.397674 L133.848778,192.397674 L133.848778,191.197185 L130.366327,191.197185 L130.127079,196.071402 L131.376146,196.071402 L131.376146,195.818188 C131.376146,195.218854 131.639683,194.98993 132.05867,194.98993 C132.481301,194.98993 132.744838,195.218247 132.744838,195.818188 L132.744838,197.667804 C132.744838,198.267745 132.481301,198.483918 132.05867,198.483918 C131.639683,198.483918 131.376146,198.267745 131.376146,197.667804 L131.376146,196.886909 L130.127079,196.886909 L130.127079,196.886909 Z M123.855631,197.584006 C123.855631,198.928408 124.562444,199.696552 125.858875,199.696552 C127.155306,199.696552 127.862119,198.928408 127.862119,197.584006 L127.862119,193.213788 C127.862119,191.868779 127.155306,191.100636 125.858875,191.100636 C124.562444,191.100636 123.855631,191.868779 123.855631,193.213788 L123.855631,197.584006 L123.855631,197.584006 Z M125.176351,193.128777 C125.176351,192.529443 125.440495,192.301732 125.858875,192.301732 C126.277255,192.301732 126.544435,192.529443 126.544435,193.128777 L126.544435,197.667804 C126.544435,198.267745 126.277862,198.496062 125.858875,198.496062 C125.439888,198.496062 125.176351,198.267745 125.176351,197.667804 L125.176351,193.128777 L125.176351,193.128777 Z M117.630332,197.584006 C117.630332,198.928408 118.33836,199.696552 119.634184,199.696552 C120.930008,199.696552 121.640464,198.928408 121.640464,197.584006 L121.640464,193.213788 C121.640464,191.868779 120.930008,191.100636 119.634184,191.100636 C118.33836,191.100636 117.630332,191.868779 117.630332,193.213788 L117.630332,197.584006 L117.630332,197.584006 Z M118.951053,193.128777 C118.951053,192.529443 119.215197,192.301732 119.634184,192.301732 C120.0556,192.301732 120.319137,192.529443 120.319137,193.128777 L120.319137,197.667804 C120.319137,198.267745 120.0556,198.496062 119.634184,198.496062 C119.215197,198.496062 118.951053,198.267745 118.951053,197.667804 L118.951053,193.128777 L118.951053,193.128777 Z M114.130272,193.261759 C114.130272,194.161671 113.841839,194.822335 112.833841,195.890448 C111.848917,196.922735 111.512513,197.63137 111.512513,198.567715 L111.512513,199.600002 L115.329547,199.600002 L115.329547,198.399513 L112.833841,198.399513 C112.821089,198.340005 112.821089,198.278675 112.821089,198.219774 C112.821089,197.77589 113.036047,197.379371 113.816942,196.539575 C115.044149,195.230392 115.450992,194.33048 115.450992,193.213788 C115.450992,191.868779 114.778184,191.100636 113.480538,191.100636 C112.184714,191.100636 111.51312,191.868779 111.51312,193.213788 L111.51312,194.029295 L112.762795,194.029295 L112.762795,193.128777 C112.762795,192.529443 113.025725,192.301732 113.444712,192.301732 C113.866735,192.301732 114.130272,192.505154 114.130272,193.261759 L114.130272,193.261759 Z" id="Shape" sketch:type="MSShapeGroup"></path>
            <path d="M111.963683,180.318093 C113.133811,180.318093 113.734967,181.01762 113.734967,182.242398 L113.734967,182.48286 L112.598236,182.48286 L112.598236,182.165887 C112.598236,181.619382 112.379634,181.41171 111.997081,181.41171 C111.61392,181.41171 111.395925,181.619382 111.395925,182.165887 C111.395925,182.723322 111.636388,183.139273 112.423355,183.82787 C113.428924,184.713208 113.746504,185.347761 113.746504,186.222168 C113.746504,187.446947 113.133811,188.146473 111.95336,188.146473 C110.77291,188.146473 110.160217,187.446947 110.160217,186.222168 L110.160217,185.752174 L111.297554,185.752174 L111.297554,186.298679 C111.297554,186.845184 111.538017,187.042533 111.919963,187.042533 C112.303124,187.042533 112.542979,186.845791 112.542979,186.298679 C112.542979,185.741244 112.302516,185.325293 111.515549,184.636697 C110.50998,183.751359 110.1924,183.116806 110.1924,182.242398 C110.1924,181.01762 110.793555,180.318093 111.963683,180.318093 L111.963683,180.318093 Z" id="Shape" sketch:type="MSShapeGroup"></path>
            <path d="M116.127444,180.405534 L117.329755,180.405534 L117.329755,188.059032 L116.127444,188.059032 L116.127444,180.405534 L116.127444,180.405534 Z" id="Shape" sketch:type="MSShapeGroup"></path>
            <path d="M120.991338,182.51565 L120.969478,182.51565 L120.969478,188.059032 L119.887398,188.059032 L119.887398,180.405534 L121.395751,180.405534 L122.6096,184.98646 L122.63146,184.98646 L122.63146,180.405534 L123.703217,180.405534 L123.703217,188.059032 L122.467508,188.059032 L120.991338,182.51565 L120.991338,182.51565 Z" id="Shape" sketch:type="MSShapeGroup"></path>
            <path d="M129.746954,185.205062 L129.746954,186.221561 C129.746954,187.44634 129.134869,188.145866 127.953811,188.145866 C126.77336,188.145866 126.161275,187.44634 126.161275,186.221561 L126.161275,182.241791 C126.161275,181.017012 126.77336,180.317486 127.953811,180.317486 C129.134869,180.317486 129.746954,181.017012 129.746954,182.241791 L129.746954,182.985645 L128.610224,182.985645 L128.610224,182.16528 C128.610224,181.618775 128.369762,181.411103 127.987208,181.411103 C127.604048,181.411103 127.364193,181.618775 127.364193,182.16528 L127.364193,186.298072 C127.364193,186.844577 127.604655,187.041926 127.987208,187.041926 C128.369762,187.041926 128.610224,186.845184 128.610224,186.298072 L128.610224,185.205062 L129.746954,185.205062 L129.746954,185.205062 Z" id="Shape" sketch:type="MSShapeGroup"></path>
            <path d="M133.37514,183.631128 L135.026192,183.631128 L135.026192,184.724138 L133.37514,184.724138 L133.37514,186.965415 L135.452466,186.965415 L135.452466,188.059032 L132.172829,188.059032 L132.172829,180.405534 L135.452466,180.405534 L135.452466,181.498544 L133.37514,181.498544 L133.37514,183.631128 L133.37514,183.631128 Z" id="Shape" sketch:type="MSShapeGroup"></path>
        </g>
    </g>
</svg>