<?xml version="1.0" encoding="UTF-8" standalone="no"?>
<svg width="159px" height="159px" viewBox="0 0 159 159" version="1.1" xmlns="http://www.w3.org/2000/svg" xmlns:xlink="http://www.w3.org/1999/xlink" xmlns:sketch="http://www.bohemiancoding.com/sketch/ns">
    <!-- Generator: Sketch 3.3.3 (12072) - http://www.bohemiancoding.com/sketch -->
    <title>ig shape</title>
    <desc>Created with Sketch.</desc>
    <defs></defs>
    <g id="Page-1" stroke="none" stroke-width="1" fill="none" fill-rule="evenodd" sketch:type="MSPage">
        <path d="M140.511296,0.691489362 L18.4767176,0.691489362 C8.50138615,0.691489362 0.339751304,8.85312421 0.339751304,18.8284557 L0.339751304,67.4685018 L0.339751304,140.863034 C0.339751304,150.838365 8.50138615,159 18.4767176,159 L140.511296,159 C150.486627,159 158.648262,150.838365 158.648262,140.863034 L158.648262,67.4685018 L158.648262,18.8284557 C158.648262,8.85312421 150.486627,0.691489362 140.511296,0.691489362 L140.511296,0.691489362 Z M79.4940066,49.136563 C96.4541312,49.136563 110.203188,62.8856201 110.203188,79.8457447 C110.203188,96.8058692 96.4541312,110.554926 79.4940066,110.554926 C62.5334699,110.554926 48.784825,96.8058692 48.784825,79.8457447 C48.784825,62.8856201 62.5334699,49.136563 79.4940066,49.136563 L79.4940066,49.136563 Z M140.489037,134.657718 C140.489037,138.058399 137.706661,140.840775 134.30598,140.840775 L24.6820333,140.840775 C21.2813522,140.840775 18.4989766,138.058399 18.4989766,134.657718 L18.4989766,67.4685018 L32.2315456,67.4685018 C32.23237,67.4647919 32.2340188,67.4610821 32.2348432,67.4573723 C31.2002117,71.4141164 30.6478587,75.5654206 30.6478587,79.8461569 C30.6478587,106.822833 52.5165058,128.692305 79.4940066,128.692305 C106.470683,128.692305 128.340155,106.822833 128.340155,79.8461569 C128.340155,75.5637718 127.786977,71.4112309 126.751933,67.4536624 C126.75317,67.4586089 126.755231,67.4635553 126.756468,67.468914 L140.489037,67.468914 L140.489037,134.657718 L140.489037,134.657718 Z M140.506349,44.3244961 C140.506349,47.0957421 138.238816,49.3632751 135.46757,49.3632751 L115.095635,49.3632751 C112.324389,49.3632751 110.056856,47.0961543 110.056856,44.3244961 L110.056856,23.9925447 C110.056856,21.2212986 112.324389,18.9537656 115.095635,18.9537656 L135.46757,18.9537656 C138.238816,18.9537656 140.506349,21.2208864 140.506349,23.9925447 L140.506349,44.3244961 L140.506349,44.3244961 Z" id="ig-shape" fill="#000000" sketch:type="MSShapeGroup"></path>
    </g>
</svg>