<?xml version="1.0" encoding="UTF-8" standalone="no"?>
<svg width="180px" height="183px" viewBox="0 0 180 183" version="1.1" xmlns="http://www.w3.org/2000/svg" xmlns:xlink="http://www.w3.org/1999/xlink" xmlns:sketch="http://www.bohemiancoding.com/sketch/ns">
    <!-- Generator: Sketch 3.3.3 (12072) - http://www.bohemiancoding.com/sketch -->
    <title>Shape</title>
    <desc>Created with Sketch.</desc>
    <defs></defs>
    <g id="Page-1" stroke="none" stroke-width="1" fill="none" fill-rule="evenodd" sketch:type="MSPage">
        <path d="M176.659553,75.4925846 L146.904954,48.4546628 C146.733148,48.293595 146.507653,48.2291679 146.314372,48.1003136 L146.314372,28.664794 C146.314372,25.7011457 143.91983,23.295866 140.945444,23.295866 L119.222761,23.295866 L95.4706229,1.70203731 C92.9687024,-0.552912473 89.1997149,-0.563650329 86.7085323,1.64834803 L62.2369582,23.295866 L38.2700633,23.295866 C35.306415,23.295866 32.9011353,25.7011457 32.9011353,28.664794 L32.9011353,49.410332 C32.7400674,49.5177106 32.5575239,49.560662 32.4179318,49.6895163 L3.29686596,75.4711088 C3.15727383,75.5999631 3.0928467,75.7932445 2.96399242,75.9328367 C2.73849745,76.0939045 2.4807889,76.1798073 2.27676963,76.3838266 C1.07412975,77.5864665 0.644615502,79.1971449 0.8164212,80.7648719 C0.805683344,80.9366776 0.709042639,81.0977454 0.709042639,81.2588133 L0.709042639,176.568024 C0.709042639,179.44577 2.63111888,181.786622 5.22968006,182.624175 C5.87395143,182.84967 6.5182228,183 7.15175631,183 L172.772449,183 C173.405983,183 174.050254,182.84967 174.694525,182.624175 C177.293086,181.786622 179.215163,179.435032 179.215163,176.568024 L179.215163,81.2588133 C179.204425,79.1649313 178.195066,76.8992437 176.659553,75.4925846 L176.659553,75.4925846 Z M168.466569,93.7684157 L168.466569,165.51877 L130.905548,131.383126 L168.466569,93.7684157 L168.466569,93.7684157 Z M166.372687,80.6574933 L146.325109,100.748022 L146.325109,62.4460894 L166.372687,80.6574933 L166.372687,80.6574933 Z M91.0251504,12.171447 L103.266306,23.295866 L78.4511209,23.295866 L91.0251504,12.171447 L91.0251504,12.171447 Z M135.576515,34.0444599 L135.576515,111.496616 L122.948797,124.156548 L95.459885,99.1802951 C94.2572451,98.0850338 92.6895181,97.4837139 91.0466262,97.4837139 C89.7366077,97.4837139 87.6856772,98.2568395 86.6977944,99.115868 L57.9525536,124.564587 L43.6389914,110.229549 L43.6389914,34.0444599 L135.576515,34.0444599 L135.576515,34.0444599 Z M11.4361609,93.1670957 L49.8991615,131.683786 L11.4361609,165.733527 L11.4361609,93.1670957 L11.4361609,93.1670957 Z M32.9011353,63.6057778 L32.9011353,99.4594794 L13.89513,80.4319984 L32.9011353,63.6057778 L32.9011353,63.6057778 Z M20.2304651,172.28362 L91.0251504,109.638967 L159.951449,172.28362 L20.2304651,172.28362 L20.2304651,172.28362 Z" id="Shape" fill="#000000" sketch:type="MSShapeGroup"></path>
    </g>
</svg>