<?xml version="1.0" encoding="UTF-8" standalone="no"?>
<svg width="176px" height="179px" viewBox="0 0 176 179" version="1.1" xmlns="http://www.w3.org/2000/svg" xmlns:xlink="http://www.w3.org/1999/xlink" xmlns:sketch="http://www.bohemiancoding.com/sketch/ns">
    <!-- Generator: Sketch 3.3.3 (12072) - http://www.bohemiancoding.com/sketch -->
    <title>Shape</title>
    <desc>Created with Sketch.</desc>
    <defs></defs>
    <g id="Page-1" stroke="none" stroke-width="1" fill="none" fill-rule="evenodd" sketch:type="MSPage">
        <path d="M175.375411,89.5023567 L175.375411,89.5023567 L175.375411,89.5023567 C175.375411,89.2384075 175.243437,89.0310188 175.224583,88.7859231 C175.149169,87.7866867 175.017195,86.7874503 174.658978,85.8824815 C174.168786,84.7135635 173.471206,83.6766201 172.585091,82.8093583 L92.5330595,2.7573268 C88.8566237,-0.919108934 82.880059,-0.919108934 79.2036232,2.7573268 C75.5271875,6.43376254 75.5271875,12.4103273 79.2036232,16.086763 L143.173605,80.0755984 L9.4267583,80.0755984 C4.22318772,80.0755984 1.0658141e-12,84.2987861 1.0658141e-12,89.5023567 C1.0658141e-12,94.7059273 4.22318772,98.929115 9.4267583,98.929115 L143.211312,98.929115 L79.2036232,162.91795 C75.5271875,166.594386 75.5271875,172.570951 79.2036232,176.247387 C81.0512679,178.095031 83.464518,179 85.8777681,179 C88.2910182,179 90.7042684,178.076178 92.551913,176.247387 L172.641652,96.1765016 C172.773626,96.044527 172.811333,95.8559918 172.943308,95.7428707 C173.640888,94.9698765 174.263054,94.1214683 174.677831,93.1599389 C175.130316,91.9910209 175.375411,90.7655423 175.375411,89.5023567 L175.375411,89.5023567 Z" id="Shape" fill="#000000" sketch:type="MSShapeGroup"></path>
    </g>
</svg>