<?xml version="1.0" encoding="UTF-8" standalone="no"?>
<svg width="186px" height="155px" viewBox="0 0 186 155" version="1.1" xmlns="http://www.w3.org/2000/svg" xmlns:xlink="http://www.w3.org/1999/xlink" xmlns:sketch="http://www.bohemiancoding.com/sketch/ns">
    <!-- Generator: Sketch 3.3.3 (12072) - http://www.bohemiancoding.com/sketch -->
    <title>twitter</title>
    <desc>Created with Sketch.</desc>
    <defs></defs>
    <g id="Page-1" stroke="none" stroke-width="1" fill="none" fill-rule="evenodd" sketch:type="MSPage">
        <path d="M0.772850509,136.909138 C3.74473379,137.267353 6.76876726,137.450609 9.83479179,137.450609 C27.6322277,137.450609 44.0121268,131.249625 57.0131003,120.846881 C40.3900594,120.533616 26.3609823,109.319703 21.5272697,93.9095626 C23.8462598,94.3625172 26.2262046,94.6052456 28.6738769,94.6052456 C32.1388165,94.6052456 35.4947148,94.1315449 38.6826488,93.2449985 C21.3037689,89.6822161 8.21000875,74.0051434 8.21000875,55.2120191 C8.21000875,55.0488171 8.21000875,54.8863067 8.21271785,54.7244877 C13.3349497,57.6296215 19.192025,59.3743614 25.4195699,59.5755978 C15.2265791,52.6201502 8.51952348,40.7478968 8.51952348,27.2913394 C8.51952348,20.1830628 10.3928665,13.5201341 13.6627508,7.79146753 C32.3988901,31.2579776 60.3899941,46.6999288 91.9618517,48.3174265 C91.3143767,45.47868 90.977771,42.5182235 90.977771,39.4782407 C90.977771,18.0579793 107.986859,0.691489362 128.96681,0.691489362 C139.892613,0.691489362 149.765253,5.40221804 156.695132,12.9406287 C165.347999,11.2007295 173.47801,7.97264941 180.81764,3.52816127 C177.981212,12.5851803 171.958204,20.1865205 164.114681,24.9871486 C171.799044,24.0494287 179.120389,21.9644541 185.933099,18.8795215 C180.83999,26.6578944 174.399104,33.4895574 166.977523,38.9582072 C167.050668,40.6213461 167.087241,42.2941666 167.087241,43.9759769 C167.087241,95.2317753 128.878087,154.3351 59.0049665,154.3351 C37.5522766,154.3351 17.5841739,147.914208 0.772850509,136.909138 Z" id="twitter" fill="#000000" sketch:type="MSShapeGroup"></path>
    </g>
</svg>